<?xml version="1.0" standalone="no"?>
<!DOCTYPE svg PUBLIC "-//W3C//DTD SVG 1.1//EN" "http://www.w3.org/Graphics/SVG/1.1/DTD/svg11.dtd" >
<svg xmlns="http://www.w3.org/2000/svg" xmlns:xlink="http://www.w3.org/1999/xlink" version="1.1">
<metadata>
Created by FontForge 20161013 at Thu Mar  6 09:33:00 2008
 By ,,,
Copyright (c) 2007 Monotype Imaging Inc. Soho is designed by Sebastian Lester. All rights reserved.
</metadata>
<defs>
<font id="SohoGothicPro-ThinItalic" horiz-adv-x="197" >
  <font-face 
    font-family="Soho Gothic Pro Thin"
    font-weight="250"
    font-style="italic"
    font-stretch="normal"
    units-per-em="1000"
    panose-1="2 11 2 3 3 5 4 9 2 4"
    ascent="782"
    descent="-218"
    x-height="529"
    cap-height="743"
    bbox="-98 -292 1277 1162"
    underline-thickness="50"
    underline-position="-200"
    slope="-12"
    unicode-range="U+0020-FE6A"
  />
<missing-glyph horiz-adv-x="500" 
d="M12 0v665h475v-665h-475zM88 618l162 -243l161 243h-323zM60 575v-484l40 61l80 120l41 61zM440 575l-162 -242l162 -243v485zM411 48l-161 242l-162 -242h323z" />
    <glyph glyph-name="f_f" unicode="ff" horiz-adv-x="695" 
d="M808 770l-2 -15q-50 5 -80 5q-66 0 -93.5 -28.5t-41.5 -111.5l-16 -91h188l-3 -16h-188l-106 -604q-11 -65 -33.5 -93t-76.5 -28q-32 0 -60 4l2 14q32 -3 59 -3q44 0 63 23t30 83l106 604h-319l-106 -604q-11 -65 -33.5 -93t-76.5 -28q-32 0 -60 4l2 14q32 -3 59 -3
q44 0 63 23t30 83l106 604h-114l3 16h114l16 91q16 88 47 122t106 34q42 0 80 -6l-2 -15q-50 5 -80 5q-66 0 -93.5 -28.5t-41.5 -111.5l-16 -91h319l16 91q16 88 47 122t106 34q42 0 80 -6z" />
    <glyph glyph-name="f_i" unicode="fi" horiz-adv-x="572" 
d="M576 529l-94 -529h-17l91 513h-319l-106 -604q-11 -65 -33.5 -93t-76.5 -28q-32 0 -60 4l2 14q32 -3 59 -3q44 0 63 23t30 83l106 604h-114l3 16h114l16 91q16 88 47 122t106 34q42 0 80 -6l-2 -15q-50 5 -80 5q-66 0 -93.5 -28.5t-41.5 -111.5l-16 -91h336zM601 770h17
l-22 -127h-17z" />
    <glyph glyph-name="f_l" unicode="fl" horiz-adv-x="572" 
d="M618 770l-136 -770h-17l133 755q-80 5 -155 5q-100 0 -136 -28t-51 -112l-16 -91h188l-3 -16h-188l-106 -604q-11 -65 -33.5 -93t-76.5 -28q-32 0 -60 4l2 14q32 -3 59 -3q44 0 63 23t30 83l106 604h-114l3 16h114l16 91q11 61 28 92t58 47.5t117 16.5q84 0 157 -6h18z
" />
    <glyph glyph-name="f_f_i" unicode="ffi" horiz-adv-x="907" 
d="M912 529l-95 -529h-16l91 513h-319l-106 -604q-11 -65 -33.5 -93t-76.5 -28q-32 0 -60 4l2 14q32 -3 59 -3q44 0 63 23t30 83l106 604h-320l-106 -604q-11 -65 -33.5 -93t-76.5 -28q-32 0 -60 4l2 14q32 -3 59 -3q44 0 63 23t30 83l106 604h-114l3 16h114l16 91
q16 88 47 122t106 34q42 0 80 -6l-2 -15q-50 5 -80 5q-66 0 -93.5 -28.5t-41.5 -111.5l-16 -91h320l16 91q16 88 47 122t106 34q42 0 80 -6l-2 -15q-50 5 -80 5q-66 0 -93.5 -28.5t-41.5 -111.5l-16 -91h336zM937 770h17l-22 -127h-17z" />
    <glyph glyph-name="f_f_l" unicode="ffl" horiz-adv-x="910" 
d="M956 770l-136 -770h-17l133 755q-73 7 -159 7q-57 0 -89.5 -6t-52 -24.5t-27.5 -42t-16 -69.5l-16 -91h188l-3 -16h-188l-106 -604q-11 -65 -33.5 -93t-76.5 -28q-32 0 -60 4l2 14q32 -3 59 -3q44 0 63 23t30 83l106 604h-320l-106 -604q-11 -65 -33.5 -93t-76.5 -28
q-32 0 -60 4l2 14q32 -3 59 -3q44 0 63 23t30 83l106 604h-114l3 16h114l16 91q16 88 47 122t106 34q42 0 80 -6l-2 -15q-50 5 -80 5q-66 0 -93.5 -28.5t-41.5 -111.5l-16 -91h320l16 91q9 48 17.5 73.5t30 47t58 29.5t97.5 8q66 0 157 -8h20z" />
    <glyph glyph-name="f_b" unicode="fb" horiz-adv-x="901" 
d="M620 -12q-77 0 -156 8l134 758q-72 8 -196 8q-74 0 -102 -27t-44 -115l-16 -91h183l-3 -16h-183l-105 -604q-11 -65 -33.5 -93t-76.5 -28q-32 0 -60 4l2 14q32 -3 59 -3q44 0 63.5 23t29.5 83l105 604h-114l3 16h114l16 91q16 95 49.5 126.5t115.5 31.5q119 0 196 -8h15
l-45 -254q85 27 156 27q91 0 134 -38t43 -127q0 -42 -11 -106l-4 -22q-26 -148 -86.5 -205t-182.5 -57zM569 500l-87 -490q78 -7 141 -7q114 0 169.5 53.5t80.5 198.5l4 22q11 63 11 103q0 82 -39.5 114.5t-124.5 32.5q-74 0 -155 -27z" />
    <glyph glyph-name="f_f_b" unicode="ffb" horiz-adv-x="1236" 
d="M955 -12q-77 0 -156 8l134 759q-88 7 -196 7q-74 0 -102 -27t-44 -115l-16 -91h185l-3 -16h-185l-106 -604q-11 -65 -33.5 -93t-76.5 -28q-32 0 -60 4l2 14q32 -3 59 -3q44 0 63 23t30 83l106 604h-319l-106 -604q-11 -65 -33.5 -93t-76.5 -28q-32 0 -60 4l2 14
q32 -3 59 -3q44 0 63 23t30 83l106 604h-122l3 16h122l16 91q16 88 47 122t106 34q41 0 77 -6l-2 -15q-45 5 -77 5q-66 0 -93.5 -28.5t-41.5 -111.5l-16 -91h319l16 91q16 95 49.5 126.5t115.5 31.5q99 0 195 -8h16l-45 -254q85 27 156 27q91 0 134 -38t43 -127
q0 -42 -11 -106l-4 -22q-26 -148 -86.5 -205t-182.5 -57zM904 500l-87 -490q78 -7 141 -7q114 0 169.5 53.5t80.5 198.5l4 22q11 63 11 103q0 82 -39.5 114.5t-124.5 32.5q-74 0 -155 -27z" />
    <glyph glyph-name="f_h" unicode="fh" horiz-adv-x="930" 
d="M482 0h-17l133 755q-79 5 -166 5q-96 0 -128 -25.5t-48 -114.5l-16 -91h185l-3 -16h-185l-105 -604q-11 -65 -33.5 -93t-76.5 -28q-32 0 -60 4l2 14q32 -3 59 -3q44 0 63.5 23t29.5 83l105 604h-122l3 16h122l16 91q16 96 54 126t141 30q77 0 165 -6h18l-50 -286
q129 60 209 60q74 0 106.5 -33t32.5 -99q0 -28 -9 -84l-58 -328h-16l58 331q9 52 9 81q0 57 -27.5 86.5t-96.5 29.5q-87 0 -211 -61z" />
    <glyph glyph-name="f_f_h" unicode="ffh" horiz-adv-x="1265" 
d="M817 0h-17l133 755q-79 7 -166 7q-95 0 -127 -26t-48 -116l-16 -91h184l-3 -16h-184l-105 -604q-11 -65 -33.5 -93t-76.5 -28q-32 0 -60 4l2 14q32 -3 59 -3q44 0 63.5 23t29.5 83l104 604h-319l-105 -604q-11 -65 -33.5 -93t-76.5 -28q-32 0 -60 4l2 14q32 -3 59 -3
q44 0 63 23t30 83l105 604h-122l3 16h122l16 91q16 88 47 122t106 34q39 0 77 -6l-2 -15q-45 5 -77 5q-66 0 -93.5 -28.5t-41.5 -111.5l-16 -91h319l16 91q17 96 54.5 127t140.5 31q71 0 165 -8h18l-50 -286q129 60 209 60q74 0 106.5 -33t32.5 -99q0 -28 -9 -84l-58 -328
h-16l58 331q9 52 9 81q0 57 -27.5 86.5t-96.5 29.5q-87 0 -211 -61z" />
    <glyph glyph-name="f_j" unicode="fj" horiz-adv-x="574" 
d="M577 529l-109 -617q-11 -65 -35.5 -94.5t-79.5 -29.5q-25 0 -57 4l2 14q33 -3 58 -3q45 0 64.5 24.5t30.5 84.5l106 601h-319l-107 -604q-11 -65 -33.5 -93t-76.5 -28q-32 0 -60 4l2 14q32 -3 59 -3q44 0 63 23t30 83l107 604h-122l3 16h122l16 91q16 88 47 122t106 34
q39 0 77 -6l-2 -15q-45 5 -77 5q-66 0 -93.5 -28.5t-41.5 -111.5l-16 -91h336zM602 770h17l-22 -129h-17z" />
    <glyph glyph-name="f_f_j" unicode="ffj" horiz-adv-x="907" 
d="M910 529l-109 -617q-11 -65 -35.5 -94.5t-79.5 -29.5q-25 0 -57 4l2 14q33 -3 58 -3q45 0 64.5 24.5t30.5 84.5l106 601h-317l-108 -604q-11 -65 -33.5 -93t-76.5 -28q-32 0 -60 4l2 14q32 -3 59 -3q44 0 63 23t30 83l108 604h-320l-106 -604q-11 -65 -33.5 -93
t-76.5 -28q-32 0 -60 4l2 14q32 -3 59 -3q44 0 63 23t30 83l106 604h-114l3 16h114l16 91q16 88 47 122t106 34q42 0 80 -6l-2 -15q-50 5 -80 5q-66 0 -93.5 -28.5t-41.5 -111.5l-16 -91h320l16 91q16 88 47 122t106 34q39 0 77 -6l-2 -15q-45 5 -77 5q-66 0 -93.5 -28.5
t-41.5 -111.5l-16 -91h334zM935 770h17l-22 -129h-17z" />
    <glyph glyph-name="f_k" unicode="fk" horiz-adv-x="796" 
d="M483 0h-18l133 754q-98 8 -166 8q-95 0 -127.5 -26.5t-48.5 -115.5l-16 -91h185l-3 -16h-185l-106 -604q-11 -65 -33.5 -93t-76.5 -28q-32 0 -60 4l2 14q32 -3 59 -3q44 0 63 23t30 83l106 604h-122l3 16h122l16 91q17 96 54.5 127t140.5 31q66 0 164 -8h19l-86 -488
l322 247h28l-327 -251l231 -278h-23l-231 278z" />
    <glyph glyph-name="f_f_k" unicode="ffk" horiz-adv-x="1132" 
d="M819 0h-18l133 754q-93 8 -166 8q-95 0 -127 -26t-48 -116l-16 -91h184l-3 -16h-184l-108 -604q-11 -65 -33.5 -93t-76.5 -28q-32 0 -60 4l2 14q32 -3 59 -3q44 0 63 23t30 83l107 604h-319l-108 -604q-11 -65 -33.5 -93t-76.5 -28q-32 0 -60 4l2 14q32 -3 59 -3
q44 0 63 23t30 83l108 604h-122l3 16h122l16 91q16 88 47 122t106 34q39 0 77 -6l-2 -15q-45 5 -77 5q-66 0 -93.5 -28.5t-41.5 -111.5l-16 -91h319l16 91q17 96 54.5 127t140.5 31q73 0 166 -8h17l-86 -488l322 247h28l-327 -251l231 -278h-23l-231 278z" />
    <glyph glyph-name=".notdef" horiz-adv-x="500" 
d="M12 0v665h475v-665h-475zM88 618l162 -243l161 243h-323zM60 575v-484l40 61l80 120l41 61zM440 575l-162 -242l162 -243v485zM411 48l-161 242l-162 -242h323z" />
    <glyph glyph-name=".null" horiz-adv-x="0" 
 />
    <glyph glyph-name="nonmarkingreturn" horiz-adv-x="333" 
 />
    <glyph glyph-name="space" unicode=" " horiz-adv-x="220" 
 />
    <glyph glyph-name="exclam" unicode="!" horiz-adv-x="191" 
d="M104 0h-17l19 111h17zM239 770l-102 -582h-17l102 582h17z" />
    <glyph glyph-name="quotedbl" unicode="&#x22;" horiz-adv-x="267" 
d="M111 519l74 240h18l-75 -240h-17zM380 759l-75 -240h-17l74 240h18z" />
    <glyph glyph-name="numbersign" unicode="#" horiz-adv-x="705" 
d="M680 221h-173l-62 -221h-17l62 221h-231l-62 -221h-18l62 221h-121l3 17h124l76 263h-153l3 17h154l65 225h18l-65 -225h231l65 225h17l-65 -225h140l-3 -17h-141l-76 -263h170zM572 501h-232l-76 -263h231z" />
    <glyph glyph-name="dollar" unicode="$" horiz-adv-x="537" 
d="M243 -117l18 105q-115 0 -191 13l2 15q90 -12 191 -12q105 0 174.5 48.5t69.5 146.5q0 25 -7.5 46t-16.5 35t-34 33t-42.5 29.5t-58.5 34.5l-44 26q-78 44 -112.5 81t-34.5 97q0 59 35.5 98.5t86.5 55.5t117 19l18 101h17l-18 -101q95 0 186 -13l-2 -15q-96 13 -190 13
q-42 0 -80 -7.5t-74 -24t-57.5 -49t-21.5 -77.5q0 -29 9 -51.5t32.5 -43.5t41.5 -33t58 -36l43 -25q42 -25 59.5 -36t44 -31t36.5 -35.5t18.5 -38.5t8.5 -51q0 -98 -67.5 -152t-179.5 -60l-18 -105h-17z" />
    <glyph glyph-name="percent" unicode="%" horiz-adv-x="909" 
d="M459 630q0 -34 -7 -72l-11 -58q-20 -102 -64.5 -146t-115.5 -44q-120 0 -120 128q0 32 7 68l11 58q19 102 63 146t118 44q119 0 119 -124zM442 628q0 60 -26.5 85t-78.5 25q-62 0 -102.5 -40.5t-58.5 -136.5l-11 -59q-6 -30 -6 -43q0 -74 25 -103.5t80 -29.5
q127 0 160 176l11 59q7 36 7 67zM907 307q0 -34 -7 -72l-11 -58q-20 -102 -64.5 -146t-115.5 -44q-120 0 -120 128q0 32 7 68l11 58q19 102 63 146t118 44q119 0 119 -124zM890 305q0 60 -26.5 85t-78.5 25q-62 0 -102.5 -40.5t-58.5 -136.5l-11 -59q-7 -38 -6 -48
q0 -70 25.5 -99t79.5 -29q127 0 160 176l11 59q7 36 7 67zM839 743l-605 -743h-20l605 743h20z" />
    <glyph glyph-name="ampersand" unicode="&#x26;" horiz-adv-x="706" 
d="M735 422l-3 -15h-76q-38 -221 -122 -317l70 -86v-4h-15l-66 79q-88 -91 -238 -91q-98 0 -148 37.5t-50 120.5q0 86 48 140t140 96l-4 5q-48 58 -67.5 95t-19.5 92q0 92 62 136t170 44q116 0 196 -12l-2 -15q-101 12 -194 12q-216 0 -216 -165q0 -37 11.5 -68.5t26 -52
t45.5 -58.5l242 -295q36 40 61.5 101.5t35 102t20.5 103.5h-79l3 15h169zM515 89l-231 282q-85 -37 -133 -88.5t-48 -136.5q0 -76 45 -110t138 -34q145 0 229 87z" />
    <glyph glyph-name="quotesingle" unicode="'" horiz-adv-x="90" 
d="M203 759l-75 -240h-17l74 240h18z" />
    <glyph glyph-name="parenleft" unicode="(" horiz-adv-x="280" 
d="M206 -207h-17q-97 139 -97 336q0 170 69 333t196 281h19q-125 -119 -196 -280t-71 -336q0 -189 97 -334z" />
    <glyph glyph-name="parenright" unicode=")" horiz-adv-x="280" 
d="M168 743h17q97 -139 97 -334q0 -171 -69 -334.5t-196 -281.5h-19q125 119 196 280t71 336q0 189 -97 334z" />
    <glyph glyph-name="asterisk" unicode="*" horiz-adv-x="480" 
d="M529 631l-119 -38q-9 -4 -27.5 -9.5t-22.5 -6.5q5 -6 16 -20.5t16 -20.5l74 -101l-15 -11l-73 101q-1 2 -13.5 18.5t-17.5 25.5q-3 -5 -13 -21t-16 -23l-74 -101l-14 10l73 101q18 26 30 42q-11 2 -49 15l-118 39l5 16l118 -37q3 -1 50 -18q0 7 -0.5 24.5t-0.5 25.5v128
h18v-128q0 -35 -1 -50q24 8 49 18l119 38z" />
    <glyph glyph-name="plus" unicode="+" horiz-adv-x="683" 
d="M671 385h-240v-241h-17v241h-242v17h242v241h17v-241h240v-17z" />
    <glyph glyph-name="comma" unicode="," horiz-adv-x="174" 
d="M143 132l-99 -214h-17l98 214h18z" />
    <glyph glyph-name="hyphen" unicode="-" horiz-adv-x="392" 
d="M365 277h-240l3 17h240z" />
    <glyph glyph-name="period" unicode="." horiz-adv-x="136" 
d="M76 0h-16l23 132h16z" />
    <glyph glyph-name="slash" unicode="/" horiz-adv-x="392" 
d="M476 743l-420 -743h-17l420 743h17z" />
    <glyph glyph-name="zero" unicode="0" horiz-adv-x="606" 
d="M623 533q0 -57 -24 -193q-33 -188 -109 -270t-190 -82q-188 0 -188 218q0 60 24 196q34 188 109.5 270t189.5 82q188 0 188 -221zM606 533q0 205 -173 205q-104 0 -176 -77t-104 -259q-24 -134 -24 -197q0 -202 174 -202q220 0 279 337q24 134 24 193z" />
    <glyph glyph-name="one" unicode="1" horiz-adv-x="375" 
d="M331 0h-279l2 15h131l126 713l-141 -51l3 18l141 51h17l-129 -731h131z" />
    <glyph glyph-name="two" unicode="2" horiz-adv-x="572" 
d="M502 16l-3 -16h-429l5 29q11 61 26 104t34.5 75.5t55.5 61t73.5 50.5t103.5 56q35 18 48 25t44 25t44.5 29t35.5 31.5t31 38.5t17 43t8 53q0 62 -49.5 89.5t-154.5 27.5q-98 0 -188 -18l3 17q99 17 187 17q112 0 165.5 -32.5t53.5 -100.5q0 -38 -13.5 -71.5t-33 -57.5
t-54 -49t-63 -41t-74.5 -39q-80 -40 -122.5 -66.5t-78 -64.5t-52.5 -83.5t-30 -119.5l-3 -13h413z" />
    <glyph glyph-name="three" unicode="3" horiz-adv-x="557" 
d="M596 617q0 -21 -8 -64q-12 -67 -45.5 -109t-104.5 -55q96 -19 96 -112q0 -26 -13 -95q-19 -97 -81 -145.5t-195 -48.5q-113 0 -180 10l3 15q92 -10 177 -10q129 0 186 46t75 138q12 60 12 90q0 105 -137 105h-228l3 16h228q51 0 87 13.5t56 38.5t29.5 49t15.5 58
q7 37 7 60q0 62 -46 91.5t-155 29.5q-92 0 -184 -10l3 15q62 11 183 11q115 0 165.5 -34.5t50.5 -102.5z" />
    <glyph glyph-name="four" unicode="4" horiz-adv-x="609" 
d="M605 228h-131l-40 -228h-16l40 228h-377l3 16l460 502h21l-88 -502h131zM461 244l85 483l-442 -483h357z" />
    <glyph glyph-name="five" unicode="5" horiz-adv-x="572" 
d="M604 743l-3 -16h-342l-81 -301h137q117 0 175.5 -32.5t58.5 -114.5q0 -38 -8 -79q-21 -108 -83 -159t-198 -51q-118 0 -193 16l2 15q97 -15 194 -15q131 0 187.5 48t74.5 150q8 46 8 75q0 75 -55 103t-166 28h-156l90 333h358z" />
    <glyph glyph-name="six" unicode="6" horiz-adv-x="615" 
d="M652 737l-2 -15q-109 17 -194 17q-137 0 -200.5 -60.5t-87.5 -194.5l-13 -72q124 31 230 31q210 0 210 -154q0 -149 -77 -225t-208 -76q-202 0 -202 209q0 44 11 106l32 181q25 139 92.5 204.5t212.5 65.5q117 0 196 -17zM153 397l-18 -101q-11 -61 -11 -99
q0 -102 48 -147.5t140 -45.5q211 0 256 198q10 44 10 87q0 41 -14.5 69t-42 42.5t-60 20.5t-76.5 6q-119 0 -232 -30z" />
    <glyph glyph-name="seven" unicode="7" horiz-adv-x="535" 
d="M622 727l-465 -727h-18l465 727h-418l3 16h436z" />
    <glyph glyph-name="eight" unicode="8" horiz-adv-x="624" 
d="M659 613q0 -86 -37 -147t-115 -77q93 -19 93 -123q0 -24 -7 -66q-20 -114 -83.5 -163t-196.5 -49h-8q-110 0 -159.5 38t-49.5 118q0 101 39 165.5t117 79.5q-90 21 -90 124q0 29 6 59q17 97 78 139t194 42h7q112 0 162 -34.5t50 -105.5zM584 268q0 113 -125 113h-160
q-54 0 -93 -21.5t-58 -58t-27.5 -75t-8.5 -82.5q0 -75 46.5 -108t149.5 -33h8q122 0 182 46t79 156q7 41 7 63zM643 614q0 65 -47 94.5t-151 29.5h-7q-121 0 -180 -40t-75 -132q-6 -36 -6 -55q0 -114 125 -114h160q42 0 75 14.5t52.5 36t32 51.5t17 58t4.5 57z" />
    <glyph glyph-name="nine" unicode="9" horiz-adv-x="615" 
d="M92 4l3 15q102 -17 193 -17q137 0 200.5 60.5t87.5 194.5l13 72q-124 -31 -230 -31q-210 0 -210 154q0 149 77 225t208 76q202 0 202 -209q0 -44 -11 -106l-32 -181q-25 -139 -92.5 -204.5t-212.5 -65.5q-125 0 -196 17zM591 344l18 101q11 60 11 99q0 102 -48 147.5
t-140 45.5q-211 0 -256 -198q-10 -44 -10 -87q0 -41 14.5 -69t42 -42.5t60 -20.5t76.5 -6q119 0 232 30z" />
    <glyph glyph-name="colon" unicode=":" horiz-adv-x="135" 
d="M81 0h-17l23 132h17zM152 407h-17l24 132h17z" />
    <glyph glyph-name="semicolon" unicode=";" horiz-adv-x="172" 
d="M134 132l-99 -214h-18l98 214h19zM182 406h-16l24 133h16z" />
    <glyph glyph-name="less" unicode="&#x3c;" horiz-adv-x="683" 
d="M573 138h-26l-278 253l278 251h26l-277 -251z" />
    <glyph glyph-name="equal" unicode="=" horiz-adv-x="683" 
d="M645 285v-16h-447v16h447zM645 502h-447v16h447v-16z" />
    <glyph glyph-name="greater" unicode="&#x3e;" horiz-adv-x="683" 
d="M572 391l-278 -253h-24l277 253l-277 251h24z" />
    <glyph glyph-name="question" unicode="?" horiz-adv-x="414" 
d="M149 0h-17l19 111h17zM162 748l3 15q71 13 142 13q167 0 167 -128q0 -68 -34 -120.5t-103 -106.5q-86 -69 -112.5 -105t-36.5 -94l-6 -31h-17l6 31q10 62 39 100.5t117 109.5q67 54 99 101.5t32 114.5q0 61 -38 86.5t-115 25.5q-75 0 -143 -12z" />
    <glyph glyph-name="at" unicode="@" horiz-adv-x="800" 
d="M818 423q0 -163 -94 -260t-274 -97q-89 0 -129 31t-40 102q0 39 14 100q23 95 74.5 134.5t134.5 39.5q51 0 111 -13l-73 -372q126 22 193 110.5t67 223.5q0 97 -66.5 153.5t-203.5 56.5q-322 0 -391 -319q-18 -85 -18 -148q0 -134 77 -196t212 -62q72 0 146 12l-1 -15
q-73 -13 -150 -13q-141 0 -221 67.5t-80 206.5q0 69 19 153q77 330 409 330q145 0 214.5 -61t69.5 -164zM595 448q-48 10 -93 10q-76 0 -123 -36t-68 -126q-14 -58 -14 -97q0 -63 36.5 -90.5t118.5 -27.5q32 0 72 4z" />
    <glyph glyph-name="A" unicode="A" horiz-adv-x="602" 
d="M582 0h-18l-53 302h-313l-159 -302h-19l400 744h24zM508 318l-58 312q-3 17 -9.5 50.5t-9.5 50.5h-2q-8 -16 -53 -101l-169 -312h301z" />
    <glyph glyph-name="B" unicode="B" horiz-adv-x="595" 
d="M639 612q0 -193 -189 -221q130 -21 130 -136q0 -27 -8 -72q-18 -102 -90.5 -148.5t-215.5 -46.5q-75 0 -181 12l131 743q85 9 181 9q128 0 185 -33t57 -107zM564 255q0 128 -189 128h-207l-65 -369q88 -11 166 -11q134 0 202 44t85 142q8 47 8 66zM623 612q0 68 -54 96.5
t-175 28.5q-71 0 -165 -8l-58 -330h207q67 0 114 14.5t71.5 41t36 50.5t17.5 56q6 29 6 51z" />
    <glyph glyph-name="C" unicode="C" horiz-adv-x="561" 
d="M636 741l-3 -16q-78 13 -170 13q-136 0 -213.5 -85t-111.5 -275l-2 -11q-15 -81 -15 -141q0 -115 52.5 -168.5t162.5 -53.5q75 0 173 13l-3 -16q-69 -13 -176 -13q-114 0 -169.5 58.5t-55.5 179.5q0 59 16 145l2 11q36 196 117 284t225 88q123 0 171 -13z" />
    <glyph glyph-name="D" unicode="D" horiz-adv-x="629" 
d="M654 511q0 -61 -13 -132l-4 -22q-35 -197 -124 -283t-246 -86q-67 0 -182 12l131 744q126 9 186 9q128 0 190 -57.5t62 -184.5zM638 510q0 121 -59.5 174t-179.5 53q-78 0 -170 -8l-126 -715q102 -10 167 -10q145 0 231 82t120 274l4 22q13 69 13 128z" />
    <glyph glyph-name="E" unicode="E" horiz-adv-x="544" 
d="M620 743l-3 -16h-388l-58 -327h359l-3 -16h-359l-65 -369h388l-2 -15h-404l131 743h404z" />
    <glyph glyph-name="F" unicode="F" horiz-adv-x="534" 
d="M620 743l-3 -16h-388l-58 -327h359l-3 -16h-359l-67 -384h-16l131 743h404z" />
    <glyph glyph-name="G" unicode="G" horiz-adv-x="589" 
d="M654 742l-2 -16q-98 12 -179 12q-137 0 -220.5 -84t-115.5 -276l-7 -42q-7 -44 -7 -96q0 -123 58.5 -179.5t170.5 -56.5q88 0 158 9l64 365h16l-66 -378q-84 -12 -175 -12q-243 0 -243 251q0 50 9 101l7 43q32 200 120.5 285.5t232.5 85.5q97 0 179 -12z" />
    <glyph glyph-name="H" unicode="H" horiz-adv-x="671" 
d="M717 743l-131 -743h-16l69 393h-469l-69 -393h-16l131 743h16l-59 -334h469l59 334h16z" />
    <glyph glyph-name="I" unicode="I" 
d="M238 743l-131 -743h-17l131 743h17z" />
    <glyph glyph-name="J" unicode="J" 
d="M238 743l-140 -792q-7 -37 -14 -60.5t-22 -46t-40 -33.5t-62 -11q-22 0 -58 4l2 14q46 -2 59 -2q60 0 83 32t35 103l140 792h17z" />
    <glyph glyph-name="K" unicode="K" horiz-adv-x="535" 
d="M649 743l-457 -365l324 -378h-21l-323 376l-66 -376h-16l131 743h16l-64 -361l450 361h26z" />
    <glyph glyph-name="L" unicode="L" horiz-adv-x="508" 
d="M485 15l-2 -15h-398l131 743h16l-129 -728h382z" />
    <glyph glyph-name="M" unicode="M" horiz-adv-x="748" 
d="M794 743l-131 -743h-16l114 652q2 11 6.5 34.5t6.5 35.5h-1q-9 -12 -27.5 -34t-27.5 -34l-277 -342h-24l-157 342q-16 33 -31 68h-1q-2 -12 -6.5 -35.5t-6.5 -34.5l-114 -652h-16l131 743h22l160 -353q5 -11 15.5 -33t15.5 -33h2q9 11 26.5 33t26.5 33l286 353h24z" />
    <glyph glyph-name="N" unicode="N" horiz-adv-x="664" 
d="M710 743l-132 -746h-22l-300 667q-5 10 -13.5 29.5t-12.5 29.5h-1q-2 -12 -6.5 -36.5t-6.5 -36.5l-114 -650h-17l131 743h22l303 -676q4 -9 11.5 -26t11.5 -25h1q2 10 5.5 31t5.5 31l118 665h16z" />
    <glyph glyph-name="O" unicode="O" horiz-adv-x="648" 
d="M672 516q-2 -75 -14 -139l-4 -21q-35 -200 -118.5 -284t-213.5 -84q-216 0 -216 238q0 66 14 140l4 21q36 202 118.5 284.5t213.5 82.5q216 0 216 -238zM656 515q0 122 -53 172.5t-149 50.5q-122 0 -201 -79t-114 -277l-4 -21q-13 -66 -13 -134q0 -122 53 -172.5
t149 -50.5q120 0 200.5 80t114.5 277l4 21q11 56 13 133z" />
    <glyph glyph-name="P" unicode="P" horiz-adv-x="560" 
d="M611 604q0 -25 -8 -70q-36 -207 -296 -207q-75 0 -152 4l-58 -331h-17l131 745q106 9 176 9q123 0 173.5 -36t50.5 -114zM595 604q0 71 -48 102.5t-162 31.5q-69 0 -160 -8l-67 -384q79 -4 152 -4q126 0 193 48.5t85 147.5q7 37 7 66z" />
    <glyph glyph-name="Q" unicode="Q" horiz-adv-x="648" 
d="M672 516q-2 -75 -14 -139l-4 -21q-38 -198 -118.5 -282t-205.5 -86l-11 -64q-5 -32 -5 -52q0 -29 16.5 -42.5t59.5 -13.5h84l-2 -13q-63 -3 -85 -3q-51 0 -70.5 18t-19.5 54q0 20 5 52l11 64q-207 5 -207 238q0 66 14 140l4 21q36 202 118.5 284.5t213.5 82.5
q216 0 216 -238zM656 515q0 122 -53 172.5t-149 50.5q-122 0 -201 -79t-114 -277l-4 -21q-13 -66 -13 -134q0 -122 53 -172.5t149 -50.5q119 0 198.5 80t116.5 277l4 21q11 56 13 133z" />
    <glyph glyph-name="R" unicode="R" horiz-adv-x="591" 
d="M611 604q0 -108 -53 -179.5t-162 -90.5l150 -334h-17l-148 332q-38 -5 -74 -5q-75 0 -152 4l-58 -331h-17l131 745q106 9 176 9q123 0 173.5 -36t50.5 -114zM595 604q0 71 -48 102.5t-162 31.5q-69 0 -160 -8l-67 -384q79 -4 152 -4q126 0 193 48.5t85 147.5q7 37 7 66z
" />
    <glyph glyph-name="S" unicode="S" horiz-adv-x="546" 
d="M599 741l-2 -15q-96 13 -190 13q-43 0 -80 -7t-73.5 -23.5t-58 -50.5t-21.5 -82q0 -27 9.5 -48.5t31.5 -41.5t42 -33.5t58 -35.5l43 -25q96 -56 131.5 -92.5t35.5 -101.5q0 -210 -265 -210q-112 0 -190 13l2 15q90 -12 191 -12q244 0 244 194q0 60 -33 93t-126 87l-44 26
q-74 43 -110 79.5t-36 90.5q0 52 21.5 89t59 56t79 27t91.5 8q97 0 190 -13z" />
    <glyph glyph-name="T" unicode="T" horiz-adv-x="604" 
d="M705 743l-3 -16h-264l-128 -727h-17l128 727h-263l3 16h544z" />
    <glyph glyph-name="U" unicode="U" horiz-adv-x="650" 
d="M701 743l-73 -409q-32 -180 -100 -261.5t-205 -81.5q-106 0 -152.5 52t-46.5 157q0 58 16 144l71 399h16l-72 -404q-15 -81 -15 -141q0 -98 44 -144.5t142 -46.5q130 0 192.5 79.5t93.5 252.5l72 404h17z" />
    <glyph glyph-name="V" unicode="V" horiz-adv-x="624" 
d="M725 743l-401 -743h-24l-139 743h17l125 -674q7 -40 10 -55h1q11 23 30 56l362 673h19z" />
    <glyph glyph-name="W" unicode="W" horiz-adv-x="852" 
d="M938 743l-302 -743h-26l-68 556q-1 10 -4 28.5t-4 27.5h-2q-4 -9 -12.5 -27.5t-13.5 -28.5l-264 -556h-26l-40 743h17l35 -671q0 -9 1 -29t2 -29h1q4 9 13.5 29t13.5 29l262 555h30l66 -556q1 -9 3 -28t4 -29h1q4 10 11.5 29t11.5 28l272 672h18z" />
    <glyph glyph-name="X" unicode="X" horiz-adv-x="617" 
d="M708 743l-323 -368l196 -375h-19l-190 362l-317 -362h-22l331 378l-192 365h20l185 -353l310 353h21z" />
    <glyph glyph-name="Y" unicode="Y" horiz-adv-x="548" 
d="M639 743l-302 -432l-54 -311h-17l54 311l-149 432h19l125 -365q2 -8 7.5 -23.5t8.5 -23.5h1q6 8 16.5 23t15.5 23l255 366h20z" />
    <glyph glyph-name="Z" unicode="Z" horiz-adv-x="563" 
d="M647 743l-3 -16l-590 -712h481l-2 -15h-503l2 15l591 712h-445l3 16h466z" />
    <glyph glyph-name="bracketleft" unicode="[" horiz-adv-x="336" 
d="M256 -208h-190l168 951h190l-3 -16h-173l-162 -919h173z" />
    <glyph glyph-name="backslash" unicode="\" horiz-adv-x="404" 
d="M359 0h-19l-173 743h18z" />
    <glyph glyph-name="bracketright" unicode="]" horiz-adv-x="336" 
d="M196 -208h-190l3 16h173l162 919h-173l3 16h190z" />
    <glyph glyph-name="asciicircum" unicode="^" horiz-adv-x="683" 
d="M660 388h-22l-216 257l-216 -257h-22l226 268h24z" />
    <glyph glyph-name="underscore" unicode="_" horiz-adv-x="577" 
d="M555 -84h-584l3 16h584z" />
    <glyph glyph-name="grave" unicode="`" horiz-adv-x="380" 
d="M346 616h-20l-115 154h20z" />
    <glyph glyph-name="a" unicode="a" horiz-adv-x="520" 
d="M435 0h-16l6 38q-105 -50 -184 -50q-151 0 -151 176q0 47 10 97l3 16q27 145 87 205.5t176 60.5q80 0 162 -10zM428 54l82 466q-77 7 -147 7q-106 0 -162 -57t-82 -196l-3 -16q-9 -51 -9 -93q0 -82 33.5 -122t104.5 -40q74 0 183 51z" />
    <glyph glyph-name="b" unicode="b" horiz-adv-x="521" 
d="M524 378q0 -42 -11 -106l-4 -22q-27 -149 -87 -205.5t-182 -56.5q-77 0 -156 8l136 774h16l-45 -254q85 27 156 27q91 0 134 -38t43 -127zM508 380q0 82 -39.5 114.5t-124.5 32.5q-74 0 -155 -27l-87 -490q78 -7 141 -7q114 0 168.5 53.5t81.5 198.5l4 22q11 63 11 103z
" />
    <glyph glyph-name="c" unicode="c" horiz-adv-x="443" 
d="M491 531l-3 -16q-70 12 -130 12q-103 0 -158 -54t-81 -201l-2 -13q-12 -72 -12 -105q0 -88 37 -119.5t124 -31.5q42 0 134 12l-2 -14q-84 -13 -135 -13q-90 0 -132 35t-42 124q0 37 12 116l2 13q27 153 86.5 210t171.5 57q53 0 130 -12z" />
    <glyph glyph-name="d" unicode="d" horiz-adv-x="521" 
d="M572 770l-136 -770h-16l6 38q-102 -50 -183 -50q-79 0 -116 38.5t-37 122.5q0 49 12 115l2 12q26 146 88.5 206.5t182.5 60.5q66 0 139 -8l41 235h17zM511 520q-76 7 -139 7q-111 0 -169 -57t-83 -198l-2 -12q-12 -66 -12 -112q0 -78 34 -111t106 -33q76 0 183 51z" />
    <glyph glyph-name="e" unicode="e" horiz-adv-x="519" 
d="M528 369q0 -37 -11 -106h-399l-3 -15q-8 -43 -8 -84q0 -87 44 -123.5t135 -36.5q69 0 176 14l-3 -14q-96 -16 -176 -16q-98 0 -144.5 42t-46.5 132q0 48 9 93l6 32q24 129 81.5 192.5t169.5 63.5q170 0 170 -174zM512 369q0 80 -37.5 119t-118.5 39q-105 0 -159 -60
t-75 -181l-1 -7h382q9 57 9 90z" />
    <glyph glyph-name="f" unicode="f" horiz-adv-x="360" 
d="M473 770l-2 -15q-50 5 -80 5q-66 0 -93.5 -28.5t-41.5 -111.5l-16 -91h188l-3 -16h-188l-106 -604q-11 -65 -33.5 -93t-76.5 -28q-32 0 -60 4l2 14q32 -3 59 -3q44 0 63 23t30 83l106 604h-114l3 16h114l16 91q16 88 47 122t106 34q42 0 80 -6z" />
    <glyph glyph-name="g" unicode="g" horiz-adv-x="523" 
d="M531 529l-93 -528q-21 -122 -70.5 -167.5t-166.5 -45.5q-69 0 -166 10l3 15q104 -10 162 -10q109 0 155 40.5t67 157.5l4 25q-100 -38 -177 -38q-82 0 -121.5 38t-39.5 117q0 34 10 91l13 71q24 132 84.5 184.5t179.5 52.5q61 0 156 -13zM512 515q-83 11 -135 11
q-114 0 -170.5 -48.5t-79.5 -176.5l-13 -71q-9 -50 -9 -87q0 -73 35.5 -106.5t109.5 -33.5q72 0 179 39z" />
    <glyph glyph-name="h" unicode="h" horiz-adv-x="549" 
d="M535 412q0 -28 -9 -84l-58 -328h-16l58 331q9 52 9 81q0 57 -27.5 86.5t-96.5 29.5q-87 0 -211 -61l-83 -467h-17l136 770h17l-50 -286q129 60 209 60q74 0 106.5 -33t32.5 -99z" />
    <glyph glyph-name="i" unicode="i" 
d="M200 529l-93 -529h-17l93 529h17zM242 770l-22 -127h-17l22 127h17z" />
    <glyph glyph-name="j" unicode="j" 
d="M200 529l-109 -617q-11 -65 -34.5 -94.5t-75.5 -29.5q-33 0 -61 4l2 14q32 -3 59 -3q44 0 63 24t30 85l109 617h17zM242 770l-22 -129h-17l22 129h17z" />
    <glyph glyph-name="k" unicode="k" horiz-adv-x="416" 
d="M502 529l-327 -251l231 -278h-23l-231 278l-49 -278h-18l136 770h17l-86 -488l322 247h28z" />
    <glyph glyph-name="l" unicode="l" horiz-adv-x="187" 
d="M237 770l-135 -770h-17l135 770h17z" />
    <glyph glyph-name="m" unicode="m" horiz-adv-x="794" 
d="M784 431q0 -32 -8 -75l-63 -356h-16l63 359q7 46 7 71q0 49 -22 73t-77 24q-83 0 -191 -63q2 -20 2 -28q-1 -40 -9 -81l-62 -355h-17l63 359q8 48 8 77q0 46 -22 68.5t-78 22.5q-71 0 -178 -58l-83 -469h-17l94 529h17l-8 -44q103 58 178 58q91 0 109 -65q106 65 197 65
q62 0 87.5 -29t25.5 -83z" />
    <glyph glyph-name="n" unicode="n" horiz-adv-x="549" 
d="M535 412q0 -28 -9 -84l-58 -328h-16l58 331q8 48 8 79q0 64 -29.5 90.5t-97.5 26.5q-87 0 -207 -60l-82 -467h-17l93 529h17l-8 -45q120 59 207 59q74 0 107.5 -31.5t33.5 -99.5z" />
    <glyph glyph-name="o" unicode="o" horiz-adv-x="534" 
d="M532 370q0 -48 -10 -102l-2 -12q-25 -140 -85 -204t-172 -64q-89 0 -130 43t-41 131q0 39 10 102l2 12q25 139 85 203t172 64q89 0 130 -43t41 -130zM516 371q0 81 -38 118.5t-120 37.5q-103 0 -158.5 -60t-79.5 -195l-2 -12q-10 -54 -10 -100q0 -82 38 -119.5t120 -37.5
q102 0 158 60.5t80 196.5l2 12q10 53 10 99z" />
    <glyph glyph-name="p" unicode="p" horiz-adv-x="525" 
d="M528 394q0 -48 -16 -137q-26 -142 -90 -205.5t-183 -63.5q-56 0 -139 8l-36 -204h-16l130 737h16l-8 -42q117 56 197 56q77 0 111 -35.5t34 -113.5zM511 395q0 71 -30.5 101.5t-101.5 30.5q-83 0 -195 -56l-81 -459q74 -8 139 -8q110 0 170 59.5t84 196.5q15 83 15 135z
" />
    <glyph glyph-name="q" unicode="q" horiz-adv-x="521" 
d="M530 535l-131 -743h-17l39 221q-72 -25 -155 -25q-91 0 -133.5 39.5t-42.5 129.5q0 43 11 107l2 11q27 152 88 209.5t185 57.5q78 0 154 -7zM510 521q-61 5 -137 5q-115 0 -172 -54t-83 -201l-2 -11q-11 -63 -11 -103q0 -85 39 -119t125 -34q80 0 155 26z" />
    <glyph glyph-name="r" unicode="r" horiz-adv-x="332" 
d="M417 543l-3 -16q-123 0 -231 -57l-82 -470h-16l93 529h16l-8 -43q103 57 231 57z" />
    <glyph glyph-name="s" unicode="s" horiz-adv-x="451" 
d="M472 527l-3 -16q-70 16 -142 16q-187 0 -187 -126q0 -39 28.5 -63t93.5 -49l34 -13q68 -26 99 -56t31 -76q0 -75 -57 -115.5t-149 -40.5q-97 0 -162 18l3 15q76 -18 160 -18q81 0 134.5 34.5t53.5 106.5q0 41 -27.5 67t-94.5 51l-34 13q-66 25 -97.5 53t-31.5 73
q0 141 206 141q76 0 142 -15z" />
    <glyph glyph-name="t" unicode="t" horiz-adv-x="351" 
d="M422 529l-3 -16h-173l-68 -387q-7 -37 -7 -65q0 -33 16 -45.5t57 -12.5q39 0 86 6l-2 -14q-41 -7 -84 -7q-49 0 -69 17t-20 56q0 25 8 70l67 382h-130l3 16h130l26 151h16l-26 -151h173z" />
    <glyph glyph-name="u" unicode="u" horiz-adv-x="548" 
d="M556 529l-94 -529h-16l8 46q-116 -58 -208 -58q-73 0 -106 31.5t-33 99.5q0 37 9 87l57 323h16l-58 -329q-8 -43 -8 -72q0 -69 29 -97t97 -28q90 0 208 61l82 465h17z" />
    <glyph glyph-name="v" unicode="v" horiz-adv-x="455" 
d="M528 529l-288 -529h-25l-102 529h17l81 -426q4 -18 9 -47.5t8 -43.5h2q6 12 22 41.5t27 49.5l229 426h20z" />
    <glyph glyph-name="w" unicode="w" horiz-adv-x="767" 
d="M828 529l-230 -529h-21l-93 415q-2 11 -7 32.5t-8 32.5h-2q-7 -11 -19 -32.5t-18 -32.5l-239 -415h-22l-46 529h17l35 -426q1 -14 3.5 -42.5t3.5 -42.5h3q8 14 24.5 42.5t24.5 42.5l224 393h24l87 -393q3 -14 9.5 -42.5t9.5 -42.5h3q6 14 17.5 42t17.5 42l184 427h18z
" />
    <glyph glyph-name="x" unicode="x" horiz-adv-x="466" 
d="M529 529l-236 -258l151 -271h-20l-144 258l-238 -258h-22l252 273l-142 256h19l136 -244l221 244h23z" />
    <glyph glyph-name="y" unicode="y" horiz-adv-x="461" 
d="M528 529l-302 -560q-61 -113 -98.5 -147t-111.5 -34q-31 0 -70 3l2 16q48 -3 71 -3q65 0 99 30.5t91 137.5l16 30l-112 527h18l90 -425q11 -56 16 -76h4q16 31 40 75l229 426h18z" />
    <glyph glyph-name="z" unicode="z" horiz-adv-x="462" 
d="M504 529l-3 -15l-432 -499h345l-2 -15h-367l2 15l431 498h-331l3 16h354z" />
    <glyph glyph-name="braceleft" unicode="{" horiz-adv-x="379" 
d="M467 743l-3 -16h-36q-78 0 -106 -27t-38 -88l-31 -176q-11 -60 -35 -97.5t-78 -70.5q60 -47 60 -112q0 -20 -6 -56l-31 -177q-5 -28 -5 -45q0 -35 23.5 -52.5t84.5 -17.5h36l-3 -16h-36q-67 0 -94 22t-27 64q0 19 5 47l31 177q6 31 6 54q0 31 -13 54.5t-45 49.5l4 20
q54 34 75 66.5t32 91.5l31 176q12 66 45 97.5t118 31.5h36z" />
    <glyph glyph-name="bar" unicode="|" horiz-adv-x="214" 
d="M195 -208h-17v951h17v-951z" />
    <glyph glyph-name="braceright" unicode="}" horiz-adv-x="379" 
d="M331 657q0 -19 -5 -47l-31 -177q-6 -31 -6 -54q0 -31 13 -54.5t45 -49.5l-4 -20q-54 -35 -75.5 -67t-31.5 -91l-31 -176q-12 -66 -45 -97.5t-118 -31.5h-36l3 16h36q77 0 105 27t39 88l31 176q10 59 34.5 96.5t78.5 71.5q-60 47 -60 112q0 26 6 56l31 177q5 28 5 45
q0 35 -23.5 52.5t-84.5 17.5h-36l3 16h36q67 0 94 -22t27 -64z" />
    <glyph glyph-name="asciitilde" unicode="~" horiz-adv-x="683" 
d="M627 485q0 -74 -16 -108t-64 -34q-50 0 -110 66l-47 51q-29 30 -48.5 43t-42.5 13q-42 0 -54 -29.5t-12 -97.5v-36h-17v36q0 74 17 108.5t66 34.5q27 0 50 -14.5t54 -47.5l46 -49q57 -62 98 -62q40 0 51.5 29.5t11.5 96.5v36h17v-36z" />
    <glyph glyph-name="uni00A0" unicode="&#xa0;" horiz-adv-x="220" 
 />
    <glyph glyph-name="exclamdown" unicode="&#xa1;" horiz-adv-x="191" 
d="M67 -208h-17l97 550h17zM197 529l-20 -112h-17l20 112h17z" />
    <glyph glyph-name="cent" unicode="&#xa2;" horiz-adv-x="441" 
d="M491 531l-3 -16q-87 12 -130 12q-99 0 -155.5 -53.5t-77.5 -171.5l-13 -73q-8 -41 -8 -83q0 -77 39.5 -110t122.5 -33q42 0 134 12l-2 -14q-75 -11 -129 -13l-20 -113h-16l20 113q-85 2 -125.5 40t-40.5 118q0 39 9 87l13 73q22 120 80 177t162 60l21 119h16l-21 -119
q62 -2 124 -12z" />
    <glyph glyph-name="sterling" unicode="&#xa3;" horiz-adv-x="609" 
d="M670 736l-2 -15q-104 9 -162 9q-119 0 -168 -46t-71 -172l-20 -114h283l-3 -16h-283l-34 -193q-10 -59 -30 -97t-60 -76h423l-2 -16h-444l2 16q45 40 64.5 76.5t30.5 96.5l34 193h-91l3 16h91l20 114q23 131 76 182.5t182 51.5q76 0 161 -10z" />
    <glyph glyph-name="currency" unicode="&#xa4;" horiz-adv-x="618" 
d="M614 165l-11 -11l-76 76q-59 -54 -138 -54t-138 54l-77 -76l-11 11l76 77q-53 58 -53 137q0 80 54 137l-77 77l12 12l76 -77q57 53 137 53q81 0 138 -53l76 77l12 -12l-77 -76q54 -59 54 -138q0 -82 -53 -138zM575 379q0 74 -52.5 130t-133.5 56q-77 0 -131.5 -53
t-54.5 -133q0 -75 54 -131t132 -56q76 0 130 54t56 133z" />
    <glyph glyph-name="yen" unicode="&#xa5;" horiz-adv-x="652" 
d="M608 298h-226l-52 -298h-17l52 298h-227l3 17h225l-52 148h-147l3 17h138l-90 263h18l117 -341q4 -12 12.5 -35.5t12.5 -35.5h1q8 12 24 35.5t24 34.5l238 342h21l-184 -263h138l-3 -17h-147l-103 -148h224z" />
    <glyph glyph-name="brokenbar" unicode="&#xa6;" horiz-adv-x="214" 
d="M200 -208h-17v384h17v-384zM200 743v-384h-17v384h17z" />
    <glyph glyph-name="section" unicode="&#xa7;" horiz-adv-x="591" 
d="M55 -219l3 15q99 -12 177 -12q118 0 187 53.5t69 156.5q0 55 -33.5 86.5t-132.5 86.5l-45 25q-38 21 -57.5 34t-41.5 33t-31 43.5t-9 53.5q0 77 62 134q-25 36 -25 86q0 93 69 135.5t170 42.5q124 0 204 -13l-3 -16q-107 13 -204 13q-42 0 -78 -7.5t-69.5 -25
t-52.5 -50.5t-19 -80q0 -55 31.5 -88.5t110.5 -77.5l45 -25q40 -22 58.5 -33.5t44 -29.5t36 -33t18.5 -37t8 -48q0 -78 -54 -138q15 -29 15 -71q0 -107 -72 -166.5t-205 -59.5q-70 0 -176 13zM486 78q44 55 44 125q0 29 -9 51t-35 43.5t-45.5 33.5t-67.5 39l-47 26
q-86 47 -114 83q-55 -50 -55 -123q0 -28 9 -49.5t31.5 -40.5t40.5 -30t54 -31l42 -23q121 -66 152 -104z" />
    <glyph glyph-name="dieresis" unicode="&#xa8;" horiz-adv-x="410" 
d="M462 760l-22 -121h-17l22 121h17zM214 760h17l-22 -121h-17z" />
    <glyph glyph-name="copyright" unicode="&#xa9;" horiz-adv-x="820" 
d="M846 378q0 -170 -99.5 -266t-255.5 -96t-255 96t-99 266t99 266t255 96t255.5 -96t99.5 -266zM829 378q0 162 -93.5 254t-244.5 92q-150 0 -243.5 -92t-93.5 -254t93 -254t244 -92t244.5 92t93.5 254zM496 159q-176 0 -176 196v41q0 197 176 197q71 0 103 -8v-16
q-54 8 -103 8q-79 0 -119 -43.5t-40 -137.5v-41q0 -94 39.5 -137t119.5 -43q49 0 103 8v-16q-32 -8 -103 -8z" />
    <glyph glyph-name="ordfeminine" unicode="&#xaa;" horiz-adv-x="319" 
d="M375 695q0 -15 -7 -54l-35 -199h-15l5 24q-70 -32 -116 -32q-81 0 -81 73q0 69 40 93t122 24h63l3 19q6 36 6 50q0 31 -18 40.5t-70 9.5q-40 0 -82 -5l2 14q45 5 82 5q56 0 78.5 -14t22.5 -48zM348 609h-63q-35 0 -56.5 -3t-44 -12.5t-33 -31t-10.5 -55.5q0 -32 17 -45.5
t52 -13.5q54 0 115 34z" />
    <glyph glyph-name="guillemotleft" unicode="&#xab;" horiz-adv-x="487" 
d="M517 484l-189 -206l116 -207h-19l-117 209l188 204h21zM296 484h21l-189 -206l116 -207h-19l-117 209z" />
    <glyph glyph-name="logicalnot" unicode="&#xac;" horiz-adv-x="683" 
d="M645 269h-17v233h-430v16h447v-249z" />
    <glyph glyph-name="uni00AD" unicode="&#xad;" horiz-adv-x="392" 
d="M365 277h-240l3 17h240z" />
    <glyph glyph-name="registered" unicode="&#xae;" horiz-adv-x="657" 
d="M675 481q0 -122 -75.5 -201t-191.5 -79t-191 79t-75 201t75 201.5t191 79.5t191.5 -79.5t75.5 -201.5zM658 481q0 117 -68.5 191t-181.5 74t-181.5 -74t-68.5 -191q0 -116 68.5 -190t181.5 -74t181.5 74t68.5 190zM513 336h-16l-82 134h-39h-44v-134h-14v310q49 3 74 3
q110 0 110 -86v-4q0 -73 -72 -86zM487 559v4q0 73 -95 73q-22 0 -60 -2v-150h71q84 0 84 75z" />
    <glyph glyph-name="macron" unicode="&#xaf;" horiz-adv-x="439" 
d="M511 682h-343l3 16h343z" />
    <glyph glyph-name="degree" unicode="&#xb0;" horiz-adv-x="432" 
d="M473 581q0 -73 -50.5 -122t-123.5 -49t-123.5 49t-50.5 122q0 74 50.5 123.5t123.5 49.5t123.5 -49.5t50.5 -123.5zM456 581q0 68 -45.5 112.5t-111.5 44.5t-111.5 -44.5t-45.5 -112.5q0 -67 45.5 -111t111.5 -44t111.5 44t45.5 111z" />
    <glyph glyph-name="plusminus" unicode="&#xb1;" horiz-adv-x="683" 
d="M666 0h-489v16h489v-16zM671 385h-240v-241h-17v241h-242v17h242v241h17v-241h240v-17z" />
    <glyph glyph-name="two.superior" unicode="&#xb2;" horiz-adv-x="374" 
d="M188 751l3 15q55 10 115 10q67 0 100 -19.5t33 -63.5q0 -51 -37.5 -84.5t-108.5 -66.5q-93 -43 -122.5 -76t-42.5 -107l-1 -5h245l-2 -15h-261l3 20q14 79 46 114.5t128 80.5q31 14 48.5 23.5t41.5 27t35.5 39t11.5 48.5q0 39 -29 54t-91 15q-57 0 -115 -10z" />
    <glyph glyph-name="three.superior" unicode="&#xb3;" horiz-adv-x="368" 
d="M431 697q0 -16 -3 -31q-18 -87 -94 -103q60 -11 60 -72q0 -20 -5 -41q-13 -61 -51.5 -89.5t-121.5 -28.5q-67 0 -107 8l2 15q56 -8 105 -8q76 0 110.5 24t47.5 82q5 21 5 39q0 31 -19 47.5t-67 16.5h-133l2 15h133q60 0 85.5 27.5t32.5 72.5q2 12 2 25q0 36 -28.5 50.5
t-95.5 14.5q-45 0 -109 -8l2 15q64 8 111 8q71 0 103.5 -18t32.5 -61z" />
    <glyph glyph-name="acute" unicode="&#xb4;" horiz-adv-x="415" 
d="M465 770l-169 -154h-20l168 154h21z" />
    <glyph glyph-name="mu" unicode="&#xb5;" horiz-adv-x="591" 
d="M580 529l-93 -529h-16l8 46q-116 -58 -209 -58q-64 0 -96.5 21.5t-40.5 68.5l-50 -286h-16l130 737h16l-58 -329q-9 -46 -9 -82q0 -63 30.5 -89t96.5 -26q91 0 209 61l82 465h16z" />
    <glyph glyph-name="paragraph" unicode="&#xb6;" horiz-adv-x="664" 
d="M418 -208h-16l85 483h-79q-133 0 -205 39.5t-72 137.5q0 30 6 66q9 56 32 97t53.5 66t74.5 40t89.5 20t104.5 5h221l-168 -954h-16l165 938h-110zM490 291l77 439h-79q-70 0 -121.5 -8.5t-98.5 -31t-75.5 -66.5t-39.5 -109q-5 -35 -5 -63q0 -62 35.5 -99t90 -49.5
t137.5 -12.5h79z" />
    <glyph glyph-name="periodcentered" unicode="&#xb7;" horiz-adv-x="136" 
d="M130 301h-17l24 136h17z" />
    <glyph glyph-name="cedilla" unicode="&#xb8;" horiz-adv-x="390" 
d="M223 -68l-156 -140h-21l156 140h21z" />
    <glyph glyph-name="one.superior" unicode="&#xb9;" horiz-adv-x="300" 
d="M324 339h-238l3 14h109l71 401l-116 -38l3 15l115 38h16l-73 -416h113z" />
    <glyph glyph-name="ordmasculine" unicode="&#xba;" horiz-adv-x="318" 
d="M394 649q0 -20 -4 -44l-5 -26q-27 -147 -150 -147q-52 0 -77.5 28.5t-25.5 77.5q0 19 5 46l5 26q29 147 150 147q48 0 75 -28.5t27 -79.5zM379 649q0 41 -21 67.5t-68 26.5q-106 0 -132 -135l-5 -26q-4 -20 -4 -43q0 -93 88 -93q106 0 133 136l5 25q4 23 4 42z" />
    <glyph glyph-name="guillemotright" unicode="&#xbb;" horiz-adv-x="487" 
d="M481 275l-188 -204h-21l189 206l-116 207h19zM164 484l117 -209l-188 -204h-21l189 206l-116 207h19z" />
    <glyph glyph-name="onequarter" unicode="&#xbc;" horiz-adv-x="779" 
d="M791 743l-605 -743h-20l605 743h20zM324 317h-238l3 14h109l71 401l-116 -38l3 15l115 38h16l-73 -416h113zM655 0h-16l22 130h-225l3 15l272 285h19l-50 -285h76l-3 -15h-76zM664 145l47 266l-252 -266h205z" />
    <glyph glyph-name="onehalf" unicode="&#xbd;" horiz-adv-x="841" 
d="M791 743l-605 -743h-20l605 743h20zM324 317h-238l3 14h109l71 401l-116 -38l3 15l115 38h16l-73 -416h113zM603 412l3 15q55 10 115 10q67 0 100 -19.5t33 -63.5q0 -51 -37.5 -84.5t-108.5 -66.5q-93 -43 -122.5 -76t-42.5 -107l-1 -5h245l-2 -15h-261l3 20
q14 79 46 114.5t128 80.5q31 14 48.5 23.5t41.5 27t35.5 39t11.5 48.5q0 39 -29 54t-91 15q-57 0 -115 -10z" />
    <glyph glyph-name="threequarters" unicode="&#xbe;" horiz-adv-x="773" 
d="M791 743l-605 -743h-20l605 743h20zM655 0h-16l22 130h-225l3 15l272 285h19l-50 -285h76l-3 -15h-76zM664 145l47 266l-252 -266h205zM431 675q0 -16 -3 -31q-18 -87 -94 -103q60 -11 60 -72q0 -20 -5 -41q-13 -61 -51.5 -89.5t-121.5 -28.5q-67 0 -107 8l2 15
q56 -8 105 -8q76 0 110.5 24t47.5 82q5 21 5 39q0 31 -19 47.5t-67 16.5h-133l2 15h133q60 0 85.5 27.5t32.5 72.5q2 12 2 25q0 36 -28.5 50.5t-95.5 14.5q-45 0 -109 -8l2 15q64 8 111 8q71 0 103.5 -18t32.5 -61z" />
    <glyph glyph-name="questiondown" unicode="&#xbf;" horiz-adv-x="414" 
d="M365 529h17l-19 -111h-17zM352 -219l-3 -15q-71 -13 -142 -13q-167 0 -167 128q0 68 34 120.5t103 106.5q86 69 112.5 105t36.5 94l6 31h17l-6 -31q-10 -62 -39 -100.5t-117 -109.5q-67 -54 -99 -101.5t-32 -114.5q0 -61 38 -86.5t115 -25.5q75 0 143 12z" />
    <glyph glyph-name="Agrave" unicode="&#xc0;" horiz-adv-x="602" 
d="M582 0h-18l-53 302h-313l-159 -302h-19l400 744h24zM508 318l-58 312q-3 17 -9.5 50.5t-9.5 50.5h-2q-8 -16 -53 -101l-169 -312h301zM504 789h-20l-115 154h20z" />
    <glyph glyph-name="Aacute" unicode="&#xc1;" horiz-adv-x="602" 
d="M582 0h-18l-53 302h-313l-159 -302h-19l400 744h24zM508 318l-58 312q-3 17 -9.5 50.5t-9.5 50.5h-2q-8 -16 -53 -101l-169 -312h301zM606 943l-169 -154h-20l168 154h21z" />
    <glyph glyph-name="Acircumflex" unicode="&#xc2;" horiz-adv-x="602" 
d="M582 0h-18l-53 302h-313l-159 -302h-19l400 744h24zM508 318l-58 312q-3 17 -9.5 50.5t-9.5 50.5h-2q-8 -16 -53 -101l-169 -312h301zM613 789h-20l-105 139l-155 -139h-22l171 154h14z" />
    <glyph glyph-name="Atilde" unicode="&#xc3;" horiz-adv-x="602" 
d="M582 0h-18l-53 302h-313l-159 -302h-19l400 744h24zM508 318l-58 312q-3 17 -9.5 50.5t-9.5 50.5h-2q-8 -16 -53 -101l-169 -312h301zM642 911q-12 -64 -31.5 -93.5t-60.5 -29.5q-26 0 -43 11.5t-36 38.5l-33 49q-18 25 -32 35t-34 10q-19 0 -32.5 -8t-21.5 -25
t-12 -32.5t-9 -42.5l-6 -34h-16l6 34q11 63 30.5 93t61.5 30q25 0 41.5 -11t35.5 -38l34 -49q19 -27 32 -36.5t35 -9.5q25 0 41 17t21.5 35.5t12.5 55.5l6 33h16z" />
    <glyph glyph-name="Adieresis" unicode="&#xc4;" horiz-adv-x="602" 
d="M582 0h-18l-53 302h-313l-159 -302h-19l400 744h24zM508 318l-58 312q-3 17 -9.5 50.5t-9.5 50.5h-2q-8 -16 -53 -101l-169 -312h301zM592 926l-22 -121h-17l22 121h17zM344 926h17l-22 -121h-17z" />
    <glyph glyph-name="Aring" unicode="&#xc5;" horiz-adv-x="602" 
d="M582 0h-18l-53 302h-313l-159 -302h-19l400 744h24zM508 318l-58 312q-3 17 -9.5 50.5t-9.5 50.5h-2q-8 -16 -53 -101l-169 -312h301zM523 867q0 -52 -30.5 -79t-80.5 -27t-81 27.5t-31 78.5t31 78t81 27t80.5 -27t30.5 -78zM507 867q0 48 -27 69t-68 21q-42 0 -69 -21
t-27 -69q0 -49 27 -70t69 -21q41 0 68 21.5t27 69.5z" />
    <glyph glyph-name="AE" unicode="&#xc6;" horiz-adv-x="902" 
d="M976 727h-389l-58 -327h359l-3 -16h-359l-65 -369h389l-3 -15h-405l54 302h-295l-161 -302h-20l399 743h559zM499 318l72 409h-141q-5 -10 -53 -98l-167 -311h289z" />
    <glyph glyph-name="Ccedilla" unicode="&#xc7;" horiz-adv-x="561" 
d="M636 741l-3 -16q-78 13 -170 13q-136 0 -213.5 -85t-111.5 -275l-2 -11q-15 -81 -15 -141q0 -115 52.5 -168.5t162.5 -53.5q75 0 173 13l-3 -16q-69 -13 -176 -13q-114 0 -169.5 58.5t-55.5 179.5q0 59 16 145l2 11q36 196 117 284t225 88q123 0 171 -13zM334 -68
l-156 -140h-21l156 140h21z" />
    <glyph glyph-name="Egrave" unicode="&#xc8;" horiz-adv-x="544" 
d="M620 743l-3 -16h-388l-58 -327h359l-3 -16h-359l-65 -369h388l-2 -15h-404l131 743h404zM453 789h-20l-115 154h20z" />
    <glyph glyph-name="Eacute" unicode="&#xc9;" horiz-adv-x="544" 
d="M620 743l-3 -16h-388l-58 -327h359l-3 -16h-359l-65 -369h388l-2 -15h-404l131 743h404zM594 943l-169 -154h-20l168 154h21z" />
    <glyph glyph-name="Ecircumflex" unicode="&#xca;" horiz-adv-x="544" 
d="M620 743l-3 -16h-388l-58 -327h359l-3 -16h-359l-65 -369h388l-2 -15h-404l131 743h404zM581 789h-20l-105 139l-155 -139h-22l171 154h14z" />
    <glyph glyph-name="Edieresis" unicode="&#xcb;" horiz-adv-x="544" 
d="M620 743l-3 -16h-388l-58 -327h359l-3 -16h-359l-65 -369h388l-2 -15h-404l131 743h404zM568 926l-22 -121h-17l22 121h17zM320 926h17l-22 -121h-17z" />
    <glyph glyph-name="Igrave" unicode="&#xcc;" 
d="M238 743l-131 -743h-17l131 743h17zM289 789h-20l-115 154h20z" />
    <glyph glyph-name="Iacute" unicode="&#xcd;" 
d="M238 743l-131 -743h-17l131 743h17zM388 943l-169 -154h-20l168 154h21z" />
    <glyph glyph-name="Icircumflex" unicode="&#xce;" 
d="M238 743l-131 -743h-17l131 743h17zM386 789h-20l-105 139l-155 -139h-22l171 154h14z" />
    <glyph glyph-name="Idieresis" unicode="&#xcf;" 
d="M238 743l-131 -743h-17l131 743h17zM393 926l-22 -121h-17l22 121h17zM145 926h17l-22 -121h-17z" />
    <glyph glyph-name="Eth" unicode="&#xd0;" horiz-adv-x="629" 
d="M654 511q0 -61 -13 -132l-4 -22q-36 -198 -124.5 -283.5t-245.5 -85.5q-67 0 -182 12l67 382h-72l3 17h72l61 345q126 9 186 9q128 0 190 -57.5t62 -184.5zM638 510q0 121 -59.5 174t-179.5 53q-78 0 -170 -8l-58 -330h226l-3 -17h-226l-65 -368q102 -10 167 -10
q145 0 230.5 82t120.5 274l4 22q13 69 13 128z" />
    <glyph glyph-name="Ntilde" unicode="&#xd1;" horiz-adv-x="664" 
d="M710 743l-132 -746h-22l-300 667q-5 10 -13.5 29.5t-12.5 29.5h-1q-2 -12 -6.5 -36.5t-6.5 -36.5l-114 -650h-17l131 743h22l303 -676q4 -9 11.5 -26t11.5 -25h1q2 10 5.5 31t5.5 31l118 665h16zM662 909q-12 -64 -31.5 -93.5t-60.5 -29.5q-26 0 -43 11.5t-36 38.5
l-33 49q-18 25 -32 35t-34 10q-19 0 -32.5 -8t-21.5 -25t-12 -32.5t-9 -42.5l-6 -34h-16l6 34q11 63 30.5 93t61.5 30q25 0 41.5 -11t35.5 -38l34 -49q19 -27 32 -36.5t35 -9.5q25 0 41 17t21.5 35.5t12.5 55.5l6 33h16z" />
    <glyph glyph-name="Ograve" unicode="&#xd2;" horiz-adv-x="648" 
d="M672 516q-2 -75 -14 -139l-4 -21q-35 -200 -118.5 -284t-213.5 -84q-216 0 -216 238q0 66 14 140l4 21q36 202 118.5 284.5t213.5 82.5q216 0 216 -238zM656 515q0 122 -53 172.5t-149 50.5q-122 0 -201 -79t-114 -277l-4 -21q-13 -66 -13 -134q0 -122 53 -172.5
t149 -50.5q120 0 200.5 80t114.5 277l4 21q11 56 13 133zM503 789h-20l-115 154h20z" />
    <glyph glyph-name="Oacute" unicode="&#xd3;" horiz-adv-x="648" 
d="M672 516q-2 -75 -14 -139l-4 -21q-35 -200 -118.5 -284t-213.5 -84q-216 0 -216 238q0 66 14 140l4 21q36 202 118.5 284.5t213.5 82.5q216 0 216 -238zM656 515q0 122 -53 172.5t-149 50.5q-122 0 -201 -79t-114 -277l-4 -21q-13 -66 -13 -134q0 -122 53 -172.5
t149 -50.5q120 0 200.5 80t114.5 277l4 21q11 56 13 133zM624 943l-169 -154h-20l168 154h21z" />
    <glyph glyph-name="Ocircumflex" unicode="&#xd4;" horiz-adv-x="648" 
d="M672 516q-2 -75 -14 -139l-4 -21q-35 -200 -118.5 -284t-213.5 -84q-216 0 -216 238q0 66 14 140l4 21q36 202 118.5 284.5t213.5 82.5q216 0 216 -238zM656 515q0 122 -53 172.5t-149 50.5q-122 0 -201 -79t-114 -277l-4 -21q-13 -66 -13 -134q0 -122 53 -172.5
t149 -50.5q120 0 200.5 80t114.5 277l4 21q11 56 13 133zM625 788h-20l-105 139l-155 -139h-22l171 154h14z" />
    <glyph glyph-name="Otilde" unicode="&#xd5;" horiz-adv-x="648" 
d="M672 516q-2 -75 -14 -139l-4 -21q-35 -200 -118.5 -284t-213.5 -84q-216 0 -216 238q0 66 14 140l4 21q36 202 118.5 284.5t213.5 82.5q216 0 216 -238zM656 515q0 122 -53 172.5t-149 50.5q-122 0 -201 -79t-114 -277l-4 -21q-13 -66 -13 -134q0 -122 53 -172.5
t149 -50.5q120 0 200.5 80t114.5 277l4 21q11 56 13 133zM679 910q-12 -64 -31.5 -93.5t-60.5 -29.5q-26 0 -43 11.5t-36 38.5l-33 49q-18 25 -32 35t-34 10q-19 0 -32.5 -8t-21.5 -25t-12 -32.5t-9 -42.5l-6 -34h-16l6 34q11 63 30.5 93t61.5 30q25 0 41.5 -11t35.5 -38
l34 -49q19 -27 32 -36.5t35 -9.5q25 0 41 17t21.5 35.5t12.5 55.5l6 33h16z" />
    <glyph glyph-name="Odieresis" unicode="&#xd6;" horiz-adv-x="648" 
d="M672 516q-2 -75 -14 -139l-4 -21q-35 -200 -118.5 -284t-213.5 -84q-216 0 -216 238q0 66 14 140l4 21q36 202 118.5 284.5t213.5 82.5q216 0 216 -238zM656 515q0 122 -53 172.5t-149 50.5q-122 0 -201 -79t-114 -277l-4 -21q-13 -66 -13 -134q0 -122 53 -172.5
t149 -50.5q120 0 200.5 80t114.5 277l4 21q11 56 13 133zM621 927l-22 -121h-17l22 121h17zM373 927h17l-22 -121h-17z" />
    <glyph glyph-name="multiply" unicode="&#xd7;" horiz-adv-x="683" 
d="M624 202l-12 -12l-191 191l-191 -192l-12 12l192 191l-193 192l12 12l192 -192l192 192l12 -12l-192 -192z" />
    <glyph glyph-name="Oslash" unicode="&#xd8;" horiz-adv-x="648" 
d="M654 356q-35 -200 -118.5 -284t-213.5 -84q-120 0 -172 71l-50 -59h-21l61 73q-34 57 -34 153q0 66 14 140l4 21q36 202 118.5 284.5t213.5 82.5q133 0 184 -90l67 79h21l-80 -94q24 -56 24 -133q0 -66 -14 -139zM122 227q0 -91 29 -141l478 564q-45 88 -175 88
q-122 0 -201 -79t-114 -277l-4 -21q-13 -66 -13 -134zM639 361l4 21q13 74 13 133q0 72 -20 120l-476 -564q48 -67 164 -67q120 0 200.5 80t114.5 277z" />
    <glyph glyph-name="Ugrave" unicode="&#xd9;" horiz-adv-x="650" 
d="M701 743l-73 -409q-32 -180 -100 -261.5t-205 -81.5q-106 0 -152.5 52t-46.5 157q0 58 16 144l71 399h16l-72 -404q-15 -81 -15 -141q0 -98 44 -144.5t142 -46.5q130 0 192.5 79.5t93.5 252.5l72 404h17zM495 789h-20l-115 154h20z" />
    <glyph glyph-name="Uacute" unicode="&#xda;" horiz-adv-x="650" 
d="M701 743l-73 -409q-32 -180 -100 -261.5t-205 -81.5q-106 0 -152.5 52t-46.5 157q0 58 16 144l71 399h16l-72 -404q-15 -81 -15 -141q0 -98 44 -144.5t142 -46.5q130 0 192.5 79.5t93.5 252.5l72 404h17zM633 944l-169 -154h-20l168 154h21z" />
    <glyph glyph-name="Ucircumflex" unicode="&#xdb;" horiz-adv-x="650" 
d="M701 743l-73 -409q-32 -180 -100 -261.5t-205 -81.5q-106 0 -152.5 52t-46.5 157q0 58 16 144l71 399h16l-72 -404q-15 -81 -15 -141q0 -98 44 -144.5t142 -46.5q130 0 192.5 79.5t93.5 252.5l72 404h17zM618 789h-20l-105 139l-155 -139h-22l171 154h14z" />
    <glyph glyph-name="Udieresis" unicode="&#xdc;" horiz-adv-x="650" 
d="M701 743l-73 -409q-32 -180 -100 -261.5t-205 -81.5q-106 0 -152.5 52t-46.5 157q0 58 16 144l71 399h16l-72 -404q-15 -81 -15 -141q0 -98 44 -144.5t142 -46.5q130 0 192.5 79.5t93.5 252.5l72 404h17zM610 926l-22 -121h-17l22 121h17zM362 926h17l-22 -121h-17z" />
    <glyph glyph-name="Yacute" unicode="&#xdd;" horiz-adv-x="548" 
d="M639 743l-302 -432l-54 -311h-17l54 311l-149 432h19l125 -365q2 -8 7.5 -23.5t8.5 -23.5h1q6 8 16.5 23t15.5 23l255 366h20zM577 943l-169 -154h-20l168 154h21z" />
    <glyph glyph-name="Thorn" unicode="&#xde;" horiz-adv-x="560" 
d="M584 450q0 -25 -8 -70q-36 -207 -296 -207q-75 0 -152 4l-31 -177h-17l131 743h17l-27 -151q83 8 159 8q122 0 173 -36t51 -114zM568 450q0 71 -48 102.5t-162 31.5q-69 0 -160 -8l-67 -384q79 -4 152 -4q126 0 193 48.5t85 147.5q7 37 7 66z" />
    <glyph glyph-name="germandbls" unicode="&#xdf;" horiz-adv-x="563" 
d="M254 5q25 -2 50 -2q109 0 174 70t65 181q0 70 -45.5 104.5t-143.5 34.5h-31l3 16h31q109 0 173.5 62t64.5 168q0 67 -38 100t-127 33q-106 0 -159 -55.5t-74 -174.5l-95 -542h-17l95 542q22 126 79.5 186t172.5 60q95 0 137 -37.5t42 -110.5q0 -91 -51.5 -157.5
t-144.5 -81.5q66 -4 105 -41.5t39 -105.5q0 -115 -68.5 -190.5t-189.5 -75.5q-29 0 -49 2z" />
    <glyph glyph-name="agrave" unicode="&#xe0;" horiz-adv-x="520" 
d="M435 0h-16l6 38q-105 -50 -184 -50q-151 0 -151 176q0 47 10 97l3 16q27 145 87 205.5t176 60.5q80 0 162 -10zM428 54l82 466q-77 7 -147 7q-106 0 -162 -57t-82 -196l-3 -16q-9 -51 -9 -93q0 -82 33.5 -122t104.5 -40q74 0 183 51zM399 616h-20l-115 154h20z" />
    <glyph glyph-name="aacute" unicode="&#xe1;" horiz-adv-x="520" 
d="M435 0h-16l6 38q-105 -50 -184 -50q-151 0 -151 176q0 47 10 97l3 16q27 145 87 205.5t176 60.5q80 0 162 -10zM428 54l82 466q-77 7 -147 7q-106 0 -162 -57t-82 -196l-3 -16q-9 -51 -9 -93q0 -82 33.5 -122t104.5 -40q74 0 183 51zM524 770l-169 -154h-20l168 154h21z
" />
    <glyph glyph-name="acircumflex" unicode="&#xe2;" horiz-adv-x="520" 
d="M435 0h-16l6 38q-105 -50 -184 -50q-151 0 -151 176q0 47 10 97l3 16q27 145 87 205.5t176 60.5q80 0 162 -10zM428 54l82 466q-77 7 -147 7q-106 0 -162 -57t-82 -196l-3 -16q-9 -51 -9 -93q0 -82 33.5 -122t104.5 -40q74 0 183 51zM514 616h-20l-105 139l-155 -139h-22
l171 154h14z" />
    <glyph glyph-name="atilde" unicode="&#xe3;" horiz-adv-x="520" 
d="M435 0h-16l6 38q-105 -50 -184 -50q-151 0 -151 176q0 47 10 97l3 16q27 145 87 205.5t176 60.5q80 0 162 -10zM428 54l82 466q-77 7 -147 7q-106 0 -162 -57t-82 -196l-3 -16q-9 -51 -9 -93q0 -82 33.5 -122t104.5 -40q74 0 183 51zM556 740q-12 -64 -31.5 -93.5
t-60.5 -29.5q-26 0 -43 11.5t-36 38.5l-33 49q-18 25 -32 35t-34 10q-19 0 -32.5 -8t-21.5 -25t-12 -32.5t-9 -42.5l-6 -34h-16l6 34q11 63 30.5 93t61.5 30q25 0 41.5 -11t35.5 -38l34 -49q19 -27 32 -36.5t35 -9.5q25 0 41 17t21.5 35.5t12.5 55.5l6 33h16z" />
    <glyph glyph-name="adieresis" unicode="&#xe4;" horiz-adv-x="520" 
d="M435 0h-16l6 38q-105 -50 -184 -50q-151 0 -151 176q0 47 10 97l3 16q27 145 87 205.5t176 60.5q80 0 162 -10zM428 54l82 466q-77 7 -147 7q-106 0 -162 -57t-82 -196l-3 -16q-9 -51 -9 -93q0 -82 33.5 -122t104.5 -40q74 0 183 51zM508 760l-22 -121h-17l22 121h17z
M260 760h17l-22 -121h-17z" />
    <glyph glyph-name="aring" unicode="&#xe5;" horiz-adv-x="520" 
d="M435 0h-16l6 38q-105 -50 -184 -50q-151 0 -151 176q0 47 10 97l3 16q27 145 87 205.5t176 60.5q80 0 162 -10zM428 54l82 466q-77 7 -147 7q-106 0 -162 -57t-82 -196l-3 -16q-9 -51 -9 -93q0 -82 33.5 -122t104.5 -40q74 0 183 51zM480 698q0 -52 -30.5 -79t-80.5 -27
t-81 27.5t-31 78.5t31 78t81 27t80.5 -27t30.5 -78zM464 698q0 48 -27 69t-68 21q-42 0 -69 -21t-27 -69q0 -49 27 -70t69 -21q41 0 68 21.5t27 69.5z" />
    <glyph glyph-name="ae" unicode="&#xe6;" horiz-adv-x="880" 
d="M889 368q0 -37 -12 -105h-405l-16 -89q-12 -69 -12 -84q0 -51 47.5 -68.5t146.5 -17.5q94 0 180 14l-3 -14q-96 -16 -177 -16q-97 0 -145.5 14.5t-63.5 62.5q-102 -77 -225 -77q-61 0 -94.5 29.5t-33.5 84.5q0 25 8 63q16 82 73 112t188 30h118l10 58q7 44 7 65
q0 55 -34 76t-120 21q-54 0 -144 -8l3 15q77 9 144 9q54 0 88 -8t51 -25.5t22.5 -38.5t5.5 -55q27 59 83.5 93t136.5 34q90 0 131.5 -47t41.5 -128zM872 368q0 159 -159 159q-101 0 -157.5 -55.5t-71.5 -141.5l-9 -51h389q8 56 8 89zM460 292h-114q-122 0 -176 -26.5
t-69 -102.5q-8 -39 -8 -61q0 -99 116 -99q107 0 214 77z" />
    <glyph glyph-name="ccedilla" unicode="&#xe7;" horiz-adv-x="443" 
d="M491 531l-3 -16q-70 12 -130 12q-103 0 -158 -54t-81 -201l-2 -13q-12 -72 -12 -105q0 -88 37 -119.5t124 -31.5q42 0 134 12l-2 -14q-84 -13 -135 -13q-90 0 -132 35t-42 124q0 37 12 116l2 13q27 153 86.5 210t171.5 57q53 0 130 -12zM257 -68l-156 -140h-21l156 140
h21z" />
    <glyph glyph-name="egrave" unicode="&#xe8;" horiz-adv-x="519" 
d="M528 369q0 -37 -11 -106h-399l-3 -15q-8 -43 -8 -84q0 -87 44 -123.5t135 -36.5q69 0 176 14l-3 -14q-96 -16 -176 -16q-98 0 -144.5 42t-46.5 132q0 48 9 93l6 32q24 129 81.5 192.5t169.5 63.5q170 0 170 -174zM512 369q0 80 -37.5 119t-118.5 39q-105 0 -159 -60
t-75 -181l-1 -7h382q9 57 9 90zM422 616h-20l-115 154h20z" />
    <glyph glyph-name="eacute" unicode="&#xe9;" horiz-adv-x="519" 
d="M528 369q0 -37 -11 -106h-399l-3 -15q-8 -43 -8 -84q0 -87 44 -123.5t135 -36.5q69 0 176 14l-3 -14q-96 -16 -176 -16q-98 0 -144.5 42t-46.5 132q0 48 9 93l6 32q24 129 81.5 192.5t169.5 63.5q170 0 170 -174zM512 369q0 80 -37.5 119t-118.5 39q-105 0 -159 -60
t-75 -181l-1 -7h382q9 57 9 90zM554 770l-169 -154h-20l168 154h21z" />
    <glyph glyph-name="ecircumflex" unicode="&#xea;" horiz-adv-x="519" 
d="M528 369q0 -37 -11 -106h-399l-3 -15q-8 -43 -8 -84q0 -87 44 -123.5t135 -36.5q69 0 176 14l-3 -14q-96 -16 -176 -16q-98 0 -144.5 42t-46.5 132q0 48 9 93l6 32q24 129 81.5 192.5t169.5 63.5q170 0 170 -174zM512 369q0 80 -37.5 119t-118.5 39q-105 0 -159 -60
t-75 -181l-1 -7h382q9 57 9 90zM532 616h-20l-105 139l-155 -139h-22l171 154h14z" />
    <glyph glyph-name="edieresis" unicode="&#xeb;" horiz-adv-x="519" 
d="M528 369q0 -37 -11 -106h-399l-3 -15q-8 -43 -8 -84q0 -87 44 -123.5t135 -36.5q69 0 176 14l-3 -14q-96 -16 -176 -16q-98 0 -144.5 42t-46.5 132q0 48 9 93l6 32q24 129 81.5 192.5t169.5 63.5q170 0 170 -174zM512 369q0 80 -37.5 119t-118.5 39q-105 0 -159 -60
t-75 -181l-1 -7h382q9 57 9 90zM523 760l-22 -121h-17l22 121h17zM275 760h17l-22 -121h-17z" />
    <glyph glyph-name="igrave" unicode="&#xec;" 
d="M257 616h-20l-115 154h20zM107 0h-17l93 529h17z" />
    <glyph glyph-name="iacute" unicode="&#xed;" 
d="M362 770l-169 -154h-20l168 154h21zM107 0h-17l93 529h17z" />
    <glyph glyph-name="icircumflex" unicode="&#xee;" 
d="M107 0h-17l93 529h17zM360 616h-20l-105 139l-155 -139h-22l171 154h14z" />
    <glyph glyph-name="idieresis" unicode="&#xef;" 
d="M362 760l-22 -121h-17l22 121h17zM114 760h17l-22 -121h-17zM107 0h-17l93 529h17z" />
    <glyph glyph-name="eth" unicode="&#xf0;" horiz-adv-x="534" 
d="M542 451q0 -73 -26 -222q-45 -243 -253 -243q-89 0 -131 46t-42 123q0 37 18 143q42 245 253 245q139 0 166 -112q-1 106 -26.5 173.5t-86.5 106.5l-160 -98l-6 11l153 95q-55 32 -148 37q-11 1 -34 1l2 14q23 0 34 -1q92 -5 162 -42l99 58l7 -11l-95 -55
q114 -77 114 -269zM517 372q0 78 -38.5 116.5t-120.5 38.5q-195 0 -235 -233q-17 -99 -17 -139q0 -73 39.5 -113.5t120.5 -40.5q194 0 234 234q17 100 17 137z" />
    <glyph glyph-name="ntilde" unicode="&#xf1;" horiz-adv-x="549" 
d="M535 412q0 -28 -9 -84l-58 -328h-16l58 331q8 48 8 79q0 64 -29.5 90.5t-97.5 26.5q-87 0 -207 -60l-82 -467h-17l93 529h17l-8 -45q120 59 207 59q74 0 107.5 -31.5t33.5 -99.5zM578 740q-12 -64 -31.5 -93.5t-60.5 -29.5q-26 0 -43 11.5t-36 38.5l-33 49q-18 25 -32 35
t-34 10q-19 0 -32.5 -8t-21.5 -25t-12 -32.5t-9 -42.5l-6 -34h-16l6 34q11 63 30.5 93t61.5 30q25 0 41.5 -11t35.5 -38l34 -49q19 -27 32 -36.5t35 -9.5q25 0 41 17t21.5 35.5t12.5 55.5l6 33h16z" />
    <glyph glyph-name="ograve" unicode="&#xf2;" horiz-adv-x="534" 
d="M532 370q0 -48 -10 -102l-2 -12q-25 -140 -85 -204t-172 -64q-89 0 -130 43t-41 131q0 39 10 102l2 12q25 139 85 203t172 64q89 0 130 -43t41 -130zM516 371q0 81 -38 118.5t-120 37.5q-103 0 -158.5 -60t-79.5 -195l-2 -12q-10 -54 -10 -100q0 -82 38 -119.5t120 -37.5
q102 0 158 60.5t80 196.5l2 12q10 53 10 99zM420 616h-20l-115 154h20z" />
    <glyph glyph-name="oacute" unicode="&#xf3;" horiz-adv-x="534" 
d="M532 370q0 -48 -10 -102l-2 -12q-25 -140 -85 -204t-172 -64q-89 0 -130 43t-41 131q0 39 10 102l2 12q25 139 85 203t172 64q89 0 130 -43t41 -130zM516 371q0 81 -38 118.5t-120 37.5q-103 0 -158.5 -60t-79.5 -195l-2 -12q-10 -54 -10 -100q0 -82 38 -119.5t120 -37.5
q102 0 158 60.5t80 196.5l2 12q10 53 10 99zM535 770l-169 -154h-20l168 154h21z" />
    <glyph glyph-name="ocircumflex" unicode="&#xf4;" horiz-adv-x="534" 
d="M532 370q0 -48 -10 -102l-2 -12q-25 -140 -85 -204t-172 -64q-89 0 -130 43t-41 131q0 39 10 102l2 12q25 139 85 203t172 64q89 0 130 -43t41 -130zM516 371q0 81 -38 118.5t-120 37.5q-103 0 -158.5 -60t-79.5 -195l-2 -12q-10 -54 -10 -100q0 -82 38 -119.5t120 -37.5
q102 0 158 60.5t80 196.5l2 12q10 53 10 99zM543 616h-20l-105 139l-155 -139h-22l171 154h14z" />
    <glyph glyph-name="otilde" unicode="&#xf5;" horiz-adv-x="534" 
d="M532 370q0 -48 -10 -102l-2 -12q-25 -140 -85 -204t-172 -64q-89 0 -130 43t-41 131q0 39 10 102l2 12q25 139 85 203t172 64q89 0 130 -43t41 -130zM516 371q0 81 -38 118.5t-120 37.5q-103 0 -158.5 -60t-79.5 -195l-2 -12q-10 -54 -10 -100q0 -82 38 -119.5t120 -37.5
q102 0 158 60.5t80 196.5l2 12q10 53 10 99zM581 740q-12 -64 -31.5 -93.5t-60.5 -29.5q-26 0 -43 11.5t-36 38.5l-33 49q-18 25 -32 35t-34 10q-19 0 -32.5 -8t-21.5 -25t-12 -32.5t-9 -42.5l-6 -34h-16l6 34q11 63 30.5 93t61.5 30q25 0 41.5 -11t35.5 -38l34 -49
q19 -27 32 -36.5t35 -9.5q25 0 41 17t21.5 35.5t12.5 55.5l6 33h16z" />
    <glyph glyph-name="odieresis" unicode="&#xf6;" horiz-adv-x="534" 
d="M532 370q0 -48 -10 -102l-2 -12q-25 -140 -85 -204t-172 -64q-89 0 -130 43t-41 131q0 39 10 102l2 12q25 139 85 203t172 64q89 0 130 -43t41 -130zM516 371q0 81 -38 118.5t-120 37.5q-103 0 -158.5 -60t-79.5 -195l-2 -12q-10 -54 -10 -100q0 -82 38 -119.5t120 -37.5
q102 0 158 60.5t80 196.5l2 12q10 53 10 99zM522 760l-22 -121h-17l22 121h17zM274 760h17l-22 -121h-17z" />
    <glyph glyph-name="divide" unicode="&#xf7;" horiz-adv-x="683" 
d="M429 93h-16v129h16v-129zM673 397v-17h-503v17h503zM429 533h-16v129h16v-129z" />
    <glyph glyph-name="oslash" unicode="&#xf8;" horiz-adv-x="534" 
d="M520 256q-25 -140 -85 -204t-172 -64q-101 0 -141 55l-63 -69h-21l76 82q-22 40 -22 106q0 39 10 102l2 12q25 139 85 203t172 64q104 0 144 -61l68 73h21l-81 -88q19 -38 19 -97q0 -48 -10 -102zM108 160q0 -58 17 -91l369 400q-35 58 -136 58q-103 0 -158.5 -60
t-79.5 -195l-2 -12q-10 -54 -10 -100zM504 260l2 12q10 53 10 99q0 50 -15 83l-368 -399q36 -52 133 -52q102 0 158 60.5t80 196.5z" />
    <glyph glyph-name="ugrave" unicode="&#xf9;" horiz-adv-x="548" 
d="M556 529l-94 -529h-16l8 46q-116 -58 -208 -58q-73 0 -106 31.5t-33 99.5q0 37 9 87l57 323h16l-58 -329q-8 -43 -8 -72q0 -69 29 -97t97 -28q90 0 208 61l82 465h17zM417 616h-20l-115 154h20z" />
    <glyph glyph-name="uacute" unicode="&#xfa;" horiz-adv-x="548" 
d="M556 529l-94 -529h-16l8 46q-116 -58 -208 -58q-73 0 -106 31.5t-33 99.5q0 37 9 87l57 323h16l-58 -329q-8 -43 -8 -72q0 -69 29 -97t97 -28q90 0 208 61l82 465h17zM558 770l-169 -154h-20l168 154h21z" />
    <glyph glyph-name="ucircumflex" unicode="&#xfb;" horiz-adv-x="548" 
d="M556 529l-94 -529h-16l8 46q-116 -58 -208 -58q-73 0 -106 31.5t-33 99.5q0 37 9 87l57 323h16l-58 -329q-8 -43 -8 -72q0 -69 29 -97t97 -28q90 0 208 61l82 465h17zM534 616h-20l-105 139l-155 -139h-22l171 154h14z" />
    <glyph glyph-name="udieresis" unicode="&#xfc;" horiz-adv-x="548" 
d="M556 529l-94 -529h-16l8 46q-116 -58 -208 -58q-73 0 -106 31.5t-33 99.5q0 37 9 87l57 323h16l-58 -329q-8 -43 -8 -72q0 -69 29 -97t97 -28q90 0 208 61l82 465h17zM532 760l-22 -121h-17l22 121h17zM284 760h17l-22 -121h-17z" />
    <glyph glyph-name="yacute" unicode="&#xfd;" horiz-adv-x="461" 
d="M528 529l-302 -560q-61 -113 -98.5 -147t-111.5 -34q-31 0 -70 3l2 16q48 -3 71 -3q65 0 99 30.5t91 137.5l16 30l-112 527h18l90 -425q11 -56 16 -76h4q16 31 40 75l229 426h18zM504 770l-169 -154h-20l168 154h21z" />
    <glyph glyph-name="thorn" unicode="&#xfe;" horiz-adv-x="525" 
d="M528 394q0 -48 -16 -137q-26 -142 -90 -205.5t-183 -63.5q-56 0 -139 8l-36 -204h-16l172 978h16l-50 -283q117 56 197 56q77 0 111 -35.5t34 -113.5zM511 395q0 71 -30.5 101.5t-101.5 30.5q-83 0 -195 -56l-81 -459q74 -8 139 -8q110 0 170 59.5t84 196.5q15 83 15 135
z" />
    <glyph glyph-name="ydieresis" unicode="&#xff;" horiz-adv-x="461" 
d="M528 529l-302 -560q-61 -113 -98.5 -147t-111.5 -34q-31 0 -70 3l2 16q48 -3 71 -3q65 0 99 30.5t91 137.5l16 30l-112 527h18l90 -425q11 -56 16 -76h4q16 31 40 75l229 426h18zM473 760l-22 -121h-17l22 121h17zM225 760h17l-22 -121h-17z" />
    <glyph glyph-name="Amacron" unicode="&#x100;" horiz-adv-x="602" 
d="M582 0h-18l-53 302h-313l-159 -302h-19l400 744h24zM508 318l-58 312q-3 17 -9.5 50.5t-9.5 50.5h-2q-8 -16 -53 -101l-169 -312h301zM643 851h-343l3 16h343z" />
    <glyph glyph-name="amacron" unicode="&#x101;" horiz-adv-x="520" 
d="M435 0h-16l6 38q-105 -50 -184 -50q-151 0 -151 176q0 47 10 97l3 16q27 145 87 205.5t176 60.5q80 0 162 -10zM428 54l82 466q-77 7 -147 7q-106 0 -162 -57t-82 -196l-3 -16q-9 -51 -9 -93q0 -82 33.5 -122t104.5 -40q74 0 183 51zM548 682h-343l3 16h343z" />
    <glyph glyph-name="Abreve" unicode="&#x102;" horiz-adv-x="602" 
d="M582 0h-18l-53 302h-313l-159 -302h-19l400 744h24zM508 318l-58 312q-3 17 -9.5 50.5t-9.5 50.5h-2q-8 -16 -53 -101l-169 -312h301zM629 947q-21 -77 -59 -118t-117 -41q-122 0 -122 122q0 15 2 37h15q-2 -24 -2 -37q0 -51 24 -79t85 -28q71 0 105.5 38t52.5 106h16z
" />
    <glyph glyph-name="abreve" unicode="&#x103;" horiz-adv-x="520" 
d="M435 0h-16l6 38q-105 -50 -184 -50q-151 0 -151 176q0 47 10 97l3 16q27 145 87 205.5t176 60.5q80 0 162 -10zM428 54l82 466q-77 7 -147 7q-106 0 -162 -57t-82 -196l-3 -16q-9 -51 -9 -93q0 -82 33.5 -122t104.5 -40q74 0 183 51zM549 774q-21 -77 -59 -118t-117 -41
q-122 0 -122 122q0 15 2 37h15q-2 -24 -2 -37q0 -51 24 -79t85 -28q71 0 105.5 38t52.5 106h16z" />
    <glyph glyph-name="Aogonek" unicode="&#x104;" horiz-adv-x="602" 
d="M582 0q-2 -1 -19 -7t-23.5 -8.5t-24.5 -9.5t-26.5 -11.5t-24.5 -13t-24.5 -15.5t-19.5 -17t-17 -20t-10 -22t-4 -25q0 -54 83 -54q40 0 85 9l-2 -14q-34 -9 -85 -9q-97 0 -97 68q0 97 189 157l-51 294h-313l-159 -302h-19l400 744h24zM508 318l-58 312l-19 101h-2
q-8 -16 -53 -101l-169 -312h301z" />
    <glyph glyph-name="aogonek" unicode="&#x105;" horiz-adv-x="520" 
d="M395 -208q-34 -9 -82 -9q-53 0 -76.5 17.5t-23.5 53.5q0 89 207 153l5 31q-105 -50 -184 -50q-151 0 -151 176q0 39 10 97l3 16q25 145 86.5 205.5t176.5 60.5q80 0 162 -10l-93 -533q-40 -13 -66 -22.5t-63.5 -28.5t-57 -43t-19.5 -52q0 -31 20.5 -43.5t66.5 -12.5
q41 0 81 8zM428 54l82 466q-77 7 -147 7q-106 0 -163 -57t-81 -196l-3 -16q-9 -51 -9 -93q0 -82 33.5 -122t104.5 -40q74 0 183 51z" />
    <glyph glyph-name="Cacute" unicode="&#x106;" horiz-adv-x="561" 
d="M636 741l-3 -16q-78 13 -170 13q-136 0 -213.5 -85t-111.5 -275l-2 -11q-15 -81 -15 -141q0 -115 52.5 -168.5t162.5 -53.5q75 0 173 13l-3 -16q-69 -13 -176 -13q-114 0 -169.5 58.5t-55.5 179.5q0 59 16 145l2 11q36 196 117 284t225 88q123 0 171 -13zM640 943
l-169 -154h-20l168 154h21z" />
    <glyph glyph-name="cacute" unicode="&#x107;" horiz-adv-x="443" 
d="M491 531l-3 -16q-70 12 -130 12q-103 0 -158 -54t-81 -201l-2 -13q-12 -72 -12 -105q0 -88 37 -119.5t124 -31.5q42 0 134 12l-2 -14q-84 -13 -135 -13q-90 0 -132 35t-42 124q0 37 12 116l2 13q27 153 86.5 210t171.5 57q53 0 130 -12zM535 770l-169 -154h-20l168 154
h21z" />
    <glyph glyph-name="Ccircumflex" unicode="&#x108;" horiz-adv-x="561" 
d="M636 741l-3 -16q-78 13 -170 13q-136 0 -213.5 -85t-111.5 -275l-2 -11q-15 -81 -15 -141q0 -115 52.5 -168.5t162.5 -53.5q75 0 173 13l-3 -16q-69 -13 -176 -13q-114 0 -169.5 58.5t-55.5 179.5q0 59 16 145l2 11q36 196 117 284t225 88q123 0 171 -13zM601 789h-20
l-105 139l-155 -139h-22l171 154h14z" />
    <glyph glyph-name="ccircumflex" unicode="&#x109;" horiz-adv-x="443" 
d="M491 531l-3 -16q-70 12 -130 12q-103 0 -158 -54t-81 -201l-2 -13q-12 -72 -12 -105q0 -88 37 -119.5t124 -31.5q42 0 134 12l-2 -14q-84 -13 -135 -13q-90 0 -132 35t-42 124q0 37 12 116l2 13q27 153 86.5 210t171.5 57q53 0 130 -12zM523 616h-20l-105 139l-155 -139
h-22l171 154h14z" />
    <glyph glyph-name="Cdotaccent" unicode="&#x10a;" horiz-adv-x="561" 
d="M636 741l-3 -16q-78 13 -170 13q-136 0 -213.5 -85t-111.5 -275l-2 -11q-15 -81 -15 -141q0 -115 52.5 -168.5t162.5 -53.5q75 0 173 13l-3 -16q-69 -13 -176 -13q-114 0 -169.5 58.5t-55.5 179.5q0 59 16 145l2 11q36 196 117 284t225 88q123 0 171 -13zM458 803h-16
l22 122h16z" />
    <glyph glyph-name="cdotaccent" unicode="&#x10b;" horiz-adv-x="443" 
d="M491 531l-3 -16q-70 12 -130 12q-103 0 -158 -54t-81 -201l-2 -13q-12 -72 -12 -105q0 -88 37 -119.5t124 -31.5q42 0 134 12l-2 -14q-84 -13 -135 -13q-90 0 -132 35t-42 124q0 37 12 116l2 13q27 153 86.5 210t171.5 57q53 0 130 -12zM380 645h-16l22 122h16z" />
    <glyph glyph-name="Ccaron" unicode="&#x10c;" horiz-adv-x="561" 
d="M636 741l-3 -16q-78 13 -170 13q-136 0 -213.5 -85t-111.5 -275l-2 -11q-15 -81 -15 -141q0 -115 52.5 -168.5t162.5 -53.5q75 0 173 13l-3 -16q-69 -13 -176 -13q-114 0 -169.5 58.5t-55.5 179.5q0 59 16 145l2 11q36 196 117 284t225 88q123 0 171 -13zM343 943h20
l106 -139l154 139h22l-171 -154h-14z" />
    <glyph glyph-name="ccaron" unicode="&#x10d;" horiz-adv-x="443" 
d="M491 531l-3 -16q-70 12 -130 12q-103 0 -158 -54t-81 -201l-2 -13q-12 -72 -12 -105q0 -88 37 -119.5t124 -31.5q42 0 134 12l-2 -14q-84 -13 -135 -13q-90 0 -132 35t-42 124q0 37 12 116l2 13q27 153 86.5 210t171.5 57q53 0 130 -12zM251 770h20l106 -139l154 139h22
l-171 -154h-14z" />
    <glyph glyph-name="Dcaron" unicode="&#x10e;" horiz-adv-x="629" 
d="M654 511q0 -61 -13 -132l-4 -22q-35 -197 -124 -283t-246 -86q-67 0 -182 12l131 744q126 9 186 9q128 0 190 -57.5t62 -184.5zM638 510q0 121 -59.5 174t-179.5 53q-78 0 -170 -8l-126 -715q102 -10 167 -10q145 0 231 82t120 274l4 22q13 69 13 128zM330 943h20
l106 -139l154 139h22l-171 -154h-14z" />
    <glyph glyph-name="dcaron" unicode="&#x10f;" horiz-adv-x="636" 
d="M572 770l-136 -770h-16l6 38q-102 -50 -183 -50q-79 0 -116 38.5t-37 122.5q0 49 12 115l2 12q26 146 88.5 206.5t182.5 60.5q66 0 139 -8l41 235h17zM511 520q-76 7 -139 7q-111 0 -169 -57t-83 -198l-2 -12q-12 -66 -12 -112q0 -78 34 -111t106 -33q76 0 183 51z
M751 770l-104 -229h-17l101 229h20z" />
    <glyph glyph-name="Dcroat" unicode="&#x110;" horiz-adv-x="629" 
d="M654 511q0 -61 -13 -132l-4 -22q-36 -198 -124.5 -283.5t-245.5 -85.5q-67 0 -182 12l67 382h-72l3 17h72l61 345q126 9 186 9q128 0 190 -57.5t62 -184.5zM638 510q0 121 -59.5 174t-179.5 53q-78 0 -170 -8l-58 -330h226l-3 -17h-226l-65 -368q102 -10 167 -10
q145 0 230.5 82t120.5 274l4 22q13 69 13 128z" />
    <glyph glyph-name="dcroat" unicode="&#x111;" horiz-adv-x="521" 
d="M555 770h17l-17 -93h89l-3 -17h-89l-116 -660h-16l6 38q-102 -50 -183 -50q-79 0 -116 38.5t-37 122.5q0 49 12 115l2 12q26 146 88.5 206.5t182.5 60.5q66 0 139 -8l22 125h-187l3 17h187zM429 55l82 465q-76 7 -139 7q-111 0 -169 -57t-83 -198l-2 -12
q-12 -66 -12 -112q0 -78 34 -111t106 -33q76 0 183 51z" />
    <glyph glyph-name="Emacron" unicode="&#x112;" horiz-adv-x="544" 
d="M620 743l-3 -16h-388l-58 -327h359l-3 -16h-359l-65 -369h388l-2 -15h-404l131 743h404zM613 851h-343l3 16h343z" />
    <glyph glyph-name="emacron" unicode="&#x113;" horiz-adv-x="519" 
d="M528 369q0 -37 -11 -106h-399l-3 -15q-8 -43 -8 -84q0 -87 44 -123.5t135 -36.5q69 0 176 14l-3 -14q-96 -16 -176 -16q-98 0 -144.5 42t-46.5 132q0 48 9 93l6 32q24 129 81.5 192.5t169.5 63.5q170 0 170 -174zM512 369q0 80 -37.5 119t-118.5 39q-105 0 -159 -60
t-75 -181l-1 -7h382q9 57 9 90zM569 682h-343l3 16h343z" />
    <glyph glyph-name="Ebreve" unicode="&#x114;" horiz-adv-x="544" 
d="M620 743l-3 -16h-388l-58 -327h359l-3 -16h-359l-65 -369h388l-2 -15h-404l131 743h404zM609 947q-21 -77 -59 -118t-117 -41q-122 0 -122 122q0 15 2 37h15q-2 -24 -2 -37q0 -51 24 -79t85 -28q71 0 105.5 38t52.5 106h16z" />
    <glyph glyph-name="ebreve" unicode="&#x115;" horiz-adv-x="519" 
d="M528 369q0 -37 -11 -106h-399l-3 -15q-8 -43 -8 -84q0 -87 44 -123.5t135 -36.5q69 0 176 14l-3 -14q-96 -16 -176 -16q-98 0 -144.5 42t-46.5 132q0 48 9 93l6 32q24 129 81.5 192.5t169.5 63.5q170 0 170 -174zM512 369q0 80 -37.5 119t-118.5 39q-105 0 -159 -60
t-75 -181l-1 -7h382q9 57 9 90zM558 773q-21 -77 -59 -118t-117 -41q-122 0 -122 122q0 15 2 37h15q-2 -24 -2 -37q0 -51 24 -79t85 -28q71 0 105.5 38t52.5 106h16z" />
    <glyph glyph-name="Edotaccent" unicode="&#x116;" horiz-adv-x="544" 
d="M620 743l-3 -16h-388l-58 -327h359l-3 -16h-359l-65 -369h388l-2 -15h-404l131 743h404zM429 803h-16l22 122h16z" />
    <glyph glyph-name="edotaccent" unicode="&#x117;" horiz-adv-x="519" 
d="M528 369q0 -37 -11 -106h-399l-3 -15q-8 -43 -8 -84q0 -87 44 -123.5t135 -36.5q69 0 176 14l-3 -14q-96 -16 -176 -16q-98 0 -144.5 42t-46.5 132q0 48 9 93l6 32q24 129 81.5 192.5t169.5 63.5q170 0 170 -174zM512 369q0 80 -37.5 119t-118.5 39q-105 0 -159 -60
t-75 -181l-1 -7h382q9 57 9 90zM383 645h-16l22 122h16z" />
    <glyph glyph-name="Eogonek" unicode="&#x118;" horiz-adv-x="544" 
d="M449 -208q-34 -9 -85 -9q-97 0 -97 68q0 93 180 149h-362l131 743h404l-3 -16h-388l-58 -327h359l-3 -16h-359l-65 -369h388l-2 -15q-34 -11 -55.5 -18.5t-53.5 -21.5t-50.5 -28.5t-32.5 -35.5t-14 -45q0 -53 84 -53q44 0 84 8z" />
    <glyph glyph-name="eogonek" unicode="&#x119;" horiz-adv-x="519" 
d="M517 263h-399l-3 -15q-8 -43 -8 -84q0 -87 44 -123.5t135 -36.5q69 0 176 14l-3 -14q-41 -13 -70.5 -24.5t-64.5 -30t-53.5 -43t-18.5 -52.5q0 -31 21 -43.5t66 -12.5q41 0 81 8l-2 -14q-34 -9 -82 -9q-53 0 -76.5 17.5t-23.5 53.5q0 86 153 141q-59 -7 -106 -7
q-98 0 -144.5 42t-46.5 132q0 40 9 93l6 32q23 128 81 192t170 64q170 0 170 -174q0 -37 -11 -106zM503 279q9 57 9 90q0 80 -37.5 119t-118.5 39q-105 0 -159 -60t-75 -181l-1 -7h382z" />
    <glyph glyph-name="Ecaron" unicode="&#x11a;" horiz-adv-x="544" 
d="M620 743l-3 -16h-388l-58 -327h359l-3 -16h-359l-65 -369h388l-2 -15h-404l131 743h404zM306 943h20l106 -139l154 139h22l-171 -154h-14z" />
    <glyph glyph-name="ecaron" unicode="&#x11b;" horiz-adv-x="519" 
d="M528 369q0 -37 -11 -106h-399l-3 -15q-8 -43 -8 -84q0 -87 44 -123.5t135 -36.5q69 0 176 14l-3 -14q-96 -16 -176 -16q-98 0 -144.5 42t-46.5 132q0 48 9 93l6 32q24 129 81.5 192.5t169.5 63.5q170 0 170 -174zM512 369q0 80 -37.5 119t-118.5 39q-105 0 -159 -60
t-75 -181l-1 -7h382q9 57 9 90zM265 770h20l106 -139l154 139h22l-171 -154h-14z" />
    <glyph glyph-name="Gcircumflex" unicode="&#x11c;" horiz-adv-x="589" 
d="M654 742l-2 -16q-98 12 -179 12q-137 0 -220.5 -84t-115.5 -276l-7 -42q-7 -44 -7 -96q0 -123 58.5 -179.5t170.5 -56.5q88 0 158 9l64 365h16l-66 -378q-84 -12 -175 -12q-243 0 -243 251q0 50 9 101l7 43q32 200 120.5 285.5t232.5 85.5q97 0 179 -12zM618 789h-20
l-105 139l-155 -139h-22l171 154h14z" />
    <glyph glyph-name="gcircumflex" unicode="&#x11d;" horiz-adv-x="523" 
d="M531 529l-93 -528q-21 -122 -70.5 -167.5t-166.5 -45.5q-69 0 -166 10l3 15q104 -10 162 -10q109 0 155 40.5t67 157.5l4 25q-100 -38 -177 -38q-82 0 -121.5 38t-39.5 117q0 34 10 91l13 71q24 132 84.5 184.5t179.5 52.5q61 0 156 -13zM512 515q-83 11 -135 11
q-114 0 -170.5 -48.5t-79.5 -176.5l-13 -71q-9 -50 -9 -87q0 -73 35.5 -106.5t109.5 -33.5q72 0 179 39zM519 616h-20l-105 139l-155 -139h-22l171 154h14z" />
    <glyph glyph-name="Gbreve" unicode="&#x11e;" horiz-adv-x="589" 
d="M654 742l-2 -16q-98 12 -179 12q-137 0 -220.5 -84t-115.5 -276l-7 -42q-7 -44 -7 -96q0 -123 58.5 -179.5t170.5 -56.5q88 0 158 9l64 365h16l-66 -378q-84 -12 -175 -12q-243 0 -243 251q0 50 9 101l7 43q32 200 120.5 285.5t232.5 85.5q97 0 179 -12zM644 946
q-21 -77 -59 -118t-117 -41q-122 0 -122 122q0 15 2 37h15q-2 -24 -2 -37q0 -51 24 -79t85 -28q71 0 105.5 38t52.5 106h16z" />
    <glyph glyph-name="gbreve" unicode="&#x11f;" horiz-adv-x="523" 
d="M531 529l-93 -528q-21 -122 -70.5 -167.5t-166.5 -45.5q-69 0 -166 10l3 15q104 -10 162 -10q109 0 155 40.5t67 157.5l4 25q-100 -38 -177 -38q-82 0 -121.5 38t-39.5 117q0 34 10 91l13 71q24 132 84.5 184.5t179.5 52.5q61 0 156 -13zM512 515q-83 11 -135 11
q-114 0 -170.5 -48.5t-79.5 -176.5l-13 -71q-9 -50 -9 -87q0 -73 35.5 -106.5t109.5 -33.5q72 0 179 39zM554 773q-21 -77 -59 -118t-117 -41q-122 0 -122 122q0 15 2 37h15q-2 -24 -2 -37q0 -51 24 -79t85 -28q71 0 105.5 38t52.5 106h16z" />
    <glyph glyph-name="Gdotaccent" unicode="&#x120;" horiz-adv-x="589" 
d="M654 742l-2 -16q-98 12 -179 12q-137 0 -220.5 -84t-115.5 -276l-7 -42q-7 -44 -7 -96q0 -123 58.5 -179.5t170.5 -56.5q88 0 158 9l64 365h16l-66 -378q-84 -12 -175 -12q-243 0 -243 251q0 50 9 101l7 43q32 200 120.5 285.5t232.5 85.5q97 0 179 -12zM469 803h-16
l22 122h16z" />
    <glyph glyph-name="gdotaccent" unicode="&#x121;" horiz-adv-x="523" 
d="M531 529l-93 -528q-21 -122 -70.5 -167.5t-166.5 -45.5q-69 0 -166 10l3 15q104 -10 162 -10q109 0 155 40.5t67 157.5l4 25q-100 -38 -177 -38q-82 0 -121.5 38t-39.5 117q0 34 10 91l13 71q24 132 84.5 184.5t179.5 52.5q61 0 156 -13zM512 515q-83 11 -135 11
q-114 0 -170.5 -48.5t-79.5 -176.5l-13 -71q-9 -50 -9 -87q0 -73 35.5 -106.5t109.5 -33.5q72 0 179 39zM389 645h-16l22 122h16z" />
    <glyph glyph-name="Gcommaaccent" unicode="&#x122;" horiz-adv-x="589" 
d="M654 742l-2 -16q-98 12 -179 12q-137 0 -220.5 -84t-115.5 -276l-7 -42q-7 -44 -7 -96q0 -123 58.5 -179.5t170.5 -56.5q88 0 158 9l64 365h16l-66 -378q-84 -12 -175 -12q-243 0 -243 251q0 50 9 101l7 43q32 200 120.5 285.5t232.5 85.5q97 0 179 -12zM358 -68
l-132 -140h-21l132 140h21z" />
    <glyph glyph-name="gcommaaccent" unicode="&#x123;" horiz-adv-x="523" 
d="M531 529l-93 -528q-21 -122 -70.5 -167.5t-166.5 -45.5q-69 0 -166 10l3 15q104 -10 162 -10q109 0 155 40.5t67 157.5l4 25q-100 -38 -177 -38q-82 0 -121.5 38t-39.5 117q0 34 10 91l13 71q24 132 84.5 184.5t179.5 52.5q61 0 156 -13zM512 515q-83 11 -135 11
q-114 0 -170.5 -48.5t-79.5 -176.5l-13 -71q-9 -50 -9 -87q0 -73 35.5 -106.5t109.5 -33.5q72 0 179 39zM365 616l132 140h21l-132 -140h-21z" />
    <glyph glyph-name="Hcircumflex" unicode="&#x124;" horiz-adv-x="671" 
d="M717 743l-131 -743h-16l69 393h-469l-69 -393h-16l131 743h16l-59 -334h469l59 334h16zM621 789h-20l-105 139l-155 -139h-22l171 154h14z" />
    <glyph glyph-name="hcircumflex" unicode="&#x125;" horiz-adv-x="549" 
d="M535 412q0 -28 -9 -84l-58 -328h-16l58 331q9 52 9 81q0 57 -27.5 86.5t-96.5 29.5q-87 0 -211 -61l-83 -467h-17l136 770h17l-50 -286q129 60 209 60q74 0 106.5 -33t32.5 -99zM580 789h-20l-105 139l-155 -139h-22l171 154h14z" />
    <glyph glyph-name="Hbar" unicode="&#x126;" horiz-adv-x="671" 
d="M586 0h-16l69 393h-469l-69 -393h-16l100 571h-99l3 16h99l28 156h16l-28 -156h469l28 156h16l-28 -156h101l-3 -16h-101zM173 409h469l28 162h-469z" />
    <glyph glyph-name="hbar" unicode="&#x127;" horiz-adv-x="549" 
d="M101 0h-17l117 661h-75l3 17h75l16 92h17l-16 -92h222l-3 -17h-222l-31 -177q129 60 209 60q74 0 106.5 -33t32.5 -99q0 -28 -9 -84l-58 -328h-16l58 331q9 52 9 81q0 57 -27.5 86.5t-96.5 29.5q-87 0 -211 -61z" />
    <glyph glyph-name="Itilde" unicode="&#x128;" 
d="M238 743l-131 -743h-17l131 743h17zM449 910q-12 -64 -31.5 -93.5t-60.5 -29.5q-26 0 -43 11.5t-36 38.5l-33 49q-18 25 -32 35t-34 10q-19 0 -32.5 -8t-21.5 -25t-12 -32.5t-9 -42.5l-6 -34h-16l6 34q11 63 30.5 93t61.5 30q25 0 41.5 -11t35.5 -38l34 -49
q19 -27 32 -36.5t35 -9.5q25 0 41 17t21.5 35.5t12.5 55.5l6 33h16z" />
    <glyph glyph-name="itilde" unicode="&#x129;" 
d="M410 740q-12 -64 -31.5 -93.5t-60.5 -29.5q-26 0 -43 11.5t-36 38.5l-33 49q-18 25 -32 35t-34 10q-19 0 -32.5 -8t-21.5 -25t-12 -32.5t-9 -42.5l-6 -34h-16l6 34q11 63 30.5 93t61.5 30q25 0 41.5 -11t35.5 -38l34 -49q19 -27 32 -36.5t35 -9.5q25 0 41 17t21.5 35.5
t12.5 55.5l6 33h16zM107 0h-17l93 529h17z" />
    <glyph glyph-name="Imacron" unicode="&#x12a;" 
d="M238 743l-131 -743h-17l131 743h17zM429 851h-343l3 16h343z" />
    <glyph glyph-name="imacron" unicode="&#x12b;" 
d="M388 682h-343l3 16h343zM107 0h-17l93 529h17z" />
    <glyph glyph-name="Ibreve" unicode="&#x12c;" 
d="M238 743l-131 -743h-17l131 743h17zM419 947q-21 -77 -59 -118t-117 -41q-122 0 -122 122q0 15 2 37h15q-2 -24 -2 -37q0 -51 24 -79t85 -28q71 0 105.5 38t52.5 106h16z" />
    <glyph glyph-name="ibreve" unicode="&#x12d;" 
d="M388 773q-21 -77 -59 -118t-117 -41q-122 0 -122 122q0 15 2 37h15q-2 -24 -2 -37q0 -51 24 -79t85 -28q71 0 105.5 38t52.5 106h16zM107 0h-17l93 529h17z" />
    <glyph glyph-name="Iogonek" unicode="&#x12e;" 
d="M107 0q-114 -66 -114 -139q0 -33 20 -48t64 -15t84 8l-2 -14q-34 -9 -85 -9q-97 0 -97 78q0 40 33 79t81 68l130 735h17z" />
    <glyph glyph-name="iogonek" unicode="&#x12f;" 
d="M107 0q-109 -65 -109 -136q0 -35 20.5 -50.5t65.5 -15.5q43 0 83 8l-2 -14q-34 -9 -82 -9q-101 0 -101 81q0 40 31 78t78 67l92 520h17zM220 643h-17l22 127h17z" />
    <glyph glyph-name="Idotaccent" unicode="&#x130;" 
d="M238 743l-131 -743h-17l131 743h17zM248 803h-16l22 122h16z" />
    <glyph glyph-name="dotlessi" unicode="&#x131;" 
d="M107 0h-17l93 529h17z" />
    <glyph glyph-name="IJ" unicode="&#x132;" horiz-adv-x="459" 
d="M238 743l-131 -743h-17l131 743h17zM500 743l-140 -792q-7 -37 -14 -60.5t-22 -46t-40 -33.5t-62 -11q-22 0 -58 4l2 14q46 -2 59 -2q60 0 83 32t35 103l140 792h17z" />
    <glyph glyph-name="ij" unicode="&#x133;" horiz-adv-x="393" 
d="M200 529l-93 -529h-17l93 529h17zM242 770l-22 -127h-17l22 127h17zM396 529l-109 -617q-11 -65 -34.5 -94.5t-75.5 -29.5q-33 0 -61 4l2 14q32 -3 59 -3q44 0 63 24t30 85l109 617h17zM438 770l-22 -129h-17l22 129h17z" />
    <glyph glyph-name="Jcircumflex" unicode="&#x134;" 
d="M238 743l-140 -792q-7 -37 -14 -60.5t-22 -46t-40 -33.5t-62 -11q-22 0 -58 4l2 14q46 -2 59 -2q60 0 83 32t35 103l140 792h17zM388 789h-20l-105 139l-155 -139h-22l171 154h14z" />
    <glyph glyph-name="jcircumflex" unicode="&#x135;" 
d="M91 -88q-11 -65 -34.5 -94.5t-75.5 -29.5q-33 0 -61 4l2 14q32 -3 59 -3q44 0 63 24t30 85l109 617h17zM360 616h-20l-105 139l-155 -139h-22l171 154h14z" />
    <glyph glyph-name="Kcommaaccent" unicode="&#x136;" horiz-adv-x="535" 
d="M649 743l-457 -365l324 -378h-21l-323 376l-66 -376h-16l131 743h16l-64 -361l450 361h26zM284 -68l-132 -140h-21l132 140h21z" />
    <glyph glyph-name="kcommaaccent" unicode="&#x137;" horiz-adv-x="416" 
d="M502 529l-327 -251l231 -278h-23l-231 278l-49 -278h-18l136 770h17l-86 -488l322 247h28zM237 -68l-132 -140h-21l132 140h21z" />
    <glyph glyph-name="kgreenlandic" unicode="&#x138;" horiz-adv-x="416" 
d="M178 529h17l-43 -247l322 247h28l-327 -251l231 -278h-23l-231 278l-49 -278h-18z" />
    <glyph glyph-name="Lacute" unicode="&#x139;" horiz-adv-x="508" 
d="M485 15l-2 -15h-398l131 743h16l-129 -728h382zM580 943l-169 -154h-20l168 154h21z" />
    <glyph glyph-name="lacute" unicode="&#x13a;" horiz-adv-x="187" 
d="M231 770l-135 -770h-17l135 770h17zM408 943l-169 -154h-20l168 154h21z" />
    <glyph glyph-name="Lcommaaccent" unicode="&#x13b;" horiz-adv-x="508" 
d="M485 15l-2 -15h-398l131 743h16l-129 -728h382zM291 -68l-132 -140h-21l132 140h21z" />
    <glyph glyph-name="lcommaaccent" unicode="&#x13c;" horiz-adv-x="187" 
d="M231 770l-135 -770h-17l135 770h17zM113 -68l-132 -140h-21l132 140h21z" />
    <glyph glyph-name="Lcaron" unicode="&#x13d;" horiz-adv-x="508" 
d="M485 15l-2 -15h-398l131 743h16l-129 -728h382zM521 769l-104 -229h-17l101 229h20z" />
    <glyph glyph-name="lcaron" unicode="&#x13e;" horiz-adv-x="302" 
d="M231 770l-135 -770h-17l135 770h17zM416 770l-104 -229h-17l101 229h20z" />
    <glyph glyph-name="Ldot" unicode="&#x13f;" horiz-adv-x="508" 
d="M485 15l-2 -15h-398l131 743h16l-129 -728h382zM357 349h-17l24 136h17z" />
    <glyph glyph-name="ldot" unicode="&#x140;" horiz-adv-x="286" 
d="M231 770l-135 -770h-17l135 770h17zM309 301h-17l24 136h17z" />
    <glyph glyph-name="Lslash" unicode="&#x141;" horiz-adv-x="508" 
d="M483 0h-398l56 318l-96 -81l3 22l97 82l71 402h16l-69 -387l164 139l-3 -22l-165 -139l-56 -319h382z" />
    <glyph glyph-name="lslash" unicode="&#x142;" horiz-adv-x="187" 
d="M219 770h18l-59 -338l103 86l-4 -23l-103 -86l-72 -409h-17l69 393l-106 -88l4 22l106 88z" />
    <glyph glyph-name="Nacute" unicode="&#x143;" horiz-adv-x="664" 
d="M710 743l-132 -746h-22l-300 667q-5 10 -13.5 29.5t-12.5 29.5h-1q-2 -12 -6.5 -36.5t-6.5 -36.5l-114 -650h-17l131 743h22l303 -676q4 -9 11.5 -26t11.5 -25h1q2 10 5.5 31t5.5 31l118 665h16zM640 943l-169 -154h-20l168 154h21z" />
    <glyph glyph-name="nacute" unicode="&#x144;" horiz-adv-x="549" 
d="M535 412q0 -28 -9 -84l-58 -328h-16l58 331q8 48 8 79q0 64 -29.5 90.5t-97.5 26.5q-87 0 -207 -60l-82 -467h-17l93 529h17l-8 -45q120 59 207 59q74 0 107.5 -31.5t33.5 -99.5zM560 770l-169 -154h-20l168 154h21z" />
    <glyph glyph-name="Ncommaaccent" unicode="&#x145;" horiz-adv-x="664" 
d="M710 743l-132 -746h-22l-300 667q-5 10 -13.5 29.5t-12.5 29.5h-1q-2 -12 -6.5 -36.5t-6.5 -36.5l-114 -650h-17l131 743h22l303 -676q4 -9 11.5 -26t11.5 -25h1q2 10 5.5 31t5.5 31l118 665h16zM332 -68l-132 -140h-21l132 140h21z" />
    <glyph glyph-name="ncommaaccent" unicode="&#x146;" horiz-adv-x="549" 
d="M535 412q0 -28 -9 -84l-58 -328h-16l58 331q8 48 8 79q0 64 -29.5 90.5t-97.5 26.5q-87 0 -207 -60l-82 -467h-17l93 529h17l-8 -45q120 59 207 59q74 0 107.5 -31.5t33.5 -99.5zM285 -68l-132 -140h-21l132 140h21z" />
    <glyph glyph-name="Ncaron" unicode="&#x147;" horiz-adv-x="664" 
d="M710 743l-132 -746h-22l-300 667q-5 10 -13.5 29.5t-12.5 29.5h-1q-2 -12 -6.5 -36.5t-6.5 -36.5l-114 -650h-17l131 743h22l303 -676q4 -9 11.5 -26t11.5 -25h1q2 10 5.5 31t5.5 31l118 665h16zM353 943h20l106 -139l154 139h22l-171 -154h-14z" />
    <glyph glyph-name="ncaron" unicode="&#x148;" horiz-adv-x="549" 
d="M535 412q0 -28 -9 -84l-58 -328h-16l58 331q8 48 8 79q0 64 -29.5 90.5t-97.5 26.5q-87 0 -207 -60l-82 -467h-17l93 529h17l-8 -45q120 59 207 59q74 0 107.5 -31.5t33.5 -99.5zM264 770h20l106 -139l154 139h22l-171 -154h-14z" />
    <glyph glyph-name="napostrophe" unicode="&#x149;" horiz-adv-x="549" 
d="M535 412q0 -28 -9 -84l-58 -328h-16l58 331q8 48 8 79q0 64 -29.5 90.5t-97.5 26.5q-87 0 -207 -60l-82 -467h-17l93 529h17l-8 -45q120 59 207 59q74 0 107.5 -31.5t33.5 -99.5zM177 770l-104 -229h-17l101 229h20z" />
    <glyph glyph-name="Eng" unicode="&#x14a;" horiz-adv-x="664" 
d="M710 743l-140 -792q-7 -37 -14 -60.5t-22 -46t-40 -33.5t-62 -11q-22 0 -58 4l2 14q46 -2 59 -2q61 0 84 32t35 103l8 46l-306 667q-5 10 -13.5 29.5t-12.5 29.5h-1q-2 -12 -6.5 -36.5t-6.5 -36.5l-114 -650h-17l131 743h22l305 -668q4 -9 11.5 -26t11.5 -25h1
q2 10 4.5 27t4.5 27l118 665h16z" />
    <glyph glyph-name="eng" unicode="&#x14b;" horiz-adv-x="549" 
d="M526 328l-74 -416q-12 -65 -34.5 -94.5t-74.5 -29.5q-33 0 -61 4l2 14q32 -3 59 -3q44 0 63 24t30 85l74 419q8 48 8 79q0 64 -29.5 90.5t-97.5 26.5q-87 0 -207 -60l-82 -467h-17l93 529h17l-8 -45q120 59 207 59q74 0 107.5 -31.5t33.5 -99.5q0 -28 -9 -84z" />
    <glyph glyph-name="Omacron" unicode="&#x14c;" horiz-adv-x="648" 
d="M672 516q-2 -75 -14 -139l-4 -21q-35 -200 -118.5 -284t-213.5 -84q-216 0 -216 238q0 66 14 140l4 21q36 202 118.5 284.5t213.5 82.5q216 0 216 -238zM656 515q0 122 -53 172.5t-149 50.5q-122 0 -201 -79t-114 -277l-4 -21q-13 -66 -13 -134q0 -122 53 -172.5
t149 -50.5q120 0 200.5 80t114.5 277l4 21q11 56 13 133zM653 851h-343l3 16h343z" />
    <glyph glyph-name="omacron" unicode="&#x14d;" horiz-adv-x="534" 
d="M532 370q0 -48 -10 -102l-2 -12q-25 -140 -85 -204t-172 -64q-89 0 -130 43t-41 131q0 39 10 102l2 12q25 139 85 203t172 64q89 0 130 -43t41 -130zM516 371q0 81 -38 118.5t-120 37.5q-103 0 -158.5 -60t-79.5 -195l-2 -12q-10 -54 -10 -100q0 -82 38 -119.5t120 -37.5
q102 0 158 60.5t80 196.5l2 12q10 53 10 99zM572 682h-343l3 16h343z" />
    <glyph glyph-name="Obreve" unicode="&#x14e;" horiz-adv-x="648" 
d="M672 516q-2 -75 -14 -139l-4 -21q-35 -200 -118.5 -284t-213.5 -84q-216 0 -216 238q0 66 14 140l4 21q36 202 118.5 284.5t213.5 82.5q216 0 216 -238zM656 515q0 122 -53 172.5t-149 50.5q-122 0 -201 -79t-114 -277l-4 -21q-13 -66 -13 -134q0 -122 53 -172.5
t149 -50.5q120 0 200.5 80t114.5 277l4 21q11 56 13 133zM653 946q-21 -77 -59 -118t-117 -41q-122 0 -122 122q0 15 2 37h15q-2 -24 -2 -37q0 -51 24 -79t85 -28q71 0 105.5 38t52.5 106h16z" />
    <glyph glyph-name="obreve" unicode="&#x14f;" horiz-adv-x="534" 
d="M532 370q0 -48 -10 -102l-2 -12q-25 -140 -85 -204t-172 -64q-89 0 -130 43t-41 131q0 39 10 102l2 12q25 139 85 203t172 64q89 0 130 -43t41 -130zM516 371q0 81 -38 118.5t-120 37.5q-103 0 -158.5 -60t-79.5 -195l-2 -12q-10 -54 -10 -100q0 -82 38 -119.5t120 -37.5
q102 0 158 60.5t80 196.5l2 12q10 53 10 99zM557 773q-21 -77 -59 -118t-117 -41q-122 0 -122 122q0 15 2 37h15q-2 -24 -2 -37q0 -51 24 -79t85 -28q71 0 105.5 38t52.5 106h16z" />
    <glyph glyph-name="Ohungarumlaut" unicode="&#x150;" horiz-adv-x="648" 
d="M672 516q-2 -75 -14 -139l-4 -21q-35 -200 -118.5 -284t-213.5 -84q-216 0 -216 238q0 66 14 140l4 21q36 202 118.5 284.5t213.5 82.5q216 0 216 -238zM656 515q0 122 -53 172.5t-149 50.5q-122 0 -201 -79t-114 -277l-4 -21q-13 -66 -13 -134q0 -122 53 -172.5
t149 -50.5q120 0 200.5 80t114.5 277l4 21q11 56 13 133zM711 945l-169 -154h-20l168 154h21zM510 945h21l-169 -154h-20z" />
    <glyph glyph-name="ohungarumlaut" unicode="&#x151;" horiz-adv-x="534" 
d="M532 370q0 -48 -10 -102l-2 -12q-25 -140 -85 -204t-172 -64q-89 0 -130 43t-41 131q0 39 10 102l2 12q25 139 85 203t172 64q89 0 130 -43t41 -130zM516 371q0 81 -38 118.5t-120 37.5q-103 0 -158.5 -60t-79.5 -195l-2 -12q-10 -54 -10 -100q0 -82 38 -119.5t120 -37.5
q102 0 158 60.5t80 196.5l2 12q10 53 10 99zM645 770l-169 -154h-20l168 154h21zM444 770h21l-169 -154h-20z" />
    <glyph glyph-name="OE" unicode="&#x152;" horiz-adv-x="950" 
d="M897 15l-2 -15h-376q-84 -14 -189 -14q-106 0 -166 58t-60 181q0 48 11 114l12 69q31 181 120 263.5t218 82.5q90 0 170 -11h391l-3 -16h-388l-58 -327h359l-3 -16h-359l-65 -369h388zM492 11l127 718q-70 10 -156 10q-119 0 -204 -78t-116 -256l-12 -69
q-11 -64 -11 -111q0 -224 213 -224q89 0 159 10z" />
    <glyph glyph-name="oe" unicode="&#x153;" horiz-adv-x="922" 
d="M931 369q0 -37 -11 -106h-399l-3 -19q-8 -51 -8 -80q0 -87 44 -123.5t135 -36.5q69 0 176 14l-3 -14q-96 -16 -176 -16q-98 0 -144 41.5t-47 129.5q-30 -88 -85.5 -129.5t-146.5 -41.5q-89 0 -130 43t-41 131q0 39 12 114q24 139 84 203t173 64q87 0 128 -42t43 -127
q29 84 83.5 126.5t145.5 42.5q170 0 170 -174zM915 369q0 80 -37.5 119t-118.5 39q-102 0 -155.5 -57t-77.5 -177l-2 -14h382q9 57 9 90zM516 371q0 81 -38 118.5t-120 37.5q-103 0 -158.5 -60t-79.5 -195q-12 -67 -12 -112q0 -82 38 -119.5t120 -37.5q100 0 157 57t79 184
l5 28q9 56 9 99z" />
    <glyph glyph-name="Racute" unicode="&#x154;" horiz-adv-x="591" 
d="M611 604q0 -108 -53 -179.5t-162 -90.5l150 -334h-17l-148 332q-38 -5 -74 -5q-75 0 -152 4l-58 -331h-17l131 745q106 9 176 9q123 0 173.5 -36t50.5 -114zM595 604q0 71 -48 102.5t-162 31.5q-69 0 -160 -8l-67 -384q79 -4 152 -4q126 0 193 48.5t85 147.5q7 37 7 66z
M582 943l-169 -154h-20l168 154h21z" />
    <glyph glyph-name="racute" unicode="&#x155;" horiz-adv-x="332" 
d="M417 543l-3 -16q-123 0 -231 -57l-82 -470h-16l93 529h16l-8 -43q103 57 231 57zM482 770l-169 -154h-20l168 154h21z" />
    <glyph glyph-name="Rcommaaccent" unicode="&#x156;" horiz-adv-x="591" 
d="M611 604q0 -108 -53 -179.5t-162 -90.5l150 -334h-17l-148 332q-38 -5 -74 -5q-75 0 -152 4l-58 -331h-17l131 745q106 9 176 9q123 0 173.5 -36t50.5 -114zM595 604q0 71 -48 102.5t-162 31.5q-69 0 -160 -8l-67 -384q79 -4 152 -4q126 0 193 48.5t85 147.5q7 37 7 66z
M274 -68l-132 -140h-21l132 140h21z" />
    <glyph glyph-name="rcommaaccent" unicode="&#x157;" horiz-adv-x="332" 
d="M417 543l-3 -16q-123 0 -231 -57l-82 -470h-16l93 529h16l-8 -43q103 57 231 57zM175 -68l-132 -140h-21l132 140h21z" />
    <glyph glyph-name="Rcaron" unicode="&#x158;" horiz-adv-x="591" 
d="M611 604q0 -108 -53 -179.5t-162 -90.5l150 -334h-17l-148 332q-38 -5 -74 -5q-75 0 -152 4l-58 -331h-17l131 745q106 9 176 9q123 0 173.5 -36t50.5 -114zM595 604q0 71 -48 102.5t-162 31.5q-69 0 -160 -8l-67 -384q79 -4 152 -4q126 0 193 48.5t85 147.5q7 37 7 66z
M327 942h20l106 -139l154 139h22l-171 -154h-14z" />
    <glyph glyph-name="rcaron" unicode="&#x159;" horiz-adv-x="332" 
d="M417 543l-3 -16q-123 0 -231 -57l-82 -470h-16l93 529h16l-8 -43q103 57 231 57zM176 770h20l106 -139l154 139h22l-171 -154h-14z" />
    <glyph glyph-name="Sacute" unicode="&#x15a;" horiz-adv-x="546" 
d="M599 741l-2 -15q-96 13 -190 13q-43 0 -80 -7t-73.5 -23.5t-58 -50.5t-21.5 -82q0 -27 9.5 -48.5t31.5 -41.5t42 -33.5t58 -35.5l43 -25q96 -56 131.5 -92.5t35.5 -101.5q0 -210 -265 -210q-112 0 -190 13l2 15q90 -12 191 -12q244 0 244 194q0 60 -33 93t-126 87l-44 26
q-74 43 -110 79.5t-36 90.5q0 52 21.5 89t59 56t79 27t91.5 8q97 0 190 -13zM577 943l-169 -154h-20l168 154h21z" />
    <glyph glyph-name="sacute" unicode="&#x15b;" horiz-adv-x="451" 
d="M472 527l-3 -16q-70 16 -142 16q-187 0 -187 -126q0 -39 28.5 -63t93.5 -49l34 -13q68 -26 99 -56t31 -76q0 -75 -57 -115.5t-149 -40.5q-97 0 -162 18l3 15q76 -18 160 -18q81 0 134.5 34.5t53.5 106.5q0 41 -27.5 67t-94.5 51l-34 13q-66 25 -97.5 53t-31.5 73
q0 141 206 141q76 0 142 -15zM509 770l-169 -154h-20l168 154h21z" />
    <glyph glyph-name="Scircumflex" unicode="&#x15c;" horiz-adv-x="546" 
d="M599 741l-2 -15q-96 13 -190 13q-43 0 -80 -7t-73.5 -23.5t-58 -50.5t-21.5 -82q0 -27 9.5 -48.5t31.5 -41.5t42 -33.5t58 -35.5l43 -25q96 -56 131.5 -92.5t35.5 -101.5q0 -210 -265 -210q-112 0 -190 13l2 15q90 -12 191 -12q244 0 244 194q0 60 -33 93t-126 87l-44 26
q-74 43 -110 79.5t-36 90.5q0 52 21.5 89t59 56t79 27t91.5 8q97 0 190 -13zM566 789h-20l-105 139l-155 -139h-22l171 154h14z" />
    <glyph glyph-name="scircumflex" unicode="&#x15d;" horiz-adv-x="451" 
d="M472 527l-3 -16q-70 16 -142 16q-187 0 -187 -126q0 -39 28.5 -63t93.5 -49l34 -13q68 -26 99 -56t31 -76q0 -75 -57 -115.5t-149 -40.5q-97 0 -162 18l3 15q76 -18 160 -18q81 0 134.5 34.5t53.5 106.5q0 41 -27.5 67t-94.5 51l-34 13q-66 25 -97.5 53t-31.5 73
q0 141 206 141q76 0 142 -15zM475 616h-20l-105 139l-155 -139h-22l171 154h14z" />
    <glyph glyph-name="Scedilla" unicode="&#x15e;" horiz-adv-x="546" 
d="M599 741l-2 -15q-96 13 -190 13q-43 0 -80 -7t-73.5 -23.5t-58 -50.5t-21.5 -82q0 -27 9.5 -48.5t31.5 -41.5t42 -33.5t58 -35.5l43 -25q96 -56 131.5 -92.5t35.5 -101.5q0 -210 -265 -210q-112 0 -190 13l2 15q90 -12 191 -12q244 0 244 194q0 60 -33 93t-126 87l-44 26
q-74 43 -110 79.5t-36 90.5q0 52 21.5 89t59 56t79 27t91.5 8q97 0 190 -13zM292 -68l-156 -140h-21l156 140h21z" />
    <glyph glyph-name="scedilla" unicode="&#x15f;" horiz-adv-x="451" 
d="M472 527l-3 -16q-70 16 -142 16q-187 0 -187 -126q0 -39 28.5 -63t93.5 -49l34 -13q68 -26 99 -56t31 -76q0 -75 -57 -115.5t-149 -40.5q-97 0 -162 18l3 15q76 -18 160 -18q81 0 134.5 34.5t53.5 106.5q0 41 -27.5 67t-94.5 51l-34 13q-66 25 -97.5 53t-31.5 73
q0 141 206 141q76 0 142 -15zM247 -68l-156 -140h-21l156 140h21z" />
    <glyph glyph-name="Scaron" unicode="&#x160;" horiz-adv-x="546" 
d="M599 741l-2 -15q-96 13 -190 13q-43 0 -80 -7t-73.5 -23.5t-58 -50.5t-21.5 -82q0 -27 9.5 -48.5t31.5 -41.5t42 -33.5t58 -35.5l43 -25q96 -56 131.5 -92.5t35.5 -101.5q0 -210 -265 -210q-112 0 -190 13l2 15q90 -12 191 -12q244 0 244 194q0 60 -33 93t-126 87l-44 26
q-74 43 -110 79.5t-36 90.5q0 52 21.5 89t59 56t79 27t91.5 8q97 0 190 -13zM301 942h20l106 -139l154 139h22l-171 -154h-14z" />
    <glyph glyph-name="scaron" unicode="&#x161;" horiz-adv-x="451" 
d="M472 527l-3 -16q-70 16 -142 16q-187 0 -187 -126q0 -39 28.5 -63t93.5 -49l34 -13q68 -26 99 -56t31 -76q0 -75 -57 -115.5t-149 -40.5q-97 0 -162 18l3 15q76 -18 160 -18q81 0 134.5 34.5t53.5 106.5q0 41 -27.5 67t-94.5 51l-34 13q-66 25 -97.5 53t-31.5 73
q0 141 206 141q76 0 142 -15zM195 770h20l106 -139l154 139h22l-171 -154h-14z" />
    <glyph glyph-name="Tcedilla" unicode="&#x162;" horiz-adv-x="604" 
d="M702 727h-264l-128 -727h-17l128 727h-263l3 16h544zM327 -68l-132 -140h-21l132 140h21z" />
    <glyph glyph-name="tcedilla" unicode="&#x163;" horiz-adv-x="351" 
d="M235 -68l-132 -140h-21l132 140h21zM422 529l-3 -16h-173l-68 -387q-7 -37 -7 -65q0 -33 16 -45.5t57 -12.5q39 0 86 6l-2 -14q-41 -7 -84 -7q-49 0 -69 17t-20 56q0 25 8 70l67 382h-130l3 16h130l26 151h16l-26 -151h173z" />
    <glyph glyph-name="Tcaron" unicode="&#x164;" horiz-adv-x="604" 
d="M705 743l-3 -16h-264l-128 -727h-17l128 727h-263l3 16h544zM313 942h20l106 -139l154 139h22l-171 -154h-14z" />
    <glyph glyph-name="tcaron" unicode="&#x165;" horiz-adv-x="351" 
d="M433 770l-82 -180h-16l79 180h19zM422 529l-3 -16h-173l-68 -387q-7 -37 -7 -65q0 -33 16 -45.5t57 -12.5q39 0 86 6l-2 -14q-41 -7 -84 -7q-49 0 -69 17t-20 56q0 25 8 70l67 382h-130l3 16h130l26 151h16l-26 -151h173z" />
    <glyph glyph-name="Tbar" unicode="&#x166;" horiz-adv-x="604" 
d="M608 420h-224l-74 -420h-17l74 420h-223l3 16h223l51 291h-263l3 16h544l-3 -16h-264l-51 -291h224z" />
    <glyph glyph-name="tbar" unicode="&#x167;" horiz-adv-x="351" 
d="M328 -5q-41 -7 -84 -7q-49 0 -69 17t-20 56q0 25 8 70l39 222h-130l3 16h130l25 144h-130l3 16h130l26 151h16l-26 -151h173l-3 -16h-173l-25 -144h173l-3 -16h-173l-40 -227q-7 -37 -7 -65q0 -33 16 -45.5t57 -12.5q39 0 86 6z" />
    <glyph glyph-name="Utilde" unicode="&#x168;" horiz-adv-x="650" 
d="M701 743l-73 -409q-32 -180 -100 -261.5t-205 -81.5q-106 0 -152.5 52t-46.5 157q0 58 16 144l71 399h16l-72 -404q-15 -81 -15 -141q0 -98 44 -144.5t142 -46.5q130 0 192.5 79.5t93.5 252.5l72 404h17zM663 910q-12 -64 -31.5 -93.5t-60.5 -29.5q-26 0 -43 11.5
t-36 38.5l-33 49q-18 25 -32 35t-34 10q-19 0 -32.5 -8t-21.5 -25t-12 -32.5t-9 -42.5l-6 -34h-16l6 34q11 63 30.5 93t61.5 30q25 0 41.5 -11t35.5 -38l34 -49q19 -27 32 -36.5t35 -9.5q25 0 41 17t21.5 35.5t12.5 55.5l6 33h16z" />
    <glyph glyph-name="utilde" unicode="&#x169;" horiz-adv-x="548" 
d="M556 529l-94 -529h-16l8 46q-116 -58 -208 -58q-73 0 -106 31.5t-33 99.5q0 37 9 87l57 323h16l-58 -329q-8 -43 -8 -72q0 -69 29 -97t97 -28q90 0 208 61l82 465h17zM581 740q-12 -64 -31.5 -93.5t-60.5 -29.5q-26 0 -43 11.5t-36 38.5l-33 49q-18 25 -32 35t-34 10
q-19 0 -32.5 -8t-21.5 -25t-12 -32.5t-9 -42.5l-6 -34h-16l6 34q11 63 30.5 93t61.5 30q25 0 41.5 -11t35.5 -38l34 -49q19 -27 32 -36.5t35 -9.5q25 0 41 17t21.5 35.5t12.5 55.5l6 33h16z" />
    <glyph glyph-name="Umacron" unicode="&#x16a;" horiz-adv-x="650" 
d="M701 743l-73 -409q-32 -180 -100 -261.5t-205 -81.5q-106 0 -152.5 52t-46.5 157q0 58 16 144l71 399h16l-72 -404q-15 -81 -15 -141q0 -98 44 -144.5t142 -46.5q130 0 192.5 79.5t93.5 252.5l72 404h17zM647 851h-343l3 16h343z" />
    <glyph glyph-name="umacron" unicode="&#x16b;" horiz-adv-x="548" 
d="M556 529l-94 -529h-16l8 46q-116 -58 -208 -58q-73 0 -106 31.5t-33 99.5q0 37 9 87l57 323h16l-58 -329q-8 -43 -8 -72q0 -69 29 -97t97 -28q90 0 208 61l82 465h17zM570 682h-343l3 16h343z" />
    <glyph glyph-name="Ubreve" unicode="&#x16c;" horiz-adv-x="650" 
d="M701 743l-73 -409q-32 -180 -100 -261.5t-205 -81.5q-106 0 -152.5 52t-46.5 157q0 58 16 144l71 399h16l-72 -404q-15 -81 -15 -141q0 -98 44 -144.5t142 -46.5q130 0 192.5 79.5t93.5 252.5l72 404h17zM637 937q-21 -77 -59 -118t-117 -41q-122 0 -122 122q0 15 2 37
h15q-2 -24 -2 -37q0 -51 24 -79t85 -28q71 0 105.5 38t52.5 106h16z" />
    <glyph glyph-name="ubreve" unicode="&#x16d;" horiz-adv-x="548" 
d="M556 529l-94 -529h-16l8 46q-116 -58 -208 -58q-73 0 -106 31.5t-33 99.5q0 37 9 87l57 323h16l-58 -329q-8 -43 -8 -72q0 -69 29 -97t97 -28q90 0 208 61l82 465h17zM567 773q-21 -77 -59 -118t-117 -41q-122 0 -122 122q0 15 2 37h15q-2 -24 -2 -37q0 -51 24 -79
t85 -28q71 0 105.5 38t52.5 106h16z" />
    <glyph glyph-name="Uring" unicode="&#x16e;" horiz-adv-x="650" 
d="M701 743l-73 -409q-32 -180 -100 -261.5t-205 -81.5q-106 0 -152.5 52t-46.5 157q0 58 16 144l71 399h16l-72 -404q-15 -81 -15 -141q0 -98 44 -144.5t142 -46.5q130 0 192.5 79.5t93.5 252.5l72 404h17zM578 867q0 -52 -30.5 -79t-80.5 -27t-81 27.5t-31 78.5t31 78
t81 27t80.5 -27t30.5 -78zM562 867q0 48 -27 69t-68 21q-42 0 -69 -21t-27 -69q0 -49 27 -70t69 -21q41 0 68 21.5t27 69.5z" />
    <glyph glyph-name="uring" unicode="&#x16f;" horiz-adv-x="548" 
d="M556 529l-94 -529h-16l8 46q-116 -58 -208 -58q-73 0 -106 31.5t-33 99.5q0 37 9 87l57 323h16l-58 -329q-8 -43 -8 -72q0 -69 29 -97t97 -28q90 0 208 61l82 465h17zM498 703q0 -52 -30.5 -79t-80.5 -27t-81 27.5t-31 78.5t31 78t81 27t80.5 -27t30.5 -78zM482 703
q0 48 -27 69t-68 21q-42 0 -69 -21t-27 -69q0 -49 27 -70t69 -21q41 0 68 21.5t27 69.5z" />
    <glyph glyph-name="Uhungarumlaut" unicode="&#x170;" horiz-adv-x="650" 
d="M701 743l-73 -409q-32 -180 -100 -261.5t-205 -81.5q-106 0 -152.5 52t-46.5 157q0 58 16 144l71 399h16l-72 -404q-15 -81 -15 -141q0 -98 44 -144.5t142 -46.5q130 0 192.5 79.5t93.5 252.5l72 404h17zM722 943l-169 -154h-20l168 154h21zM521 943h21l-169 -154h-20z
" />
    <glyph glyph-name="uhungarumlaut" unicode="&#x171;" horiz-adv-x="548" 
d="M556 529l-94 -529h-16l8 46q-116 -58 -208 -58q-73 0 -106 31.5t-33 99.5q0 37 9 87l57 323h16l-58 -329q-8 -43 -8 -72q0 -69 29 -97t97 -28q90 0 208 61l82 465h17zM638 770l-169 -154h-20l168 154h21zM437 770h21l-169 -154h-20z" />
    <glyph glyph-name="Uogonek" unicode="&#x172;" horiz-adv-x="650" 
d="M406 0q-34 -10 -55.5 -18t-53 -22t-50 -28t-32.5 -34.5t-14 -43.5q0 -31 21 -43.5t66 -12.5q41 0 81 8l-2 -14q-34 -9 -82 -9q-53 0 -76.5 17.5t-23.5 53.5q0 84 152 137h-14q-106 0 -152.5 52t-46.5 157q0 48 16 144l71 399h16l-72 -404q-15 -81 -15 -141
q0 -98 44 -144.5t142 -46.5q130 0 193 79.5t93 252.5l72 404h17l-73 -409q-27 -150 -78 -231t-144 -103z" />
    <glyph glyph-name="uogonek" unicode="&#x173;" horiz-adv-x="548" 
d="M173 529h16l-58 -329q-8 -41 -8 -81q0 -63 30.5 -89.5t95.5 -26.5q92 0 210 72l80 454h17l-94 -529q-197 -68 -197 -146q0 -31 20.5 -43.5t66.5 -12.5q41 0 81 8l-2 -14q-34 -9 -82 -9q-53 0 -76.5 17.5t-23.5 53.5q0 86 198 154l9 49q-123 -69 -210 -69q-73 0 -106 31.5
t-33 99.5q0 37 9 87z" />
    <glyph glyph-name="Wcircumflex" unicode="&#x174;" horiz-adv-x="852" 
d="M938 743l-302 -743h-26l-68 556q-1 10 -4 28.5t-4 27.5h-2q-4 -9 -12.5 -27.5t-13.5 -28.5l-264 -556h-26l-40 743h17l35 -671q0 -9 1 -29t2 -29h1q4 9 13.5 29t13.5 29l262 555h30l66 -556q1 -9 3 -28t4 -29h1q4 10 11.5 29t11.5 28l272 672h18zM705 789h-20l-105 139
l-155 -139h-22l171 154h14z" />
    <glyph glyph-name="wcircumflex" unicode="&#x175;" horiz-adv-x="767" 
d="M828 529l-230 -529h-21l-93 415q-2 11 -7 32.5t-8 32.5h-2q-7 -11 -19 -32.5t-18 -32.5l-239 -415h-22l-46 529h17l35 -426q1 -14 3.5 -42.5t3.5 -42.5h3q8 14 24.5 42.5t24.5 42.5l224 393h24l87 -393q3 -14 9.5 -42.5t9.5 -42.5h3q6 14 17.5 42t17.5 42l184 427h18z
M634 616h-20l-105 139l-155 -139h-22l171 154h14z" />
    <glyph glyph-name="Ycircumflex" unicode="&#x176;" horiz-adv-x="548" 
d="M639 743l-302 -432l-54 -311h-17l54 311l-149 432h19l125 -365q2 -8 7.5 -23.5t8.5 -23.5h1q6 8 16.5 23t15.5 23l255 366h20zM558 789h-20l-105 139l-155 -139h-22l171 154h14z" />
    <glyph glyph-name="ycircumflex" unicode="&#x177;" horiz-adv-x="461" 
d="M528 529l-302 -560q-61 -113 -98.5 -147t-111.5 -34q-31 0 -70 3l2 16q48 -3 71 -3q65 0 99 30.5t91 137.5l16 30l-112 527h18l90 -425q11 -56 16 -76h4q16 31 40 75l229 426h18zM477 616h-20l-105 139l-155 -139h-22l171 154h14z" />
    <glyph glyph-name="Ydieresis" unicode="&#x178;" horiz-adv-x="548" 
d="M639 743l-302 -432l-54 -311h-17l54 311l-149 432h19l125 -365q2 -8 7.5 -23.5t8.5 -23.5h1q6 8 16.5 23t15.5 23l255 366h20zM563 926l-22 -121h-17l22 121h17zM315 926h17l-22 -121h-17z" />
    <glyph glyph-name="Zacute" unicode="&#x179;" horiz-adv-x="563" 
d="M647 743l-3 -16l-590 -712h481l-2 -15h-503l2 15l591 712h-445l3 16h466zM593 943l-169 -154h-20l168 154h21z" />
    <glyph glyph-name="zacute" unicode="&#x17a;" horiz-adv-x="462" 
d="M414 15l-2 -15h-367l2 15l431 498h-331l3 16h354l-3 -15l-432 -499h345zM517 770l-169 -154h-20l168 154h21z" />
    <glyph glyph-name="Zdotaccent" unicode="&#x17b;" horiz-adv-x="563" 
d="M647 743l-3 -16l-590 -712h481l-2 -15h-503l2 15l591 712h-445l3 16h466zM425 803h-16l22 122h16z" />
    <glyph glyph-name="zdotaccent" unicode="&#x17c;" horiz-adv-x="462" 
d="M414 15l-2 -15h-367l2 15l431 498h-331l3 16h354l-3 -15l-432 -499h345zM351 645h-16l22 122h16z" />
    <glyph glyph-name="Zcaron" unicode="&#x17d;" horiz-adv-x="563" 
d="M647 743l-3 -16l-590 -712h481l-2 -15h-503l2 15l591 712h-445l3 16h466zM291 943h20l106 -139l154 139h22l-171 -154h-14z" />
    <glyph glyph-name="zcaron" unicode="&#x17e;" horiz-adv-x="462" 
d="M414 15l-2 -15h-367l2 15l431 498h-331l3 16h354l-3 -15l-432 -499h345zM238 770h20l106 -139l154 139h22l-171 -154h-14z" />
    <glyph glyph-name="florin" unicode="&#x192;" horiz-adv-x="609" 
d="M625 749l-5 -14q-47 5 -76 5q-67 0 -97 -29t-47 -111l-42 -198h188l-2 -16h-188l-84 -393q-19 -89 -52.5 -122t-109.5 -33q-41 0 -77 6l3 14q52 -5 77 -5q67 0 96.5 29t46.5 111l83 393h-155l2 16h155l43 198q19 88 53 121.5t110 33.5q38 0 78 -6z" />
    <glyph glyph-name="Aringacute" unicode="&#x1fa;" horiz-adv-x="602" 
d="M582 0h-18l-53 302h-313l-159 -302h-19l400 744h24zM508 318l-58 312q-3 17 -9.5 50.5t-9.5 50.5h-2q-8 -16 -53 -101l-169 -312h301zM521 851q0 -52 -30.5 -79t-80.5 -27t-81 27.5t-31 78.5t31 78t81 27t80.5 -27t30.5 -78zM505 851q0 48 -27 69t-68 21q-42 0 -69 -21
t-27 -69q0 -49 27 -70t69 -21q41 0 68 21.5t27 69.5zM659 1139l-169 -154h-20l168 154h21z" />
    <glyph glyph-name="aringacute" unicode="&#x1fb;" horiz-adv-x="520" 
d="M435 0h-16l6 38q-105 -50 -184 -50q-151 0 -151 176q0 47 10 97l3 16q27 145 87 205.5t176 60.5q80 0 162 -10zM428 54l82 466q-77 7 -147 7q-106 0 -162 -57t-82 -196l-3 -16q-9 -51 -9 -93q0 -82 33.5 -122t104.5 -40q74 0 183 51zM504 685q0 -52 -30.5 -79t-80.5 -27
t-81 27.5t-31 78.5t31 78t81 27t80.5 -27t30.5 -78zM488 685q0 48 -27 69t-68 21q-42 0 -69 -21t-27 -69q0 -49 27 -70t69 -21q41 0 68 21.5t27 69.5zM588 978l-169 -154h-20l168 154h21z" />
    <glyph glyph-name="AEacute" unicode="&#x1fc;" horiz-adv-x="902" 
d="M820 943l-169 -154h-20l168 154h21zM976 727h-389l-58 -327h359l-3 -16h-359l-65 -369h389l-3 -15h-405l54 302h-295l-161 -302h-20l399 743h559zM499 318l72 409h-141q-5 -10 -53 -98l-167 -311h289z" />
    <glyph glyph-name="aeacute" unicode="&#x1fd;" horiz-adv-x="880" 
d="M889 368q0 -37 -12 -105h-405l-16 -89q-12 -69 -12 -84q0 -51 47.5 -68.5t146.5 -17.5q94 0 180 14l-3 -14q-96 -16 -177 -16q-97 0 -145.5 14.5t-63.5 62.5q-102 -77 -225 -77q-61 0 -94.5 29.5t-33.5 84.5q0 25 8 63q16 82 73 112t188 30h118l10 58q7 44 7 65
q0 55 -34 76t-120 21q-54 0 -144 -8l3 15q77 9 144 9q54 0 88 -8t51 -25.5t22.5 -38.5t5.5 -55q27 59 83.5 93t136.5 34q90 0 131.5 -47t41.5 -128zM872 368q0 159 -159 159q-101 0 -157.5 -55.5t-71.5 -141.5l-9 -51h389q8 56 8 89zM460 292h-114q-122 0 -176 -26.5
t-69 -102.5q-8 -39 -8 -61q0 -99 116 -99q107 0 214 77zM716 770l-169 -154h-20l168 154h21z" />
    <glyph glyph-name="Oslashacute" unicode="&#x1fe;" horiz-adv-x="648" 
d="M654 356q-35 -200 -118.5 -284t-213.5 -84q-120 0 -172 71l-50 -59h-21l61 73q-34 57 -34 153q0 66 14 140l4 21q36 202 118.5 284.5t213.5 82.5q133 0 184 -90l67 79h21l-80 -94q24 -56 24 -133q0 -66 -14 -139zM122 227q0 -91 29 -141l478 564q-45 88 -175 88
q-122 0 -201 -79t-114 -277l-4 -21q-13 -66 -13 -134zM639 361l4 21q13 74 13 133q0 72 -20 120l-476 -564q48 -67 164 -67q120 0 200.5 80t114.5 277zM646 943l-169 -154h-20l168 154h21z" />
    <glyph glyph-name="oslashacute" unicode="&#x1ff;" horiz-adv-x="534" 
d="M551 770l-169 -154h-20l168 154h21zM520 256q-25 -140 -85 -204t-172 -64q-101 0 -141 55l-63 -69h-21l76 82q-22 40 -22 106q0 39 10 102l2 12q25 139 85 203t172 64q104 0 144 -61l68 73h21l-81 -88q19 -38 19 -97q0 -48 -10 -102zM108 160q0 -58 17 -91l369 400
q-35 58 -136 58q-103 0 -158.5 -60t-79.5 -195l-2 -12q-10 -54 -10 -100zM504 260l2 12q10 53 10 99q0 50 -15 83l-368 -399q36 -52 133 -52q102 0 158 60.5t80 196.5z" />
    <glyph glyph-name="Scommaaccent" unicode="&#x218;" horiz-adv-x="546" 
d="M599 741l-2 -15q-96 13 -190 13q-43 0 -80 -7t-73.5 -23.5t-58 -50.5t-21.5 -82q0 -27 9.5 -48.5t31.5 -41.5t42 -33.5t58 -35.5l43 -25q96 -56 131.5 -92.5t35.5 -101.5q0 -210 -265 -210q-112 0 -190 13l2 15q90 -12 191 -12q244 0 244 194q0 60 -33 93t-126 87l-44 26
q-74 43 -110 79.5t-36 90.5q0 52 21.5 89t59 56t79 27t91.5 8q97 0 190 -13zM286 -68l-132 -140h-21l132 140h21z" />
    <glyph glyph-name="scommaaccent" unicode="&#x219;" horiz-adv-x="451" 
d="M472 527l-3 -16q-70 16 -142 16q-187 0 -187 -126q0 -39 28.5 -63t93.5 -49l34 -13q68 -26 99 -56t31 -76q0 -75 -57 -115.5t-149 -40.5q-97 0 -162 18l3 15q76 -18 160 -18q81 0 134.5 34.5t53.5 106.5q0 41 -27.5 67t-94.5 51l-34 13q-66 25 -97.5 53t-31.5 73
q0 141 206 141q76 0 142 -15zM244 -68l-132 -140h-21l132 140h21z" />
    <glyph glyph-name="Tcommaaccent" unicode="&#x21a;" horiz-adv-x="604" 
d="M705 743l-3 -16h-264l-128 -727h-17l128 727h-263l3 16h544zM326 -68l-132 -140h-21l132 140h21z" />
    <glyph glyph-name="tcommaaccent" unicode="&#x21b;" horiz-adv-x="351" 
d="M235 -68l-132 -140h-21l132 140h21zM422 529l-3 -16h-173l-68 -387q-7 -37 -7 -65q0 -33 16 -45.5t57 -12.5q39 0 86 6l-2 -14q-41 -7 -84 -7q-49 0 -69 17t-20 56q0 25 8 70l67 382h-130l3 16h130l26 151h16l-26 -151h173z" />
    <glyph glyph-name="circumflex" unicode="&#x2c6;" horiz-adv-x="446" 
d="M482 616h-20l-105 139l-155 -139h-22l171 154h14z" />
    <glyph glyph-name="caron" unicode="&#x2c7;" horiz-adv-x="446" 
d="M207 770h20l106 -139l154 139h22l-171 -154h-14z" />
    <glyph glyph-name="uni02C9" unicode="&#x2c9;" horiz-adv-x="439" 
d="M511 682h-343l3 16h343z" />
    <glyph glyph-name="breve" unicode="&#x2d8;" horiz-adv-x="421" 
d="M496 773q-21 -77 -59 -118t-117 -41q-122 0 -122 122q0 15 2 37h15q-2 -24 -2 -37q0 -51 24 -79t85 -28q71 0 105.5 38t52.5 106h16z" />
    <glyph glyph-name="dotaccent" unicode="&#x2d9;" horiz-adv-x="378" 
d="M325 645h-16l22 122h16z" />
    <glyph glyph-name="ring" unicode="&#x2da;" horiz-adv-x="421" 
d="M392 703q0 -52 -30.5 -79t-80.5 -27t-81 27.5t-31 78.5t31 78t81 27t80.5 -27t30.5 -78zM376 703q0 48 -27 69t-68 21q-42 0 -69 -21t-27 -69q0 -49 27 -70t69 -21q41 0 68 21.5t27 69.5z" />
    <glyph glyph-name="ogonek" unicode="&#x2db;" horiz-adv-x="422" 
d="M280 -208q-34 -9 -82 -9q-53 0 -76.5 17.5t-23.5 53.5q0 93 187 148l35 -2q-34 -11 -55.5 -18.5t-53.5 -21.5t-50.5 -28t-32.5 -34.5t-14 -43.5q0 -31 21 -43.5t66 -12.5q41 0 81 8z" />
    <glyph glyph-name="tilde" unicode="&#x2dc;" horiz-adv-x="429" 
d="M513 740q-12 -64 -31.5 -93.5t-60.5 -29.5q-26 0 -43 11.5t-36 38.5l-33 49q-18 25 -32 35t-34 10q-19 0 -32.5 -8t-21.5 -25t-12 -32.5t-9 -42.5l-6 -34h-16l6 34q11 63 30.5 93t61.5 30q25 0 41.5 -11t35.5 -38l34 -49q19 -27 32 -36.5t35 -9.5q25 0 41 17t21.5 35.5
t12.5 55.5l6 33h16z" />
    <glyph glyph-name="hungarumlaut" unicode="&#x2dd;" horiz-adv-x="432" 
d="M538 770l-169 -154h-20l168 154h21zM337 770h21l-169 -154h-20z" />
    <glyph glyph-name="uni037E" unicode="&#x37e;" horiz-adv-x="227" 
d="M177 301h-17l24 136h17z" />
    <glyph glyph-name="uni03A9" unicode="&#x3a9;" horiz-adv-x="626" 
d="M667 536q0 -48 -15 -139q-39 -222 -246 -297l-15 -84h176l-2 -16h-192l19 109q109 39 167 111t76 180q15 91 15 135q0 102 -53 154t-151 52q-119 0 -198.5 -77.5t-106.5 -232.5q-11 -64 -11 -111q0 -76 35 -127.5t113 -83.5l-19 -109h-192l2 16h176l15 84
q-146 61 -146 221q0 49 11 113q58 322 324 322q106 0 162 -57t56 -163z" />
    <glyph glyph-name="uni03BC" unicode="&#x3bc;" horiz-adv-x="591" 
d="M580 529l-93 -529h-16l8 46q-116 -58 -209 -58q-64 0 -96.5 21.5t-40.5 68.5l-50 -286h-16l130 737h16l-58 -329q-9 -46 -9 -82q0 -63 30.5 -89t96.5 -26q91 0 209 61l82 465h16z" />
    <glyph glyph-name="pi" unicode="&#x3c0;" horiz-adv-x="578" 
d="M589 -14h-20q-57 0 -75.5 31t-18.5 111v384h-279v-512h-17v512h-99v17h510v-17h-99v-384q0 -74 15 -100t63 -26h20v-16z" />
    <glyph glyph-name="Wgrave" unicode="&#x1e80;" horiz-adv-x="852" 
d="M938 743l-302 -743h-26l-68 556q-1 10 -4 28.5t-4 27.5h-2q-4 -9 -12.5 -27.5t-13.5 -28.5l-264 -556h-26l-40 743h17l35 -671q0 -9 1 -29t2 -29h1q4 9 13.5 29t13.5 29l262 555h30l66 -556q1 -9 3 -28t4 -29h1q4 10 11.5 29t11.5 28l272 672h18zM619 789h-20l-115 154
h20z" />
    <glyph glyph-name="wgrave" unicode="&#x1e81;" horiz-adv-x="767" 
d="M828 529l-230 -529h-21l-93 415q-2 11 -7 32.5t-8 32.5h-2q-7 -11 -19 -32.5t-18 -32.5l-239 -415h-22l-46 529h17l35 -426q1 -14 3.5 -42.5t3.5 -42.5h3q8 14 24.5 42.5t24.5 42.5l224 393h24l87 -393q3 -14 9.5 -42.5t9.5 -42.5h3q6 14 17.5 42t17.5 42l184 427h18z
M534 616h-20l-115 154h20z" />
    <glyph glyph-name="Wacute" unicode="&#x1e82;" horiz-adv-x="852" 
d="M938 743l-302 -743h-26l-68 556q-1 10 -4 28.5t-4 27.5h-2q-4 -9 -12.5 -27.5t-13.5 -28.5l-264 -556h-26l-40 743h17l35 -671q0 -9 1 -29t2 -29h1q4 9 13.5 29t13.5 29l262 555h30l66 -556q1 -9 3 -28t4 -29h1q4 10 11.5 29t11.5 28l272 672h18zM737 943l-169 -154h-20
l168 154h21z" />
    <glyph glyph-name="wacute" unicode="&#x1e83;" horiz-adv-x="767" 
d="M828 529l-230 -529h-21l-93 415q-2 11 -7 32.5t-8 32.5h-2q-7 -11 -19 -32.5t-18 -32.5l-239 -415h-22l-46 529h17l35 -426q1 -14 3.5 -42.5t3.5 -42.5h3q8 14 24.5 42.5t24.5 42.5l224 393h24l87 -393q3 -14 9.5 -42.5t9.5 -42.5h3q6 14 17.5 42t17.5 42l184 427h18z
M662 770l-169 -154h-20l168 154h21z" />
    <glyph glyph-name="Wdieresis" unicode="&#x1e84;" horiz-adv-x="852" 
d="M938 743l-302 -743h-26l-68 556q-1 10 -4 28.5t-4 27.5h-2q-4 -9 -12.5 -27.5t-13.5 -28.5l-264 -556h-26l-40 743h17l35 -671q0 -9 1 -29t2 -29h1q4 9 13.5 29t13.5 29l262 555h30l66 -556q1 -9 3 -28t4 -29h1q4 10 11.5 29t11.5 28l272 672h18zM713 926l-22 -121h-17
l22 121h17zM465 926h17l-22 -121h-17z" />
    <glyph glyph-name="wdieresis" unicode="&#x1e85;" horiz-adv-x="767" 
d="M828 529l-230 -529h-21l-93 415q-2 11 -7 32.5t-8 32.5h-2q-7 -11 -19 -32.5t-18 -32.5l-239 -415h-22l-46 529h17l35 -426q1 -14 3.5 -42.5t3.5 -42.5h3q8 14 24.5 42.5t24.5 42.5l224 393h24l87 -393q3 -14 9.5 -42.5t9.5 -42.5h3q6 14 17.5 42t17.5 42l184 427h18z
M631 760l-22 -121h-17l22 121h17zM383 760h17l-22 -121h-17z" />
    <glyph glyph-name="Ygrave" unicode="&#x1ef2;" horiz-adv-x="548" 
d="M639 743l-302 -432l-54 -311h-17l54 311l-149 432h19l125 -365q2 -8 7.5 -23.5t8.5 -23.5h1q6 8 16.5 23t15.5 23l255 366h20zM442 789h-20l-115 154h20z" />
    <glyph glyph-name="ygrave" unicode="&#x1ef3;" horiz-adv-x="461" 
d="M528 529l-302 -560q-61 -113 -98.5 -147t-111.5 -34q-31 0 -70 3l2 16q48 -3 71 -3q65 0 99 30.5t91 137.5l16 30l-112 527h18l90 -425q11 -56 16 -76h4q16 31 40 75l229 426h18zM372 616h-20l-115 154h20z" />
    <glyph glyph-name="figuredash" unicode="&#x2012;" horiz-adv-x="527" 
d="M530 282h-404l3 16h404z" />
    <glyph glyph-name="endash" unicode="&#x2013;" horiz-adv-x="487" 
d="M469 277h-356l3 17h356z" />
    <glyph glyph-name="emdash" unicode="&#x2014;" horiz-adv-x="625" 
d="M608 277h-495l3 17h495z" />
    <glyph glyph-name="quoteleft" unicode="&#x2018;" horiz-adv-x="121" 
d="M236 770l-102 -229h-19l103 229h18z" />
    <glyph glyph-name="quoteright" unicode="&#x2019;" horiz-adv-x="121" 
d="M236 770l-104 -229h-17l101 229h20z" />
    <glyph glyph-name="quotesinglbase" unicode="&#x201a;" horiz-adv-x="121" 
d="M124 134l-103 -228h-18l101 228h20z" />
    <glyph glyph-name="quotedblleft" unicode="&#x201c;" horiz-adv-x="305" 
d="M420 770l-101 -229h-20l104 229h17zM219 770h17l-101 -229h-20z" />
    <glyph glyph-name="quotedblright" unicode="&#x201d;" horiz-adv-x="305" 
d="M420 770l-104 -229h-17l101 229h20zM216 770h20l-104 -229h-17z" />
    <glyph glyph-name="quotedblbase" unicode="&#x201e;" horiz-adv-x="305" 
d="M308 134l-103 -228h-18l101 228h20zM104 134h20l-103 -228h-18z" />
    <glyph glyph-name="dagger" unicode="&#x2020;" horiz-adv-x="463" 
d="M484 523h-154l-110 -623h-17l110 623h-141l3 17h141l40 230h17l-40 -230h154z" />
    <glyph glyph-name="daggerdbl" unicode="&#x2021;" horiz-adv-x="463" 
d="M450 295h-160l-70 -395h-17l70 395h-147l3 17h147l36 207h-147l3 17h147l41 234h17l-41 -234h160l-3 -17h-160l-36 -207h160z" />
    <glyph glyph-name="bullet" unicode="&#x2022;" horiz-adv-x="506" 
d="M507 369q0 -74 -52.5 -126.5t-126.5 -52.5t-126.5 52.5t-52.5 126.5q0 75 52.5 127.5t126.5 52.5t126.5 -52.5t52.5 -127.5zM491 369q0 68 -48 116.5t-115 48.5t-115 -48.5t-48 -116.5q0 -67 48 -115t115 -48t115 48t48 115z" />
    <glyph glyph-name="onedotenleader" unicode="&#x2024;" horiz-adv-x="130" 
d="M76 0h-17l23 132h17z" />
    <glyph glyph-name="twodotenleader" unicode="&#x2025;" horiz-adv-x="298" 
d="M244 0h-17l23 132h17zM99 132l-23 -132h-17l23 132h17z" />
    <glyph glyph-name="ellipsis" unicode="&#x2026;" horiz-adv-x="660" 
d="M78 0h-16l23 132h16zM338 0h-16l23 132h16zM598 0h-16l23 132h16z" />
    <glyph glyph-name="perthousand" unicode="&#x2030;" horiz-adv-x="1277" 
d="M839 743l-605 -743h-20l605 743h20zM907 307q0 -34 -7 -72l-11 -58q-20 -102 -64 -146t-116 -44q-120 0 -120 128q0 32 7 68l11 58q19 101 64 145.5t117 44.5q119 0 119 -124zM890 305q0 60 -26.5 85t-78.5 25q-62 0 -102.5 -40.5t-58.5 -136.5l-11 -59q-6 -29 -6 -63
q0 -113 105 -113q127 0 160 176l11 59q7 36 7 67zM459 630q0 -34 -7 -72l-11 -58q-20 -102 -64 -146t-116 -44q-120 0 -120 128q0 32 7 68l11 58q19 101 64 145.5t117 44.5q119 0 119 -124zM442 628q0 60 -26.5 85t-78.5 25q-62 0 -102.5 -40.5t-58.5 -136.5l-11 -59
q-6 -29 -6 -63q0 -113 105 -113q127 0 160 176l11 59q7 36 7 67zM1277 307q0 -34 -7 -72l-11 -58q-20 -102 -64 -146t-116 -44q-120 0 -120 128q0 32 7 68l11 58q19 101 64 145.5t117 44.5q119 0 119 -124zM1260 305q0 60 -26.5 85t-78.5 25q-62 0 -102.5 -40.5
t-58.5 -136.5l-11 -59q-6 -29 -6 -63q0 -113 105 -113q127 0 160 176l11 59q7 36 7 67z" />
    <glyph glyph-name="guilsinglleft" unicode="&#x2039;" horiz-adv-x="287" 
d="M318 484l-189 -206l116 -207h-19l-117 209l188 204h21z" />
    <glyph glyph-name="guilsinglright" unicode="&#x203a;" horiz-adv-x="287" 
d="M281 275l-188 -204h-21l189 206l-116 207h19z" />
    <glyph glyph-name="exclamdbl" unicode="&#x203c;" horiz-adv-x="370" 
d="M283 0h-16l19 111h16zM418 770l-102 -582h-16l102 582h16zM104 0h-17l19 111h17zM239 770l-102 -582h-17l102 582h17z" />
    <glyph glyph-name="fraction" unicode="&#x2044;" horiz-adv-x="363" 
d="M565 743l-604 -743h-20l604 743h20z" />
    <glyph glyph-name="zero.superior" unicode="&#x2070;" horiz-adv-x="400" 
d="M452 652q0 -34 -7 -72l-11 -58q-20 -102 -64 -146t-116 -44q-120 0 -120 128q0 32 7 68l11 58q19 101 64 145.5t117 44.5q119 0 119 -124zM435 650q0 60 -26.5 85t-78.5 25q-62 0 -102.5 -40.5t-58.5 -136.5l-11 -59q-6 -29 -6 -63q0 -113 105 -113q127 0 160 176l11 59
q7 36 7 67z" />
    <glyph glyph-name="i.superior" unicode="&#x2071;" horiz-adv-x="145" 
d="M176 622h15l-58 -325h-15zM203 692h-15l14 78h15z" />
    <glyph glyph-name="four.superior" unicode="&#x2074;" horiz-adv-x="421" 
d="M348 339h-16l22 130h-225l3 15l272 285h19l-50 -285h76l-3 -15h-76zM357 484l47 266l-252 -266h205z" />
    <glyph glyph-name="five.superior" unicode="&#x2075;" horiz-adv-x="375" 
d="M432 769l-2 -15h-205l-44 -163h83q139 0 139 -88q0 -18 -4 -41q-13 -70 -54.5 -100t-127.5 -30q-68 0 -108 9l3 15q58 -9 108 -9q79 0 115 27t48 91q4 21 4 38q0 42 -31 57.5t-95 15.5h-101l52 193h220z" />
    <glyph glyph-name="six.superior" unicode="&#x2076;" horiz-adv-x="402" 
d="M461 767l-3 -16q-68 9 -116 9q-79 0 -118 -36t-51 -108l-6 -37q72 16 136 16q62 0 94.5 -19t32.5 -67q0 -86 -45 -131.5t-127 -45.5q-125 0 -125 119q0 27 4 50l21 115q15 82 58 121t129 39q60 0 116 -9zM410 460q4 23 4 48q0 42 -28.5 57t-85.5 15q-63 0 -136 -16
l-12 -68q-4 -23 -4 -45q0 -104 111 -104q131 0 151 113z" />
    <glyph glyph-name="seven.superior" unicode="&#x2077;" horiz-adv-x="360" 
d="M177 754l2 15h263l-2 -15l-283 -415h-18l284 415h-246z" />
    <glyph glyph-name="eight.superior" unicode="&#x2078;" horiz-adv-x="422" 
d="M444 450q-11 -64 -56 -91t-120 -27h-6q-135 0 -135 94q0 118 94 139q-55 16 -55 80q0 70 43 100.5t132 30.5h5q138 0 138 -84q0 -45 -25 -81t-68 -46q57 -14 57 -77q0 -13 -4 -38zM428 453q4 25 4 35q0 70 -81 70h-92q-62 0 -89.5 -39.5t-27.5 -91.5q0 -80 123 -80h6
q69 0 108 24.5t49 81.5zM465 666q2 13 2 26q0 37 -30 53t-94 16h-5q-80 0 -118 -26.5t-38 -89.5q0 -71 80 -71h92q50 0 76.5 26.5t34.5 65.5z" />
    <glyph glyph-name="nine.superior" unicode="&#x2079;" horiz-adv-x="402" 
d="M133 341l3 16q67 -9 116 -9q79 0 118 36t51 108l6 37q-72 -16 -136 -16q-62 0 -94.5 19t-32.5 67q0 86 45 131.5t127 45.5q125 0 125 -119q0 -27 -4 -50l-21 -115q-15 -82 -58 -121t-129 -39q-60 0 -116 9zM184 648q-4 -23 -4 -48q0 -42 28.5 -57t85.5 -15q63 0 136 16
l12 68q4 23 4 45q0 104 -111 104q-131 0 -151 -113z" />
    <glyph glyph-name="parenleft.superior" unicode="&#x207d;" horiz-adv-x="187" 
d="M284 807q-66 -71 -104 -160t-38 -184q0 -103 45 -182h-18q-43 82 -43 182q0 93 36.5 183.5t102.5 160.5h19z" />
    <glyph glyph-name="parenright.superior" unicode="&#x207e;" horiz-adv-x="187" 
d="M237 626q0 -93 -36.5 -183.5t-102.5 -160.5h-19q66 71 104 160t38 184q0 103 -45 182h18q43 -82 43 -182z" />
    <glyph glyph-name="n.superior" unicode="&#x207f;" horiz-adv-x="306" 
d="M357 560q0 -23 -6 -53l-37 -210h-15l37 210q5 30 5 50q0 34 -15 47t-50 13q-48 0 -112 -33l-51 -287h-15l58 325h15l-4 -23q68 33 111 33q42 0 60.5 -17t18.5 -55z" />
    <glyph glyph-name="zero.inferior" unicode="&#x2080;" horiz-adv-x="400" 
d="M388 108q0 -34 -7 -72l-11 -58q-20 -102 -64 -146t-116 -44q-120 0 -120 128q0 32 7 68l11 58q19 101 64 145.5t117 44.5q119 0 119 -124zM371 106q0 60 -26.5 85t-78.5 25q-62 0 -102.5 -40.5t-58.5 -136.5l-11 -59q-6 -29 -6 -63q0 -113 105 -113q127 0 160 176l11 59
q7 36 7 67z" />
    <glyph glyph-name="one.inferior" unicode="&#x2081;" horiz-adv-x="300" 
d="M267 -205h-238l3 14h109l71 401l-116 -38l3 15l115 38h16l-73 -416h113z" />
    <glyph glyph-name="two.inferior" unicode="&#x2082;" horiz-adv-x="374" 
d="M140 207l3 15q55 10 115 10q67 0 100 -19.5t33 -63.5q0 -51 -37.5 -84.5t-108.5 -66.5q-93 -43 -122.5 -76t-42.5 -107l-1 -5h245l-2 -15h-261l3 20q14 79 46 114.5t128 80.5q31 14 48.5 23.5t41.5 27t35.5 39t11.5 48.5q0 39 -29 54t-91 15q-57 0 -115 -10z" />
    <glyph glyph-name="three.inferior" unicode="&#x2083;" horiz-adv-x="368" 
d="M375 153q0 -16 -3 -31q-18 -87 -94 -103q60 -11 60 -72q0 -20 -5 -41q-13 -61 -51.5 -89.5t-121.5 -28.5q-67 0 -107 8l2 15q56 -8 105 -8q76 0 110.5 24t47.5 82q5 21 5 39q0 31 -19 47.5t-67 16.5h-133l2 15h133q60 0 85.5 27.5t32.5 72.5q2 12 2 25q0 36 -28.5 50.5
t-95.5 14.5q-45 0 -109 -8l2 15q64 8 111 8q71 0 103.5 -18t32.5 -61z" />
    <glyph glyph-name="four.inferior" unicode="&#x2084;" horiz-adv-x="421" 
d="M276 -205h-16l22 130h-225l3 15l272 285h19l-50 -285h76l-3 -15h-76zM285 -60l47 266l-252 -266h205z" />
    <glyph glyph-name="five.inferior" unicode="&#x2085;" horiz-adv-x="375" 
d="M376 225l-2 -15h-205l-44 -163h83q139 0 139 -88q0 -18 -4 -41q-13 -70 -54.5 -100t-127.5 -30q-68 0 -108 9l3 15q58 -9 108 -9q79 0 115 27t48 91q4 21 4 38q0 42 -31 57.5t-95 15.5h-101l52 193h220z" />
    <glyph glyph-name="six.inferior" unicode="&#x2086;" horiz-adv-x="402" 
d="M397 223l-3 -16q-68 9 -116 9q-79 0 -118 -36t-51 -108l-6 -37q72 16 136 16q62 0 94.5 -19t32.5 -67q0 -86 -45 -131.5t-127 -45.5q-125 0 -125 119q0 27 4 50l21 115q15 82 58 121t129 39q60 0 116 -9zM346 -84q4 23 4 48q0 42 -28.5 57t-85.5 15q-63 0 -136 -16
l-12 -68q-4 -23 -4 -45q0 -104 111 -104q131 0 151 113z" />
    <glyph glyph-name="seven.inferior" unicode="&#x2087;" horiz-adv-x="360" 
d="M113 210l2 15h263l-2 -15l-283 -415h-18l284 415h-246z" />
    <glyph glyph-name="eight.inferior" unicode="&#x2088;" horiz-adv-x="422" 
d="M380 -94q-11 -64 -56 -91t-120 -27h-6q-135 0 -135 94q0 118 94 139q-55 16 -55 80q0 70 43 100.5t132 30.5h5q138 0 138 -84q0 -45 -25 -81t-68 -46q57 -14 57 -77q0 -13 -4 -38zM364 -91q4 25 4 35q0 70 -81 70h-92q-62 0 -89.5 -39.5t-27.5 -91.5q0 -80 123 -80h6
q69 0 108 24.5t49 81.5zM401 122q2 13 2 26q0 37 -30 53t-94 16h-5q-80 0 -118 -26.5t-38 -89.5q0 -71 80 -71h92q50 0 76.5 26.5t34.5 65.5z" />
    <glyph glyph-name="nine.inferior" unicode="&#x2089;" horiz-adv-x="402" 
d="M76 -203l3 16q67 -9 116 -9q79 0 118 36t51 108l6 37q-72 -16 -136 -16q-62 0 -94.5 19t-32.5 67q0 86 45 131.5t127 45.5q125 0 125 -119q0 -27 -4 -50l-21 -115q-15 -82 -58 -121t-129 -39q-60 0 -116 9zM127 104q-4 -23 -4 -48q0 -42 28.5 -57t85.5 -15q63 0 136 16
l12 68q4 23 4 45q0 104 -111 104q-131 0 -151 -113z" />
    <glyph glyph-name="parenleft.inferior" unicode="&#x208d;" horiz-adv-x="187" 
d="M195 314q-66 -71 -104 -160t-38 -184q0 -103 45 -182h-18q-43 82 -43 182q0 93 36.5 183.5t102.5 160.5h19z" />
    <glyph glyph-name="parenright.inferior" unicode="&#x208e;" horiz-adv-x="187" 
d="M205 133q0 -93 -36.5 -183.5t-102.5 -160.5h-19q66 71 104 160t38 184q0 103 -45 182h18q43 -82 43 -182z" />
    <glyph glyph-name="colonmonetary" unicode="&#x20a1;" horiz-adv-x="438" 
d="M487 531l-3 -15q-64 11 -126 11q-102 0 -159.5 -53.5t-78.5 -171.5l-11 -60q-10 -55 -10 -96q0 -77 39.5 -110t122.5 -33q42 0 135 12l-2 -14q-66 -9 -94 -12l-21 -115h-17l20 114h-29q-26 0 -50 4l-21 -118h-16l22 121q-105 25 -105 150q0 45 10 98l11 62
q17 100 60 155.5t119 74.5l22 127h16l-22 -124q28 5 62 5h19l21 119h17l-21 -120q39 -2 90 -11z" />
    <glyph glyph-name="franc" unicode="&#x20a3;" horiz-adv-x="545" 
d="M122 0h-16l37 212h-67l3 16h67l91 515h404l-3 -16h-388l-58 -327h359l-3 -16h-359l-27 -156h160l-3 -16h-160z" />
    <glyph glyph-name="lira" unicode="&#x20a4;" horiz-adv-x="547" 
d="M632 739l-3 -15q-88 9 -161 9q-119 0 -168 -46t-72 -172l-15 -87h283l-3 -16h-283l-20 -114h283l-3 -16h-283l-16 -93q-10 -59 -30 -97t-60 -76h423l-2 -16h-444l2 16q45 40 64.5 76.5t30.5 96.5l16 93h-91l3 16h91l20 114h-91l3 16h91l15 87q24 133 77 183.5t182 50.5
q76 0 161 -10z" />
    <glyph glyph-name="peseta" unicode="&#x20a7;" horiz-adv-x="584" 
d="M700 553l-3 -16h-67q-19 -105 -90 -157.5t-207 -52.5q-75 0 -152 4l-58 -331h-17l94 536h-74l3 16h74l34 192q120 10 176 10q118 0 171 -37t53 -113q0 -23 -4 -51h67zM621 603q0 71 -49.5 103t-160.5 32q-58 0 -160 -9l-67 -383q79 -4 147 -4q130 0 198 48t85 148
q7 42 7 65z" />
    <glyph glyph-name="Euro" unicode="&#x20ac;" horiz-adv-x="577" 
d="M660 739l-3 -15q-105 14 -170 14q-117 0 -190 -65t-112 -200h368l-7 -17h-366q-19 -66 -29 -165h322l-7 -16h-317q-2 -32 -2 -45q0 -115 50.5 -170.5t159.5 -55.5q64 0 176 14l-3 -15q-99 -15 -176 -15q-224 0 -224 238q0 15 2 49h-60l3 16h59q7 86 29 165h-59l3 17h61
q41 142 118.5 211.5t202.5 69.5q78 0 171 -15z" />
    <glyph glyph-name="litre" unicode="&#x2113;" horiz-adv-x="421" 
d="M454 30q-62 -48 -122 -48q-58 0 -84.5 35.5t-26.5 117.5v175q-32 -32 -104 -98l-10 13q72 65 114 108v257q0 101 23.5 149.5t93.5 48.5q108 0 108 -120q0 -82 -47 -154.5t-162 -186.5v-192q0 -75 22 -106t73 -31q57 0 113 45zM429 668q0 105 -91 105q-62 0 -81.5 -45.5
t-19.5 -137.5v-240q107 107 149.5 174t42.5 144z" />
    <glyph glyph-name="trademark" unicode="&#x2122;" horiz-adv-x="828" 
d="M842 349h-15v294v87h-1q-23 -32 -50 -73l-92 -136h-17l-91 135q-8 13 -24.5 37.5t-25.5 36.5h-1v-86v-295h-15v394h25l101 -150q7 -10 20 -29t19 -29h1q7 9 19.5 28.5t19.5 29.5l101 150h26v-394zM430 727h-147v-378h-16v378h-146v16h309v-16z" />
    <glyph glyph-name="Omega" unicode="&#x2126;" horiz-adv-x="626" 
d="M667 536q0 -48 -15 -139q-39 -222 -246 -297l-15 -84h176l-2 -16h-192l19 109q109 39 167 111t76 180q15 91 15 135q0 102 -53 154t-151 52q-119 0 -198.5 -77.5t-106.5 -232.5q-11 -64 -11 -111q0 -76 35 -127.5t113 -83.5l-19 -109h-192l2 16h176l15 84
q-146 61 -146 221q0 49 11 113q58 322 324 322q106 0 162 -57t56 -163z" />
    <glyph glyph-name="estimated" unicode="&#x212e;" horiz-adv-x="623" 
d="M670 282h-429v-193q66 -63 152 -63q76 0 123 33t87 94l31 -19q-44 -68 -99 -104.5t-142 -36.5q-119 0 -195 84.5t-76 205.5q0 123 75 206.5t200 83.5q124 0 198.5 -84.5t74.5 -206.5zM550 315v163q-68 62 -153 62q-96 0 -156 -62v-163h309z" />
    <glyph glyph-name="onethird" unicode="&#x2153;" horiz-adv-x="837" 
d="M769 743l-605 -743h-20l605 743h20zM848 358q0 -16 -3 -31q-18 -87 -94 -103q60 -11 60 -72q0 -20 -5 -41q-13 -61 -51.5 -89.5t-121.5 -28.5q-67 0 -107 8l2 15q56 -8 105 -8q76 0 110.5 24t47.5 82q5 21 5 39q0 31 -19 47.5t-67 16.5h-133l2 15h133q60 0 85.5 27.5
t32.5 72.5q2 12 2 25q0 36 -28.5 50.5t-95.5 14.5q-45 0 -109 -8l2 15q64 8 111 8q71 0 103.5 -18t32.5 -61zM324 317h-238l3 14h109l71 401l-116 -38l3 15l115 38h16l-73 -416h113z" />
    <glyph glyph-name="twothirds" unicode="&#x2154;" horiz-adv-x="869" 
d="M802 743l-605 -743h-20l605 743h20zM881 358q0 -16 -3 -31q-18 -87 -94 -103q60 -11 60 -72q0 -20 -5 -41q-13 -61 -51.5 -89.5t-121.5 -28.5q-67 0 -107 8l2 15q56 -8 105 -8q76 0 110.5 24t47.5 82q5 21 5 39q0 31 -19 47.5t-67 16.5h-133l2 15h133q60 0 85.5 27.5
t32.5 72.5q2 12 2 25q0 36 -28.5 50.5t-95.5 14.5q-45 0 -109 -8l2 15q64 8 111 8q71 0 103.5 -18t32.5 -61zM183 729l3 15q55 10 115 10q67 0 100 -19.5t33 -63.5q0 -51 -37.5 -84.5t-108.5 -66.5q-93 -43 -122.5 -76t-42.5 -107l-1 -5h245l-2 -15h-261l3 20
q14 79 46 114.5t128 80.5q31 14 48.5 23.5t41.5 27t35.5 39t11.5 48.5q0 39 -29 54t-91 15q-57 0 -115 -10z" />
    <glyph glyph-name="oneeighth" unicode="&#x215b;" horiz-adv-x="866" 
d="M838 111q-11 -64 -56 -91t-120 -27h-6q-135 0 -135 94q0 118 94 139q-55 16 -55 80q0 70 43 100.5t132 30.5h5q138 0 138 -84q0 -45 -25 -81t-68 -46q57 -14 57 -77q0 -13 -4 -38zM822 114q4 25 4 35q0 70 -81 70h-92q-62 0 -89.5 -39.5t-27.5 -91.5q0 -80 123 -80h6
q69 0 108 24.5t49 81.5zM859 327q2 13 2 26q0 37 -30 53t-94 16h-5q-80 0 -118 -26.5t-38 -89.5q0 -71 80 -71h92q50 0 76.5 26.5t34.5 65.5zM769 743l-605 -743h-20l605 743h20zM324 317h-238l3 14h109l71 401l-116 -38l3 15l115 38h16l-73 -416h113z" />
    <glyph glyph-name="threeeighths" unicode="&#x215c;" horiz-adv-x="909" 
d="M804 743l-605 -743h-20l605 743h20zM881 111q-11 -64 -56 -91t-120 -27h-6q-135 0 -135 94q0 118 94 139q-55 16 -55 80q0 70 43 100.5t132 30.5h5q138 0 138 -84q0 -45 -25 -81t-68 -46q57 -14 57 -77q0 -13 -4 -38zM865 114q4 25 4 35q0 70 -81 70h-92
q-62 0 -89.5 -39.5t-27.5 -91.5q0 -80 123 -80h6q69 0 108 24.5t49 81.5zM902 327q2 13 2 26q0 37 -30 53t-94 16h-5q-80 0 -118 -26.5t-38 -89.5q0 -71 80 -71h92q50 0 76.5 26.5t34.5 65.5zM421 675q0 -16 -3 -31q-18 -87 -94 -103q60 -11 60 -72q0 -20 -5 -41
q-13 -61 -51.5 -89.5t-121.5 -28.5q-67 0 -107 8l2 15q56 -8 105 -8q76 0 110.5 24t47.5 82q5 21 5 39q0 31 -19 47.5t-67 16.5h-133l2 15h133q60 0 85.5 27.5t32.5 72.5q2 12 2 25q0 36 -28.5 50.5t-95.5 14.5q-45 0 -109 -8l2 15q64 8 111 8q71 0 103.5 -18t32.5 -61z" />
    <glyph glyph-name="fiveeighths" unicode="&#x215d;" horiz-adv-x="913" 
d="M432 747l-2 -15h-205l-44 -163h83q139 0 139 -88q0 -18 -4 -41q-13 -70 -54.5 -100t-127.5 -30q-68 0 -108 9l3 15q58 -9 108 -9q79 0 115 27t48 91q4 21 4 38q0 42 -31 57.5t-95 15.5h-101l52 193h220zM804 743l-605 -743h-20l605 743h20zM881 111q-11 -64 -56 -91
t-120 -27h-6q-135 0 -135 94q0 118 94 139q-55 16 -55 80q0 70 43 100.5t132 30.5h5q138 0 138 -84q0 -45 -25 -81t-68 -46q57 -14 57 -77q0 -13 -4 -38zM865 114q4 25 4 35q0 70 -81 70h-92q-62 0 -89.5 -39.5t-27.5 -91.5q0 -80 123 -80h6q69 0 108 24.5t49 81.5zM902 327
q2 13 2 26q0 37 -30 53t-94 16h-5q-80 0 -118 -26.5t-38 -89.5q0 -71 80 -71h92q50 0 76.5 26.5t34.5 65.5z" />
    <glyph glyph-name="seveneighths" unicode="&#x215e;" horiz-adv-x="846" 
d="M744 743l-605 -743h-20l605 743h20zM819 111q-11 -64 -56 -91t-120 -27h-6q-135 0 -135 94q0 118 94 139q-55 16 -55 80q0 70 43 100.5t132 30.5h5q138 0 138 -84q0 -45 -25 -81t-68 -46q57 -14 57 -77q0 -13 -4 -38zM803 114q4 25 4 35q0 70 -81 70h-92
q-62 0 -89.5 -39.5t-27.5 -91.5q0 -80 123 -80h6q69 0 108 24.5t49 81.5zM840 327q2 13 2 26q0 37 -30 53t-94 16h-5q-80 0 -118 -26.5t-38 -89.5q0 -71 80 -71h92q50 0 76.5 26.5t34.5 65.5zM177 732l2 15h263l-2 -15l-283 -415h-18l284 415h-246z" />
    <glyph glyph-name="partialdiff" unicode="&#x2202;" horiz-adv-x="573" 
d="M598 445q0 -100 -19 -213q-18 -112 -84.5 -179.5t-167.5 -67.5q-100 0 -146.5 50.5t-46.5 152.5q0 93 32 160q61 129 213 129q47 0 87.5 -13t74 -52.5t35.5 -102.5q6 60 6 136q0 164 -58 240.5t-197 76.5q-61 0 -128 -13v15q66 14 128 14q144 0 207.5 -81.5t63.5 -251.5z
M564 288q0 79 -46.5 125t-137.5 46q-142 0 -199 -119q-31 -63 -31 -152q0 -96 42.5 -141t134.5 -45q96 0 153.5 59.5t75.5 148.5q8 43 8 78z" />
    <glyph glyph-name="Delta" unicode="&#x2206;" horiz-adv-x="631" 
d="M596 0h-563l400 744h24zM575 16l-102 564q-5 25 -14 77t-14 77h-1q-14 -25 -41.5 -77t-40.5 -77l-302 -564h515z" />
    <glyph glyph-name="product" unicode="&#x220f;" horiz-adv-x="694" 
d="M751 727h-130v-793h-17v793h-345v-793h-17v793h-130v16h639v-16z" />
    <glyph glyph-name="summation" unicode="&#x2211;" horiz-adv-x="560" 
d="M574 -66h-421v15l271 390l-271 389v15h421v-16h-401l268 -383v-11l-268 -383h401v-16z" />
    <glyph glyph-name="minus" unicode="&#x2212;" horiz-adv-x="683" 
d="M658 385h-474v17h474v-17z" />
    <glyph glyph-name="uni2215" unicode="&#x2215;" horiz-adv-x="346" 
d="M548 743l-605 -743h-20l605 743h20z" />
    <glyph glyph-name="uni2219" unicode="&#x2219;" horiz-adv-x="136" 
d="M130 301h-17l24 136h17z" />
    <glyph glyph-name="radical" unicode="&#x221a;" horiz-adv-x="764" 
d="M796 873l-323 -947h-24l-192 536h-122v17h134l192 -539l317 933h18z" />
    <glyph glyph-name="infinity" unicode="&#x221e;" horiz-adv-x="721" 
d="M692 370q0 -232 -133 -232h-4q-33 0 -69 21t-64 60q-30 -81 -99 -81h-5q-129 0 -129 234v7q0 232 132 232h4q34 0 70 -21t63 -60q27 81 100 81h4q130 0 130 -235v-6zM674 370v6q0 218 -112 218h-4q-24 0 -41 -10t-27.5 -25.5t-18.5 -45.5t-11.5 -58t-8.5 -75
q-10 -96 -24 -143q58 -83 128 -83h4q115 0 115 216zM453 511q-58 83 -128 83h-4q-115 0 -115 -215v-7q0 -218 112 -218h5q55 0 77.5 53t33.5 172q7 81 19 132z" />
    <glyph glyph-name="integral" unicode="&#x222b;" horiz-adv-x="480" 
d="M520 734q-48 5 -78 5q-66 0 -88 -28.5t-22 -111.5v-656q0 -87 -25.5 -121t-100.5 -34q-39 0 -79 6v14q50 -5 79 -5q66 0 88 28.5t22 111.5v656q0 88 25 122t101 34q40 0 78 -6v-15z" />
    <glyph glyph-name="approxequal" unicode="&#x2248;" horiz-adv-x="683" 
d="M627 559q0 -74 -16 -108t-64 -34t-110 66l-47 51q-29 31 -48 43.5t-43 12.5q-42 0 -54 -29.5t-12 -97.5v-36h-17v36q0 74 17 108.5t66 34.5q27 0 50 -14.5t54 -47.5l46 -49q57 -62 98 -62q40 0 51.5 29.5t11.5 96.5v36h17v-36zM627 319q0 -74 -16 -108t-64 -34t-110 66
l-47 51q-29 31 -48 43.5t-43 12.5q-42 0 -54 -29.5t-12 -97.5v-36h-17v36q0 74 17 108.5t66 34.5q27 0 50 -14.5t54 -47.5l46 -49q57 -62 98 -62q40 0 51.5 29.5t11.5 96.5v36h17v-36z" />
    <glyph glyph-name="notequal" unicode="&#x2260;" horiz-adv-x="683" 
d="M628 269h-236l-87 -269h-17l87 269h-160v17h165l71 215h-236v16h241l75 232h17l-75 -232h155v-16h-160l-71 -215h231v-17z" />
    <glyph glyph-name="lessequal" unicode="&#x2264;" horiz-adv-x="683" 
d="M650 0h-458v16h458v-16zM528 169h-24l-256 235l256 235h24l-255 -235z" />
    <glyph glyph-name="greaterequal" unicode="&#x2265;" horiz-adv-x="683" 
d="M651 0h-459v16h459v-16zM594 404l-255 -235h-24l255 235l-255 235h24z" />
    <glyph glyph-name="lozenge" unicode="&#x25ca;" horiz-adv-x="652" 
d="M634 361l-234 -299l-230 296l233 299zM610 361l-207 266l-210 -269l207 -265z" />
    <glyph glyph-name="percent.oldstyle" unicode="&#xfe6a;" horiz-adv-x="893" 
d="M706 529l-402 -529h-20l403 529h19zM393 342q-33 -187 -168 -187q-113 0 -113 125q0 31 8 75q33 187 171 187q111 0 111 -124q0 -26 -9 -76zM377 343q8 45 8 74q0 109 -97 109q-58 0 -96.5 -40t-54.5 -133q-8 -45 -8 -74q0 -108 97 -108q120 0 151 172zM876 175
q-33 -187 -168 -187q-113 0 -113 125q0 31 8 75q33 187 171 187q111 0 111 -124q0 -27 -9 -76zM860 176q8 45 8 74q0 109 -97 109q-58 0 -96.5 -40t-54.5 -133q-8 -45 -8 -74q0 -108 97 -108q120 0 151 172z" />
    <glyph glyph-name="dollar.oldstyle" horiz-adv-x="456" 
d="M70 5l3 15q85 -17 161 -17q79 0 131.5 38t52.5 105q0 41 -25 63t-99 59l-29 14q-71 35 -99.5 60t-28.5 68q0 67 55 98.5t137 32.5l21 122h16l-21 -121q69 -1 132 -14l-3 -15q-75 14 -137 14q-48 0 -86 -8.5t-68 -36t-30 -71.5q0 -37 26.5 -59t96.5 -57l29 -15
q41 -21 58 -30.5t37.5 -26t27 -34.5t6.5 -43q0 -71 -54.5 -113.5t-138.5 -43.5l-20 -113h-16l19 112q-84 1 -154 17z" />
    <glyph glyph-name="dollar.superior" horiz-adv-x="345" 
d="M108 343l3 15q68 -9 115 -9q57 0 98.5 29t41.5 86q0 28 -19 46t-66 41l-40 19q-42 20 -64 43t-22 59q0 49 41 76t101 29l13 75h17l-13 -75q68 0 108 -8l-2 -15q-58 7 -113 7q-32 0 -60 -6.5t-51 -27.5t-23 -54q0 -31 19.5 -51t58.5 -38l38 -18q51 -24 72.5 -45.5
t21.5 -57.5q0 -58 -42 -91.5t-105 -37.5l-13 -73h-17l13 72q-65 2 -111 10z" />
    <glyph glyph-name="zero.oldstyle" horiz-adv-x="617" 
d="M589 248q-22 -126 -97.5 -193t-184.5 -67q-92 0 -143.5 52t-51.5 147q0 39 6 69l7 38q23 126 98 193t184 67q92 0 144 -52t52 -147q0 -25 -7 -69zM574 252l7 38q6 36 6 67q0 90 -49 135.5t-133 45.5q-100 0 -171 -62t-93 -186l-7 -38q-6 -30 -6 -68q0 -90 48.5 -135.5
t133.5 -45.5q100 0 170.5 62t93.5 187z" />
    <glyph glyph-name="one.oldstyle" horiz-adv-x="447" 
d="M404 0h-350l2 15h167l91 517l-176 -51l3 18l176 51h16l-94 -535h167z" />
    <glyph glyph-name="two.oldstyle" horiz-adv-x="565" 
d="M169 521l2 14q101 19 193 19q212 0 212 -128q0 -30 -9.5 -58.5t-22 -50.5t-41.5 -48.5t-49.5 -43.5t-65.5 -44.5t-70 -42t-81 -46.5l-135 -76h398l-2 -16h-429l2 16l154 87q166 94 217 133q117 91 118 187q0 62 -49 88.5t-149 26.5q-87 0 -193 -17z" />
    <glyph glyph-name="three.oldstyle" horiz-adv-x="558" 
d="M24 -202l3 14q81 -9 180 -9q127 0 183.5 46t74.5 138q12 60 12 84q0 111 -137 111h-228l3 16h228q51 0 87 13.5t56 38.5t29.5 49t15.5 58q7 37 7 60q0 62 -46 91.5t-155 29.5q-108 0 -184 -10l3 15q62 11 183 11q115 0 165.5 -34.5t50.5 -102.5q0 -21 -8 -64
q-12 -67 -45.5 -109t-104.5 -55q96 -19 96 -117q0 -26 -12 -90q-18 -96 -81 -145t-196 -49q-112 0 -180 10z" />
    <glyph glyph-name="four.oldstyle" horiz-adv-x="598" 
d="M393 -203h-17l40 228h-377l3 16l462 509h21l-89 -509h131l-3 -16h-131zM419 41l86 490l-442 -490h356z" />
    <glyph glyph-name="five.oldstyle" horiz-adv-x="574" 
d="M28 -193l3 15q98 -15 193 -15q131 0 187.5 48t74.5 150q8 46 8 75q0 75 -55 103t-166 28h-156l90 333h358l-3 -16h-342l-81 -301h137q117 0 175.5 -32.5t58.5 -114.5q0 -38 -8 -79q-21 -108 -83 -159t-198 -51q-118 0 -193 16z" />
    <glyph glyph-name="six.oldstyle" horiz-adv-x="617" 
d="M657 737l-2 -14q-96 16 -194 16q-137 0 -200.5 -60.5t-87.5 -194.5l-13 -72q124 31 230 31q210 0 210 -154q0 -149 -77 -225t-208 -76q-202 0 -202 209q0 44 11 106l32 181q25 139 92.5 204.5t212.5 65.5q125 0 196 -17zM158 397l-18 -101q-11 -61 -11 -99
q0 -102 48 -147.5t140 -45.5q211 0 256 198q10 44 10 87q0 41 -14.5 69t-42 42.5t-60 20.5t-76.5 6q-119 0 -232 -30z" />
    <glyph glyph-name="seven.oldstyle" horiz-adv-x="522" 
d="M140 528l2 16h437l-3 -16l-466 -731h-20l466 731h-416z" />
    <glyph glyph-name="eight.oldstyle" horiz-adv-x="630" 
d="M597 200q-20 -114 -83.5 -163t-196.5 -49h-8q-110 0 -159.5 38t-49.5 118q0 101 39 165.5t117 79.5q-90 21 -90 124q0 29 6 59q17 97 78.5 139t193.5 42h7q112 0 162 -34.5t50 -105.5q0 -86 -37.5 -147t-114.5 -77q93 -19 93 -123q0 -24 -7 -66zM581 205q7 41 7 63
q0 113 -125 113h-160q-54 0 -93 -21.5t-58 -58t-27.5 -75t-8.5 -82.5q0 -75 46.5 -108t149.5 -33h8q122 0 182 46t79 156zM641 558q6 40 6 56q0 65 -47 94.5t-151 29.5h-7q-121 0 -180 -40t-75 -132q-6 -36 -6 -55q0 -114 125 -114h160q149 0 175 161z" />
    <glyph glyph-name="nine.oldstyle" horiz-adv-x="626" 
d="M62 -195l3 15q102 -17 193 -17q137 0 200.5 60.5t87.5 194.5l13 72q-124 -31 -230 -31q-210 0 -210 154q0 149 77 225t208 76q202 0 202 -209q0 -44 -11 -106l-32 -181q-25 -139 -92.5 -204.5t-212.5 -65.5q-125 0 -196 17zM561 145l18 101q11 61 11 99q0 102 -48 147.5
t-140 45.5q-211 0 -256 -198q-10 -44 -10 -87q0 -41 14.5 -69t42 -42.5t60 -20.5t76.5 -6q119 0 232 30z" />
    <glyph glyph-name="comma.superior" horiz-adv-x="121" 
d="M155 426l-70 -145h-16l68 145h18z" />
    <glyph glyph-name="period.superior" horiz-adv-x="93" 
d="M111 339h-17l15 87h17z" />
    <glyph glyph-name="a.superior" horiz-adv-x="319" 
d="M353 567q0 -16 -5 -43l-41 -227h-15l4 23q-54 -29 -107 -29q-41 0 -59.5 16.5t-18.5 52.5q0 15 4 36q10 56 43 75t110 19h58l7 37q5 27 5 40q0 29 -18 39.5t-65 10.5q-30 0 -78 -4l2 14q48 5 78 5q53 0 74.5 -14.5t21.5 -50.5zM324 475h-58q-73 0 -99.5 -16t-36.5 -67
q-4 -20 -4 -32q0 -30 16 -43t51 -13q48 0 106 31z" />
    <glyph glyph-name="b.superior" horiz-adv-x="325" 
d="M371 531q0 -36 -8 -79q-15 -87 -51 -124t-105 -37q-44 0 -89 4l84 475h15l-26 -143q41 5 76 5q54 0 79 -24.5t25 -76.5zM355 531q0 47 -21 66.5t-69 19.5q-39 0 -76 -4l-54 -305q37 -3 75 -3q61 0 92.5 34t45.5 116q7 38 7 76z" />
    <glyph glyph-name="cent.superior" horiz-adv-x="333" 
d="M349 401q-50 -7 -100 -7l-14 -80h-17l14 80q-56 3 -83.5 30t-27.5 88q0 34 9 82l10 53q17 96 57.5 136.5t111.5 44.5l14 78h17l-14 -78q49 0 97 -7l-3 -16q-48 6 -101 6q-69 0 -107.5 -36t-55.5 -131l-10 -54q-8 -47 -8 -77q0 -57 27 -79.5t83 -22.5q54 0 103 6z" />
    <glyph glyph-name="d.superior" horiz-adv-x="326" 
d="M314 297h-16l4 21q-54 -27 -99 -27q-86 0 -86 93q0 25 6 58l8 44q14 77 48.5 111t103.5 34q35 0 73 -4l26 143h16zM305 333l49 280q-35 4 -73 4q-60 0 -90.5 -31t-43.5 -102l-8 -44q-6 -32 -6 -56q0 -41 17.5 -60t56.5 -19q42 0 98 28z" />
    <glyph glyph-name="e.superior" horiz-adv-x="326" 
d="M373 535q0 -21 -11 -78h-220l-2 -14q-4 -28 -4 -46q0 -49 23 -70.5t69 -21.5q51 0 101 8l-2 -13q-50 -9 -100 -9q-106 0 -106 105q0 23 11 92q22 144 143 144q98 0 98 -97zM358 536q0 81 -85 81q-103 0 -125 -129l-3 -17h205q8 45 8 65z" />
    <glyph glyph-name="l.superior" horiz-adv-x="145" 
d="M133 297h-15l84 473h15z" />
    <glyph glyph-name="m.superior" horiz-adv-x="482" 
d="M516 570q0 -16 -5 -43l-41 -230h-16l41 230q5 27 5 43q0 24 -11.5 35.5t-40.5 11.5q-48 0 -102 -31q1 -6 1 -16q0 -16 -5 -43l-41 -230h-15l41 230q4 21 4 40q0 26 -11 38t-38 12q-40 0 -98 -32l-50 -283h-15l57 320h15l-4 -23q56 33 98 33q45 0 58 -34q56 34 107 34
q66 0 66 -62z" />
    <glyph glyph-name="o.superior" horiz-adv-x="326" 
d="M371 530q0 -22 -9 -78q-13 -81 -47.5 -121t-99.5 -40q-50 0 -72.5 25.5t-22.5 76.5q0 31 8 79q15 82 48.5 121t98.5 39q96 0 96 -102zM355 530q0 45 -19.5 66t-62.5 21q-55 0 -85.5 -36t-43.5 -113q-8 -48 -8 -75q0 -46 19.5 -67.5t62.5 -21.5q56 0 86.5 37t42.5 114
q8 49 8 75z" />
    <glyph glyph-name="r.superior" horiz-adv-x="226" 
d="M133 297h-15l58 325h15l-5 -24q66 34 112 34l-2 -15q-51 0 -112 -33z" />
    <glyph glyph-name="s.superior" horiz-adv-x="290" 
d="M314 391q0 -46 -34 -73t-88 -27t-89 9l2 13q46 -8 90 -8q45 0 74.5 22t29.5 64q0 23 -13.5 37t-48.5 30l-26 12q-35 16 -51.5 33.5t-16.5 43.5q0 44 34.5 64.5t85.5 20.5q47 0 87 -9l-3 -13q-51 8 -86 8q-103 0 -103 -71q0 -23 14.5 -36.5t49.5 -29.5l24 -11
q68 -31 68 -79z" />
    <glyph glyph-name="t.superior" horiz-adv-x="259" 
d="M271 295q-32 -4 -50 -4q-48 0 -48 43q0 8 4 34l42 240h-71l3 14h71l16 92h15l-16 -92h93l-3 -14h-93l-43 -245q-3 -18 -3 -29q0 -17 8 -23t28 -6q18 0 49 3z" />
    <glyph glyph-name="hyphen.superior" horiz-adv-x="264" 
d="M297 508h-162l3 17h162z" />
    <glyph glyph-name="cent.oldstyle" horiz-adv-x="451" 
d="M504 531l-3 -16q-87 12 -130 12q-99 0 -155.5 -53.5t-77.5 -171.5l-13 -73q-8 -41 -8 -83q0 -77 39.5 -110t122.5 -33q42 0 134 12l-2 -14q-75 -11 -129 -13l-20 -113h-16l20 113q-85 2 -125.5 40t-40.5 118q0 39 9 87l13 73q21 120 79 176.5t163 61.5l21 118h16
l-21 -119q62 -2 124 -12z" />
    <glyph glyph-name="hyphen.inferior" horiz-adv-x="264" 
d="M241 15h-162l3 17h162z" />
    <glyph glyph-name="cent.inferior" horiz-adv-x="333" 
d="M277 -205q-50 -7 -100 -7l-14 -80h-17l14 80q-56 3 -83.5 30t-27.5 88q0 34 9 82l10 53q17 96 57.5 136.5t111.5 44.5l14 78h17l-14 -78q49 0 97 -7l-3 -16q-48 6 -101 6q-69 0 -107.5 -36t-55.5 -131l-10 -54q-8 -47 -8 -77q0 -57 27 -79.5t83 -22.5q54 0 103 6z" />
    <glyph glyph-name="dollar.inferior" horiz-adv-x="345" 
d="M36 -201l3 15q67 -9 115 -9q57 0 98.5 29t41.5 86q0 28 -19 46t-66 41l-40 19q-42 20 -64 43t-22 59q0 49 41 76t101 29l13 75h17l-13 -75q68 0 108 -8l-2 -15q-58 7 -113 7q-32 0 -60 -6.5t-51 -27.5t-23 -54q0 -32 19 -51t59 -38l38 -18q51 -24 72.5 -45.5t21.5 -57.5
q0 -58 -42 -91.5t-105 -37.5l-13 -73h-17l13 72q-65 2 -111 10z" />
    <glyph glyph-name="period.inferior" horiz-adv-x="93" 
d="M65 -154h-17l15 87h17z" />
    <glyph glyph-name="comma.inferior" horiz-adv-x="121" 
d="M135 -67l-70 -145h-16l68 145h18z" />
    <glyph glyph-name="commaaccent" horiz-adv-x="422" 
d="M211 -68l-132 -140h-21l132 140h21z" />
    <glyph glyph-name="Dotaccent" horiz-adv-x="378" 
d="M354 806h-16l21 123h16z" />
    <glyph glyph-name="Breve" horiz-adv-x="421" 
d="M526 945q-21 -77 -59 -118t-117 -41q-122 0 -122 122q0 15 2 37h15q-2 -24 -2 -37q0 -51 24 -79t85 -28q71 0 105.5 38t52.5 106h16z" />
    <glyph glyph-name="Ogonek" horiz-adv-x="422" 
d="M298 -208q-34 -9 -82 -9q-53 0 -76.5 17.5t-23.5 53.5q0 93 187 148l35 -2q-34 -11 -55.5 -18.5t-53.5 -21.5t-50.5 -28t-32.5 -34.5t-14 -43.5q0 -31 21 -43.5t66 -12.5q41 0 81 8z" />
    <glyph glyph-name="Cedilla" horiz-adv-x="390" 
d="M221 -68l-156 -140h-21l156 140h21z" />
    <glyph glyph-name="Ring" horiz-adv-x="424" 
d="M395 773q0 -51 -31.5 -77.5t-81.5 -26.5t-81.5 26t-31.5 78t31.5 79t81.5 27t81.5 -27t31.5 -79zM379 773q0 49 -28 69.5t-69 20.5t-69 -20.5t-28 -69.5q0 -48 28.5 -68.5t68.5 -20.5t68.5 20.5t28.5 68.5z" />
    <glyph glyph-name="Tilde" horiz-adv-x="429" 
d="M546 931q-12 -64 -31.5 -93.5t-60.5 -29.5q-26 0 -43 11.5t-36 38.5l-33 49q-18 25 -32 35t-34 10q-19 0 -32.5 -8t-21.5 -25t-12 -32.5t-9 -42.5l-6 -34h-16l6 34q11 63 30.5 93t61.5 30q25 0 41.5 -11t35.5 -38l34 -49q19 -27 32 -36.5t35 -9.5q25 0 41 17t21.5 35.5
t12.5 55.5l6 33h16z" />
    <glyph glyph-name="Circumflex" horiz-adv-x="446" 
d="M512 786h-21l-105 140l-154 -140h-23l172 154h13z" />
    <glyph glyph-name="Acute" horiz-adv-x="415" 
d="M494 940l-169 -154h-20l168 154h21z" />
    <glyph glyph-name="Caron" horiz-adv-x="446" 
d="M237 940h20l106 -139l154 139h22l-171 -154h-14z" />
    <glyph glyph-name="Dieresis" horiz-adv-x="410" 
d="M471 796h-17l21 121h17zM261 917l-21 -121h-17l21 121h17z" />
    <glyph glyph-name="Grave" horiz-adv-x="380" 
d="M365 790h-20l-115 154h21z" />
    <glyph glyph-name="Hungarumlaut" horiz-adv-x="432" 
d="M569 944l-169 -154h-20l168 154h21zM368 944h21l-169 -154h-20z" />
    <glyph glyph-name="Macron" horiz-adv-x="439" 
d="M544 871h-343l3 16h343z" />
    <glyph glyph-name="commaaccent.cap" horiz-adv-x="422" 
d="M216 -68l-132 -140h-21l132 140h21z" />
    <glyph glyph-name="h.superior" horiz-adv-x="346" 
d="M202 778h15l-30 -171q64 33 111 33q42 0 60 -17.5t18 -56.5q0 -22 -5 -52l-37 -209h-15l37 210q5 30 5 51q0 34 -15 46.5t-50 12.5q-48 0 -112 -33l-51 -287h-15z" />
    <glyph glyph-name="zero.slash" horiz-adv-x="614" 
d="M602 340q-33 -188 -109 -270t-190 -82q-122 0 -165 89l-64 -77h-22l79 95q-32 87 -3 245l11 62q34 188 109.5 270t189.5 82q123 0 165 -92l68 81h22l-82 -99q30 -85 2 -242zM145 340q-26 -145 0 -228l445 534q-37 92 -154 92q-104 0 -176 -77t-104 -259zM585 340l11 62
q26 145 1 226l-445 -535q38 -90 154 -90q220 0 279 337z" />
    <glyph glyph-name="perthousand.oldstyle" horiz-adv-x="1237" 
d="M706 529l-402 -529h-20l403 529h19zM393 342q-33 -187 -168 -187q-113 0 -113 125q0 31 8 75q33 187 171 187q111 0 111 -124q0 -26 -9 -76zM377 343q8 45 8 74q0 109 -97 109q-58 0 -96.5 -40t-54.5 -133q-8 -45 -8 -74q0 -108 97 -108q120 0 151 172zM876 175
q-33 -187 -168 -187q-113 0 -113 125q0 31 8 75q33 187 171 187q111 0 111 -124q0 -27 -9 -76zM860 176q8 45 8 74q0 109 -97 109q-58 0 -96.5 -40t-54.5 -133q-8 -45 -8 -74q0 -108 97 -108q120 0 151 172zM1218 174q-33 -187 -168 -187q-113 0 -113 125q0 31 8 75
q33 187 171 187q111 0 111 -124q0 -26 -9 -76zM1202 175q8 45 8 74q0 109 -97 109q-58 0 -96.5 -40t-54.5 -133q-8 -45 -8 -74q0 -108 97 -108q120 0 151 172z" />
    <glyph glyph-name="zero.taboldstyle" horiz-adv-x="613" 
d="M585 248q-22 -126 -97.5 -193t-184.5 -67q-92 0 -143.5 52t-51.5 147q0 39 6 69l7 38q23 126 98 193t184 67q92 0 144 -52t52 -147q0 -25 -7 -69zM570 252l7 38q6 36 6 67q0 90 -49 135.5t-133 45.5q-100 0 -171 -62t-93 -186l-7 -38q-6 -30 -6 -68q0 -90 48.5 -135.5
t133.5 -45.5q100 0 170.5 62t93.5 187z" />
    <glyph glyph-name="one.taboldstyle" horiz-adv-x="613" 
d="M505 0h-350l2 15h167l91 517l-176 -51l3 18l176 51h16l-94 -535h167z" />
    <glyph glyph-name="two.taboldstyle" horiz-adv-x="613" 
d="M189 521l2 14q101 19 193 19q212 0 212 -128q0 -30 -9.5 -58.5t-22 -50.5t-41.5 -48.5t-49.5 -43.5t-65.5 -44.5t-70 -42t-81 -46.5l-135 -76h398l-2 -16h-429l2 16l154 87q166 94 217 133q117 91 118 187q0 62 -49 88.5t-149 26.5q-87 0 -193 -17z" />
    <glyph glyph-name="three.taboldstyle" horiz-adv-x="613" 
d="M57 -202l3 14q81 -9 180 -9q127 0 183.5 46t74.5 138q12 60 12 84q0 111 -137 111h-228l3 16h228q51 0 87 13.5t56 38.5t29.5 49t15.5 58q7 37 7 60q0 62 -46 91.5t-155 29.5q-108 0 -184 -10l3 15q62 11 183 11q115 0 165.5 -34.5t50.5 -102.5q0 -21 -8 -64
q-12 -67 -45.5 -109t-104.5 -55q96 -19 96 -117q0 -26 -12 -90q-18 -96 -81 -145t-196 -49q-113 0 -180 10z" />
    <glyph glyph-name="four.taboldstyle" horiz-adv-x="613" 
d="M403 -203h-17l40 228h-377l3 16l462 509h21l-89 -509h131l-3 -16h-131zM429 41l86 490l-442 -490h356z" />
    <glyph glyph-name="five.taboldstyle" horiz-adv-x="613" 
d="M75 -193l3 15q98 -15 193 -15q131 0 187.5 48t74.5 150q8 46 8 75q0 75 -55 103t-166 28h-156l90 333h358l-3 -16h-342l-81 -301h137q117 0 175.5 -32.5t58.5 -114.5q0 -38 -8 -79q-21 -108 -83 -159t-198 -51q-118 0 -193 16z" />
    <glyph glyph-name="six.taboldstyle" horiz-adv-x="613" 
d="M659 737l-2 -14q-96 16 -194 16q-137 0 -200.5 -60.5t-87.5 -194.5l-13 -72q124 31 230 31q210 0 210 -154q0 -149 -77 -225t-208 -76q-202 0 -202 209q0 44 11 106l32 181q25 139 92.5 204.5t212.5 65.5q125 0 196 -17zM160 397l-18 -101q-11 -61 -11 -99
q0 -102 48 -147.5t140 -45.5q211 0 256 198q10 44 10 87q0 41 -14.5 69t-42 42.5t-60 20.5t-76.5 6q-119 0 -232 -30z" />
    <glyph glyph-name="seven.taboldstyle" horiz-adv-x="613" 
d="M182 528l2 16h437l-3 -16l-466 -731h-20l466 731h-416z" />
    <glyph glyph-name="eight.taboldstyle" horiz-adv-x="613" 
d="M598 200q-20 -114 -83.5 -163t-196.5 -49h-8q-111 0 -160 38t-49 118q0 101 39 165.5t117 79.5q-90 21 -90 124q0 29 6 59q17 97 78.5 139t193.5 42h7q112 0 162 -34.5t50 -105.5q0 -86 -37.5 -147t-114.5 -77q93 -19 93 -123q0 -24 -7 -66zM582 205q7 41 7 63
q0 113 -125 113h-160q-54 0 -93 -21.5t-58 -58t-27.5 -75t-8.5 -82.5q0 -75 46.5 -108t149.5 -33h8q122 0 182 46t79 156zM642 558q6 40 6 56q0 65 -47 94.5t-151 29.5h-7q-121 0 -180 -40t-75 -132q-6 -36 -6 -55q0 -114 125 -114h160q149 0 175 161z" />
    <glyph glyph-name="nine.taboldstyle" horiz-adv-x="613" 
d="M63 -195l3 15q102 -17 193 -17q137 0 200.5 60.5t87.5 194.5l13 72q-124 -31 -230 -31q-210 0 -210 154q0 149 77 225t208 76q202 0 202 -209q0 -44 -11 -106l-32 -181q-25 -139 -92.5 -204.5t-212.5 -65.5q-125 0 -196 17zM562 145l18 101q11 61 11 99q0 102 -48 147.5
t-140 45.5q-211 0 -256 -198q-10 -44 -10 -87q0 -41 14.5 -69t42 -42.5t60 -20.5t76.5 -6q119 0 232 30z" />
    <glyph glyph-name="colonmonetary.taboldstyle" horiz-adv-x="443" 
d="M497 531l-3 -16q-76 12 -131 12q-99 0 -155.5 -53.5t-77.5 -171.5l-13 -73q-8 -41 -8 -83q0 -77 39.5 -110t122.5 -33q42 0 135 12l-2 -14q-65 -10 -92 -11l-21 -115h-16l21 114q-20 -1 -33 -1q-29 0 -57 5l-21 -118h-17l22 123q-97 26 -97 148q0 43 8 86l13 73
q34 190 170 229l23 128h17l-22 -125q27 6 64 6h27l21 119h16l-21 -120q44 -3 88 -11z" />
    <glyph glyph-name="Euro.taboldstyle" horiz-adv-x="455" 
d="M499 530l-3 -15q-83 12 -131 12q-84 0 -136.5 -42t-83.5 -140h252l-5 -16h-251q-16 -56 -21 -119h226l-6 -16h-221q-1 -11 -1 -32q0 -88 36.5 -123.5t118.5 -35.5q48 0 135 12l-2 -14q-79 -13 -136 -13q-90 0 -130 41t-40 132q0 22 1 33h-51l3 16h49q5 62 21 119h-49
l2 16h52q32 105 89.5 151.5t150.5 46.5q57 0 131 -13z" />
    <glyph glyph-name="florin.taboldstyle" horiz-adv-x="579" 
d="M591 595l-2 -14q-76 4 -78 4q-67 0 -98 -28.5t-47 -110.5l-28 -143h190l-4 -16h-190l-57 -269q-19 -88 -53.5 -121.5t-110.5 -33.5q-38 0 -76 6l4 14q50 -4 76 -4q66 0 95.5 28.5t47.5 110.5l58 269h-154l4 16h154l28 143q17 88 52 121.5t112 33.5q45 0 77 -6z" />
    <glyph glyph-name="numbersign.taboldstyle" horiz-adv-x="491" 
d="M475 182h-102l-50 -182h-18l50 182h-172l-50 -182h-18l50 182h-67l2 16h70l59 216h-91l3 16h93l52 187h17l-52 -187h173l52 187h17l-52 -187h77l-3 -16h-79l-60 -216h101zM419 414h-173l-60 -216h174z" />
    <glyph glyph-name="sterling.taboldstyle" horiz-adv-x="458" 
d="M506 533l-2 -15q-59 8 -125 8q-89 0 -130 -40.5t-60 -147.5l-11 -62h229l-2 -15h-229l-18 -102q-9 -52 -23 -82t-46 -61h326l-2 -16h-346l2 16q37 34 49.5 61.5t22.5 81.5l18 102h-71l2 15h71l11 62q21 116 66 160t144 44q74 0 124 -9z" />
    <glyph glyph-name="yen.taboldstyle" horiz-adv-x="465" 
d="M240 0h-16l37 211h-194l3 16h191l-37 102h-136l2 16h127l-65 184h19l82 -231q13 -35 19 -58h1q7 10 20.5 29.5t20.5 29.5l163 230h20l-131 -184h132l-2 -16h-140l-74 -102h196l-3 -16h-198z" />
    <glyph glyph-name="dollar.taboldstyle" horiz-adv-x="455" 
d="M64 5l3 15q85 -17 161 -17q79 0 131.5 38t52.5 105q0 41 -25 63t-99 59l-29 14q-71 35 -99.5 60t-28.5 68q0 67 55 98.5t137 32.5l21 122h16l-21 -121q69 -1 132 -14l-3 -15q-75 14 -137 14q-48 0 -86 -8.5t-68 -36t-30 -71.5q0 -37 26.5 -59t96.5 -57l29 -15
q41 -21 58 -30.5t37.5 -26t27 -34.5t6.5 -43q0 -71 -54.5 -113.5t-138.5 -43.5l-20 -113h-16l19 112q-84 1 -154 17z" />
    <glyph glyph-name="cent.taboldstyle" horiz-adv-x="444" 
d="M491 531l-3 -16q-87 12 -130 12q-99 0 -155.5 -53.5t-77.5 -171.5l-13 -73q-8 -41 -8 -83q0 -77 39.5 -110t122.5 -33q42 0 134 12l-2 -14q-75 -11 -129 -13l-20 -113h-16l20 113q-85 2 -125.5 40t-40.5 118q0 39 9 87l13 73q21 120 80 177t162 60l21 119h16l-21 -119
q62 -2 124 -12z" />
    <glyph glyph-name="zero.denominator" horiz-adv-x="400" 
d="M411 313q0 -34 -7 -72l-11 -58q-20 -102 -64 -146t-116 -44q-120 0 -120 128q0 32 7 68l11 58q19 101 64 145.5t117 44.5q119 0 119 -124zM394 311q0 60 -26.5 85t-78.5 25q-62 0 -102.5 -40.5t-58.5 -136.5l-11 -59q-6 -29 -6 -63q0 -113 105 -113q127 0 160 176l11 59
q7 36 7 67z" />
    <glyph glyph-name="one.denominator" horiz-adv-x="300" 
d="M283 0h-238l3 14h109l71 401l-116 -38l3 15l115 38h16l-73 -416h113z" />
    <glyph glyph-name="two.denominator" horiz-adv-x="374" 
d="M147 412l3 15q55 10 115 10q67 0 100 -19.5t33 -63.5q0 -51 -37.5 -84.5t-108.5 -66.5q-93 -43 -122.5 -76t-42.5 -107l-1 -5h245l-2 -15h-261l3 20q14 79 46 114.5t128 80.5q31 14 48.5 23.5t41.5 27t35.5 39t11.5 48.5q0 39 -29 54t-91 15q-57 0 -115 -10z" />
    <glyph glyph-name="three.denominator" horiz-adv-x="368" 
d="M390 358q0 -16 -3 -31q-18 -87 -94 -103q60 -11 60 -72q0 -20 -5 -41q-13 -61 -51.5 -89.5t-121.5 -28.5q-67 0 -107 8l2 15q56 -8 105 -8q76 0 110.5 24t47.5 82q5 21 5 39q0 31 -19 47.5t-67 16.5h-133l2 15h133q60 0 85.5 27.5t32.5 72.5q2 12 2 25q0 36 -28.5 50.5
t-95.5 14.5q-45 0 -109 -8l2 15q64 8 111 8q71 0 103.5 -18t32.5 -61z" />
    <glyph glyph-name="four.denominator" horiz-adv-x="421" 
d="M307 0h-16l22 130h-225l3 15l272 285h19l-50 -285h76l-3 -15h-76zM316 145l47 266l-252 -266h205z" />
    <glyph glyph-name="five.denominator" horiz-adv-x="375" 
d="M391 430l-2 -15h-205l-44 -163h83q139 0 139 -88q0 -18 -4 -41q-13 -70 -54.5 -100t-127.5 -30q-68 0 -108 9l3 15q59 -9 108 -9q79 0 115 27t48 91q4 21 4 38q0 42 -31 57.5t-95 15.5h-101l52 193h220z" />
    <glyph glyph-name="six.denominator" horiz-adv-x="402" 
d="M420 428l-3 -16q-67 9 -116 9q-79 0 -118 -36t-51 -108l-6 -37q72 16 136 16q62 0 94.5 -19t32.5 -67q0 -86 -45 -131.5t-127 -45.5q-125 0 -125 119q0 27 4 50l21 115q15 82 58 121t129 39q60 0 116 -9zM369 121q4 23 4 48q0 42 -28.5 57t-85.5 15q-63 0 -136 -16
l-12 -68q-4 -23 -4 -45q0 -104 111 -104q131 0 151 113z" />
    <glyph glyph-name="seven.denominator" horiz-adv-x="360" 
d="M136 415l2 15h263l-2 -15l-283 -415h-18l284 415h-246z" />
    <glyph glyph-name="eight.denominator" horiz-adv-x="422" 
d="M403 111q-11 -64 -56 -91t-120 -27h-6q-135 0 -135 94q0 118 94 139q-55 16 -55 80q0 70 43 100.5t132 30.5h5q138 0 138 -84q0 -45 -25 -81t-68 -46q57 -14 57 -77q0 -13 -4 -38zM387 114q4 25 4 35q0 70 -81 70h-92q-62 0 -89.5 -39.5t-27.5 -91.5q0 -80 123 -80h6
q69 0 108 24.5t49 81.5zM424 327q2 13 2 26q0 37 -30 53t-94 16h-5q-80 0 -118 -26.5t-38 -89.5q0 -71 80 -71h92q50 0 76.5 26.5t34.5 65.5z" />
    <glyph glyph-name="nine.denominator" horiz-adv-x="402" 
d="M92 2l3 16q67 -9 116 -9q79 0 118 36t51 108l6 37q-72 -16 -136 -16q-62 0 -94.5 19t-32.5 67q0 86 45 131.5t127 45.5q125 0 125 -119q0 -27 -4 -50l-21 -115q-15 -82 -58 -121t-129 -39q-60 0 -116 9zM143 309q-4 -23 -4 -48q0 -42 28.5 -57t85.5 -15q63 0 136 16
l12 68q4 23 4 45q0 104 -111 104q-131 0 -151 -113z" />
    <glyph glyph-name="comma.denominator" horiz-adv-x="121" 
d="M114 76l-70 -145h-16l68 145h18z" />
    <glyph glyph-name="period.denominator" horiz-adv-x="93" 
d="M70 -11h-17l15 87h17z" />
    <glyph glyph-name="cent.denominator" horiz-adv-x="333" 
d="M308 0q-50 -7 -100 -7l-14 -80h-17l14 80q-56 3 -83.5 30t-27.5 88q0 34 9 82l10 53q17 96 57.5 136.5t111.5 44.5l14 78h17l-14 -78q49 0 97 -7l-3 -16q-48 6 -101 6q-69 0 -107.5 -36t-55.5 -131l-10 -54q-8 -47 -8 -77q0 -57 27 -79.5t83 -22.5q54 0 103 6z" />
    <glyph glyph-name="dollar.denominator" horiz-adv-x="345" 
d="M67 4l3 15q68 -9 115 -9q57 0 98.5 29t41.5 86q0 28 -19 46t-66 41l-40 19q-42 20 -64 43t-22 59q0 49 41 76t101 29l13 75h17l-13 -75q68 0 108 -8l-2 -15q-58 7 -113 7q-32 0 -60 -6.5t-51 -27.5t-23 -54q0 -31 19.5 -51t58.5 -38l38 -18q51 -24 72.5 -45.5t21.5 -57.5
q0 -58 -42 -91.5t-105 -37.5l-13 -73h-17l13 72q-65 2 -111 10z" />
    <glyph glyph-name="hyphen.denominator" horiz-adv-x="264" 
d="M256 158h-162l3 17h162z" />
    <glyph glyph-name="parenleft.denominator" horiz-adv-x="187" 
d="M221 457q-66 -71 -104 -160t-38 -184q0 -103 45 -182h-18q-43 82 -43 182q0 93 36.5 183.5t102.5 160.5h19z" />
    <glyph glyph-name="parenright.denominator" horiz-adv-x="187" 
d="M152 276q0 -93 -36.5 -183.5t-102.5 -160.5h-19q66 71 104 160t38 184q0 103 -45 182h18q43 -82 43 -182z" />
    <glyph glyph-name="zero.numerator" horiz-adv-x="400" 
d="M452 630q0 -34 -7 -72l-11 -58q-20 -102 -64 -146t-116 -44q-120 0 -120 128q0 32 7 68l11 58q19 101 64 145.5t117 44.5q119 0 119 -124zM435 628q0 60 -26.5 85t-78.5 25q-62 0 -102.5 -40.5t-58.5 -136.5l-11 -59q-6 -29 -6 -63q0 -113 105 -113q127 0 160 176l11 59
q7 36 7 67z" />
    <glyph glyph-name="one.numerator" horiz-adv-x="300" 
d="M324 317h-238l3 14h109l71 401l-116 -38l3 15l115 38h16l-73 -416h113z" />
    <glyph glyph-name="two.numerator" horiz-adv-x="374" 
d="M188 729l3 15q55 10 115 10q67 0 100 -19.5t33 -63.5q0 -51 -37.5 -84.5t-108.5 -66.5q-93 -43 -122.5 -76t-42.5 -107l-1 -5h245l-2 -15h-261l3 20q14 79 46 114.5t128 80.5q31 14 48.5 23.5t41.5 27t35.5 39t11.5 48.5q0 39 -29 54t-91 15q-57 0 -115 -10z" />
    <glyph glyph-name="three.numerator" horiz-adv-x="368" 
d="M431 675q0 -16 -3 -31q-18 -87 -94 -103q60 -11 60 -72q0 -20 -5 -41q-13 -61 -51.5 -89.5t-121.5 -28.5q-67 0 -107 8l2 15q56 -8 105 -8q76 0 110.5 24t47.5 82q5 21 5 39q0 31 -19 47.5t-67 16.5h-133l2 15h133q60 0 85.5 27.5t32.5 72.5q2 12 2 25q0 36 -28.5 50.5
t-95.5 14.5q-45 0 -109 -8l2 15q64 8 111 8q71 0 103.5 -18t32.5 -61z" />
    <glyph glyph-name="four.numerator" horiz-adv-x="421" 
d="M348 317h-16l22 130h-225l3 15l272 285h19l-50 -285h76l-3 -15h-76zM357 462l47 266l-252 -266h205z" />
    <glyph glyph-name="five.numerator" horiz-adv-x="375" 
d="M432 747l-2 -15h-205l-44 -163h83q139 0 139 -88q0 -18 -4 -41q-13 -70 -54.5 -100t-127.5 -30q-68 0 -108 9l3 15q58 -9 108 -9q79 0 115 27t48 91q4 21 4 38q0 42 -31 57.5t-95 15.5h-101l52 193h220z" />
    <glyph glyph-name="six.numerator" horiz-adv-x="402" 
d="M461 745l-3 -16q-68 9 -116 9q-79 0 -118 -36t-51 -108l-6 -37q72 16 136 16q62 0 94.5 -19t32.5 -67q0 -86 -45 -131.5t-127 -45.5q-125 0 -125 119q0 27 4 50l21 115q15 82 58 121t129 39q60 0 116 -9zM410 438q4 23 4 48q0 42 -28.5 57t-85.5 15q-63 0 -136 -16
l-12 -68q-4 -23 -4 -45q0 -104 111 -104q131 0 151 113z" />
    <glyph glyph-name="seven.numerator" horiz-adv-x="360" 
d="M177 732l2 15h263l-2 -15l-283 -415h-18l284 415h-246z" />
    <glyph glyph-name="eight.numerator" horiz-adv-x="422" 
d="M444 428q-11 -64 -56 -91t-120 -27h-6q-135 0 -135 94q0 118 94 139q-55 16 -55 80q0 70 43 100.5t132 30.5h5q138 0 138 -84q0 -45 -25 -81t-68 -46q57 -14 57 -77q0 -13 -4 -38zM428 431q4 25 4 35q0 70 -81 70h-92q-62 0 -89.5 -39.5t-27.5 -91.5q0 -80 123 -80h6
q69 0 108 24.5t49 81.5zM465 644q2 13 2 26q0 37 -30 53t-94 16h-5q-80 0 -118 -26.5t-38 -89.5q0 -71 80 -71h92q50 0 76.5 26.5t34.5 65.5z" />
    <glyph glyph-name="nine.numerator" horiz-adv-x="402" 
d="M133 319l3 16q67 -9 116 -9q79 0 118 36t51 108l6 37q-72 -16 -136 -16q-62 0 -94.5 19t-32.5 67q0 86 45 131.5t127 45.5q125 0 125 -119q0 -27 -4 -50l-21 -115q-15 -82 -58 -121t-129 -39q-60 0 -116 9zM184 626q-4 -23 -4 -48q0 -42 28.5 -57t85.5 -15q63 0 136 16
l12 68q4 23 4 45q0 104 -111 104q-131 0 -151 -113z" />
    <glyph glyph-name="comma.numerator" horiz-adv-x="121" 
d="M155 393l-70 -145h-16l68 145h18z" />
    <glyph glyph-name="period.numerator" horiz-adv-x="93" 
d="M111 306h-17l15 87h17z" />
    <glyph glyph-name="cent.numerator" horiz-adv-x="333" 
d="M349 317q-50 -7 -100 -7l-14 -80h-17l14 80q-56 3 -83.5 30t-27.5 88q0 34 9 82l10 53q17 96 57.5 136.5t111.5 44.5l14 78h17l-14 -78q49 0 97 -7l-3 -16q-48 6 -101 6q-69 0 -107.5 -36t-55.5 -131l-10 -54q-8 -47 -8 -77q0 -57 27 -79.5t83 -22.5q54 0 103 6z" />
    <glyph glyph-name="dollar.numerator" horiz-adv-x="345" 
d="M108 321l3 15q68 -9 115 -9q57 0 98.5 29t41.5 86q0 28 -19 46t-66 41l-40 19q-42 20 -64 43t-22 59q0 49 41 76t101 29l13 75h17l-13 -75q68 0 108 -8l-2 -15q-58 7 -113 7q-32 0 -60 -6.5t-51 -27.5t-23 -54q0 -31 19.5 -51t58.5 -38l38 -18q51 -24 72.5 -45.5
t21.5 -57.5q0 -58 -42 -91.5t-105 -37.5l-13 -73h-17l13 72q-65 2 -111 10z" />
    <glyph glyph-name="hyphen.numerator" horiz-adv-x="264" 
d="M297 475h-162l3 17h162z" />
    <glyph glyph-name="parenleft.numerator" horiz-adv-x="187" 
d="M284 774q-66 -71 -104 -160t-38 -184q0 -103 45 -182h-18q-43 82 -43 182q0 93 36.5 183.5t102.5 160.5h19z" />
    <glyph glyph-name="parenright.numerator" horiz-adv-x="187" 
d="M237 593q0 -93 -36.5 -183.5t-102.5 -160.5h-19q66 71 104 160t38 184q0 103 -45 182h18q43 -82 43 -182z" />
    <glyph glyph-name="parenleft.cap" horiz-adv-x="237" 
d="M183 0h-17q-54 105 -54 246q0 288 189 520h19q-91 -109 -141 -242.5t-50 -277.5q0 -136 54 -246z" />
    <glyph glyph-name="parenright.cap" horiz-adv-x="237" 
d="M187 766h17q54 -105 54 -246q0 -288 -189 -520h-19q91 109 141 242.5t50 277.5q0 136 -54 246z" />
    <glyph glyph-name="bracketleft.cap" horiz-adv-x="336" 
d="M268 0h-165l131 743h165l-3 -16h-148l-126 -711h148z" />
    <glyph glyph-name="bracketright.cap" horiz-adv-x="336" 
d="M258 0h-165l2 16h148l126 711h-148l3 16h165z" />
    <glyph glyph-name="braceleft.cap" horiz-adv-x="379" 
d="M319 0h-26q-68 0 -94.5 21t-26.5 63q0 19 5 47l12 73q6 42 6 54q0 59 -58 106l4 20q55 35 76 66t32 90l12 72q12 68 44 99.5t115 31.5h30l-3 -16h-26q-78 0 -106 -26.5t-38 -88.5l-12 -72q-11 -60 -35.5 -97t-78.5 -71q60 -47 60 -115q0 -13 -6 -53l-12 -73
q-5 -28 -5 -46q0 -35 23 -52t84 -17h26z" />
    <glyph glyph-name="braceright.cap" horiz-adv-x="379" 
d="M190 743h26q68 0 94.5 -21t26.5 -63q0 -19 -5 -47l-12 -73q-6 -42 -6 -54q0 -59 58 -106l-4 -20q-55 -35 -76 -66t-32 -90l-12 -72q-12 -68 -44 -99.5t-115 -31.5h-30l3 16h26q78 0 106 26.5t38 88.5l12 72q11 60 35.5 97t78.5 71q-60 47 -60 115q0 13 6 53l12 73
q5 28 5 46q0 35 -23 52t-84 17h-26z" />
    <glyph glyph-name="exclamdown.cap" horiz-adv-x="191" 
d="M218 743h17l-20 -111h-17zM201 555l-98 -559h-17l98 559h17z" />
    <glyph glyph-name="questiondown.cap" horiz-adv-x="414" 
d="M402 743h17l-19 -111h-17zM389 -5l-3 -15q-71 -13 -142 -13q-167 0 -167 128q0 68 34 120.5t103 106.5q86 69 112.5 105t36.5 94l6 31h17l-6 -31q-10 -62 -39 -100.5t-117 -109.5q-67 -54 -99 -101.5t-32 -114.5q0 -61 38 -86.5t115 -25.5q75 0 143 12z" />
    <glyph glyph-name="guillemotleft.cap" horiz-adv-x="487" 
d="M538 607l-189 -206l116 -207h-19l-117 209l188 204h21zM317 607h21l-189 -206l116 -207h-19l-117 209z" />
    <glyph glyph-name="guillemotright.cap" horiz-adv-x="487" 
d="M503 398l-188 -204h-21l189 206l-116 207h19zM186 607l117 -209l-188 -204h-21l189 206l-116 207h19z" />
    <glyph glyph-name="guilsinglleft.cap" horiz-adv-x="287" 
d="M339 607l-189 -206l116 -207h-19l-117 209l188 204h21z" />
    <glyph glyph-name="guilsinglright.cap" horiz-adv-x="287" 
d="M303 398l-188 -204h-21l189 206l-116 207h19z" />
    <glyph glyph-name="hyphen.cap" horiz-adv-x="302" 
d="M313 392h-184l3 17h184z" />
    <glyph glyph-name="endash.cap" horiz-adv-x="385" 
d="M384 290h-281l2 16h281z" />
    <glyph glyph-name="emdash.cap" horiz-adv-x="489" 
d="M488 290h-385l2 16h385z" />
    <glyph glyph-name="periodcentered.cap" horiz-adv-x="169" 
d="M153 338h-16l20 112h16z" />
    <glyph glyph-name="at.cap" horiz-adv-x="800" 
d="M828 529q0 -163 -94 -260t-274 -97q-89 0 -129 31t-40 102q0 39 14 100q23 95 74.5 134.5t134.5 39.5q51 0 111 -13l-73 -372q126 22 193 110.5t67 223.5q0 97 -66.5 153.5t-203.5 56.5q-322 0 -391 -319q-18 -85 -18 -148q0 -134 77 -196t212 -62q72 0 146 12l-1 -15
q-73 -13 -150 -13q-141 0 -221 67.5t-80 206.5q0 69 19 153q77 330 409 330q145 0 214.5 -61t69.5 -164zM605 554q-48 10 -93 10q-76 0 -123 -36t-68 -126q-14 -58 -14 -97q0 -63 36.5 -90.5t118.5 -27.5q32 0 72 4z" />
    <glyph glyph-name="T_h" horiz-adv-x="1021" 
d="M942 0h-16l58 331q9 47 9 81q0 63 -30.5 89.5t-98.5 26.5q-80 0 -206 -61l-84 -467h-16l128 727h-248l-128 -727h-17l128 727h-263l3 16h545l-45 -259q129 60 206 60q75 0 108.5 -31.5t33.5 -99.5q0 -26 -9 -82z" />
    <glyph glyph-name="A.alt" horiz-adv-x="602" 
d="M20 0l391 728h-68l3 16h98l138 -744h-18l-53 302h-313l-159 -302h-19zM508 318l-58 312l-19 101h-2q-8 -16 -53 -101l-169 -312h301z" />
    <glyph glyph-name="B.alt" horiz-adv-x="595" 
d="M639 612q0 -22 -7 -57q-24 -140 -182 -164q130 -21 130 -136q0 -27 -8 -72q-18 -102 -90.5 -148.5t-215.5 -46.5q-75 0 -181 12l128 727h-63l3 16q29 0 112 4.5t132 4.5q128 0 185 -33t57 -107zM564 255q0 128 -189 128h-207l-65 -369q88 -11 166 -11q134 0 202 44
t85 142q8 47 8 66zM623 612q0 68 -54 96.5t-175 28.5q-71 0 -165 -8l-58 -330h207q67 0 114.5 14.5t72 41t35.5 50.5t17 56q6 29 6 51z" />
    <glyph glyph-name="C.alt" horiz-adv-x="561" 
d="M635 741l-17 -96h-15l15 82q-74 11 -155 11q-136 0 -213.5 -85t-111.5 -275l-2 -11q-15 -81 -15 -141q0 -115 52.5 -168.5t162.5 -53.5q75 0 173 13l-3 -16q-69 -13 -176 -13q-114 0 -169.5 58.5t-55.5 179.5q0 59 16 145l2 11q36 196 117 284t225 88q122 0 170 -13z" />
    <glyph glyph-name="D.alt" horiz-adv-x="629" 
d="M84 -2l129 729h-63l3 16q48 0 116.5 5t132.5 5q127 0 189.5 -59t62.5 -186q0 -55 -14 -133l-4 -22q-35 -197 -123.5 -281t-245.5 -84q-53 0 -183 10zM621 360l4 22q13 78 13 126q0 122 -60 175.5t-179 53.5q-90 0 -170 -8l-126 -715q97 -10 167 -10q146 0 231.5 81
t119.5 275z" />
    <glyph glyph-name="E.alt" horiz-adv-x="544" 
d="M617 727h-388l-58 -327h359l-3 -16h-359l-65 -369h388l-2 -15h-404l128 727h-63l3 16h467z" />
    <glyph glyph-name="F.alt" horiz-adv-x="534" 
d="M85 0l128 727h-63l3 16h467l-3 -16h-388l-58 -327h359l-3 -16h-359l-67 -384h-16z" />
    <glyph glyph-name="G.alt" horiz-adv-x="589" 
d="M524 0q-97 -12 -176 -12q-242 0 -242 254q0 58 13 127l2 12q35 200 123 286.5t231 86.5q90 0 179 -13l-18 -102h-15l16 89q-80 10 -164 10q-136 0 -219 -83.5t-117 -276.5l-2 -13q-12 -69 -12 -123q0 -125 57.5 -181.5t168.5 -56.5q84 0 161 8l62 351h-135l2 15h151z" />
    <glyph glyph-name="H.alt" horiz-adv-x="671" 
d="M586 0h-16l69 393h-469l-69 -393h-16l128 727h-63l3 16h79l-59 -334h469l59 334h16z" />
    <glyph glyph-name="I.alt" 
d="M169 0h-141l2 15h62l126 712h-62l3 16h141l-3 -16h-62l-126 -712h62z" />
    <glyph glyph-name="J.alt" 
d="M297 727h-62l-137 -776q-14 -78 -41 -114.5t-97 -36.5q-22 0 -58 4l2 14q46 -2 59 -2q60 0 83 32t35 103l137 776h-62l3 16h141z" />
    <glyph glyph-name="K.alt" horiz-adv-x="535" 
d="M517 0h-22l-323 376l-66 -376h-16l128 727h-62l3 16h78l-64 -361l450 361h26l-457 -365z" />
    <glyph glyph-name="M.alt" horiz-adv-x="748" 
d="M663 0h-16l114 652q4 19 13 70h-1q-9 -12 -27.5 -34t-27.5 -34l-277 -342h-24l-157 342q-5 12 -15.5 34t-15.5 34h-1q-9 -51 -13 -70l-114 -652h-16l128 727h-63l3 16h86l160 -353q5 -11 15.5 -33t15.5 -33h2q9 11 26.5 33t26.5 33l286 353h23z" />
    <glyph glyph-name="N.alt" horiz-adv-x="664" 
d="M578 -3h-22l-300 666q-5 10 -13.5 29.5t-12.5 29.5h-1q-2 -12 -6.5 -36.5t-6.5 -36.5l-114 -649h-17l128 727h-62l3 16h84l303 -675q4 -9 11.5 -26t11.5 -25h1q9 45 11 62l118 664h16z" />
    <glyph glyph-name="P.alt" horiz-adv-x="560" 
d="M611 603q0 -24 -8 -69q-37 -207 -296 -207q-75 0 -152 4l-58 -331h-17l128 727h-62l3 16q47 0 117 5.5t121 5.5q122 0 173 -36.5t51 -114.5zM595 603q0 72 -48.5 103.5t-161.5 31.5q-58 0 -160 -9l-67 -383q79 -4 152 -4q126 0 193 48.5t85 147.5q7 37 7 65z" />
    <glyph glyph-name="Q.alt" horiz-adv-x="646" 
d="M298 -193h-17l32 181q-207 5 -207 238q0 58 14 140l4 21q36 202 118.5 284.5t213.5 82.5q216 0 216 -238q0 -57 -14 -139l-4 -21q-34 -197 -116 -281.5t-208 -86.5zM639 361l4 21q13 74 13 133q0 122 -53 172.5t-149 50.5q-122 0 -201 -79t-114 -277l-4 -21
q-13 -74 -13 -134q0 -122 53 -172.5t149 -50.5q120 0 200.5 80t114.5 277z" />
    <glyph glyph-name="R.alt" horiz-adv-x="591" 
d="M611 604q0 -25 -8 -70q-29 -169 -207 -200l150 -334h-17l-148 332q-38 -5 -74 -5q-75 0 -152 4l-58 -331h-17l128 727h-62l3 16q36 0 116.5 5.5t121.5 5.5q123 0 173.5 -36t50.5 -114zM595 604q0 71 -48 102.5t-162 31.5q-58 0 -160 -9l-67 -383q79 -4 152 -4
q126 0 193 48.5t85 147.5q7 37 7 66z" />
    <glyph glyph-name="S.alt" horiz-adv-x="546" 
d="M407 739q-43 0 -80 -7t-73.5 -23.5t-58 -50.5t-21.5 -82q0 -27 9 -48.5t32.5 -42t41.5 -32.5t58 -36l43 -25q96 -56 131.5 -92.5t35.5 -101.5q0 -210 -265 -210q-112 0 -190 13l2 15q90 -12 191 -12q244 0 244 194q0 60 -33 93t-126 87l-44 26q-73 41 -109.5 79.5
t-36.5 92.5q0 51 21.5 87.5t59.5 55.5t79.5 27t90.5 8q97 0 190 -13l-17 -97h-16l15 84q-90 11 -174 11z" />
    <glyph glyph-name="U.alt" horiz-adv-x="650" 
d="M684 743h17l-73 -409q-31 -179 -99.5 -261t-205.5 -82q-106 0 -152.5 52t-46.5 157q0 48 16 144l68 383h-69l3 16h85l-72 -404q-15 -81 -15 -141q0 -98 44 -144.5t142 -46.5q130 0 193 79.5t93 252.5z" />
    <glyph glyph-name="Z.alt" horiz-adv-x="563" 
d="M535 15l-2 -15h-503l2 15l591 712h-429l-15 -84h-16l18 100h466l-3 -16l-590 -712h481z" />
    <glyph glyph-name="a.alt" horiz-adv-x="503" 
d="M494 432q0 -28 -8 -71l-63 -361h-16l7 44q-114 -56 -202 -56q-135 0 -135 116q0 29 5 53q16 89 74.5 119.5t190.5 30.5h114l10 58q7 46 7 66q0 55 -34 75.5t-120 20.5q-55 0 -123 -7l-12 -67h-15l15 82q78 8 138 8q92 0 129.5 -25t37.5 -86zM458 292h-114
q-126 0 -177.5 -27t-68.5 -111q-5 -21 -5 -50q0 -101 124 -101q91 0 200 58z" />
    <glyph glyph-name="b.alt" horiz-adv-x="521" 
d="M509 252q-26 -149 -86.5 -206.5t-182.5 -57.5q-77 0 -156 8l133 758h-58l3 16h74l-45 -254q85 27 156 27q92 0 134.5 -37t42.5 -126q0 -42 -11 -106zM493 255l4 22q11 63 11 103q0 82 -39.5 114.5t-124.5 32.5q-74 0 -155 -27l-87 -490q78 -7 141 -7q113 0 169 54t81 198
z" />
    <glyph glyph-name="c.alt" horiz-adv-x="443" 
d="M398 1q-84 -13 -135 -13q-91 0 -132.5 34t-41.5 124q0 49 12 116l2 13q27 152 87 210t171 58q53 0 130 -12l-15 -83h-15l13 70q-64 9 -116 9q-103 0 -158 -54t-81 -201l-2 -13q-12 -67 -12 -113q0 -83 38 -113t123 -30q42 0 134 12z" />
    <glyph glyph-name="d.alt" horiz-adv-x="521" 
d="M572 770l-136 -770h-16l6 38q-102 -50 -183 -50q-79 0 -116 38.5t-37 122.5q0 49 12 115l2 12q26 146 88.5 206.5t182.5 60.5q66 0 139 -8l38 219h-67l3 16h84zM511 520q-76 7 -139 7q-111 0 -169 -57t-83 -198l-2 -12q-12 -66 -12 -112q0 -78 34 -111t106 -33
q76 0 183 51z" />
    <glyph glyph-name="f.alt" horiz-adv-x="360" 
d="M473 770l-2 -15q-50 5 -80 5q-66 0 -93.5 -28.5t-41.5 -111.5l-16 -91h188l-3 -16h-188l-116 -661h-16l116 661h-114l3 16h114l16 91q16 88 47 122t106 34q42 0 80 -6z" />
    <glyph glyph-name="g.alt" horiz-adv-x="518" 
d="M548 543l-3 -16h-103q74 -26 74 -114q0 -23 -5 -53q-13 -76 -61.5 -119.5t-160.5 -43.5q-93 0 -136 33q-60 -32 -60 -80q0 -46 50 -46h128q106 0 150.5 -26t44.5 -85q0 -103 -63.5 -154t-179.5 -51q-189 0 -189 132q0 105 84 172q-41 11 -41 58q0 53 65 90q-26 29 -26 79
q0 28 4 49q6 38 17.5 65.5t35.5 54.5t68 41t106 14h201zM451 -6q0 51 -40.5 73t-142.5 22h-133q-86 -66 -86 -170q0 -56 40 -86t134 -30q228 0 228 191zM501 413q0 53 -34.5 83.5t-122.5 30.5q-59 0 -100 -13.5t-62.5 -39.5t-31 -50t-15.5 -60q-3 -16 -3 -45q0 -51 34.5 -79
t122.5 -28q106 0 150 40t57 112q5 28 5 49z" />
    <glyph glyph-name="h.alt" horiz-adv-x="549" 
d="M159 754l3 16h75l-50 -286q129 60 209 60q74 0 106.5 -33t32.5 -99q0 -28 -9 -84l-58 -328h-16l58 331q9 52 9 81q0 57 -27.5 86.5t-96.5 29.5q-87 0 -211 -61l-83 -467h-17l133 754h-58z" />
    <glyph glyph-name="i.alt" 
d="M107 0h-17l90 513h-58l3 16h75zM220 643h-17l22 127h17z" />
    <glyph glyph-name="j.alt" 
d="M91 -88q-12 -66 -35 -95t-78 -29q-30 0 -58 4l2 14q32 -3 59 -3q44 0 63 24t30 85l106 601h-57l3 16h74zM220 641h-17l22 129h17z" />
    <glyph glyph-name="k.alt" horiz-adv-x="416" 
d="M161 754l3 16h74l-86 -488l322 247h28l-327 -251l231 -278h-23l-231 278l-49 -278h-18l133 754h-57z" />
    <glyph glyph-name="l.alt" horiz-adv-x="187" 
d="M102 0h-17l132 754h-58l3 16h75z" />
    <glyph glyph-name="m.alt" horiz-adv-x="794" 
d="M784 431q0 -32 -8 -75l-63 -356h-16l63 359q7 36 7 71q0 49 -22 73t-77 24q-83 0 -191 -63q5 -35 -7 -109l-62 -355h-17l63 359q8 48 8 77q0 46 -22 68.5t-78 22.5q-71 0 -178 -58l-83 -469h-17l91 513h-58l3 16h75l-8 -44q103 58 178 58q91 0 109 -65q106 65 197 65
q62 0 87.5 -29t25.5 -83z" />
    <glyph glyph-name="n.alt" horiz-adv-x="549" 
d="M119 513l3 16h73l-8 -45q120 59 207 59q74 0 107.5 -31.5t33.5 -99.5q0 -28 -9 -84l-58 -328h-16l58 331q8 48 8 79q0 64 -29.5 90.5t-97.5 26.5q-87 0 -207 -60l-82 -467h-17l90 513h-56z" />
    <glyph glyph-name="p.alt" horiz-adv-x="525" 
d="M528 394q0 -42 -12 -114l-4 -24q-23 -138 -87 -203t-186 -65q-56 0 -139 8l-36 -204h-16l127 721h-58l3 16h74l-8 -42q117 56 197 56q77 0 111 -35.5t34 -113.5zM511 395q0 71 -30.5 101.5t-101.5 30.5q-83 0 -195 -56l-81 -459q74 -8 139 -8q112 0 171 61t83 196l4 23
q11 64 11 111z" />
    <glyph glyph-name="r.alt" horiz-adv-x="332" 
d="M101 0h-16l90 513h-57l3 16h73l-8 -43q103 57 231 57l-3 -16q-123 0 -231 -57z" />
    <glyph glyph-name="s.alt" horiz-adv-x="447" 
d="M443 452l11 62q-65 13 -127 13q-187 0 -187 -126q0 -39 28.5 -63t93.5 -49l34 -13q68 -26 99 -56t31 -76q0 -75 -57 -115.5t-149 -40.5q-97 0 -162 18l3 15q76 -18 160 -18q81 0 134.5 34.5t53.5 106.5q0 41 -27.5 67t-94.5 51l-34 13q-67 26 -98 53.5t-31 72.5
q0 141 206 141q76 0 142 -15l-13 -75h-16z" />
    <glyph glyph-name="u.alt" horiz-adv-x="548" 
d="M112 513l3 16h74l-58 -329q-8 -41 -8 -81q0 -63 30.5 -89.5t95.5 -26.5q90 0 208 61l82 465h17l-94 -529h-16l8 46q-116 -58 -208 -58q-73 0 -106 31.5t-33 99.5q0 37 9 87l54 307h-58z" />
    <glyph glyph-name="y.alt" horiz-adv-x="548" 
d="M463 1q-22 -120 -74 -166.5t-164 -46.5q-68 0 -165 10l3 15q104 -10 162 -10q105 0 153 41.5t69 156.5l4 25q-100 -38 -172 -38q-87 0 -127.5 38t-40.5 119q0 33 10 88l52 296h16l-53 -299q-9 -48 -9 -85q0 -75 37.5 -108.5t116.5 -33.5q66 0 173 39l86 487h16z" />
    <glyph glyph-name="z.alt" horiz-adv-x="462" 
d="M414 15l-2 -15h-367l2 15l433 498h-317l-11 -61h-16l14 77h354l-3 -15l-434 -499h347z" />
    <glyph glyph-name="a.alt2" horiz-adv-x="503" 
d="M494 431q0 -27 -8 -70l-63 -361h-16l7 44q-114 -56 -202 -56q-135 0 -135 116q0 24 5 50q16 91 74.5 122t190.5 31h114l10 58q7 46 7 66q0 55 -34 75.5t-120 20.5q-63 0 -138 -8l3 16q78 8 138 8q92 0 129.5 -25t37.5 -87zM458 292h-114q-126 0 -178 -27.5t-69 -113.5
q-5 -24 -5 -46q0 -102 125 -102q91 0 200 58z" />
    <glyph glyph-name="f.alt2" horiz-adv-x="361" 
d="M473 770l-2 -15q-50 5 -80 5q-66 0 -93 -28.5t-41 -111.5l-16 -91h187l-3 -16h-187l-91 -513h-17l91 513h-114l3 16h114l16 91q16 88 47 122t106 34q42 0 80 -6z" />
    <glyph glyph-name="u.alt2" horiz-adv-x="542" 
d="M510 272q-26 -151 -79.5 -217.5t-162.5 -66.5q-82 0 -118 39.5t-36 122.5q0 53 14 129l44 250h17l-45 -254q-13 -71 -13 -125q0 -77 33 -112t107 -35q100 0 148.5 62t74.5 210l45 254h17z" />
    <glyph glyph-name="Aacute.alt" horiz-adv-x="602" 
d="M20 0l391 728h-68l3 16h98l138 -744h-18l-53 302h-313l-159 -302h-19zM508 318l-58 312l-19 101h-2q-8 -16 -53 -101l-169 -312h301zM606 943l-169 -154h-20l168 154h21z" />
    <glyph glyph-name="Acircumflex.alt" horiz-adv-x="602" 
d="M20 0l391 728h-68l3 16h98l138 -744h-18l-53 302h-313l-159 -302h-19zM508 318l-58 312l-19 101h-2q-8 -16 -53 -101l-169 -312h301zM587 789h-20l-105 139l-155 -139h-22l171 154h14z" />
    <glyph glyph-name="Adieresis.alt" horiz-adv-x="602" 
d="M20 0l391 728h-68l3 16h98l138 -744h-18l-53 302h-313l-159 -302h-19zM508 318l-58 312l-19 101h-2q-8 -16 -53 -101l-169 -312h301zM592 926l-22 -121h-17l22 121h17zM344 926h17l-22 -121h-17z" />
    <glyph glyph-name="Agrave.alt" horiz-adv-x="602" 
d="M20 0l391 728h-68l3 16h98l138 -744h-18l-53 302h-313l-159 -302h-19zM508 318l-58 312l-19 101h-2q-8 -16 -53 -101l-169 -312h301zM484 789h-20l-115 154h20z" />
    <glyph glyph-name="Aring.alt" horiz-adv-x="602" 
d="M546 880q0 -52 -30.5 -79t-80.5 -27t-81 27.5t-31 78.5t31 78t81 27t80.5 -27t30.5 -78zM530 880q0 48 -27 69t-68 21q-42 0 -69 -21t-27 -69q0 -49 27 -70t69 -21q41 0 68 21.5t27 69.5zM20 0l391 728h-68l3 16h98l138 -744h-18l-53 302h-313l-159 -302h-19zM508 318
l-58 312l-19 101h-2q-8 -16 -53 -101l-169 -312h301z" />
    <glyph glyph-name="Atilde.alt" horiz-adv-x="602" 
d="M20 0l391 728h-68l3 16h98l138 -744h-18l-53 302h-313l-159 -302h-19zM508 318l-58 312l-19 101h-2q-8 -16 -53 -101l-169 -312h301zM627 910q-12 -64 -31.5 -93.5t-60.5 -29.5q-26 0 -43 11.5t-36 38.5l-33 49q-18 25 -32 35t-34 10q-19 0 -32.5 -8t-21.5 -25t-12 -32.5
t-9 -42.5l-6 -34h-16l6 34q11 63 30.5 93t61.5 30q25 0 41.5 -11t35.5 -38l34 -49q19 -27 32 -36.5t35 -9.5q25 0 41 17t21.5 35.5t12.5 55.5l6 33h16z" />
    <glyph glyph-name="Ccedilla.alt" horiz-adv-x="561" 
d="M635 741l-17 -96h-15l15 82q-74 11 -155 11q-136 0 -213.5 -85t-111.5 -275l-2 -11q-15 -81 -15 -141q0 -115 52.5 -168.5t162.5 -53.5q75 0 173 13l-3 -16q-69 -13 -176 -13q-114 0 -169.5 58.5t-55.5 179.5q0 59 16 145l2 11q36 196 117 284t225 88q122 0 170 -13z
M314 -68l-156 -140h-21l156 140h21z" />
    <glyph glyph-name="Eacute.alt" horiz-adv-x="544" 
d="M617 727h-388l-58 -327h359l-3 -16h-359l-65 -369h388l-2 -15h-404l128 727h-63l3 16h467zM583 943l-169 -154h-20l168 154h21z" />
    <glyph glyph-name="Ecircumflex.alt" horiz-adv-x="544" 
d="M617 727h-388l-58 -327h359l-3 -16h-359l-65 -369h388l-2 -15h-404l128 727h-63l3 16h467zM567 789h-20l-105 139l-155 -139h-22l171 154h14z" />
    <glyph glyph-name="Edieresis.alt" horiz-adv-x="544" 
d="M617 727h-388l-58 -327h359l-3 -16h-359l-65 -369h388l-2 -15h-404l128 727h-63l3 16h467zM552 925l-22 -121h-17l22 121h17zM304 925h17l-22 -121h-17z" />
    <glyph glyph-name="Egrave.alt" horiz-adv-x="544" 
d="M617 727h-388l-58 -327h359l-3 -16h-359l-65 -369h388l-2 -15h-404l128 727h-63l3 16h467zM439 789h-20l-115 154h20z" />
    <glyph glyph-name="Eth.alt" horiz-adv-x="629" 
d="M654 508q0 -55 -14 -133l-4 -22q-35 -197 -123.5 -281t-245.5 -84q-53 0 -183 10l68 384h-71l3 17h71l58 328h-63l3 16q48 0 116.5 5t132.5 5q127 0 189.5 -59t62.5 -186zM638 508q0 122 -60 175.5t-179 53.5q-90 0 -170 -8l-58 -330h226l-3 -17h-226l-65 -368
q97 -10 167 -10q145 0 230 81t121 275l4 22q13 78 13 126z" />
    <glyph glyph-name="Iacute.alt" 
d="M169 0h-141l2 15h62l126 712h-62l3 16h141l-3 -16h-62l-126 -712h62zM396 943l-169 -154h-20l168 154h21z" />
    <glyph glyph-name="Icircumflex.alt" 
d="M169 0h-141l2 15h62l126 712h-62l3 16h141l-3 -16h-62l-126 -712h62zM392 789h-20l-105 139l-155 -139h-22l171 154h14z" />
    <glyph glyph-name="Idieresis.alt" 
d="M169 0h-141l2 15h62l126 712h-62l3 16h141l-3 -16h-62l-126 -712h62zM388 926l-22 -121h-17l22 121h17zM140 926h17l-22 -121h-17z" />
    <glyph glyph-name="Igrave.alt" 
d="M169 0h-141l2 15h62l126 712h-62l3 16h141l-3 -16h-62l-126 -712h62zM297 789h-20l-115 154h20z" />
    <glyph glyph-name="Ntilde.alt" horiz-adv-x="664" 
d="M578 -3h-22l-300 666q-5 10 -13.5 29.5t-12.5 29.5h-1q-2 -12 -6.5 -36.5t-6.5 -36.5l-114 -649h-17l128 727h-62l3 16h84l303 -675q4 -9 11.5 -26t11.5 -25h1q9 45 11 62l118 664h16zM663 910q-12 -64 -31.5 -93.5t-60.5 -29.5q-26 0 -43 11.5t-36 38.5l-33 49
q-18 25 -32 35t-34 10q-19 0 -32.5 -8t-21.5 -25t-12 -32.5t-9 -42.5l-6 -34h-16l6 34q11 63 30.5 93t61.5 30q25 0 41.5 -11t35.5 -38l34 -49q19 -27 32 -36.5t35 -9.5q25 0 41 17t21.5 35.5t12.5 55.5l6 33h16z" />
    <glyph glyph-name="Scaron.alt" horiz-adv-x="546" 
d="M407 739q-43 0 -80 -7t-73.5 -23.5t-58 -50.5t-21.5 -82q0 -27 9 -48.5t32.5 -42t41.5 -32.5t58 -36l43 -25q96 -56 131.5 -92.5t35.5 -101.5q0 -210 -265 -210q-112 0 -190 13l2 15q90 -12 191 -12q244 0 244 194q0 60 -33 93t-126 87l-44 26q-73 41 -109.5 79.5
t-36.5 92.5q0 51 21.5 87.5t59.5 55.5t79.5 27t90.5 8q97 0 190 -13l-17 -97h-16l15 84q-90 11 -174 11zM280 943h20l106 -139l154 139h22l-171 -154h-14z" />
    <glyph glyph-name="Uacute.alt" horiz-adv-x="650" 
d="M684 743h17l-73 -409q-31 -179 -99.5 -261t-205.5 -82q-106 0 -152.5 52t-46.5 157q0 48 16 144l68 383h-69l3 16h85l-72 -404q-15 -81 -15 -141q0 -98 44 -144.5t142 -46.5q130 0 193 79.5t93 252.5zM630 943l-169 -154h-20l168 154h21z" />
    <glyph glyph-name="Ucircumflex.alt" horiz-adv-x="650" 
d="M684 743h17l-73 -409q-31 -179 -99.5 -261t-205.5 -82q-106 0 -152.5 52t-46.5 157q0 48 16 144l68 383h-69l3 16h85l-72 -404q-15 -81 -15 -141q0 -98 44 -144.5t142 -46.5q130 0 193 79.5t93 252.5zM612 789h-20l-105 139l-155 -139h-22l171 154h14z" />
    <glyph glyph-name="Udieresis.alt" horiz-adv-x="650" 
d="M684 743h17l-73 -409q-31 -179 -99.5 -261t-205.5 -82q-106 0 -152.5 52t-46.5 157q0 48 16 144l68 383h-69l3 16h85l-72 -404q-15 -81 -15 -141q0 -98 44 -144.5t142 -46.5q130 0 193 79.5t93 252.5zM610 926l-22 -121h-17l22 121h17zM362 926h17l-22 -121h-17z" />
    <glyph glyph-name="Ugrave.alt" horiz-adv-x="650" 
d="M684 743h17l-73 -409q-31 -179 -99.5 -261t-205.5 -82q-106 0 -152.5 52t-46.5 157q0 48 16 144l68 383h-69l3 16h85l-72 -404q-15 -81 -15 -141q0 -98 44 -144.5t142 -46.5q130 0 193 79.5t93 252.5zM483 789h-20l-115 154h20z" />
    <glyph glyph-name="Zcaron.alt" horiz-adv-x="563" 
d="M535 15l-2 -15h-503l2 15l591 712h-429l-15 -84h-16l18 100h466l-3 -16l-590 -712h481zM289 943h20l106 -139l154 139h22l-171 -154h-14z" />
    <glyph glyph-name="aacute.alt" horiz-adv-x="503" 
d="M494 432q0 -28 -8 -71l-63 -361h-16l7 44q-114 -56 -202 -56q-135 0 -135 116q0 29 5 53q16 89 74.5 119.5t190.5 30.5h114l10 58q7 46 7 66q0 55 -34 75.5t-120 20.5q-55 0 -123 -7l-12 -67h-15l15 82q78 8 138 8q92 0 129.5 -25t37.5 -86zM458 292h-114
q-126 0 -177.5 -27t-68.5 -111q-5 -21 -5 -50q0 -101 124 -101q91 0 200 58zM524 770l-169 -154h-20l168 154h21z" />
    <glyph glyph-name="acircumflex.alt" horiz-adv-x="503" 
d="M494 432q0 -28 -8 -71l-63 -361h-16l7 44q-114 -56 -202 -56q-135 0 -135 116q0 29 5 53q16 89 74.5 119.5t190.5 30.5h114l10 58q7 46 7 66q0 55 -34 75.5t-120 20.5q-55 0 -123 -7l-12 -67h-15l15 82q78 8 138 8q92 0 129.5 -25t37.5 -86zM458 292h-114
q-126 0 -177.5 -27t-68.5 -111q-5 -21 -5 -50q0 -101 124 -101q91 0 200 58zM533 616h-20l-105 139l-155 -139h-22l171 154h14z" />
    <glyph glyph-name="adieresis.alt" horiz-adv-x="503" 
d="M494 432q0 -28 -8 -71l-63 -361h-16l7 44q-114 -56 -202 -56q-135 0 -135 116q0 29 5 53q16 89 74.5 119.5t190.5 30.5h114l10 58q7 46 7 66q0 55 -34 75.5t-120 20.5q-55 0 -123 -7l-12 -67h-15l15 82q78 8 138 8q92 0 129.5 -25t37.5 -86zM458 292h-114
q-126 0 -177.5 -27t-68.5 -111q-5 -21 -5 -50q0 -101 124 -101q91 0 200 58zM513 760l-22 -121h-17l22 121h17zM265 760h17l-22 -121h-17z" />
    <glyph glyph-name="agrave.alt" horiz-adv-x="503" 
d="M494 432q0 -28 -8 -71l-63 -361h-16l7 44q-114 -56 -202 -56q-135 0 -135 116q0 29 5 53q16 89 74.5 119.5t190.5 30.5h114l10 58q7 46 7 66q0 55 -34 75.5t-120 20.5q-55 0 -123 -7l-12 -67h-15l15 82q78 8 138 8q92 0 129.5 -25t37.5 -86zM458 292h-114
q-126 0 -177.5 -27t-68.5 -111q-5 -21 -5 -50q0 -101 124 -101q91 0 200 58zM401 616h-20l-115 154h20z" />
    <glyph glyph-name="ampersand.alt" horiz-adv-x="663" 
d="M645 410q-38 -218 -126 -319l70 -84l-1 -7h-11l-67 80q-90 -92 -241 -92q-84 0 -139.5 35t-55.5 112q0 149 196 238l-9 11q-43 52 -62.5 91t-19.5 84q0 99 60 147t167 48q173 0 173 -120q0 -25 -5.5 -47.5t-12.5 -40t-23.5 -35.5t-27.5 -29.5t-37 -27t-39 -23t-46 -22.5
t-46 -20.5t-50 -20.5l219 -266q81 94 119 308h15zM501 91l-222 271q-189 -84 -189 -227q0 -69 50 -100.5t132 -31.5q143 0 229 88zM564 634q0 105 -160 105q-96 0 -153 -42.5t-57 -137.5q0 -46 18.5 -81t62.5 -89l8 -10q9 4 35.5 14.5t38.5 15.5t37 16.5t38.5 19.5
t34.5 21.5t32 25t25.5 28t22 33t12.5 37.5t5 44z" />
    <glyph glyph-name="aring.alt" horiz-adv-x="503" 
d="M490 703q0 -52 -30.5 -79t-80.5 -27t-81 27.5t-31 78.5t31 78t81 27t80.5 -27t30.5 -78zM474 703q0 48 -27 69t-68 21q-42 0 -69 -21t-27 -69q0 -49 27 -70t69 -21q41 0 68 21.5t27 69.5zM494 432q0 -28 -8 -71l-63 -361h-16l7 44q-114 -56 -202 -56q-135 0 -135 116
q0 29 5 53q16 89 74.5 119.5t190.5 30.5h114l10 58q7 46 7 66q0 55 -34 75.5t-120 20.5q-55 0 -123 -7l-12 -67h-15l15 82q78 8 138 8q92 0 129.5 -25t37.5 -86zM458 292h-114q-126 0 -177.5 -27t-68.5 -111q-5 -21 -5 -50q0 -101 124 -101q91 0 200 58z" />
    <glyph glyph-name="atilde.alt" horiz-adv-x="503" 
d="M494 432q0 -28 -8 -71l-63 -361h-16l7 44q-114 -56 -202 -56q-135 0 -135 116q0 29 5 53q16 89 74.5 119.5t190.5 30.5h114l10 58q7 46 7 66q0 55 -34 75.5t-120 20.5q-55 0 -123 -7l-12 -67h-15l15 82q78 8 138 8q92 0 129.5 -25t37.5 -86zM458 292h-114
q-126 0 -177.5 -27t-68.5 -111q-5 -21 -5 -50q0 -101 124 -101q91 0 200 58zM561 740q-12 -64 -31.5 -93.5t-60.5 -29.5q-26 0 -43 11.5t-36 38.5l-33 49q-18 25 -32 35t-34 10q-19 0 -32.5 -8t-21.5 -25t-12 -32.5t-9 -42.5l-6 -34h-16l6 34q11 63 30.5 93t61.5 30
q25 0 41.5 -11t35.5 -38l34 -49q19 -27 32 -36.5t35 -9.5q25 0 41 17t21.5 35.5t12.5 55.5l6 33h16z" />
    <glyph glyph-name="ccedilla.alt" horiz-adv-x="443" 
d="M398 1q-84 -13 -135 -13q-91 0 -132.5 34t-41.5 124q0 49 12 116l2 13q27 152 87 210t171 58q53 0 130 -12l-15 -83h-15l13 70q-64 9 -116 9q-103 0 -158 -54t-81 -201l-2 -13q-12 -67 -12 -113q0 -83 38 -113t123 -30q42 0 134 12zM272 -68l-156 -140h-21l156 140h21z
" />
    <glyph glyph-name="dotlessi.alt" 
d="M107 0h-17l90 513h-58l3 16h75z" />
    <glyph glyph-name="iacute.alt" 
d="M367 770l-169 -154h-20l168 154h21zM107 0h-17l90 513h-58l3 16h75z" />
    <glyph glyph-name="icircumflex.alt" 
d="M355 616h-20l-105 139l-155 -139h-22l171 154h14zM107 0h-17l90 513h-58l3 16h75z" />
    <glyph glyph-name="idieresis.alt" 
d="M355 760l-22 -121h-17l22 121h17zM107 760h17l-22 -121h-17zM107 0h-17l90 513h-58l3 16h75z" />
    <glyph glyph-name="igrave.alt" 
d="M255 616h-20l-115 154h20zM107 0h-17l90 513h-58l3 16h75z" />
    <glyph glyph-name="lslash.alt" horiz-adv-x="187" 
d="M102 0h-17l69 393l-106 -88l4 22l106 88l59 339h-58l3 16h75l-59 -338l103 86l-4 -23l-103 -86z" />
    <glyph glyph-name="ntilde.alt" horiz-adv-x="549" 
d="M119 513l3 16h73l-8 -45q120 59 207 59q74 0 107.5 -31.5t33.5 -99.5q0 -28 -9 -84l-58 -328h-16l58 331q8 48 8 79q0 64 -29.5 90.5t-97.5 26.5q-87 0 -207 -60l-82 -467h-17l90 513h-56zM586 740q-12 -64 -31.5 -93.5t-60.5 -29.5q-26 0 -43 11.5t-36 38.5l-33 49
q-18 25 -32 35t-34 10q-19 0 -32.5 -8t-21.5 -25t-12 -32.5t-9 -42.5l-6 -34h-16l6 34q11 63 30.5 93t61.5 30q25 0 41.5 -11t35.5 -38l34 -49q19 -27 32 -36.5t35 -9.5q25 0 41 17t21.5 35.5t12.5 55.5l6 33h16z" />
    <glyph glyph-name="scaron.alt" horiz-adv-x="447" 
d="M189 770h20l106 -139l154 139h22l-171 -154h-14zM443 452l11 62q-65 13 -127 13q-187 0 -187 -126q0 -39 28.5 -63t93.5 -49l34 -13q68 -26 99 -56t31 -76q0 -75 -57 -115.5t-149 -40.5q-97 0 -162 18l3 15q76 -18 160 -18q81 0 134.5 34.5t53.5 106.5q0 41 -27.5 67
t-94.5 51l-34 13q-67 26 -98 53.5t-31 72.5q0 141 206 141q76 0 142 -15l-13 -75h-16z" />
    <glyph glyph-name="uacute.alt" horiz-adv-x="548" 
d="M535 770l-169 -154h-20l168 154h21zM112 513l3 16h74l-58 -329q-8 -41 -8 -81q0 -63 30.5 -89.5t95.5 -26.5q90 0 208 61l82 465h17l-94 -529h-16l8 46q-116 -58 -208 -58q-73 0 -106 31.5t-33 99.5q0 37 9 87l54 307h-58z" />
    <glyph glyph-name="ucircumflex.alt" horiz-adv-x="548" 
d="M112 513l3 16h74l-58 -329q-8 -41 -8 -81q0 -63 30.5 -89.5t95.5 -26.5q90 0 208 61l82 465h17l-94 -529h-16l8 46q-116 -58 -208 -58q-73 0 -106 31.5t-33 99.5q0 37 9 87l54 307h-58zM522 616h-20l-105 139l-155 -139h-22l171 154h14z" />
    <glyph glyph-name="udieresis.alt" horiz-adv-x="548" 
d="M112 513l3 16h74l-58 -329q-8 -41 -8 -81q0 -63 30.5 -89.5t95.5 -26.5q90 0 208 61l82 465h17l-94 -529h-16l8 46q-116 -58 -208 -58q-73 0 -106 31.5t-33 99.5q0 37 9 87l54 307h-58zM527 760l-22 -121h-17l22 121h17zM279 760h17l-22 -121h-17z" />
    <glyph glyph-name="ugrave.alt" horiz-adv-x="548" 
d="M418 616h-20l-115 154h20zM112 513l3 16h74l-58 -329q-8 -41 -8 -81q0 -63 30.5 -89.5t95.5 -26.5q90 0 208 61l82 465h17l-94 -529h-16l8 46q-116 -58 -208 -58q-73 0 -106 31.5t-33 99.5q0 37 9 87l54 307h-58z" />
    <glyph glyph-name="f_f.alt" horiz-adv-x="695" 
d="M808 770l-2 -15q-50 5 -80 5q-66 0 -93.5 -28.5t-41.5 -111.5l-16 -91h188l-3 -16h-188l-116 -661h-16l116 661h-319l-116 -661h-16l116 661h-114l3 16h114l16 91q16 88 47 122t106 34q42 0 80 -6l-2 -15q-50 5 -80 5q-66 0 -93.5 -28.5t-41.5 -111.5l-16 -91h319l16 91
q16 88 47 122t106 34q42 0 80 -6z" />
    <glyph glyph-name="f_f.alt2" horiz-adv-x="695" 
d="M808 770l-2 -15q-50 5 -80 5q-66 0 -93.5 -28.5t-41.5 -111.5l-16 -91h188l-3 -16h-188l-90 -513h-16l90 513h-319l-89 -513h-16l89 513h-114l3 16h114l16 91q16 88 47 122t106 34q42 0 80 -6l-2 -15q-50 5 -80 5q-66 0 -93.5 -28.5t-41.5 -111.5l-16 -91h319l16 91
q16 88 47 122t106 34q42 0 80 -6z" />
    <glyph glyph-name="f_i.alt2" horiz-adv-x="513" 
d="M148 0h-17l90 513h-114l3 16h114l16 91q16 88 47 122t107 34q42 0 80 -6l-2 -15q-50 5 -80 5q-66 0 -93.5 -28.5t-41.5 -111.5l-16 -91h275l-93 -529h-17l90 513h-258zM536 643h-17l22 127h17z" />
    <glyph glyph-name="f_l.alt2" horiz-adv-x="542" 
d="M147 0h-16l90 513h-114l3 16h114l16 91q18 100 55 129t141 29q76 0 134 -7h17l-135 -771h-17l133 755q-68 7 -135 7q-95 0 -128 -24.5t-49 -117.5l-16 -91h188l-3 -16h-188z" />
    <glyph glyph-name="f_f_i.alt2" horiz-adv-x="841" 
d="M751 0h-16l90 513h-289l-90 -513h-16l90 513h-282l-90 -513h-17l90 513h-114l3 16h114l16 91q16 88 47 122t107 34q42 0 80 -6l-2 -15q-50 5 -80 5q-66 0 -93.5 -28.5t-41.5 -111.5l-16 -91h282l16 91q16 88 47 122t106 34q42 0 80 -6l-2 -15q-50 5 -80 5
q-66 0 -93.5 -28.5t-41.5 -111.5l-16 -91h305zM864 643h-16l22 127h16z" />
    <glyph glyph-name="f_f_l.alt2" horiz-adv-x="841" 
d="M751 0h-16l132 754q-72 8 -134 8q-97 0 -129.5 -26t-48.5 -116l-16 -91h189l-3 -16h-189l-90 -513h-16l90 513h-282l-90 -513h-17l90 513h-114l3 16h114l16 91q16 91 48 123.5t109 32.5q38 0 77 -6l-2 -15q-52 5 -77 5q-68 0 -95.5 -27t-42.5 -113l-16 -91h282l16 91
q17 97 53.5 127.5t143.5 30.5q62 0 134 -8h16z" />
    <glyph glyph-name="yacute.alt" horiz-adv-x="548" 
d="M550 770l-169 -154h-20l168 154h21zM463 1q-22 -120 -74 -166.5t-164 -46.5q-68 0 -165 10l3 15q104 -10 162 -10q105 0 153 41.5t69 156.5l4 25q-100 -38 -172 -38q-87 0 -127.5 38t-40.5 119q0 33 10 88l52 296h16l-53 -299q-9 -48 -9 -85q0 -75 37.5 -108.5
t116.5 -33.5q66 0 173 39l86 487h16z" />
    <glyph glyph-name="ydieresis.alt" horiz-adv-x="548" 
d="M528 760l-22 -121h-17l22 121h17zM280 760h17l-22 -121h-17zM463 1q-22 -120 -74 -166.5t-164 -46.5q-68 0 -165 10l3 15q104 -10 162 -10q105 0 153 41.5t69 156.5l4 25q-100 -38 -172 -38q-87 0 -127.5 38t-40.5 119q0 33 10 88l52 296h16l-53 -299q-9 -48 -9 -85
q0 -75 37.5 -108.5t116.5 -33.5q66 0 173 39l86 487h16z" />
    <glyph glyph-name="zcaron.alt" horiz-adv-x="462" 
d="M208 770h20l106 -139l154 139h22l-171 -154h-14zM414 15l-2 -15h-367l2 15l433 498h-317l-11 -61h-16l14 77h354l-3 -15l-434 -499h347z" />
    <glyph glyph-name="two.alt" horiz-adv-x="572" 
d="M188 628l19 109q99 17 187 17q112 0 165.5 -32.5t53.5 -100.5q0 -38 -13.5 -71.5t-33 -57.5t-54 -49t-63 -41t-74.5 -39q-80 -40 -122.5 -66.5t-78 -64.5t-52.5 -83.5t-30 -119.5l-3 -13h413l-3 -16h-429l5 29q11 61 26 104t34.5 75.5t55.5 61t73.5 50.5t103.5 56
q35 18 48 25t44 25t44.5 29t35.5 31.5t31 38.5t17 43t8 53q0 62 -49.5 89.5t-154.5 27.5q-76 0 -172 -15l-17 -95h-15z" />
    <glyph glyph-name="three.alt" horiz-adv-x="557" 
d="M596 617q0 -21 -8 -64q-12 -67 -45.5 -109t-104.5 -55q49 -10 72.5 -41t23.5 -70q0 -27 -13 -96q-19 -97 -81 -145.5t-195 -48.5q-113 0 -180 10l3 15q92 -10 177 -10q129 0 186 46t75 138q12 60 12 90q0 43 -30.5 74t-106.5 31h-228l3 16h228q51 0 87 13.5t56 38.5
t29.5 49t15.5 58q7 37 7 60q0 62 -46 91.5t-155 29.5q-72 0 -169 -9l-17 -94h-15l20 108q62 11 183 11q115 0 165.5 -34.5t50.5 -102.5z" />
    <glyph glyph-name="five.alt" horiz-adv-x="572" 
d="M604 743l-20 -109h-16l17 93h-326l-81 -301h137q116 0 175.5 -33.5t59.5 -116.5q0 -21 -10 -75q-20 -108 -82 -159.5t-198 -51.5q-118 0 -193 16l2 15q97 -15 194 -15q131 0 187 48t74 150q9 51 9 72q0 77 -55 105.5t-166 28.5h-156l90 333h358z" />
    <glyph glyph-name="six.alt" horiz-adv-x="615" 
d="M652 737l-18 -103h-16l16 91q-112 14 -178 14q-136 0 -200.5 -60.5t-87.5 -194.5l-13 -72q124 31 230 31q210 0 210 -154q0 -44 -10 -89q-47 -212 -275 -212q-202 0 -202 209q0 44 11 106l32 181q25 139 92.5 204.5t212.5 65.5q117 0 196 -17zM153 397l-18 -101
q-11 -61 -11 -99q0 -102 48 -147.5t140 -45.5q211 0 256 198q10 44 10 87q0 41 -14.5 69t-42 42.5t-60 20.5t-76.5 6q-119 0 -232 -30z" />
    <glyph glyph-name="seven.alt" horiz-adv-x="535" 
d="M622 727l-465 -727h-19l465 727h-401l-17 -93h-16l20 109h436z" />
    <glyph glyph-name="f_i.alt" horiz-adv-x="572" 
d="M576 529l-94 -529h-17l91 513h-319l-116 -661h-16l116 661h-114l3 16h114l16 91q16 88 47 122t106 34q42 0 80 -6l-2 -15q-50 5 -80 5q-66 0 -93.5 -28.5t-41.5 -111.5l-16 -91h336zM601 770h17l-22 -127h-17z" />
    <glyph glyph-name="f_l.alt" horiz-adv-x="572" 
d="M618 770l-136 -770h-17l133 755q-80 5 -155 5q-100 0 -136 -28t-51 -112l-16 -91h188l-3 -16h-188l-116 -661h-16l116 661h-114l3 16h114l16 91q11 61 28 92t58 47.5t117 16.5t157 -6h18z" />
    <glyph glyph-name="dotlessj" 
d="M200 529l-109 -617q-11 -65 -34.5 -94.5t-75.5 -29.5q-33 0 -61 4l2 14q32 -3 59 -3q44 0 63 24t30 85l109 617h17z" />
    <glyph glyph-name="zero.tab" horiz-adv-x="613" 
d="M658 533q0 -57 -24 -193q-33 -188 -109 -270t-190 -82q-188 0 -188 218q0 60 24 196q34 188 109.5 270t189.5 82q188 0 188 -221zM641 533q0 205 -173 205q-104 0 -176 -77t-104 -259q-24 -134 -24 -197q0 -202 174 -202q220 0 279 337q24 134 24 193z" />
    <glyph glyph-name="one.tab" horiz-adv-x="613" 
d="M523 0h-434l2 16h209l126 712l-217 -53l3 17l217 54h17l-129 -730h208z" />
    <glyph glyph-name="two.tab" horiz-adv-x="613" 
d="M520 16l-3 -16h-429l5 29q11 61 26 104t34.5 75.5t55.5 61t73.5 50.5t103.5 56q35 18 48 25t44 25t44.5 29t35.5 31.5t31 38.5t17 43t8 53q0 62 -49.5 89.5t-154.5 27.5q-98 0 -188 -18l3 17q99 17 187 17q112 0 165.5 -32.5t53.5 -100.5q0 -38 -13.5 -71.5t-33 -57.5
t-54 -49t-63 -41t-74.5 -39q-80 -40 -122.5 -66.5t-78 -64.5t-52.5 -83.5t-30 -119.5l-3 -13h413z" />
    <glyph glyph-name="three.tab" horiz-adv-x="613" 
d="M623 617q0 -21 -8 -64q-12 -67 -45.5 -109t-104.5 -55q96 -19 96 -112q0 -26 -13 -95q-19 -97 -81 -145.5t-195 -48.5q-112 0 -180 10l3 15q93 -10 177 -10q129 0 186 46t75 138q12 60 12 90q0 105 -137 105h-228l3 16h228q51 0 87 13.5t56 38.5t29.5 49t15.5 58
q7 37 7 60q0 62 -46 91.5t-155 29.5q-91 0 -184 -10l3 15q62 11 183 11q115 0 165.5 -34.5t50.5 -102.5z" />
    <glyph glyph-name="four.tab" horiz-adv-x="613" 
d="M608 228h-131l-40 -228h-16l40 228h-377l3 16l460 502h21l-88 -502h131zM464 244l85 483l-442 -483h357z" />
    <glyph glyph-name="five.tab" horiz-adv-x="613" 
d="M624 743l-3 -16h-342l-81 -301h137q117 0 175.5 -32.5t58.5 -114.5q0 -38 -8 -79q-21 -108 -83 -159t-198 -51q-118 0 -193 16l2 15q97 -15 194 -15q131 0 187.5 48t74.5 150q8 46 8 75q0 75 -55 103t-166 28h-156l90 333h358z" />
    <glyph glyph-name="seven.tab" horiz-adv-x="613" 
d="M652 727l-465 -727h-18l465 727h-418l3 16h436z" />
    <glyph glyph-name="six.tab" horiz-adv-x="613" 
d="M652 737l-2 -15q-109 17 -194 17q-137 0 -200.5 -60.5t-87.5 -194.5l-13 -72q124 31 230 31q210 0 210 -154q0 -149 -77 -225t-208 -76q-202 0 -202 209q0 44 11 106l32 181q25 139 92.5 204.5t212.5 65.5q117 0 196 -17zM153 397l-18 -101q-11 -61 -11 -99
q0 -102 48 -147.5t140 -45.5q211 0 256 198q10 44 10 87q0 41 -14.5 69t-42 42.5t-60 20.5t-76.5 6q-119 0 -232 -30z" />
    <glyph glyph-name="eight.tab" horiz-adv-x="613" 
d="M653 613q0 -86 -37 -147t-115 -77q93 -19 93 -123q0 -24 -7 -66q-20 -114 -83.5 -163t-196.5 -49h-8q-110 0 -159.5 38t-49.5 118q0 101 39 165.5t117 79.5q-90 21 -90 124q0 29 6 59q17 97 78 139t194 42h7q112 0 162 -34.5t50 -105.5zM578 268q0 113 -125 113h-160
q-54 0 -93 -21.5t-58 -58t-27.5 -75t-8.5 -82.5q0 -75 46.5 -108t149.5 -33h8q122 0 182 46t79 156q7 41 7 63zM637 614q0 65 -47 94.5t-151 29.5h-7q-121 0 -180 -40t-75 -132q-6 -36 -6 -55q0 -114 125 -114h160q42 0 75 14.5t52.5 36t32 51.5t17 58t4.5 57z" />
    <glyph glyph-name="nine.tab" horiz-adv-x="613" 
d="M92 4l3 15q102 -17 193 -17q137 0 200.5 60.5t87.5 194.5l13 72q-124 -31 -230 -31q-210 0 -210 154q0 149 77 225t208 76q202 0 202 -209q0 -44 -11 -106l-32 -181q-25 -139 -92.5 -204.5t-212.5 -65.5q-125 0 -196 17zM591 344l18 101q11 60 11 99q0 102 -48 147.5
t-140 45.5q-211 0 -256 -198q-10 -44 -10 -87q0 -41 14.5 -69t42 -42.5t60 -20.5t76.5 -6q119 0 232 30z" />
    <glyph glyph-name="dieresisacute" horiz-adv-x="441" 
d="M544 760l-22 -121h-17l22 121h17zM428 770h21l-169 -154h-20zM198 760l-22 -121h-17l22 121h17z" />
    <glyph glyph-name="middot" horiz-adv-x="227" 
d="M177 301h-17l24 136h17z" />
    <glyph glyph-name="dieresisgrave" horiz-adv-x="441" 
d="M522 639h-17l22 121h17zM298 770l114 -154h-19l-115 154h20zM176 639h-17l22 121h17z" />
    <glyph glyph-name="threequartersemdash" horiz-adv-x="730" 
d="M736 282h-610l3 16h610z" />
    <glyph glyph-name="overscore" horiz-adv-x="577" 
d="M727 833h-585l3 16h585z" />
    <glyph glyph-name="franc.taboldstyle" horiz-adv-x="461" 
d="M134 0h-16l26 152h-45l3 15h45l64 362h289l-3 -16h-273l-40 -225h253l-3 -16h-253l-18 -105h134l-3 -15h-134z" />
    <glyph glyph-name="lira.taboldstyle" horiz-adv-x="458" 
d="M506 533l-2 -15q-56 8 -125 8q-89 0 -130 -40.5t-60 -147.5l-5 -27h229l-2 -15h-229l-16 -90h229l-3 -15h-229l-5 -32q-9 -52 -23 -82t-46 -61h326l-2 -16h-346l2 16q37 34 49.5 61.5t22.5 81.5l5 32h-71l3 15h71l16 90h-71l2 15h71l5 27q21 114 65 159t145 45
q74 0 124 -9z" />
    <glyph glyph-name="currency.taboldstyle" horiz-adv-x="572" 
d="M581 176l-11 -12l-73 73q-55 -51 -130 -51q-77 0 -132 52l-73 -74l-12 12l74 73q-50 54 -50 130q0 75 50 130l-73 74l11 12l74 -74q53 50 130 50q76 0 130 -50l73 74l12 -12l-74 -73q51 -55 51 -131q0 -77 -50 -130zM542 379q0 71 -51.5 123.5t-124.5 52.5
q-71 0 -123.5 -51.5t-52.5 -124.5q0 -71 51.5 -123.5t124.5 -52.5q71 0 122 51.5t54 124.5z" />
    <glyph glyph-name="peseta.taboldstyle" horiz-adv-x="472" 
d="M510 395l-2 -15h-48q-23 -149 -213 -149q-41 0 -107 3l-41 -234h-18l67 380h-48l2 15h48l24 134q67 5 127 5q38 0 65.5 -5t53.5 -18.5t37 -42.5t5 -73h48zM449 428q0 49 -35.5 70t-115.5 21q-61 0 -109 -4l-47 -266q73 -3 108 -3q199 0 199 182z" />
    <glyph glyph-name="undercommaaccent" horiz-adv-x="422" 
d="M216 -68l-132 -140h-21l132 140h21z" />
    <glyph glyph-name="DieresisAcute" horiz-adv-x="441" 
d="M206 809h-17l21 121h17zM290 786l168 154h21l-169 -154h-20zM552 809h-17l21 121h17z" />
    <glyph glyph-name="DieresisGrave" horiz-adv-x="452" 
d="M552 809h-17l21 121h17zM443 786h-20l-115 154h21zM206 809h-17l21 121h17z" />
    <glyph glyph-name="dblGrave" horiz-adv-x="402" 
d="M443 616h-19l-115 154h20zM119 770l114 -154h-19l-115 154h20z" />
    <glyph glyph-name="dblgrave" horiz-adv-x="402" 
d="M443 616h-19l-115 154h20zM119 770l114 -154h-19l-115 154h20z" />
    <glyph glyph-name="T_h.caron" horiz-adv-x="1021" 
d="M942 0h-16l58 331q9 47 9 81q0 63 -30.5 89.5t-98.5 26.5q-80 0 -206 -61l-84 -467h-16l128 727h-248l-128 -727h-17l128 727h-263l3 16h545l-45 -259q129 60 206 60q75 0 108.5 -31.5t33.5 -99.5q0 -26 -9 -82zM313 943h20l106 -139l154 139h22l-171 -154h-14z" />
    <glyph glyph-name="T_h.commaaccent" horiz-adv-x="1021" 
d="M942 0h-16l58 331q9 47 9 81q0 63 -30.5 89.5t-98.5 26.5q-80 0 -206 -61l-84 -467h-16l128 727h-248l-128 -727h-17l128 727h-263l3 16h545l-45 -259q129 60 206 60q75 0 108.5 -31.5t33.5 -99.5q0 -26 -9 -82zM338 -68l-132 -140h-21l132 140h21z" />
    <glyph glyph-name="i.dot" 
d="M107 0h-17l93 529h17zM220 643h-17l22 127h17z" />
    <glyph glyph-name="Amacron.alt" horiz-adv-x="602" 
d="M20 0l391 728h-68l3 16h98l138 -744h-18l-53 302h-313l-159 -302h-19zM508 318l-58 312l-19 101h-2q-8 -16 -53 -101l-169 -312h301zM614 851h-343l3 16h343z" />
    <glyph glyph-name="Abreve.alt" horiz-adv-x="602" 
d="M20 0l391 728h-68l3 16h98l138 -744h-18l-53 302h-313l-159 -302h-19zM508 318l-58 312l-19 101h-2q-8 -16 -53 -101l-169 -312h301zM610 947q-21 -77 -59 -118t-117 -41q-122 0 -122 122q0 15 2 37h15q-2 -24 -2 -37q0 -51 24 -79t85 -28q71 0 105.5 38t52.5 106h16z
" />
    <glyph glyph-name="Aringacute.alt" horiz-adv-x="602" 
d="M548 880q0 -52 -30.5 -79t-80.5 -27t-81 27.5t-31 78.5t31 78t81 27t80.5 -27t30.5 -78zM532 880q0 48 -27 69t-68 21q-42 0 -69 -21t-27 -69q0 -49 27 -70t69 -21q41 0 68 21.5t27 69.5zM20 0l391 728h-68l3 16h98l138 -744h-18l-53 302h-313l-159 -302h-19zM508 318
l-58 312l-19 101h-2q-8 -16 -53 -101l-169 -312h301zM621 1162l-169 -154h-20l168 154h21z" />
    <glyph glyph-name="Aogonek.alt" horiz-adv-x="602" 
d="M20 0l391 728h-68l3 16h98l138 -744q-34 -11 -55.5 -18.5t-53.5 -21.5t-50.5 -28t-32.5 -34.5t-14 -43.5q0 -31 21 -43.5t66 -12.5q41 0 81 8l-2 -14q-34 -9 -82 -9q-53 0 -76.5 17.5t-23.5 53.5q0 98 203 153l-52 295h-313l-159 -302h-19zM508 318l-58 312l-19 101h-2
q-8 -16 -53 -101l-169 -312h301z" />
    <glyph glyph-name="AE.alt" horiz-adv-x="902" 
d="M343 727l3 16h632l-2 -16h-389l-58 -327h359l-3 -16h-359l-65 -369h389l-3 -15h-405l54 302h-295l-161 -302h-20l390 727h-67zM499 318l72 409h-141q-5 -10 -53 -98l-167 -311h289z" />
    <glyph glyph-name="AEacute.alt" horiz-adv-x="902" 
d="M343 727l3 16h632l-2 -16h-389l-58 -327h359l-3 -16h-359l-65 -369h389l-3 -15h-405l54 302h-295l-161 -302h-20l390 727h-67zM499 318l72 409h-141q-5 -10 -53 -98l-167 -311h289zM838 943l-169 -154h-20l168 154h21z" />
    <glyph glyph-name="Cacute.alt" horiz-adv-x="561" 
d="M635 741l-17 -96h-15l15 82q-74 11 -155 11q-136 0 -213.5 -85t-111.5 -275l-2 -11q-15 -81 -15 -141q0 -115 52.5 -168.5t162.5 -53.5q75 0 173 13l-3 -16q-69 -13 -176 -13q-114 0 -169.5 58.5t-55.5 179.5q0 59 16 145l2 11q36 196 117 284t225 88q122 0 170 -13z
M618 943l-169 -154h-20l168 154h21z" />
    <glyph glyph-name="Ccircumflex.alt" horiz-adv-x="561" 
d="M635 741l-17 -96h-15l15 82q-74 11 -155 11q-136 0 -213.5 -85t-111.5 -275l-2 -11q-15 -81 -15 -141q0 -115 52.5 -168.5t162.5 -53.5q75 0 173 13l-3 -16q-69 -13 -176 -13q-114 0 -169.5 58.5t-55.5 179.5q0 59 16 145l2 11q36 196 117 284t225 88q122 0 170 -13z
M609 789h-20l-105 139l-155 -139h-22l171 154h14z" />
    <glyph glyph-name="Ccaron.alt" horiz-adv-x="561" 
d="M635 741l-17 -96h-15l15 82q-74 11 -155 11q-136 0 -213.5 -85t-111.5 -275l-2 -11q-15 -81 -15 -141q0 -115 52.5 -168.5t162.5 -53.5q75 0 173 13l-3 -16q-69 -13 -176 -13q-114 0 -169.5 58.5t-55.5 179.5q0 59 16 145l2 11q36 196 117 284t225 88q122 0 170 -13z
M339 943h20l106 -139l154 139h22l-171 -154h-14z" />
    <glyph glyph-name="Cdotaccent.alt" horiz-adv-x="561" 
d="M635 741l-17 -96h-15l15 82q-74 11 -155 11q-136 0 -213.5 -85t-111.5 -275l-2 -11q-15 -81 -15 -141q0 -115 52.5 -168.5t162.5 -53.5q75 0 173 13l-3 -16q-69 -13 -176 -13q-114 0 -169.5 58.5t-55.5 179.5q0 59 16 145l2 11q36 196 117 284t225 88q122 0 170 -13z
M460 803h-16l22 122h16z" />
    <glyph glyph-name="Dcaron.alt" horiz-adv-x="629" 
d="M84 -2l129 729h-63l3 16q48 0 116.5 5t132.5 5q127 0 189.5 -59t62.5 -186q0 -55 -14 -133l-4 -22q-35 -197 -123.5 -281t-245.5 -84q-53 0 -183 10zM621 360l4 22q13 78 13 126q0 122 -60 175.5t-179 53.5q-90 0 -170 -8l-126 -715q97 -10 167 -10q146 0 231.5 81
t119.5 275zM311 943h20l106 -139l154 139h22l-171 -154h-14z" />
    <glyph glyph-name="Dcroat.alt" horiz-adv-x="629" 
d="M654 508q0 -55 -14 -133l-4 -22q-35 -197 -123.5 -281t-245.5 -84q-53 0 -183 10l68 384h-71l3 17h71l58 328h-63l3 16q48 0 116.5 5t132.5 5q127 0 189.5 -59t62.5 -186zM638 508q0 122 -60 175.5t-179 53.5q-90 0 -170 -8l-58 -330h226l-3 -17h-226l-65 -368
q97 -10 167 -10q145 0 230 81t121 275l4 22q13 78 13 126z" />
    <glyph glyph-name="Ecaron.alt" horiz-adv-x="544" 
d="M617 727h-388l-58 -327h359l-3 -16h-359l-65 -369h388l-2 -15h-404l128 727h-63l3 16h467zM288 943h20l106 -139l154 139h22l-171 -154h-14z" />
    <glyph glyph-name="Emacron.alt" horiz-adv-x="544" 
d="M617 727h-388l-58 -327h359l-3 -16h-359l-65 -369h388l-2 -15h-404l128 727h-63l3 16h467zM601 851h-343l3 16h343z" />
    <glyph glyph-name="Ebreve.alt" horiz-adv-x="544" 
d="M617 727h-388l-58 -327h359l-3 -16h-359l-65 -369h388l-2 -15h-404l128 727h-63l3 16h467zM588 947q-21 -77 -59 -118t-117 -41q-122 0 -122 122q0 15 2 37h15q-2 -24 -2 -37q0 -51 24 -79t85 -28q71 0 105.5 38t52.5 106h16z" />
    <glyph glyph-name="Edotaccent.alt" horiz-adv-x="544" 
d="M617 727h-388l-58 -327h359l-3 -16h-359l-65 -369h388l-2 -15h-404l128 727h-63l3 16h467zM413 803h-16l22 122h16z" />
    <glyph glyph-name="Eogonek.alt" horiz-adv-x="544" 
d="M449 -208q-34 -9 -82 -9q-53 0 -76.5 17.5t-23.5 53.5q0 91 180 146h-362l128 727h-63l3 16h467l-3 -16h-388l-58 -327h359l-3 -16h-359l-65 -369h388l-2 -15q-34 -11 -55.5 -18.5t-53.5 -21.5t-50.5 -28t-32.5 -34.5t-14 -43.5q0 -31 20.5 -43.5t66.5 -12.5q41 0 81 8z
" />
    <glyph glyph-name="Gcircumflex.alt" horiz-adv-x="589" 
d="M524 0q-97 -12 -176 -12q-242 0 -242 254q0 58 13 127l2 12q35 200 123 286.5t231 86.5q90 0 179 -13l-18 -102h-15l16 89q-80 10 -164 10q-136 0 -219 -83.5t-117 -276.5l-2 -13q-12 -69 -12 -123q0 -125 57.5 -181.5t168.5 -56.5q84 0 161 8l62 351h-135l2 15h151z
M610 789h-20l-105 139l-155 -139h-22l171 154h14z" />
    <glyph glyph-name="Gbreve.alt" horiz-adv-x="589" 
d="M524 0q-97 -12 -176 -12q-242 0 -242 254q0 58 13 127l2 12q35 200 123 286.5t231 86.5q90 0 179 -13l-18 -102h-15l16 89q-80 10 -164 10q-136 0 -219 -83.5t-117 -276.5l-2 -13q-12 -69 -12 -123q0 -125 57.5 -181.5t168.5 -56.5q84 0 161 8l62 351h-135l2 15h151z
M639 947q-21 -77 -59 -118t-117 -41q-122 0 -122 122q0 15 2 37h15q-2 -24 -2 -37q0 -51 24 -79t85 -28q71 0 105.5 38t52.5 106h16z" />
    <glyph glyph-name="Gdotaccent.alt" horiz-adv-x="589" 
d="M524 0q-97 -12 -176 -12q-242 0 -242 254q0 58 13 127l2 12q35 200 123 286.5t231 86.5q90 0 179 -13l-18 -102h-15l16 89q-80 10 -164 10q-136 0 -219 -83.5t-117 -276.5l-2 -13q-12 -69 -12 -123q0 -125 57.5 -181.5t168.5 -56.5q84 0 161 8l62 351h-135l2 15h151z
M460 803h-16l22 122h16z" />
    <glyph glyph-name="Gcommaaccent.alt" horiz-adv-x="589" 
d="M524 0q-97 -12 -176 -12q-242 0 -242 254q0 58 13 127l2 12q35 200 123 286.5t231 86.5q90 0 179 -13l-18 -102h-15l16 89q-80 10 -164 10q-136 0 -219 -83.5t-117 -276.5l-2 -13q-12 -69 -12 -123q0 -125 57.5 -181.5t168.5 -56.5q84 0 161 8l62 351h-135l2 15h151z
M341 -68l-132 -140h-21l132 140h21z" />
    <glyph glyph-name="Hbar.alt" horiz-adv-x="671" 
d="M89 587h99l25 140h-63l3 16h79l-28 -156h469l28 156h16l-28 -156h101l-3 -16h-101l-100 -571h-16l69 393h-469l-69 -393h-16l100 571h-99zM173 409h469l28 162h-469z" />
    <glyph glyph-name="Hcircumflex.alt" horiz-adv-x="671" 
d="M586 0h-16l69 393h-469l-69 -393h-16l128 727h-63l3 16h79l-59 -334h469l59 334h16zM623 789h-20l-105 139l-155 -139h-22l171 154h14z" />
    <glyph glyph-name="Itilde.alt" 
d="M169 0h-141l2 15h62l126 712h-62l3 16h141l-3 -16h-62l-126 -712h62zM436 910q-12 -64 -31.5 -93.5t-60.5 -29.5q-26 0 -43 11.5t-36 38.5l-33 49q-18 25 -32 35t-34 10q-19 0 -32.5 -8t-21.5 -25t-12 -32.5t-9 -42.5l-6 -34h-16l6 34q11 63 30.5 93t61.5 30
q25 0 41.5 -11t35.5 -38l34 -49q19 -27 32 -36.5t35 -9.5q25 0 41 17t21.5 35.5t12.5 55.5l6 33h16z" />
    <glyph glyph-name="Imacron.alt" 
d="M169 0h-141l2 15h62l126 712h-62l3 16h141l-3 -16h-62l-126 -712h62zM423 851h-343l3 16h343z" />
    <glyph glyph-name="Ibreve.alt" 
d="M169 0h-141l2 15h62l126 712h-62l3 16h141l-3 -16h-62l-126 -712h62zM414 947q-21 -77 -59 -118t-117 -41q-122 0 -122 122q0 15 2 37h15q-2 -24 -2 -37q0 -51 24 -79t85 -28q71 0 105.5 38t52.5 106h16z" />
    <glyph glyph-name="Idotaccent.alt" 
d="M169 0h-141l2 15h62l126 712h-62l3 16h141l-3 -16h-62l-126 -712h62zM250 803h-16l22 122h16z" />
    <glyph glyph-name="Iogonek.alt" 
d="M169 0q-69 -20 -120 -55.5t-51 -86.5q0 -33 20.5 -46.5t66.5 -13.5q41 0 81 8l-2 -14q-34 -9 -82 -9q-53 0 -76.5 18t-23.5 57q0 50 44 86.5t100 55.5h-98l2 15h62l126 712h-62l3 16h141l-3 -16h-62l-126 -712h62z" />
    <glyph glyph-name="IJ.alt" horiz-adv-x="389" 
d="M169 0h-141l2 15h62l126 712h-62l3 16h141l-3 -16h-62l-126 -712h62zM489 727h-62l-137 -776q-14 -78 -41 -114.5t-97 -36.5q-22 0 -58 4l2 14q46 -2 59 -2q60 0 83 32t35 103l137 776h-62l3 16h141z" />
    </font>
</defs>
</svg>
