<?xml version="1.0" standalone="no"?>
<!DOCTYPE svg PUBLIC "-//W3C//DTD SVG 1.1//EN" "http://www.w3.org/Graphics/SVG/1.1/DTD/svg11.dtd" >
<svg xmlns="http://www.w3.org/2000/svg" xmlns:xlink="http://www.w3.org/1999/xlink" version="1.1">
<metadata>
Created by FontForge 20161013 at Fri Feb  8 15:53:21 2008
 By ,,,
Copyright (c) 2007 Monotype Imaging Inc. Soho is designed by Sebastian Lester. All rights reserved.
</metadata>
<defs>
<font id="SohoGothicPro-Ultra" horiz-adv-x="789" >
  <font-face 
    font-family="Soho Gothic Pro Ultra"
    font-weight="900"
    font-stretch="normal"
    units-per-em="1000"
    panose-1="2 11 9 3 3 5 4 2 2 4"
    ascent="798"
    descent="-202"
    x-height="595"
    cap-height="743"
    bbox="-102 -286 1740 1194"
    underline-thickness="50"
    underline-position="-200"
    unicode-range="U+0020-FE6A"
  />
<missing-glyph horiz-adv-x="500" 
d="M12 0v665h475v-665h-475zM88 618l162 -243l161 243h-323zM60 575v-484l40 61l80 120l41 61zM440 575l-162 -242l162 -243v485zM411 48l-161 242l-162 -242h323z" />
    <glyph glyph-name="f_f" unicode="ff" horiz-adv-x="995" 
d="M867 0h-301v411h-154v-411h-301v411l-81 11v173h81v23q0 105 58 145.5t163 40.5q95 0 178 -19v-144q-44 2 -60 2q-24 0 -31 -5t-7 -24v-19h154v23q0 105 58 145.5t163 40.5q93 0 178 -19v-144q-44 2 -60 2q-24 0 -31 -5t-7 -24v-19h98v-184h-98v-411z" />
    <glyph glyph-name="f_i" unicode="fi" horiz-adv-x="920" 
d="M412 0h-301v411l-81 10v174h81v23q0 105 58 145.5t162 40.5q94 0 179 -19v-144q-44 2 -60 2q-24 0 -31 -5t-7 -24v-19h453v-595h-301v411h-152v-411zM872 644h-315v142h315v-142z" />
    <glyph glyph-name="f_l" unicode="fl" horiz-adv-x="920" 
d="M412 0h-301v411l-81 11v173h81v19q0 111 57 150.5t176 39.5q97 0 220 -18h301v-786h-301v641q-44 2 -114 2q-23 0 -30.5 -5t-7.5 -24v-19h98v-184h-98v-411z" />
    <glyph glyph-name="f_f_i" unicode="ffi" horiz-adv-x="1373" 
d="M1318 0h-301v411h-152v-411h-301v411h-152v-411h-301v411l-81 11v173h81v23q0 105 58 145.5t163 40.5q95 0 178 -19v-144q-44 2 -60 2q-24 0 -31 -5t-7 -24v-19h152v23q0 105 58 145.5t162 40.5q94 0 179 -19v-144q-44 2 -60 2q-24 0 -31 -5t-7 -24v-19h453v-595z
M1325 644h-315v142h315v-142z" />
    <glyph glyph-name="f_f_l" unicode="ffl" horiz-adv-x="1373" 
d="M1318 0h-301v641q-43 2 -114 2q-23 0 -30.5 -5t-7.5 -24v-19h98v-184h-98v-411h-301v411h-152v-411h-301v411l-81 11v173h81v23q0 105 58 145.5t163 40.5q95 0 178 -19v-144q-44 2 -60 2q-24 0 -31 -5t-7 -24v-19h152v19q0 111 57 150.5t176 39.5q97 0 220 -18h301v-786z
" />
    <glyph glyph-name="f_b" unicode="fb" horiz-adv-x="1275" 
d="M412 0h-301v411l-82 11v173h82v16q0 114 59 153.5t185 39.5q100 0 208 -18h301v-179q31 3 70 3q157 0 231.5 -70t74.5 -221v-40q0 -161 -86.5 -228t-265.5 -67q-122 0 -325 17v638q-48 4 -109 4q-24 0 -33 -5.5t-9 -26.5v-16h97v-184h-97v-411zM861 183q14 -2 30 -2
q33 0 41.5 17t8.5 81v40q0 59 -8.5 76t-41.5 17q-16 0 -30 -2v-227z" />
    <glyph glyph-name="f_f_b" unicode="ffb" horiz-adv-x="1727" 
d="M864 0h-301v411h-151v-411h-301v411l-82 11v173h82v23q0 105 58 145.5t162 40.5q95 0 178 -19v-144q-44 2 -59 2q-24 0 -31 -5t-7 -24v-19h151v19q0 111 58.5 150.5t180.5 39.5q97 0 214 -18h301v-178q1 0 24.5 1t44.5 1q158 0 232 -70t74 -221v-40q0 -161 -86.5 -228
t-265.5 -67q-130 0 -324 17v640q-43 2 -110 2q-24 0 -33 -5.5t-9 -23.5v-19h98v-184h-98v-411zM1393 279v40q0 60 -8.5 76.5t-41.5 16.5q-15 0 -29 -2v-227q14 -2 29 -2q33 0 41.5 17t8.5 81z" />
    <glyph glyph-name="f_h" unicode="fh" horiz-adv-x="1297" 
d="M1242 0h-301v373q0 24 -6 32.5t-24 8.5q-24 0 -46 -11v-403h-302v641q-43 2 -109 2q-24 0 -33 -5.5t-9 -23.5v-19h97v-184h-97v-411h-301v411l-82 11v173h82v19q0 111 58 150.5t180 39.5q97 0 214 -18h302v-209q68 33 158 33q39 0 71 -5t54 -16t38.5 -22.5t26.5 -31
t16 -35t9 -41t3.5 -42t0.5 -44.5v-373z" />
    <glyph glyph-name="f_f_h" unicode="ffh" horiz-adv-x="1751" 
d="M1696 0h-301v373q0 24 -6 32.5t-24 8.5q-24 0 -46 -11v-403h-302v641q-43 2 -110 2q-24 0 -33 -5.5t-9 -23.5v-19h97v-184h-97v-411h-301v411h-152v-411h-301v411l-82 11v173h82v23q0 105 58 145.5t162 40.5q95 0 178 -19v-144q-44 2 -59 2q-24 0 -31 -5t-7 -24v-19h152
v19q0 111 58.5 150.5t180.5 39.5q97 0 214 -18h302v-210q68 33 158 33q45 0 80 -7.5t57.5 -18t38.5 -30.5t24.5 -37t12.5 -45t5 -47t1 -51v-373z" />
    <glyph glyph-name="f_j" unicode="fj" horiz-adv-x="929" 
d="M412 0h-301v411l-82 11v173h82v23q0 105 58 145.5t162 40.5q95 0 178 -19v-144q-44 2 -59 2q-24 0 -31 -5t-7 -24v-19h462v-591q0 -121 -59 -168.5t-194 -47.5q-103 0 -143 12v164q27 -1 51 -1q27 0 35.5 8t8.5 33v407h-161v-411zM881 644h-316v142h316v-142z" />
    <glyph glyph-name="f_f_j" unicode="ffj" horiz-adv-x="1381" 
d="M864 0h-301v411h-151v-411h-301v411l-82 11v173h82v23q0 105 58 145.5t162 40.5q95 0 178 -19v-144q-44 2 -59 2q-24 0 -31 -5t-7 -24v-19h151v23q0 105 58 145.5t163 40.5q93 0 178 -19v-144q-44 2 -60 2q-24 0 -31 -5t-7 -24v-19h462v-591q0 -121 -58.5 -168.5
t-193.5 -47.5q-99 0 -143 12v164q27 -1 51 -1q27 0 35 8t8 33v407h-161v-411zM1334 644h-316v142h316v-142z" />
    <glyph glyph-name="f_k" unicode="fk" horiz-adv-x="1286" 
d="M1286 0h-315l-107 253v-253h-300v641q-43 2 -110 2q-24 0 -33 -5.5t-9 -23.5v-19h98v-184h-98v-411h-301v411l-81 11v173h81v19q0 111 58.5 150.5t180.5 39.5q97 0 214 -18h300v-448l116 257h293l-138 -290z" />
    <glyph glyph-name="f_f_k" unicode="ffk" horiz-adv-x="1739" 
d="M1739 0h-315l-107 253v-253h-300v641q-43 2 -110 2q-24 0 -33 -5.5t-9 -23.5v-19h98v-184h-98v-411h-301v411h-152v-411h-301v411l-81 10v174h81v23q0 105 58 145.5t163 40.5q95 0 178 -19v-144q-44 2 -60 2q-24 0 -31 -5t-7 -24v-19h152v19q0 111 58.5 150.5t180.5 39.5
q97 0 214 -18h300v-448l116 257h293l-138 -290z" />
    <glyph glyph-name=".notdef" horiz-adv-x="500" 
d="M12 0v665h475v-665h-475zM88 618l162 -243l161 243h-323zM60 575v-484l40 61l80 120l41 61zM440 575l-162 -242l162 -243v485zM411 48l-161 242l-162 -242h323z" />
    <glyph glyph-name=".null" horiz-adv-x="0" 
 />
    <glyph glyph-name="nonmarkingreturn" horiz-adv-x="333" 
 />
    <glyph glyph-name="space" unicode=" " horiz-adv-x="218" 
 />
    <glyph glyph-name="exclam" unicode="!" horiz-adv-x="448" 
d="M379 0h-312v200h312v-200zM393 786l-27 -528h-285l-26 528h338z" />
    <glyph glyph-name="quotedbl" unicode="&#x22;" horiz-adv-x="697" 
d="M20 494l79 289h246l-118 -289h-207zM677 783l-119 -289h-206l79 289h246z" />
    <glyph glyph-name="numbersign" unicode="#" horiz-adv-x="810" 
d="M777 155h-112l-17 -155h-240l17 155h-89l-17 -155h-240l18 155h-65v147h82l13 123h-95v147h113l19 171h240l-20 -171h90l19 171h239l-19 -171h64v-147h-82l-13 -123h95v-147zM456 425h-89l-14 -123h90z" />
    <glyph glyph-name="dollar" unicode="$" horiz-adv-x="752" 
d="M261 -135v118q-123 6 -204 23v185q198 -11 268 -11q58 0 58 31q0 15 -11 22.5t-55 25.5l-79 32q-52 21 -82.5 37t-61.5 43t-45 65.5t-14 92.5q0 100 57 154t169 72v114h238v-109q84 -7 190 -27v-178q-152 12 -274 12q-61 0 -61 -25q0 -12 11 -19.5t49 -22.5l72 -28
q83 -32 127 -59.5t69 -71.5t25 -109q0 -200 -208 -242v-125h-238z" />
    <glyph glyph-name="percent" unicode="%" horiz-adv-x="1278" 
d="M1017 748l-531 -748h-231l531 748h231zM482 525q0 -113 -52.5 -172.5t-171.5 -59.5t-171 59.5t-52 172.5v7q0 113 52 172.5t171 59.5t171.5 -59.5t52.5 -172.5v-7zM280 524v9q0 66 -4 83t-18 17t-17.5 -17.5t-3.5 -82.5v-9q0 -66 3.5 -83t17.5 -17t18 17t4 83zM1243 219
q0 -113 -52.5 -172.5t-171.5 -59.5t-171 59.5t-52 172.5v7q0 113 52 172.5t171 59.5t171.5 -59.5t52.5 -172.5v-7zM1041 218v9q0 66 -4 83t-18 17t-17.5 -17.5t-3.5 -82.5v-9q0 -65 3.5 -82.5t17.5 -17.5t18 17t4 83z" />
    <glyph glyph-name="ampersand" unicode="&#x26;" horiz-adv-x="934" 
d="M886 0h-259l-24 21q-87 -38 -228 -38q-79 0 -137.5 9.5t-107 32.5t-73.5 66t-25 106v7q0 72 38.5 116.5t113.5 80.5l-11 10q-92 84 -92 165v6q0 95 79 138.5t249 43.5q159 0 310 -31v-170q-134 8 -287 8q-25 0 -36 -6.5t-11 -24.5q0 -23 27 -47l233 -212q4 21 4 71
l-35 12v101h284v-101l-35 -12q0 -121 -67 -208l90 -81v-63zM466 145l-110 100q-15 -13 -15 -43v-5q0 -27 21.5 -42.5t54.5 -15.5q25 0 49 6z" />
    <glyph glyph-name="quotesingle" unicode="'" horiz-adv-x="365" 
d="M345 783l-118 -289h-207l79 289h246z" />
    <glyph glyph-name="parenleft" unicode="(" horiz-adv-x="463" 
d="M431 -194h-265q-56 87 -95 207t-39 257v8q0 137 39 257.5t95 207.5h265q-105 -210 -105 -465v-8q0 -256 105 -464z" />
    <glyph glyph-name="parenright" unicode=")" horiz-adv-x="463" 
d="M430 270q0 -138 -38.5 -257.5t-94.5 -206.5h-265q104 206 104 464v8q0 257 -104 465h265q56 -86 94.5 -206.5t38.5 -258.5v-8z" />
    <glyph glyph-name="asterisk" unicode="*" horiz-adv-x="577" 
d="M545 547l-49 -14q-33 -10 -73 -11q33 -24 53 -48l29 -38l-154 -103l-29 37q-16 19 -34 61q-14 -36 -34 -61l-30 -37l-153 104l30 37q24 29 52 48q-45 2 -73 11l-48 15l60 166l46 -14q31 -10 66 -32q-11 39 -11 68v47h190v-47q0 -32 -13 -68q46 26 67 32l48 14z" />
    <glyph glyph-name="plus" unicode="+" horiz-adv-x="639" 
d="M607 279h-178v-168h-219v168h-178v202h178v167h219v-167h178v-202z" />
    <glyph glyph-name="comma" unicode="," horiz-adv-x="458" 
d="M425 197l-163 -298h-230l97 298h296z" />
    <glyph glyph-name="hyphen" unicode="-" horiz-adv-x="346" 
d="M314 208h-282v178h282v-178z" />
    <glyph glyph-name="period" unicode="." horiz-adv-x="377" 
d="M339 0h-302v196h302v-196z" />
    <glyph glyph-name="slash" unicode="/" horiz-adv-x="620" 
d="M587 743l-240 -743h-315l241 743h314z" />
    <glyph glyph-name="zero" unicode="0" horiz-adv-x="808" 
d="M773 358q0 -186 -86.5 -282.5t-282.5 -96.5t-282.5 96.5t-86.5 282.5v27q0 186 86.5 282.5t282.5 96.5t282.5 -96.5t86.5 -282.5v-27zM441 358v27q0 109 -6 137t-31 28t-31 -28t-6 -137v-27q0 -109 6 -137t31 -28t31 28t6 137z" />
    <glyph glyph-name="one" unicode="1" horiz-adv-x="677" 
d="M642 0h-607v187l140 9v305l-140 -27v196l232 73h236v-547l139 -9v-187z" />
    <glyph glyph-name="two" unicode="2" horiz-adv-x="742" 
d="M687 0h-652v90q0 104 20.5 167t65.5 105.5t133 87.5q79 40 98 55t19 34q0 17 -15 23t-64 6q-128 0 -248 -8v164q140 40 317 40q185 0 265.5 -49t80.5 -154q0 -81 -51.5 -135.5t-176.5 -112.5q-86 -40 -104 -55.5t-18 -47.5v-4h330v-206z" />
    <glyph glyph-name="three" unicode="3" horiz-adv-x="734" 
d="M699 210q0 -122 -81.5 -176.5t-270.5 -54.5q-87 0 -175.5 12.5t-136.5 30.5v168q122 -10 267 -10q42 0 56 8.5t14 39.5v7q0 29 -17.5 38.5t-70.5 9.5h-183v178h185q51 0 68.5 9.5t17.5 38.5v7q0 32 -13.5 40.5t-56.5 8.5q-141 0 -267 -8v164q129 43 312 43
q169 0 260.5 -50t91.5 -168v-9q0 -114 -85 -162q44 -22 64.5 -64.5t20.5 -91.5v-9z" />
    <glyph glyph-name="four" unicode="4" horiz-adv-x="796" 
d="M763 136h-77v-136h-329v136h-325v170l414 437h240v-421h77v-186zM379 322v135l-114 -135h114z" />
    <glyph glyph-name="five" unicode="5" horiz-adv-x="724" 
d="M689 235q0 -256 -342 -256q-179 0 -308 36v169q126 -9 216 -9q60 0 79.5 11t19.5 46v9q0 30 -18.5 39.5t-72.5 9.5h-228l39 453h597v-198h-339l-4 -70h24q105 0 172 -13.5t103 -44t49 -70.5t13 -103v-9z" />
    <glyph glyph-name="six" unicode="6" horiz-adv-x="774" 
d="M739 240q0 -131 -85.5 -196t-268.5 -65q-90 0 -156 19t-102.5 47.5t-58 73.5t-27.5 86.5t-6 97.5v133q0 66 6.5 110.5t27.5 89t58 70.5t101 42t154 16q170 0 315 -35v-172q-152 9 -263 9q-51 0 -63.5 -11.5t-12.5 -59.5v-14q27 5 69 5q161 0 236.5 -49t75.5 -179v-18z
M417 239v18q0 30 -1.5 41t-8 18.5t-22.5 7.5q-15 0 -27 -3v-79q0 -32 1.5 -45.5t7.5 -23t20 -9.5q20 0 25 16t5 59z" />
    <glyph glyph-name="seven" unicode="7" horiz-adv-x="725" 
d="M692 535l-331 -535h-341l341 545h-337v198h668v-208z" />
    <glyph glyph-name="eight" unicode="8" horiz-adv-x="805" 
d="M770 211q0 -57 -17 -98.5t-47 -67t-77 -40.5t-99.5 -20.5t-123.5 -5.5h-8q-71 0 -123 5.5t-99.5 20.5t-77 40.5t-46.5 67t-17 98.5v6q0 106 83 162q-82 58 -82 161v7q0 127 86.5 172t275.5 45h8q189 0 275.5 -45t86.5 -172v-7q0 -104 -81 -161q83 -56 83 -162v-6z
M449 217v6q-1 45 -9.5 61.5t-33.5 16.5h-8q-25 0 -33.5 -16.5t-8.5 -61.5v-6q0 -33 9 -47.5t33 -14.5h8q25 0 34 14.5t9 47.5zM447 527v7q0 27 -8.5 40t-32.5 13h-8q-24 0 -32.5 -13t-8.5 -40v-7q0 -34 8 -49t33 -15h8q25 0 33 15t8 49z" />
    <glyph glyph-name="nine" unicode="9" horiz-adv-x="774" 
d="M739 314q0 -65 -6.5 -110t-27.5 -90.5t-58 -73t-101 -44.5t-154 -17q-172 0 -315 35v172q155 -9 273 -9q43 0 54.5 12.5t11.5 58.5v14q-27 -5 -69 -5q-160 0 -236 50t-76 178v18q0 129 85.5 195t268.5 66q90 0 155.5 -18t102.5 -45.5t58.5 -71t27.5 -83.5t6 -94v-138z
M416 422v79q0 25 -0.5 35.5t-3 22.5t-9 16t-17.5 4q-21 0 -25.5 -15.5t-4.5 -59.5v-18q0 -41 5 -54t27 -13q16 0 28 3z" />
    <glyph glyph-name="colon" unicode=":" horiz-adv-x="397" 
d="M349 0h-302v197h302v-197zM349 398h-302v197h302v-197z" />
    <glyph glyph-name="semicolon" unicode=";" horiz-adv-x="418" 
d="M385 197l-138 -297h-231l59 297h310zM378 398h-302v197h302v-197z" />
    <glyph glyph-name="less" unicode="&#x3c;" horiz-adv-x="639" 
d="M598 98h-293l-264 282l264 282h293l-258 -282z" />
    <glyph glyph-name="equal" unicode="=" horiz-adv-x="639" 
d="M594 310v-202h-550v202h550zM594 441h-550v203h550v-203z" />
    <glyph glyph-name="greater" unicode="&#x3e;" horiz-adv-x="639" 
d="M598 380l-264 -282h-293l258 282l-258 282h293z" />
    <glyph glyph-name="question" unicode="?" horiz-adv-x="645" 
d="M417 0h-302v196h302v-196zM35 584v172q100 41 296 41q142 0 210.5 -42t68.5 -129v-7q0 -53 -22.5 -94.5t-78.5 -92.5q-72 -65 -96 -99t-24 -65v-7h-246q0 43 2 70t11.5 62.5t28.5 62.5q33 48 44 67.5t11 36.5q0 16 -11.5 22t-44.5 6q-67 0 -149 -4z" />
    <glyph glyph-name="at" unicode="@" horiz-adv-x="958" 
d="M925 367q0 -337 -420 -337q-144 0 -210.5 38.5t-66.5 133.5q0 147 63.5 221.5t213.5 74.5q99 0 211 -25l-33 -301q108 37 108 195q0 106 -74 161t-199 55q-167 0 -259.5 -113.5t-92.5 -286.5q0 -68 20 -113.5t60.5 -69.5t90.5 -33.5t121 -9.5q115 0 205 9v-72
q-103 -18 -205 -18q-210 0 -318 71t-108 236q0 218 134 354t369 136q108 0 194 -32t141 -102.5t55 -171.5zM502 371q-29 0 -44 -9.5t-24.5 -47.5t-9.5 -114q0 -35 10 -43t45 -8z" />
    <glyph glyph-name="A" unicode="A" horiz-adv-x="875" 
d="M860 0h-343l-16 119h-128l-17 -119h-341l152 743h536zM479 313l-28 173q-7 44 -13 105h-2q-6 -61 -13 -105l-27 -173h83z" />
    <glyph glyph-name="B" unicode="B" horiz-adv-x="819" 
d="M784 229q0 -60 -19 -103.5t-53 -71.5t-88 -44.5t-115.5 -23t-143.5 -6.5q-142 0 -310 20v743q182 21 309 21q216 0 316 -51t100 -180v-9q0 -102 -67 -145q71 -40 71 -140v-10zM472 232v11q0 32 -14 42t-54 10h-37v-114q12 -2 37 -2q42 0 55 10.5t13 42.5zM472 509v7
q0 28 -15.5 39t-55.5 11q-21 0 -34 -2v-110h34q45 0 58 11t13 44z" />
    <glyph glyph-name="C" unicode="C" horiz-adv-x="705" 
d="M670 4q-32 -10 -115 -17.5t-131 -7.5q-208 0 -296 83.5t-88 289.5v40q0 206 88 289t296 83q48 0 131 -7.5t115 -17.5v-204q-100 7 -199 7q-28 0 -43.5 -4.5t-29 -19t-19 -45t-5.5 -81.5v-40q0 -51 5.5 -82t19.5 -46t29.5 -19t43.5 -4q98 0 198 7v-204z" />
    <glyph glyph-name="D" unicode="D" horiz-adv-x="834" 
d="M795 363q0 -111 -24.5 -185.5t-77.5 -118t-127.5 -62t-182.5 -18.5q-171 0 -328 21v743q155 21 328 21q217 0 314.5 -83t97.5 -295v-23zM473 363v23v54.5t-2 39.5t-3 30t-8 18.5t-11.5 13t-18 5t-24 3.5h-33.5v-357h33.5t24.5 4t18 6t11 14t7.5 19t3.5 31t2 40.5v55.5z
" />
    <glyph glyph-name="E" unicode="E" horiz-adv-x="701" 
d="M661 0h-606v743h606v-202h-276v-74h254v-186h-254v-79h276v-202z" />
    <glyph glyph-name="F" unicode="F" horiz-adv-x="692" 
d="M662 538h-277v-73h254v-186h-254v-279h-330v743h607v-205z" />
    <glyph glyph-name="G" unicode="G" horiz-adv-x="811" 
d="M756 7q-159 -28 -339 -28q-65 0 -114.5 7.5t-101 31t-85 63t-55 109t-21.5 164.5v36q0 72 12 129t31.5 95.5t50.5 66.5t62 44t73 25t77 11.5t80 2.5q165 0 324 -37v-192q-149 7 -255 7q-57 0 -82 -9t-38 -41t-13 -102v-36q0 -96 10 -126t47 -30q26 0 40 2v220h297v-413z
" />
    <glyph glyph-name="H" unicode="H" horiz-adv-x="912" 
d="M857 0h-331v267h-140v-267h-331v743h331v-262h140v262h331v-743z" />
    <glyph glyph-name="I" unicode="I" horiz-adv-x="440" 
d="M385 0h-330v743h330v-743z" />
    <glyph glyph-name="J" unicode="J" horiz-adv-x="440" 
d="M385 22q0 -124 -67 -178t-198 -54q-86 0 -137 11v164h32q25 0 32.5 8.5t7.5 33.5v736h330v-721z" />
    <glyph glyph-name="K" unicode="K" horiz-adv-x="895" 
d="M900 0h-376l-138 329v-329h-331v743h331v-337l157 337h364l-191 -370z" />
    <glyph glyph-name="L" unicode="L" horiz-adv-x="634" 
d="M604 0h-549v743h331v-530h218v-213z" />
    <glyph glyph-name="M" unicode="M" horiz-adv-x="1021" 
d="M966 0h-315v230q0 56 4 101h-2q-22 -48 -42 -72l-50 -61h-101l-51 61q-17 21 -41 72h-2q3 -51 3 -101v-230h-314v743h277l129 -178q25 -34 48 -79h2q30 54 48 79l130 178h277v-743z" />
    <glyph glyph-name="N" unicode="N" horiz-adv-x="882" 
d="M827 0h-290l-143 207q-18 26 -41 72h-3v-78v-201h-295v743h280l153 -208q25 -34 44 -79h2q-2 14 -2 84v203h295v-743z" />
    <glyph glyph-name="O" unicode="O" horiz-adv-x="837" 
d="M797 352q0 -91 -20.5 -158.5t-53.5 -108t-83.5 -65t-102.5 -33t-119 -8.5q-66 0 -118 8.5t-102.5 33t-83.5 65t-53.5 108t-20.5 158.5v39q0 77 13.5 136.5t40 100t60 68t78 42t88.5 20.5t98 6t98 -6t89 -20.5t78.5 -42t60 -68t40 -100t13.5 -136.5v-39zM476 353v37
q0 95 -10 124t-48 29q-37 0 -47 -29t-10 -124v-37q0 -95 11 -123.5t46 -28.5q36 0 47 28.5t11 123.5z" />
    <glyph glyph-name="P" unicode="P" horiz-adv-x="821" 
d="M796 487q0 -68 -21.5 -118.5t-56 -80t-85 -47t-99.5 -23.5t-109 -6q-28 0 -57 1v-213h-313v743q155 19 325 19q75 0 131.5 -5.5t112.5 -23t92 -46.5t58 -78.5t22 -116.5v-5zM482 487v5q0 35 -16 47.5t-54 12.5q-26 0 -44 -2v-124q11 -1 45 -1q36 0 52.5 14.5t16.5 47.5z
" />
    <glyph glyph-name="Q" unicode="Q" horiz-adv-x="837" 
d="M797 348q0 -302 -236 -355v-9q0 -15 7.5 -18.5t35.5 -3.5h78v-148q-89 -27 -205 -27q-105 0 -159 42t-54 146v21q-224 58 -224 352v46q0 91 21.5 158.5t55.5 107.5t85 64t102 32t114 8q64 0 114.5 -8t102 -32t85.5 -64t55.5 -107.5t21.5 -158.5v-46zM476 348v47
q0 92 -11 120t-47 28t-46.5 -28t-10.5 -120v-47q0 -91 11 -119t46 -28q36 0 47 28t11 119z" />
    <glyph glyph-name="R" unicode="R" horiz-adv-x="839" 
d="M839 0h-308l-117 235h-47v-235h-312v743q184 19 338 19q69 0 122 -5.5t107 -22t89 -45t57 -77t22 -114.5v-6q0 -134 -86 -203zM476 486v5q0 36 -13 48.5t-56 12.5q-21 0 -41 -1v-125q14 -1 43 -1q41 0 54 14.5t13 46.5z" />
    <glyph glyph-name="S" unicode="S" horiz-adv-x="738" 
d="M705 232q0 -132 -87.5 -192.5t-238.5 -60.5q-191 0 -324 27v185q198 -11 268 -11q58 0 58 31q0 15 -11 22.5t-55 25.5l-79 32q-52 21 -82.5 37t-61.5 43t-45 65.5t-14 92.5q0 127 91 181t269 54q133 0 284 -31v-178q-180 12 -264 12q-61 0 -61 -25q0 -12 11 -19.5
t49 -22.5l72 -28q83 -32 127 -59.5t69 -71.5t25 -109z" />
    <glyph glyph-name="T" unicode="T" horiz-adv-x="761" 
d="M741 540h-195v-540h-331v540h-195v203h721v-203z" />
    <glyph glyph-name="U" unicode="U" horiz-adv-x="860" 
d="M810 291q0 -155 -101 -233.5t-279 -78.5t-279 78.5t-101 233.5v452h324v-452q0 -59 10.5 -79t45.5 -20q36 0 46.5 20t10.5 79v452h323v-452z" />
    <glyph glyph-name="V" unicode="V" horiz-adv-x="862" 
d="M837 743l-143 -743h-527l-142 743h330l58 -440q8 -56 16 -144h2q10 90 18 144l58 440h330z" />
    <glyph glyph-name="W" unicode="W" horiz-adv-x="1138" 
d="M1113 743l-110 -743h-347l-66 223q-11 36 -21 109h-2q-10 -73 -21 -109l-65 -223h-347l-109 743h318l23 -265q8 -94 8 -133h2q20 91 26 112l33 109h267l32 -109q15 -54 26 -112h2q1 41 9 133l23 265h319z" />
    <glyph glyph-name="X" unicode="X" horiz-adv-x="829" 
d="M814 0h-332l-97 156l-90 -156h-280l232 380l-224 363h333l89 -144l77 144h280l-217 -371z" />
    <glyph glyph-name="Y" unicode="Y" horiz-adv-x="824" 
d="M819 743l-248 -507v-236h-318v236l-248 507h325l48 -138q6 -18 32 -109h3q20 70 33 109l49 138h324z" />
    <glyph glyph-name="Z" unicode="Z" horiz-adv-x="708" 
d="M663 0h-618v192l225 342h-224v209h616v-197l-225 -337h226v-209z" />
    <glyph glyph-name="bracketleft" unicode="[" horiz-adv-x="487" 
d="M454 -194h-422v937h422v-195h-121v-547h121v-195z" />
    <glyph glyph-name="backslash" unicode="\" horiz-adv-x="614" 
d="M582 0h-311l-239 743h310z" />
    <glyph glyph-name="bracketright" unicode="]" horiz-adv-x="487" 
d="M455 -194h-423v195h121v547h-121v195h423v-937z" />
    <glyph glyph-name="asciicircum" unicode="^" horiz-adv-x="639" 
d="M661 443h-262l-80 204l-78 -204h-263l145 300h392z" />
    <glyph glyph-name="underscore" unicode="_" horiz-adv-x="669" 
d="M636 -177h-604v127h604v-127z" />
    <glyph glyph-name="grave" unicode="`" horiz-adv-x="528" 
d="M495 650h-271l-192 136h331z" />
    <glyph glyph-name="a" unicode="a" horiz-adv-x="706" 
d="M656 0h-269v37q-34 -22 -85.5 -37.5t-100.5 -15.5q-84 0 -127.5 45t-43.5 126v26q0 34 9 60.5t22.5 44t38.5 30t48 19.5t59.5 10.5t65.5 4.5t73 1h9v22q0 29 -12 37t-56 8q-113 0 -206 -8v153q146 47 285 47q141 0 215.5 -52t74.5 -185v-373zM371 152v84h-22
q-21 0 -30 -7.5t-9 -33.5v-18q0 -32 25 -32q19 0 36 7z" />
    <glyph glyph-name="b" unicode="b" horiz-adv-x="766" 
d="M731 279q0 -161 -86.5 -228t-265.5 -67q-148 0 -324 18v784h301v-178q1 0 24.5 1t44.5 1q158 0 232 -70t74 -221v-40zM432 279v40q0 60 -8.5 76.5t-41.5 16.5q-16 0 -30 -2v-227q16 -2 30 -2q33 0 41.5 17t8.5 81z" />
    <glyph glyph-name="c" unicode="c" horiz-adv-x="616" 
d="M581 10q-117 -26 -240 -26q-159 0 -232.5 71t-73.5 222v41q0 154 73 223t233 69q123 0 240 -26v-180q-147 5 -179 5q-43 0 -56 -16t-13 -75v-41q0 -60 13 -76.5t56 -16.5q32 0 179 5v-179z" />
    <glyph glyph-name="d" unicode="d" horiz-adv-x="767" 
d="M712 0h-272v31q-74 -47 -173 -47q-112 0 -172 73.5t-60 221.5v40q0 151 74.5 221t232.5 70q41 0 69 -2v178h301v-786zM415 186v224q-16 2 -30 2q-33 0 -42 -17t-9 -76v-40q0 -62 8 -79t39 -17q21 0 34 3z" />
    <glyph glyph-name="e" unicode="e" horiz-adv-x="723" 
d="M698 234h-367v-6q0 -37 12 -44.5t71 -7.5q85 0 247 3v-166q-131 -29 -261 -29q-92 0 -155.5 13t-113 45.5t-73 93t-23.5 151.5v17q0 167 84 236.5t253 69.5q84 0 146 -21t95.5 -52t53.5 -77t25.5 -85t5.5 -87v-54zM412 353v6q0 42 -9.5 57t-32.5 15q-21 0 -30 -15.5
t-9 -56.5v-6h81z" />
    <glyph glyph-name="f" unicode="f" horiz-adv-x="540" 
d="M510 411h-98v-411h-301v411l-81 10v174h81v23q0 105 58 145.5t162 40.5q94 0 179 -19v-144q-44 2 -60 2q-24 0 -31 -5t-7 -24v-19h98v-184z" />
    <glyph glyph-name="g" unicode="g" horiz-adv-x="770" 
d="M715 4q0 -110 -82 -161t-271 -51q-176 0 -288 28v152q240 -10 252 -10q59 0 74.5 8t15.5 34v8q-40 -4 -61 -4q-154 0 -234.5 71t-80.5 206v46q0 149 92.5 214t294.5 65q132 0 288 -15v-591zM418 206v204q-22 2 -32 2q-29 0 -38.5 -17t-9.5 -66v-44q0 -42 10 -61t38 -19
q23 0 32 1z" />
    <glyph glyph-name="h" unicode="h" 
d="M734 0h-301v373q0 24 -6 32.5t-24 8.5q-23 0 -47 -11v-403h-301v786h301v-209q70 33 159 33q45 0 79.5 -7.5t57.5 -18.5t39 -31t24.5 -37t12.5 -45t5 -47t1 -51v-373z" />
    <glyph glyph-name="i" unicode="i" horiz-adv-x="411" 
d="M356 0h-301v595h301v-595zM363 644h-315v142h315v-142z" />
    <glyph glyph-name="j" unicode="j" horiz-adv-x="411" 
d="M356 4q0 -121 -59 -168.5t-193 -47.5q-90 0 -144 12v164q28 -1 52 -1q27 0 35 8t8 33v591h301v-591zM363 644h-315v142h315v-142z" />
    <glyph glyph-name="k" unicode="k" horiz-adv-x="777" 
d="M777 0h-315l-107 253v-253h-300v786h300v-448l116 257h293l-138 -290z" />
    <glyph glyph-name="l" unicode="l" horiz-adv-x="411" 
d="M356 0h-301v786h301v-786z" />
    <glyph glyph-name="m" unicode="m" horiz-adv-x="1122" 
d="M1072 0h-301v379q0 21 -5 29.5t-22 8.5t-31 -6q1 -10 1 -32v-379h-301v379q0 21 -5 29.5t-21 8.5q-7 0 -31 -7v-410h-301v595h276v-49q74 64 184 64q109 0 157 -65q87 65 193 65q112 0 159.5 -55.5t47.5 -167.5v-387z" />
    <glyph glyph-name="n" unicode="n" horiz-adv-x="784" 
d="M734 0h-301v373q0 24 -6.5 32.5t-24.5 8.5q-28 0 -46 -12v-402h-301v595h276v-50q80 65 192 65q44 0 78 -8t56 -19t37.5 -32t23 -37.5t11.5 -46t4.5 -46t0.5 -48.5v-373z" />
    <glyph glyph-name="o" unicode="o" horiz-adv-x="736" 
d="M701 276q0 -158 -85.5 -225t-248.5 -67q-161 0 -246.5 67t-85.5 225v42q0 158 85.5 225t246.5 67q163 0 248.5 -66.5t85.5 -225.5v-42zM402 276v42q0 57 -7.5 75.5t-27.5 18.5t-27.5 -18.5t-7.5 -75.5v-42q0 -58 7.5 -76.5t27.5 -18.5t27.5 18.5t7.5 76.5z" />
    <glyph glyph-name="p" unicode="p" horiz-adv-x="769" 
d="M734 275q0 -150 -77 -220t-235 -70q-16 0 -40 1t-26 1v-181h-301v789h273v-35q78 50 183 50t164 -66.5t59 -221.5v-47zM433 275v47q0 58 -8 74t-38 16q-23 0 -35 -4v-224q8 -1 29 -1q34 0 43 16.5t9 75.5z" />
    <glyph glyph-name="q" unicode="q" horiz-adv-x="764" 
d="M709 -194h-299v180q-2 0 -22 -1t-38 -1q-165 0 -240 69.5t-75 222.5v38q0 167 86.5 231.5t270.5 64.5q135 0 317 -17v-787zM412 183v227q-16 2 -29 2q-32 0 -41 -16t-9 -83v-37q0 -58 9.5 -76t40.5 -18q21 0 29 1z" />
    <glyph glyph-name="r" unicode="r" horiz-adv-x="524" 
d="M504 384q-30 1 -74 1q-43 0 -74 -1v-384h-301v595h273v-51q63 66 176 66v-226z" />
    <glyph glyph-name="s" unicode="s" horiz-adv-x="634" 
d="M604 186q0 -58 -22.5 -98.5t-67 -62.5t-100 -31t-131.5 -9q-134 0 -240 22v151q160 -8 221 -8q27 0 37 5t10 20q0 11 -10 17.5t-41 16.5l-53 18q-91 30 -134 71t-43 120q0 60 22 99.5t64.5 59t89 26.5t112.5 7q155 0 256 -27v-147q-138 10 -216 10q-21 0 -29 -3t-8 -15
q0 -11 8 -16t35 -14l65 -22q95 -32 135 -73.5t40 -116.5z" />
    <glyph glyph-name="t" unicode="t" horiz-adv-x="525" 
d="M492 2q-63 -18 -165 -18q-117 0 -173.5 51t-56.5 164v212l-82 10v174h82v144h300v-144h98v-184h-98v-213q0 -13 0.5 -18t3.5 -11t10 -7.5t19 -1.5t35.5 1t26.5 1v-160z" />
    <glyph glyph-name="u" unicode="u" 
d="M734 0h-276v50q-80 -66 -212 -66q-54 0 -91.5 15t-56.5 35.5t-29.5 57t-12 62t-1.5 68.5v373h301v-373q0 -24 6.5 -32.5t25.5 -8.5q23 0 45 11v403h301v-595z" />
    <glyph glyph-name="v" unicode="v" horiz-adv-x="754" 
d="M739 595l-144 -595h-435l-145 595h301l41 -277q9 -53 21 -158q10 89 20 158l40 277h301z" />
    <glyph glyph-name="w" unicode="w" horiz-adv-x="1093" 
d="M1068 595l-113 -595h-342l-42 139q-13 42 -26 117q-8 -62 -25 -117l-43 -139h-339l-113 595h303l20 -211q12 -108 13 -130q7 58 32 130l28 80h251l27 -79q15 -43 35 -131q1 38 11 131l20 210h303z" />
    <glyph glyph-name="x" unicode="x" horiz-adv-x="731" 
d="M731 0h-318l-84 125l-76 -125h-253l202 313l-190 282h317l77 -115l70 115h253l-195 -303z" />
    <glyph glyph-name="y" unicode="y" horiz-adv-x="768" 
d="M753 595l-140 -544q-38 -150 -110.5 -204.5t-206.5 -54.5q-145 0 -241 18v162q58 -1 114 -1q36 0 40 22l3 20l-197 582h318l41 -273q4 -26 11 -82t10 -76q4 45 20 158l39 273h299z" />
    <glyph glyph-name="z" unicode="z" horiz-adv-x="639" 
d="M599 0h-559v162l213 247h-210v186h555v-175l-201 -236h202v-184z" />
    <glyph glyph-name="braceleft" unicode="{" horiz-adv-x="538" 
d="M506 -194h-63q-87 0 -141.5 5t-100.5 19.5t-69.5 42.5t-36 71t-12.5 108v69q0 40 -12.5 57.5t-38.5 29.5v134q26 12 38.5 29.5t12.5 56.5v69q0 65 12.5 107.5t36 70.5t69.5 42.5t100.5 20t141.5 5.5h63v-195h-57q-41 0 -52 -7.5t-11 -43.5v-69q0 -66 -20 -96t-75 -57
q55 -28 75 -57.5t20 -96.5v-69q0 -36 11 -43.5t52 -7.5h57v-195z" />
    <glyph glyph-name="bar" unicode="|" horiz-adv-x="365" 
d="M333 -194h-301v937h301v-937z" />
    <glyph glyph-name="braceright" unicode="}" horiz-adv-x="538" 
d="M506 208q-26 -12 -38.5 -29.5t-12.5 -57.5v-69q0 -65 -12.5 -108t-36 -71t-69.5 -42.5t-100.5 -19.5t-141.5 -5h-63v195h57q41 0 52 7.5t11 43.5v69q0 67 20 96.5t75 57.5q-55 27 -75 57t-20 96v69q0 35 -11 43t-52 8h-57v195h63q87 0 141.5 -5.5t100.5 -20t69.5 -42.5
t36 -70.5t12.5 -107.5v-69q0 -39 12.5 -56.5t38.5 -29.5v-134z" />
    <glyph glyph-name="asciitilde" unicode="~" horiz-adv-x="639" 
d="M630 499q0 -111 -42.5 -157t-122.5 -46q-70 0 -139 23l-59 19q-37 11 -43 11q-14 0 -19.5 -7.5t-5.5 -26.5v-16h-191v16q0 59 15.5 101t42 63t55 30t62.5 9q62 0 127 -23l60 -21q34 -10 46 -10q14 0 19 8t5 27v14h190v-14z" />
    <glyph glyph-name="uni00A0" unicode="&#xa0;" horiz-adv-x="218" 
 />
    <glyph glyph-name="exclamdown" unicode="&#xa1;" horiz-adv-x="448" 
d="M393 -182h-338l26 528h285zM379 604v-200h-312v200h312z" />
    <glyph glyph-name="cent" unicode="&#xa2;" horiz-adv-x="611" 
d="M578 584v-177q-84 2 -178 2q-46 0 -58 -15.5t-12 -75.5v-41q0 -61 12.5 -77t57.5 -16q13 0 178 3v-177q-38 -12 -127 -20v-113h-237v121q-182 48 -182 279v41q0 228 182 278v120h237v-112q81 -10 127 -20z" />
    <glyph glyph-name="sterling" unicode="&#xa3;" horiz-adv-x="711" 
d="M679 743v-189q-98 4 -194 4q-42 0 -54 -11t-12 -52v-30h148v-176h-148v-38q0 -30 -10 -51h270v-200h-624v156q27 22 38 42.5t11 52.5v38h-72v176h72v28q0 148 78.5 211t237.5 63q134 0 259 -24z" />
    <glyph glyph-name="currency" unicode="&#xa4;" horiz-adv-x="684" 
d="M651 172l-98 -89l-85 79q-58 -29 -122 -29q-65 0 -125 30l-91 -84l-97 89l91 84q-31 52 -31 115q0 61 31 113l-92 85l98 88l90 -84q58 31 126 31q69 0 123 -30l86 80l97 -90l-87 -79q35 -57 35 -115q0 -61 -35 -116zM451 367q0 42 -31 71t-75 29t-75.5 -29t-31.5 -71
q0 -43 32 -71.5t75 -28.5q42 0 74 29t32 71z" />
    <glyph glyph-name="yen" unicode="&#xa5;" horiz-adv-x="897" 
d="M856 163h-253v-163h-317v163h-252v133h226l-42 75h-184v134h113l-117 238h333l48 -138q9 -24 33 -109h2q22 78 32 109l48 138h333l-117 -238h114v-134h-185l-42 -75h227v-133z" />
    <glyph glyph-name="brokenbar" unicode="&#xa6;" horiz-adv-x="365" 
d="M333 -194h-301v382h301v-382zM333 743v-383h-301v383h301z" />
    <glyph glyph-name="section" unicode="&#xa7;" horiz-adv-x="746" 
d="M52 -191v180q197 -8 276 -8q35 0 48 9.5t13 30.5q0 23 -18.5 34.5t-69.5 22.5l-94 19q-174 34 -174 199q0 78 41 128q-39 49 -39 126q0 210 349 210q82 0 173.5 -11t124.5 -20v-174q-150 10 -277 10q-60 0 -60 -35q0 -17 11.5 -27t43.5 -17l98 -23q119 -28 167 -78.5
t48 -134.5q0 -71 -42 -120q39 -43 39 -107q0 -132 -91.5 -186.5t-255.5 -54.5q-129 0 -311 27zM490 202q0 55 -12 74.5t-60 29.5l-100 21q-62 13 -79 47q0 -10 -0.5 -26t-0.5 -22q0 -35 13.5 -50.5t59.5 -24.5l100 -20q44 -9 76 -27z" />
    <glyph glyph-name="dieresis" unicode="&#xa8;" horiz-adv-x="585" 
d="M553 648h-228v138h228v-138zM260 786v-138h-228v138h228z" />
    <glyph glyph-name="copyright" unicode="&#xa9;" horiz-adv-x="879" 
d="M846 371q0 -196 -111.5 -299.5t-295.5 -103.5t-295.5 103.5t-111.5 299.5q0 195 112 299t295 104q184 0 295.5 -103.5t111.5 -299.5zM732 371q0 145 -80 225t-213 80t-212 -79.5t-79 -225.5t79 -225.5t212 -79.5t213 80t80 225zM457 151q-214 0 -214 200v39
q0 200 214 200q72 0 119 -17v-107q-65 3 -97 3q-31 0 -44.5 -17t-13.5 -62v-39q0 -45 13.5 -62t44.5 -17q32 0 97 3v-107q-47 -17 -119 -17z" />
    <glyph glyph-name="ordfeminine" unicode="&#xaa;" horiz-adv-x="495" 
d="M441 386h-176v25q-54 -35 -121 -35q-55 0 -83.5 29.5t-28.5 82.5v17q0 38 15 61.5t47.5 34t62.5 13t82 2.5h5v14q0 20 -7.5 25t-37.5 5q-41 0 -134 -5v100q91 31 186 31q92 0 141 -34t49 -122v-244zM255 486v55h-14q-14 0 -20 -5t-6 -22v-12q0 -21 16 -21q12 0 24 5z" />
    <glyph glyph-name="guillemotleft" unicode="&#xab;" horiz-adv-x="919" 
d="M887 56h-290l-141 239l141 240h290l-136 -240zM327 295l136 -239h-289l-142 239l142 240h289z" />
    <glyph glyph-name="logicalnot" unicode="&#xac;" horiz-adv-x="639" 
d="M594 108h-227v333h-323v203h550v-536z" />
    <glyph glyph-name="uni00AD" unicode="&#xad;" horiz-adv-x="346" 
d="M314 208h-282v178h282v-178z" />
    <glyph glyph-name="registered" unicode="&#xae;" horiz-adv-x="647" 
d="M614 472q0 -139 -80.5 -221.5t-210.5 -82.5t-210.5 82t-80.5 222q0 139 80.5 221.5t210.5 82.5t210.5 -82.5t80.5 -221.5zM517 472q0 102 -52.5 161.5t-141.5 59.5t-141.5 -59.5t-52.5 -161.5t52.5 -162t141.5 -60t141.5 60t52.5 162zM462 335h-105l-41 91h-21v-91h-99
v280q60 6 114 6q66 0 102.5 -21t36.5 -78v-5q0 -50 -40 -73zM350 518v4q0 18 -11 22.5t-44 4.5v-59q35 0 45 4t10 24z" />
    <glyph glyph-name="macron" unicode="&#xaf;" horiz-adv-x="571" 
d="M539 650h-507v136h507v-136z" />
    <glyph glyph-name="degree" unicode="&#xb0;" horiz-adv-x="399" 
d="M367 613q0 -64 -49 -109.5t-118 -45.5q-70 0 -119 45.5t-49 109.5t49 109t119 45q69 0 118 -45t49 -109zM257 613q0 23 -17 39t-41 16q-23 0 -40 -16t-17 -39t16.5 -38.5t40.5 -15.5t41 15.5t17 38.5z" />
    <glyph glyph-name="plusminus" unicode="&#xb1;" horiz-adv-x="639" 
d="M599 0h-559v147h559v-147zM599 352h-169v-150h-220v150h-169v203h169v149h220v-149h169v-203z" />
    <glyph glyph-name="two.superior" unicode="&#xb2;" horiz-adv-x="468" 
d="M38 682v99q81 23 190 23q112 0 160 -31t48 -99q0 -48 -31 -78.5t-106 -61.5q-51 -20 -62 -30.5t-11 -33.5h198v-124h-392v54q0 88 29 131t103 84q48 23 59 32t11 21q0 11 -9 15t-38 4q-59 0 -149 -5z" />
    <glyph glyph-name="three.superior" unicode="&#xb3;" horiz-adv-x="463" 
d="M220 333q-120 0 -188 25v98q54 -3 160 -3q26 0 34.5 5t8.5 24v5q0 18 -10.5 23.5t-42.5 5.5h-110v106h111q30 0 41 6t11 23v4q0 19 -8.5 24.5t-34.5 5.5q-38 0 -160 -4v97q73 26 188 26q101 0 155.5 -30t54.5 -101v-5q0 -69 -50 -97q50 -24 50 -94v-6q0 -73 -48.5 -105.5
t-161.5 -32.5z" />
    <glyph glyph-name="acute" unicode="&#xb4;" horiz-adv-x="528" 
d="M495 786l-191 -136h-272l133 136h330z" />
    <glyph glyph-name="mu" unicode="&#xb5;" horiz-adv-x="810" 
d="M734 0h-276v50q-41 -35 -102 -51v-192h-301v788h301v-373q0 -24 6.5 -32.5t25.5 -8.5q23 0 45 11v403h301v-595z" />
    <glyph glyph-name="paragraph" unicode="&#xb6;" horiz-adv-x="778" 
d="M535 -194h-140v421h-55q-308 0 -308 254v11q0 57 16.5 101t45 72t68.5 46t83.5 25t94.5 7h406v-937h-139v798h-72v-798z" />
    <glyph glyph-name="periodcentered" unicode="&#xb7;" horiz-adv-x="377" 
d="M326 269h-276v197h276v-197z" />
    <glyph glyph-name="cedilla" unicode="&#xb8;" horiz-adv-x="449" 
d="M417 -56l-124 -138h-261l89 138h296z" />
    <glyph glyph-name="one.superior" unicode="&#xb9;" horiz-adv-x="373" 
d="M333 346h-293v116l46 5v167l-46 -16v131l103 44h143v-326l47 -5v-116z" />
    <glyph glyph-name="ordmasculine" unicode="&#xba;" horiz-adv-x="500" 
d="M467 566q0 -104 -56 -147t-162 -43q-105 0 -161 43.5t-56 146.5v29q0 104 56 147.5t161 43.5q107 0 162.5 -43.5t55.5 -147.5v-29zM272 566v29q0 38 -5 49.5t-18 11.5t-18 -11.5t-5 -49.5v-29q0 -37 5 -49t18 -12t18 12t5 49z" />
    <glyph glyph-name="guillemotright" unicode="&#xbb;" horiz-adv-x="919" 
d="M887 295l-142 -239h-289l135 239l-135 240h289zM321 535l142 -240l-142 -239h-289l136 239l-136 240h289z" />
    <glyph glyph-name="onequarter" unicode="&#xbc;" horiz-adv-x="1090" 
d="M927 748l-531 -748h-234l532 748h233zM324 301h-293v116l46 5v167l-46 -16v131l103 44h143v-326l47 -5v-116zM1011 0h-197v82h-195v102l248 263h144v-253h47v-112h-47v-82zM827 194v81l-68 -81h68z" />
    <glyph glyph-name="onehalf" unicode="&#xbd;" horiz-adv-x="1182" 
d="M927 748l-531 -748h-234l532 748h233zM326 302h-293v116l46 5v167l-46 -16v131l103 44h143v-326l47 -5v-116zM752 337v99q81 23 190 23q112 0 160 -31t48 -99q0 -48 -31 -79t-106 -62q-51 -20 -62 -30t-11 -32v-2h198v-124h-392v54q0 88 29 131.5t103 84.5q48 23 59 32
t11 21q0 11 -9 15t-38 4q-59 0 -149 -5z" />
    <glyph glyph-name="threequarters" unicode="&#xbe;" horiz-adv-x="1169" 
d="M1000 748l-532 -748h-234l532 748h234zM32 637v97q73 26 188 26q101 0 155.5 -30t54.5 -101v-5q0 -69 -50 -97q50 -24 50 -94v-6q0 -73 -48.5 -105.5t-161.5 -32.5q-120 0 -188 25v98q54 -3 160 -3q26 0 34.5 5t8.5 24v5q0 18 -10.5 23.5t-42.5 5.5h-110v106h111
q30 0 41 6t11 23v4q0 19 -8.5 24.5t-34.5 5.5q-38 0 -160 -4zM1090 0h-197v82h-195v102l248 263h144v-253h47v-112h-47v-82zM906 194v81l-68 -81h68z" />
    <glyph glyph-name="questiondown" unicode="&#xbf;" horiz-adv-x="645" 
d="M610 -149q-100 -41 -296 -41q-142 0 -210.5 42t-68.5 129v7q0 53 22.5 94.5t78.5 92.5q72 65 96 99t24 65v7h246v-7q0 -73 -6.5 -109t-35.5 -79q-33 -48 -44 -68t-11 -36t11.5 -22t44.5 -6q67 0 149 4v-172zM530 411h-302v196h302v-196z" />
    <glyph glyph-name="Agrave" unicode="&#xc0;" horiz-adv-x="875" 
d="M860 0h-343l-16 119h-128l-17 -119h-341l152 743h536zM479 313l-28 173q-7 44 -13 105h-2q-6 -61 -13 -105l-27 -173h83zM590 789h-271l-192 136h331z" />
    <glyph glyph-name="Aacute" unicode="&#xc1;" horiz-adv-x="875" 
d="M860 0h-343l-16 119h-128l-17 -119h-341l152 743h536zM479 313l-28 173q-7 44 -13 105h-2q-6 -61 -13 -105l-27 -173h83zM747 926l-191 -136h-272l133 136h330z" />
    <glyph glyph-name="Acircumflex" unicode="&#xc2;" horiz-adv-x="875" 
d="M860 0h-343l-16 119h-128l-17 -119h-341l152 743h536zM479 313l-28 173q-7 44 -13 105h-2q-6 -61 -13 -105l-27 -173h83zM743 789h-246l-59 54l-60 -54h-246l135 136h342z" />
    <glyph glyph-name="Atilde" unicode="&#xc3;" horiz-adv-x="875" 
d="M860 0h-343l-16 119h-128l-17 -119h-341l152 743h536zM479 313l-28 173q-7 44 -13 105h-2q-6 -61 -13 -105l-27 -173h83zM707 944q0 -47 -14.5 -80t-38.5 -48.5t-48 -22t-50 -6.5q-49 0 -109 18l-56 17q-40 11 -50 11q-14 0 -19.5 -7t-5.5 -24v-13h-149v13q0 47 14.5 80
t39 48.5t49.5 22t54 6.5q40 0 101 -18l56 -16q46 -12 54 -12q13 0 18.5 7t5.5 24v12h148v-12z" />
    <glyph glyph-name="Adieresis" unicode="&#xc4;" horiz-adv-x="875" 
d="M860 0h-343l-16 119h-128l-17 -119h-341l152 743h536zM479 313l-28 173q-7 44 -13 105h-2q-6 -61 -13 -105l-27 -173h83zM697 789h-228v138h228v-138zM404 927v-138h-228v138h228z" />
    <glyph glyph-name="Aring" unicode="&#xc5;" horiz-adv-x="875" 
d="M860 0h-343l-16 119h-128l-17 -119h-341l152 743h536zM479 313l-28 173q-7 44 -13 105h-2q-6 -61 -13 -105l-27 -173h83zM619 916q0 -61 -50.5 -99t-130.5 -38t-131 38t-51 99q0 62 51 100t131 38t130.5 -38t50.5 -100zM493 917q0 18 -15 29t-40 11t-40 -11t-15 -29
t15 -29t40 -11t40 11t15 29z" />
    <glyph glyph-name="AE" unicode="&#xc6;" horiz-adv-x="1131" 
d="M1096 0h-605v119h-92l-17 -119h-334l141 743h907v-202h-276v-74h253v-186h-253v-79h276v-202zM491 313v278h-29q0 -1 -5 -43.5t-8 -61.5l-27 -173h69z" />
    <glyph glyph-name="Ccedilla" unicode="&#xc7;" horiz-adv-x="705" 
d="M670 4q-32 -10 -115 -17.5t-131 -7.5q-208 0 -296 83.5t-88 289.5v40q0 206 88 289t296 83q48 0 131 -7.5t115 -17.5v-204q-100 7 -199 7q-28 0 -43.5 -4.5t-29 -19t-19 -45t-5.5 -81.5v-40q0 -51 5.5 -82t19.5 -46t29.5 -19t43.5 -4q98 0 198 7v-204zM556 -56l-124 -138
h-261l89 138h296z" />
    <glyph glyph-name="Egrave" unicode="&#xc8;" horiz-adv-x="701" 
d="M661 0h-606v743h606v-202h-276v-74h254v-186h-254v-79h276v-202zM524 789h-271l-192 136h331z" />
    <glyph glyph-name="Eacute" unicode="&#xc9;" horiz-adv-x="701" 
d="M661 0h-606v743h606v-202h-276v-74h254v-186h-254v-79h276v-202zM666 925l-191 -136h-272l133 136h330z" />
    <glyph glyph-name="Ecircumflex" unicode="&#xca;" horiz-adv-x="701" 
d="M661 0h-606v743h606v-202h-276v-74h254v-186h-254v-79h276v-202zM666 789h-246l-59 54l-60 -54h-246l135 136h342z" />
    <glyph glyph-name="Edieresis" unicode="&#xcb;" horiz-adv-x="701" 
d="M661 0h-606v743h606v-202h-276v-74h254v-186h-254v-79h276v-202zM620 789h-228v138h228v-138zM327 927v-138h-228v138h228z" />
    <glyph glyph-name="Igrave" unicode="&#xcc;" horiz-adv-x="440" 
d="M385 0h-330v743h330v-743zM389 789h-271l-192 136h331z" />
    <glyph glyph-name="Iacute" unicode="&#xcd;" horiz-adv-x="440" 
d="M385 0h-330v743h330v-743zM523 925l-191 -136h-272l133 136h330z" />
    <glyph glyph-name="Icircumflex" unicode="&#xce;" horiz-adv-x="440" 
d="M385 0h-330v743h330v-743zM528 789h-246l-59 54l-60 -54h-246l135 136h342z" />
    <glyph glyph-name="Idieresis" unicode="&#xcf;" horiz-adv-x="440" 
d="M385 0h-330v743h330v-743zM481 789h-228v138h228v-138zM188 927v-138h-228v138h228z" />
    <glyph glyph-name="Eth" unicode="&#xd0;" horiz-adv-x="834" 
d="M795 363q0 -111 -24.5 -185.5t-77.5 -118t-127.5 -62t-182.5 -18.5q-171 0 -328 21v284h-46v183h46v276q155 21 328 21q217 0 314.5 -83t97.5 -295v-23zM473 363v23q0 113 -10 138.5t-62 25.5h-28v-83h50v-183h-50v-91h28q52 0 62 27.5t10 142.5z" />
    <glyph glyph-name="Ntilde" unicode="&#xd1;" horiz-adv-x="882" 
d="M827 0h-290l-143 207q-18 26 -41 72h-3v-78v-201h-295v743h280l153 -208q25 -34 44 -79h2q-2 14 -2 84v203h295v-743zM714 944q0 -47 -14.5 -80t-38.5 -48.5t-48 -22t-50 -6.5q-49 0 -109 18l-56 17q-40 11 -50 11q-14 0 -19.5 -7t-5.5 -24v-13h-149v13q0 47 14.5 80
t39 48.5t49.5 22t54 6.5q40 0 101 -18l56 -16q46 -12 54 -12q13 0 18.5 7t5.5 24v12h148v-12z" />
    <glyph glyph-name="Ograve" unicode="&#xd2;" horiz-adv-x="837" 
d="M797 352q0 -91 -20.5 -158.5t-53.5 -108t-83.5 -65t-102.5 -33t-119 -8.5q-66 0 -118 8.5t-102.5 33t-83.5 65t-53.5 108t-20.5 158.5v39q0 77 13.5 136.5t40 100t60 68t78 42t88.5 20.5t98 6t98 -6t89 -20.5t78.5 -42t60 -68t40 -100t13.5 -136.5v-39zM476 353v37
q0 95 -10 124t-48 29q-37 0 -47 -29t-10 -124v-37q0 -95 11 -123.5t46 -28.5q36 0 47 28.5t11 123.5zM593 789h-271l-192 136h331z" />
    <glyph glyph-name="Oacute" unicode="&#xd3;" horiz-adv-x="837" 
d="M797 352q0 -91 -20.5 -158.5t-53.5 -108t-83.5 -65t-102.5 -33t-119 -8.5q-66 0 -118 8.5t-102.5 33t-83.5 65t-53.5 108t-20.5 158.5v39q0 77 13.5 136.5t40 100t60 68t78 42t88.5 20.5t98 6t98 -6t89 -20.5t78.5 -42t60 -68t40 -100t13.5 -136.5v-39zM476 353v37
q0 95 -10 124t-48 29q-37 0 -47 -29t-10 -124v-37q0 -95 11 -123.5t46 -28.5q36 0 47 28.5t11 123.5zM708 925l-191 -136h-272l133 136h330z" />
    <glyph glyph-name="Ocircumflex" unicode="&#xd4;" horiz-adv-x="837" 
d="M797 352q0 -91 -20.5 -158.5t-53.5 -108t-83.5 -65t-102.5 -33t-119 -8.5q-66 0 -118 8.5t-102.5 33t-83.5 65t-53.5 108t-20.5 158.5v39q0 77 13.5 136.5t40 100t60 68t78 42t88.5 20.5t98 6t98 -6t89 -20.5t78.5 -42t60 -68t40 -100t13.5 -136.5v-39zM476 353v37
q0 95 -10 124t-48 29q-37 0 -47 -29t-10 -124v-37q0 -95 11 -123.5t46 -28.5q36 0 47 28.5t11 123.5zM724 789h-246l-59 54l-60 -54h-246l135 136h342z" />
    <glyph glyph-name="Otilde" unicode="&#xd5;" horiz-adv-x="837" 
d="M797 352q0 -91 -20.5 -158.5t-53.5 -108t-83.5 -65t-102.5 -33t-119 -8.5q-66 0 -118 8.5t-102.5 33t-83.5 65t-53.5 108t-20.5 158.5v39q0 77 13.5 136.5t40 100t60 68t78 42t88.5 20.5t98 6t98 -6t89 -20.5t78.5 -42t60 -68t40 -100t13.5 -136.5v-39zM476 353v37
q0 95 -10 124t-48 29q-37 0 -47 -29t-10 -124v-37q0 -95 11 -123.5t46 -28.5q36 0 47 28.5t11 123.5zM688 944q0 -47 -14.5 -80t-38.5 -48.5t-48 -22t-50 -6.5q-49 0 -109 18l-56 17q-40 11 -50 11q-14 0 -19.5 -7t-5.5 -24v-13h-149v13q0 47 14.5 80t39 48.5t49.5 22
t54 6.5q40 0 101 -18l56 -16q46 -12 54 -12q13 0 18.5 7t5.5 24v12h148v-12z" />
    <glyph glyph-name="Odieresis" unicode="&#xd6;" horiz-adv-x="837" 
d="M797 352q0 -91 -20.5 -158.5t-53.5 -108t-83.5 -65t-102.5 -33t-119 -8.5q-66 0 -118 8.5t-102.5 33t-83.5 65t-53.5 108t-20.5 158.5v39q0 77 13.5 136.5t40 100t60 68t78 42t88.5 20.5t98 6t98 -6t89 -20.5t78.5 -42t60 -68t40 -100t13.5 -136.5v-39zM476 353v37
q0 95 -10 124t-48 29q-37 0 -47 -29t-10 -124v-37q0 -95 11 -123.5t46 -28.5q36 0 47 28.5t11 123.5zM679 789h-228v138h228v-138zM386 927v-138h-228v138h228z" />
    <glyph glyph-name="multiply" unicode="&#xd7;" horiz-adv-x="639" 
d="M609 247l-147 -135l-142 131l-142 -132l-148 135l143 132l-141 131l147 135l141 -131l142 131l147 -136l-142 -130z" />
    <glyph glyph-name="Oslash" unicode="&#xd8;" horiz-adv-x="837" 
d="M797 348q0 -88 -21 -154t-55.5 -106.5t-85 -65.5t-102.5 -34t-115 -9q-114 0 -195 32l-33 -44h-161l90 118q-79 88 -79 263v46q0 88 21.5 155t55.5 107t85 65t102.5 34t113.5 9q116 0 196 -34l36 47h160l-92 -121q79 -92 79 -262v-46zM476 348v47q0 92 -11 120t-47 28
t-46.5 -28t-10.5 -120v-47q0 -91 11 -119t46 -28q36 0 47 28t11 119z" />
    <glyph glyph-name="Ugrave" unicode="&#xd9;" horiz-adv-x="860" 
d="M810 291q0 -155 -101 -233.5t-279 -78.5t-279 78.5t-101 233.5v452h324v-452q0 -59 10.5 -79t45.5 -20q36 0 46.5 20t10.5 79v452h323v-452zM591 789h-271l-192 136h331z" />
    <glyph glyph-name="Uacute" unicode="&#xda;" horiz-adv-x="860" 
d="M810 291q0 -155 -101 -233.5t-279 -78.5t-279 78.5t-101 233.5v452h324v-452q0 -59 10.5 -79t45.5 -20q36 0 46.5 20t10.5 79v452h323v-452zM740 925l-191 -136h-272l133 136h330z" />
    <glyph glyph-name="Ucircumflex" unicode="&#xdb;" horiz-adv-x="860" 
d="M810 291q0 -155 -101 -233.5t-279 -78.5t-279 78.5t-101 233.5v452h324v-452q0 -59 10.5 -79t45.5 -20q36 0 46.5 20t10.5 79v452h323v-452zM736 789h-246l-59 54l-60 -54h-246l135 136h342z" />
    <glyph glyph-name="Udieresis" unicode="&#xdc;" horiz-adv-x="860" 
d="M810 291q0 -155 -101 -233.5t-279 -78.5t-279 78.5t-101 233.5v452h324v-452q0 -59 10.5 -79t45.5 -20q36 0 46.5 20t10.5 79v452h323v-452zM691 789h-228v138h228v-138zM398 927v-138h-228v138h228z" />
    <glyph glyph-name="Yacute" unicode="&#xdd;" horiz-adv-x="824" 
d="M819 743l-248 -507v-236h-318v236l-248 507h325l48 -138q6 -18 32 -109h3q20 70 33 109l49 138h324zM721 925l-191 -136h-272l133 136h330z" />
    <glyph glyph-name="Thorn" unicode="&#xde;" horiz-adv-x="821" 
d="M368 0h-313v767h313v-89q18 1 49 1q65 0 116 -6t102 -23.5t85 -47t55 -78t21 -114.5v-12q0 -270 -371 -270q-33 0 -57 2v-130zM482 400v12q0 32 -15 44.5t-55 12.5q-24 0 -44 -2v-124q22 -2 46 -2q37 0 52.5 14t15.5 45z" />
    <glyph glyph-name="germandbls" unicode="&#xdf;" horiz-adv-x="821" 
d="M786 220q0 -109 -62.5 -172.5t-184.5 -63.5q-76 0 -136 12v191h19q37 0 51 12.5t14 38.5v9q0 34 -14.5 49.5t-50.5 15.5h-19v159h19q34 0 49.5 13t15.5 47v6q0 24 -14 36.5t-51 12.5q-38 0 -52.5 -14t-14.5 -46v-526h-300v526q0 128 85.5 194.5t289.5 66.5
q101 0 171 -20.5t104.5 -56t48 -72t13.5 -79.5v-9q0 -105 -84 -150q56 -29 79.5 -77t23.5 -93v-10z" />
    <glyph glyph-name="agrave" unicode="&#xe0;" horiz-adv-x="706" 
d="M656 0h-269v37q-34 -22 -85.5 -37.5t-100.5 -15.5q-84 0 -127.5 45t-43.5 126v26q0 34 9 60.5t22.5 44t38.5 30t48 19.5t59.5 10.5t65.5 4.5t73 1h9v22q0 29 -12 37t-56 8q-113 0 -206 -8v153q146 47 285 47q141 0 215.5 -52t74.5 -185v-373zM371 152v84h-22
q-21 0 -30 -7.5t-9 -33.5v-18q0 -32 25 -32q19 0 36 7zM550 650h-271l-192 136h331z" />
    <glyph glyph-name="aacute" unicode="&#xe1;" horiz-adv-x="706" 
d="M656 0h-269v37q-34 -22 -85.5 -37.5t-100.5 -15.5q-84 0 -127.5 45t-43.5 126v26q0 34 9 60.5t22.5 44t38.5 30t48 19.5t59.5 10.5t65.5 4.5t73 1h9v22q0 29 -12 37t-56 8q-113 0 -206 -8v153q146 47 285 47q141 0 215.5 -52t74.5 -185v-373zM371 152v84h-22
q-21 0 -30 -7.5t-9 -33.5v-18q0 -32 25 -32q19 0 36 7zM677 786l-191 -136h-272l133 136h330z" />
    <glyph glyph-name="acircumflex" unicode="&#xe2;" horiz-adv-x="706" 
d="M656 0h-269v37q-34 -22 -85.5 -37.5t-100.5 -15.5q-84 0 -127.5 45t-43.5 126v26q0 34 9 60.5t22.5 44t38.5 30t48 19.5t59.5 10.5t65.5 4.5t73 1h9v22q0 29 -12 37t-56 8q-113 0 -206 -8v153q146 47 285 47q141 0 215.5 -52t74.5 -185v-373zM371 152v84h-22
q-21 0 -30 -7.5t-9 -33.5v-18q0 -32 25 -32q19 0 36 7zM661 650h-246l-59 54l-60 -54h-246l135 136h342z" />
    <glyph glyph-name="atilde" unicode="&#xe3;" horiz-adv-x="706" 
d="M656 0h-269v37q-34 -22 -85.5 -37.5t-100.5 -15.5q-84 0 -127.5 45t-43.5 126v26q0 34 9 60.5t22.5 44t38.5 30t48 19.5t59.5 10.5t65.5 4.5t73 1h9v22q0 29 -12 37t-56 8q-113 0 -206 -8v153q146 47 285 47q141 0 215.5 -52t74.5 -185v-373zM371 152v84h-22
q-21 0 -30 -7.5t-9 -33.5v-18q0 -32 25 -32q19 0 36 7zM625 802q0 -47 -14.5 -80t-38.5 -48.5t-48 -22t-50 -6.5q-49 0 -109 18l-56 17q-40 11 -50 11q-14 0 -19.5 -7t-5.5 -24v-13h-149v13q0 47 14.5 80t39 48.5t49.5 22t54 6.5q40 0 101 -18l56 -16q46 -12 54 -12
q13 0 18.5 7t5.5 24v12h148v-12z" />
    <glyph glyph-name="adieresis" unicode="&#xe4;" horiz-adv-x="706" 
d="M656 0h-269v37q-34 -22 -85.5 -37.5t-100.5 -15.5q-84 0 -127.5 45t-43.5 126v26q0 34 9 60.5t22.5 44t38.5 30t48 19.5t59.5 10.5t65.5 4.5t73 1h9v22q0 29 -12 37t-56 8q-113 0 -206 -8v153q146 47 285 47q141 0 215.5 -52t74.5 -185v-373zM371 152v84h-22
q-21 0 -30 -7.5t-9 -33.5v-18q0 -32 25 -32q19 0 36 7zM616 648h-228v138h228v-138zM323 786v-138h-228v138h228z" />
    <glyph glyph-name="aring" unicode="&#xe5;" horiz-adv-x="706" 
d="M656 0h-269v37q-34 -22 -85.5 -37.5t-100.5 -15.5q-84 0 -127.5 45t-43.5 126v26q0 34 9 60.5t22.5 44t38.5 30t48 19.5t59.5 10.5t65.5 4.5t73 1h9v22q0 29 -12 37t-56 8q-113 0 -206 -8v153q146 47 285 47q141 0 215.5 -52t74.5 -185v-373zM371 152v84h-22
q-21 0 -30 -7.5t-9 -33.5v-18q0 -32 25 -32q19 0 36 7zM537 767q0 -61 -50.5 -99t-130.5 -38t-131 38t-51 99q0 62 51 100t131 38t130.5 -38t50.5 -100zM411 768q0 18 -15 29t-40 11t-40 -11t-15 -29t15 -29t40 -11t40 11t15 29z" />
    <glyph glyph-name="ae" unicode="&#xe6;" horiz-adv-x="1044" 
d="M982 11q-119 -26 -286 -26q-168 0 -243 66q-58 -39 -116 -52.5t-136 -13.5q-84 0 -127.5 44.5t-43.5 125.5v26q0 34 9 60.5t22.5 44t38.5 30t48 19.5t59.5 10.5t65.5 4.5t73 1h8v22q0 18 -3 26t-17.5 13.5t-45.5 5.5q-89 0 -207 -7v152q146 47 285 47q98 0 162 -24
q68 24 164 24q83 0 145 -20.5t96 -51t54.5 -73t26 -78t5.5 -75.5v-78h-368v-6q0 -39 13.5 -50.5t69.5 -11.5q187 0 248 3v-158zM733 353v6q0 42 -9.5 57t-32.5 15q-22 0 -31 -15.5t-9 -56.5v-6h82zM369 152v84h-20q-21 0 -30 -7.5t-9 -33.5v-18q0 -32 24 -32q17 0 35 7z" />
    <glyph glyph-name="ccedilla" unicode="&#xe7;" horiz-adv-x="616" 
d="M581 10q-117 -26 -240 -26q-159 0 -232.5 71t-73.5 222v41q0 154 73 223t233 69q123 0 240 -26v-180q-147 5 -179 5q-43 0 -56 -16t-13 -75v-41q0 -60 13 -76.5t56 -16.5q32 0 179 5v-179zM496 -56l-124 -138h-261l89 138h296z" />
    <glyph glyph-name="egrave" unicode="&#xe8;" horiz-adv-x="723" 
d="M698 234h-367v-6q0 -37 12 -44.5t71 -7.5q85 0 247 3v-166q-131 -29 -261 -29q-92 0 -155.5 13t-113 45.5t-73 93t-23.5 151.5v17q0 167 84 236.5t253 69.5q84 0 146 -21t95.5 -52t53.5 -77t25.5 -85t5.5 -87v-54zM412 353v6q0 42 -9.5 57t-32.5 15q-21 0 -30 -15.5
t-9 -56.5v-6h81zM556 650h-271l-192 136h331z" />
    <glyph glyph-name="eacute" unicode="&#xe9;" horiz-adv-x="723" 
d="M698 234h-367v-6q0 -37 12 -44.5t71 -7.5q85 0 247 3v-166q-131 -29 -261 -29q-92 0 -155.5 13t-113 45.5t-73 93t-23.5 151.5v17q0 167 84 236.5t253 69.5q84 0 146 -21t95.5 -52t53.5 -77t25.5 -85t5.5 -87v-54zM412 353v6q0 42 -9.5 57t-32.5 15q-21 0 -30 -15.5
t-9 -56.5v-6h81zM670 786l-191 -136h-272l133 136h330z" />
    <glyph glyph-name="ecircumflex" unicode="&#xea;" horiz-adv-x="723" 
d="M698 234h-367v-6q0 -37 12 -44.5t71 -7.5q85 0 247 3v-166q-131 -29 -261 -29q-92 0 -155.5 13t-113 45.5t-73 93t-23.5 151.5v17q0 167 84 236.5t253 69.5q84 0 146 -21t95.5 -52t53.5 -77t25.5 -85t5.5 -87v-54zM412 353v6q0 42 -9.5 57t-32.5 15q-21 0 -30 -15.5
t-9 -56.5v-6h81zM667 650h-246l-59 54l-60 -54h-246l135 136h342z" />
    <glyph glyph-name="edieresis" unicode="&#xeb;" horiz-adv-x="723" 
d="M698 234h-367v-6q0 -37 12 -44.5t71 -7.5q85 0 247 3v-166q-131 -29 -261 -29q-92 0 -155.5 13t-113 45.5t-73 93t-23.5 151.5v17q0 167 84 236.5t253 69.5q84 0 146 -21t95.5 -52t53.5 -77t25.5 -85t5.5 -87v-54zM412 353v6q0 42 -9.5 57t-32.5 15q-21 0 -30 -15.5
t-9 -56.5v-6h81zM622 648h-228v138h228v-138zM329 786v-138h-228v138h228z" />
    <glyph glyph-name="igrave" unicode="&#xec;" horiz-adv-x="411" 
d="M356 0h-301v595h301v-595zM365 650h-271l-192 136h331z" />
    <glyph glyph-name="iacute" unicode="&#xed;" horiz-adv-x="411" 
d="M356 0h-301v595h301v-595zM512 786l-191 -136h-272l133 136h330z" />
    <glyph glyph-name="icircumflex" unicode="&#xee;" horiz-adv-x="411" 
d="M356 0h-301v595h301v-595zM511 650h-246l-59 54l-60 -54h-246l135 136h342z" />
    <glyph glyph-name="idieresis" unicode="&#xef;" horiz-adv-x="411" 
d="M356 0h-301v595h301v-595zM466 648h-228v138h228v-138zM173 786v-138h-228v138h228z" />
    <glyph glyph-name="eth" unicode="&#xf0;" horiz-adv-x="736" 
d="M701 309q0 -172 -83.5 -248.5t-249.5 -76.5t-249.5 67t-83.5 217v25q0 155 84.5 220t243.5 65q7 0 27 -2q-41 50 -134 69l-86 -77l-54 48l46 43q-28 2 -41 2q-24 0 -41 -1v135q44 4 96 4q69 0 130 -11l69 62l55 -48l-36 -34q149 -45 228 -160t79 -260v-39zM402 268v45
q0 38 -8 52.5t-26 14.5q-21 0 -28.5 -17t-7.5 -64v-31q0 -53 7.5 -70t28.5 -17q20 0 27 17t7 70z" />
    <glyph glyph-name="ntilde" unicode="&#xf1;" horiz-adv-x="784" 
d="M734 0h-301v373q0 24 -6.5 32.5t-24.5 8.5q-28 0 -46 -12v-402h-301v595h276v-50q80 65 192 65q44 0 78 -8t56 -19t37.5 -32t23 -37.5t11.5 -46t4.5 -46t0.5 -48.5v-373zM664 802q0 -47 -14.5 -80t-38.5 -48.5t-48 -22t-50 -6.5q-49 0 -109 18l-56 17q-40 11 -50 11
q-14 0 -19.5 -7t-5.5 -24v-13h-149v13q0 47 14.5 80t39 48.5t49.5 22t54 6.5q40 0 101 -18l56 -16q46 -12 54 -12q13 0 18.5 7t5.5 24v12h148v-12z" />
    <glyph glyph-name="ograve" unicode="&#xf2;" horiz-adv-x="736" 
d="M701 276q0 -158 -85.5 -225t-248.5 -67q-161 0 -246.5 67t-85.5 225v42q0 158 85.5 225t246.5 67q163 0 248.5 -66.5t85.5 -225.5v-42zM402 276v42q0 57 -7.5 75.5t-27.5 18.5t-27.5 -18.5t-7.5 -75.5v-42q0 -58 7.5 -76.5t27.5 -18.5t27.5 18.5t7.5 76.5zM531 650h-271
l-192 136h331z" />
    <glyph glyph-name="oacute" unicode="&#xf3;" horiz-adv-x="736" 
d="M701 276q0 -158 -85.5 -225t-248.5 -67q-161 0 -246.5 67t-85.5 225v42q0 158 85.5 225t246.5 67q163 0 248.5 -66.5t85.5 -225.5v-42zM402 276v42q0 57 -7.5 75.5t-27.5 18.5t-27.5 -18.5t-7.5 -75.5v-42q0 -58 7.5 -76.5t27.5 -18.5t27.5 18.5t7.5 76.5zM664 786
l-191 -136h-272l133 136h330z" />
    <glyph glyph-name="ocircumflex" unicode="&#xf4;" horiz-adv-x="736" 
d="M701 276q0 -158 -85.5 -225t-248.5 -67q-161 0 -246.5 67t-85.5 225v42q0 158 85.5 225t246.5 67q163 0 248.5 -66.5t85.5 -225.5v-42zM402 276v42q0 57 -7.5 75.5t-27.5 18.5t-27.5 -18.5t-7.5 -75.5v-42q0 -58 7.5 -76.5t27.5 -18.5t27.5 18.5t7.5 76.5zM673 650h-246
l-59 54l-60 -54h-246l135 136h342z" />
    <glyph glyph-name="otilde" unicode="&#xf5;" horiz-adv-x="736" 
d="M701 276q0 -158 -85.5 -225t-248.5 -67q-161 0 -246.5 67t-85.5 225v42q0 158 85.5 225t246.5 67q163 0 248.5 -66.5t85.5 -225.5v-42zM402 276v42q0 57 -7.5 75.5t-27.5 18.5t-27.5 -18.5t-7.5 -75.5v-42q0 -58 7.5 -76.5t27.5 -18.5t27.5 18.5t7.5 76.5zM638 802
q0 -47 -14.5 -80t-38.5 -48.5t-48 -22t-50 -6.5q-49 0 -109 18l-56 17q-40 11 -50 11q-14 0 -19.5 -7t-5.5 -24v-13h-149v13q0 47 14.5 80t39 48.5t49.5 22t54 6.5q40 0 101 -18l56 -16q46 -12 54 -12q13 0 18.5 7t5.5 24v12h148v-12z" />
    <glyph glyph-name="odieresis" unicode="&#xf6;" horiz-adv-x="736" 
d="M701 276q0 -158 -85.5 -225t-248.5 -67q-161 0 -246.5 67t-85.5 225v42q0 158 85.5 225t246.5 67q163 0 248.5 -66.5t85.5 -225.5v-42zM402 276v42q0 57 -7.5 75.5t-27.5 18.5t-27.5 -18.5t-7.5 -75.5v-42q0 -58 7.5 -76.5t27.5 -18.5t27.5 18.5t7.5 76.5zM628 648h-228
v138h228v-138zM335 786v-138h-228v138h228z" />
    <glyph glyph-name="divide" unicode="&#xf7;" horiz-adv-x="639" 
d="M463 23h-288v178h288v-178zM594 481v-202h-550v202h550zM463 558h-288v178h288v-178z" />
    <glyph glyph-name="oslash" unicode="&#xf8;" horiz-adv-x="736" 
d="M701 274q0 -290 -333 -290q-77 0 -135 16l-26 -32h-185l86 98q-73 71 -73 208v45q0 291 333 291q78 0 138 -16l29 34h185l-90 -101q71 -73 71 -208v-45zM402 274v45q0 57 -7 75t-27 18q-21 0 -28.5 -18t-7.5 -75v-45q0 -57 7.5 -75t28.5 -18q20 0 27 18t7 75z" />
    <glyph glyph-name="ugrave" unicode="&#xf9;" 
d="M734 0h-276v50q-80 -66 -212 -66q-54 0 -91.5 15t-56.5 35.5t-29.5 57t-12 62t-1.5 68.5v373h301v-373q0 -24 6.5 -32.5t25.5 -8.5q23 0 45 11v403h301v-595zM572 650h-271l-192 136h331z" />
    <glyph glyph-name="uacute" unicode="&#xfa;" 
d="M734 0h-276v50q-80 -66 -212 -66q-54 0 -91.5 15t-56.5 35.5t-29.5 57t-12 62t-1.5 68.5v373h301v-373q0 -24 6.5 -32.5t25.5 -8.5q23 0 45 11v403h301v-595zM683 786l-191 -136h-272l133 136h330z" />
    <glyph glyph-name="ucircumflex" unicode="&#xfb;" 
d="M734 0h-276v50q-80 -66 -212 -66q-54 0 -91.5 15t-56.5 35.5t-29.5 57t-12 62t-1.5 68.5v373h301v-373q0 -24 6.5 -32.5t25.5 -8.5q23 0 45 11v403h301v-595zM700 650h-246l-59 54l-60 -54h-246l135 136h342z" />
    <glyph glyph-name="udieresis" unicode="&#xfc;" 
d="M734 0h-276v50q-80 -66 -212 -66q-54 0 -91.5 15t-56.5 35.5t-29.5 57t-12 62t-1.5 68.5v373h301v-373q0 -24 6.5 -32.5t25.5 -8.5q23 0 45 11v403h301v-595zM655 648h-228v138h228v-138zM362 786v-138h-228v138h228z" />
    <glyph glyph-name="yacute" unicode="&#xfd;" horiz-adv-x="768" 
d="M753 595l-140 -544q-38 -150 -110.5 -204.5t-206.5 -54.5q-145 0 -241 18v162q58 -1 114 -1q36 0 40 22l3 20l-197 582h318l41 -273q13 -92 19 -158h2q4 45 20 158l39 273h299zM706 786l-191 -136h-272l133 136h330z" />
    <glyph glyph-name="thorn" unicode="&#xfe;" horiz-adv-x="769" 
d="M356 -194h-301v980h273v-226q78 50 183 50t164 -66.5t59 -221.5v-49q0 -150 -77 -220t-235 -70q-16 0 -40 1t-26 1v-179zM433 273v49q0 58 -8 74t-38 16q-23 0 -35 -4v-226q8 -1 29 -1q34 0 43 16.5t9 75.5z" />
    <glyph glyph-name="ydieresis" unicode="&#xff;" horiz-adv-x="768" 
d="M753 595l-140 -544q-38 -150 -110.5 -204.5t-206.5 -54.5q-145 0 -241 18v162q58 -1 114 -1q36 0 40 22l3 20l-197 582h318l41 -273q13 -92 19 -158h2q4 45 20 158l39 273h299zM655 648h-228v138h228v-138zM362 786v-138h-228v138h228z" />
    <glyph glyph-name="Amacron" unicode="&#x100;" horiz-adv-x="875" 
d="M860 0h-343l-16 119h-128l-17 -119h-341l152 743h536zM479 313l-28 173q-7 44 -13 105h-2q-6 -61 -13 -105l-27 -173h83zM691 789h-507v136h507v-136z" />
    <glyph glyph-name="amacron" unicode="&#x101;" horiz-adv-x="706" 
d="M656 0h-269v37q-34 -22 -85.5 -37.5t-100.5 -15.5q-84 0 -127.5 45t-43.5 126v26q0 34 9 60.5t22.5 44t38.5 30t48 19.5t59.5 10.5t65.5 4.5t73 1h9v22q0 29 -12 37t-56 8q-113 0 -206 -8v153q146 47 285 47q141 0 215.5 -52t74.5 -185v-373zM371 152v84h-22
q-21 0 -30 -7.5t-9 -33.5v-18q0 -32 25 -32q19 0 36 7zM609 650h-507v136h507v-136z" />
    <glyph glyph-name="Abreve" unicode="&#x102;" horiz-adv-x="875" 
d="M860 0h-343l-16 119h-128l-17 -119h-341l152 743h536zM479 313l-28 173q-7 44 -13 105h-2q-6 -61 -13 -105l-27 -173h83zM704 943q-8 -52 -39.5 -87.5t-76.5 -50.5t-80 -20.5t-70 -5.5t-69.5 5.5t-79.5 20.5t-77.5 50.5t-40.5 87.5h153q12 -54 114 -54q103 0 115 54h151z
" />
    <glyph glyph-name="abreve" unicode="&#x103;" horiz-adv-x="706" 
d="M656 0h-269v37q-34 -22 -85.5 -37.5t-100.5 -15.5q-84 0 -127.5 45t-43.5 126v26q0 34 9 60.5t22.5 44t38.5 30t48 19.5t59.5 10.5t65.5 4.5t73 1h9v22q0 29 -12 37t-56 8q-113 0 -206 -8v153q146 47 285 47q141 0 215.5 -52t74.5 -185v-373zM371 152v84h-22
q-21 0 -30 -7.5t-9 -33.5v-18q0 -32 25 -32q19 0 36 7zM622 810q-8 -52 -39.5 -87.5t-76.5 -50.5t-80 -20.5t-70 -5.5t-69.5 5.5t-79.5 20.5t-77.5 50.5t-40.5 87.5h153q12 -54 114 -54q103 0 115 54h151z" />
    <glyph glyph-name="Aogonek" unicode="&#x104;" horiz-adv-x="875" 
d="M860 -191q-101 -27 -210 -27q-91 0 -138 26t-47 88q0 63 52 105l-16 118h-128l-17 -119h-341l152 743h536l157 -743q-138 -32 -138 -59q0 -12 10.5 -16t34.5 -4q33 0 93 5v-117zM479 313l-28 173q-7 44 -13 105h-2q-6 -61 -13 -105l-27 -173h83z" />
    <glyph glyph-name="aogonek" unicode="&#x105;" horiz-adv-x="706" 
d="M656 -191q-101 -27 -210 -27q-185 0 -185 100q0 38 31 70t95 49v36q-34 -22 -85.5 -37.5t-100.5 -15.5q-84 0 -127.5 45t-43.5 126v26q0 34 9 60.5t22.5 44t38.5 30t48 19.5t59.5 10.5t65.5 4.5t73 1h9v22q0 29 -12 37t-56 8q-113 0 -206 -8v153q146 47 285 47
q141 0 215.5 -52t74.5 -185v-373q-138 -32 -138 -59q0 -12 10.5 -16t34.5 -4q33 0 93 5v-117zM371 152v84h-22q-21 0 -30 -7.5t-9 -33.5v-18q0 -32 25 -32q19 0 36 7z" />
    <glyph glyph-name="Cacute" unicode="&#x106;" horiz-adv-x="705" 
d="M670 4q-32 -10 -115 -17.5t-131 -7.5q-208 0 -296 83.5t-88 289.5v40q0 206 88 289t296 83q48 0 131 -7.5t115 -17.5v-204q-100 7 -199 7q-28 0 -43.5 -4.5t-29 -19t-19 -45t-5.5 -81.5v-40q0 -51 5.5 -82t19.5 -46t29.5 -19t43.5 -4q98 0 198 7v-204zM715 925l-191 -136
h-272l133 136h330z" />
    <glyph glyph-name="cacute" unicode="&#x107;" horiz-adv-x="616" 
d="M581 10q-117 -26 -240 -26q-159 0 -232.5 71t-73.5 222v41q0 154 73 223t233 69q123 0 240 -26v-180q-147 5 -179 5q-43 0 -56 -16t-13 -75v-41q0 -60 13 -76.5t56 -16.5q32 0 179 5v-179zM638 786l-191 -136h-272l133 136h330z" />
    <glyph glyph-name="Ccircumflex" unicode="&#x108;" horiz-adv-x="705" 
d="M670 4q-32 -10 -115 -17.5t-131 -7.5q-208 0 -296 83.5t-88 289.5v40q0 206 88 289t296 83q48 0 131 -7.5t115 -17.5v-204q-100 7 -199 7q-28 0 -43.5 -4.5t-29 -19t-19 -45t-5.5 -81.5v-40q0 -51 5.5 -82t19.5 -46t29.5 -19t43.5 -4q98 0 198 7v-204zM695 789h-246
l-59 54l-60 -54h-246l135 136h342z" />
    <glyph glyph-name="ccircumflex" unicode="&#x109;" horiz-adv-x="616" 
d="M581 10q-117 -26 -240 -26q-159 0 -232.5 71t-73.5 222v41q0 154 73 223t233 69q123 0 240 -26v-180q-147 5 -179 5q-43 0 -56 -16t-13 -75v-41q0 -60 13 -76.5t56 -16.5q32 0 179 5v-179zM647 650h-246l-59 54l-60 -54h-246l135 136h342z" />
    <glyph glyph-name="Cdotaccent" unicode="&#x10a;" horiz-adv-x="705" 
d="M670 4q-32 -10 -115 -17.5t-131 -7.5q-208 0 -296 83.5t-88 289.5v40q0 206 88 289t296 83q48 0 131 -7.5t115 -17.5v-204q-100 7 -199 7q-28 0 -43.5 -4.5t-29 -19t-19 -45t-5.5 -81.5v-40q0 -51 5.5 -82t19.5 -46t29.5 -19t43.5 -4q98 0 198 7v-204zM562 789h-316v136
h316v-136z" />
    <glyph glyph-name="cdotaccent" unicode="&#x10b;" horiz-adv-x="616" 
d="M581 10q-117 -26 -240 -26q-159 0 -232.5 71t-73.5 222v41q0 154 73 223t233 69q123 0 240 -26v-180q-147 5 -179 5q-43 0 -56 -16t-13 -75v-41q0 -60 13 -76.5t56 -16.5q32 0 179 5v-179zM487 650h-316v136h316v-136z" />
    <glyph glyph-name="Ccaron" unicode="&#x10c;" horiz-adv-x="705" 
d="M670 4q-32 -10 -115 -17.5t-131 -7.5q-208 0 -296 83.5t-88 289.5v40q0 206 88 289t296 83q48 0 131 -7.5t115 -17.5v-204q-100 7 -199 7q-28 0 -43.5 -4.5t-29 -19t-19 -45t-5.5 -81.5v-40q0 -51 5.5 -82t19.5 -46t29.5 -19t43.5 -4q98 0 198 7v-204zM94 925h246l60 -53
l59 53h246l-134 -136h-342z" />
    <glyph glyph-name="ccaron" unicode="&#x10d;" horiz-adv-x="616" 
d="M581 10q-117 -26 -240 -26q-159 0 -232.5 71t-73.5 222v41q0 154 73 223t233 69q123 0 240 -26v-180q-147 5 -179 5q-43 0 -56 -16t-13 -75v-41q0 -60 13 -76.5t56 -16.5q32 0 179 5v-179zM23 786h246l60 -53l59 53h246l-134 -136h-342z" />
    <glyph glyph-name="Dcaron" unicode="&#x10e;" horiz-adv-x="834" 
d="M795 363q0 -111 -24.5 -185.5t-77.5 -118t-127.5 -62t-182.5 -18.5q-171 0 -328 21v743q155 21 328 21q217 0 314.5 -83t97.5 -295v-23zM473 363v23q0 113 -10 138.5t-62 25.5h-28v-357h28q52 0 62 27.5t10 142.5zM99 925h246l60 -53l59 53h246l-134 -136h-342z" />
    <glyph glyph-name="dcaron" unicode="&#x10f;" horiz-adv-x="1025" 
d="M712 0h-272v31q-74 -47 -173 -47q-112 0 -172 73.5t-60 221.5v40q0 151 74.5 221t232.5 70q41 0 69 -2v178h301v-786zM415 186v224q-16 2 -30 2q-33 0 -42 -17t-9 -76v-40q0 -62 8 -79t39 -17q21 0 34 3zM1052 786l-111 -288h-208l73 288h246z" />
    <glyph glyph-name="Dcroat" unicode="&#x110;" horiz-adv-x="834" 
d="M795 363q0 -111 -24.5 -185.5t-77.5 -118t-127.5 -62t-182.5 -18.5q-171 0 -328 21v284h-46v183h46v276q155 21 328 21q217 0 314.5 -83t97.5 -295v-23zM473 363v23q0 113 -10 138.5t-62 25.5h-28v-83h50v-183h-50v-91h28q52 0 62 27.5t10 142.5z" />
    <glyph glyph-name="dcroat" unicode="&#x111;" horiz-adv-x="796" 
d="M411 786h301v-42h51v-92h-51v-652h-272v31q-74 -47 -173 -47q-112 0 -172 73.5t-60 221.5v40q0 151 74.5 221t232.5 70q41 0 69 -2v44h-159v92h159v42zM415 186v224q-16 2 -30 2q-33 0 -42 -17t-9 -76v-40q0 -62 8 -79t39 -17q13 0 34 3z" />
    <glyph glyph-name="Emacron" unicode="&#x112;" horiz-adv-x="701" 
d="M661 0h-606v743h606v-202h-276v-74h254v-186h-254v-79h276v-202zM616 789h-507v136h507v-136z" />
    <glyph glyph-name="emacron" unicode="&#x113;" horiz-adv-x="723" 
d="M698 234h-367v-6q0 -37 12 -44.5t71 -7.5q85 0 247 3v-166q-131 -29 -261 -29q-92 0 -155.5 13t-113 45.5t-73 93t-23.5 151.5v17q0 167 84 236.5t253 69.5q84 0 146 -21t95.5 -52t53.5 -77t25.5 -85t5.5 -87v-54zM412 353v6q0 42 -9.5 57t-32.5 15q-21 0 -30 -15.5
t-9 -56.5v-6h81zM615 650h-507v136h507v-136z" />
    <glyph glyph-name="Ebreve" unicode="&#x114;" horiz-adv-x="701" 
d="M661 0h-606v743h606v-202h-276v-74h254v-186h-254v-79h276v-202zM629 943q-8 -52 -39.5 -87.5t-76.5 -50.5t-80 -20.5t-70 -5.5t-69.5 5.5t-79.5 20.5t-77.5 50.5t-40.5 87.5h153q12 -54 114 -54q103 0 115 54h151z" />
    <glyph glyph-name="ebreve" unicode="&#x115;" horiz-adv-x="723" 
d="M698 234h-367v-6q0 -37 12 -44.5t71 -7.5q85 0 247 3v-166q-131 -29 -261 -29q-92 0 -155.5 13t-113 45.5t-73 93t-23.5 151.5v17q0 167 84 236.5t253 69.5q84 0 146 -21t95.5 -52t53.5 -77t25.5 -85t5.5 -87v-54zM412 353v6q0 42 -9.5 57t-32.5 15q-21 0 -30 -15.5
t-9 -56.5v-6h81zM628 810q-8 -52 -39.5 -87.5t-76.5 -50.5t-80 -20.5t-70 -5.5t-69.5 5.5t-79.5 20.5t-77.5 50.5t-40.5 87.5h153q12 -54 114 -54q103 0 115 54h151z" />
    <glyph glyph-name="Edotaccent" unicode="&#x116;" horiz-adv-x="701" 
d="M661 0h-606v743h606v-202h-276v-74h254v-186h-254v-79h276v-202zM510 789h-316v136h316v-136z" />
    <glyph glyph-name="edotaccent" unicode="&#x117;" horiz-adv-x="723" 
d="M698 234h-367v-6q0 -37 12 -44.5t71 -7.5q85 0 247 3v-166q-131 -29 -261 -29q-92 0 -155.5 13t-113 45.5t-73 93t-23.5 151.5v17q0 167 84 236.5t253 69.5q84 0 146 -21t95.5 -52t53.5 -77t25.5 -85t5.5 -87v-54zM412 353v6q0 42 -9.5 57t-32.5 15q-21 0 -30 -15.5
t-9 -56.5v-6h81zM519 650h-316v136h316v-136z" />
    <glyph glyph-name="Eogonek" unicode="&#x118;" horiz-adv-x="701" 
d="M661 -191q-101 -27 -210 -27q-185 0 -185 100q0 89 162 118h-373v743h606v-202h-276v-74h254v-186h-254v-79h276v-202q-138 -32 -138 -59q0 -12 10.5 -16t34.5 -4q33 0 93 5v-117z" />
    <glyph glyph-name="eogonek" unicode="&#x119;" horiz-adv-x="723" 
d="M661 -77v-123q-88 -18 -173 -18q-93 0 -139 20.5t-46 73.5q0 42 29.5 67.5t87.5 40.5h-20q-92 0 -155.5 13t-113 45.5t-73 93t-23.5 151.5v17q0 167 84 236.5t253 69.5q84 0 146 -21t95.5 -52t53.5 -77t25.5 -85t5.5 -87v-54h-367v-6q0 -37 12 -44.5t71 -7.5q85 0 247 3
v-166q-2 -1 -4 -1q-97 -28 -97 -65q0 -16 10 -21t35 -5q22 0 56 2zM412 353v6q0 42 -9.5 57t-32.5 15q-21 0 -30 -15.5t-9 -56.5v-6h81z" />
    <glyph glyph-name="Ecaron" unicode="&#x11a;" horiz-adv-x="701" 
d="M661 0h-606v743h606v-202h-276v-74h254v-186h-254v-79h276v-202zM53 925h246l60 -53l59 53h246l-134 -136h-342z" />
    <glyph glyph-name="ecaron" unicode="&#x11b;" horiz-adv-x="723" 
d="M698 234h-367v-6q0 -37 12 -44.5t71 -7.5q85 0 247 3v-166q-131 -29 -261 -29q-92 0 -155.5 13t-113 45.5t-73 93t-23.5 151.5v17q0 167 84 236.5t253 69.5q84 0 146 -21t95.5 -52t53.5 -77t25.5 -85t5.5 -87v-54zM412 353v6q0 42 -9.5 57t-32.5 15q-21 0 -30 -15.5
t-9 -56.5v-6h81zM56 786h246l60 -53l59 53h246l-134 -136h-342z" />
    <glyph glyph-name="Gcircumflex" unicode="&#x11c;" horiz-adv-x="811" 
d="M756 7q-159 -28 -339 -28q-65 0 -114.5 7.5t-101 31t-85 63t-55 109t-21.5 164.5v36q0 72 12 129t31.5 95.5t50.5 66.5t62 44t73 25t77 11.5t80 2.5q165 0 324 -37v-192q-149 7 -255 7q-57 0 -82 -9t-38 -41t-13 -102v-36q0 -96 10 -126t47 -30q26 0 40 2v220h297v-413z
M706 789h-246l-59 54l-60 -54h-246l135 136h342z" />
    <glyph glyph-name="gcircumflex" unicode="&#x11d;" horiz-adv-x="770" 
d="M715 4q0 -110 -82 -161t-271 -51q-176 0 -288 28v152q240 -10 252 -10q59 0 74.5 8t15.5 34v8q-40 -4 -61 -4q-154 0 -234.5 71t-80.5 206v46q0 149 92.5 214t294.5 65q132 0 288 -15v-591zM418 206v204q-22 2 -32 2q-29 0 -38.5 -17t-9.5 -66v-44q0 -42 10 -61t38 -19
q23 0 32 1zM690 650h-246l-59 54l-60 -54h-246l135 136h342z" />
    <glyph glyph-name="Gbreve" unicode="&#x11e;" horiz-adv-x="811" 
d="M756 7q-159 -28 -339 -28q-65 0 -114.5 7.5t-101 31t-85 63t-55 109t-21.5 164.5v36q0 72 12 129t31.5 95.5t50.5 66.5t62 44t73 25t77 11.5t80 2.5q165 0 324 -37v-192q-149 7 -255 7q-57 0 -82 -9t-38 -41t-13 -102v-36q0 -96 10 -126t47 -30q26 0 40 2v220h297v-413z
M687 953q-8 -52 -39.5 -87.5t-76.5 -50.5t-80 -20.5t-70 -5.5t-69.5 5.5t-79.5 20.5t-77.5 50.5t-40.5 87.5h153q12 -54 114 -54q103 0 115 54h151z" />
    <glyph glyph-name="gbreve" unicode="&#x11f;" horiz-adv-x="770" 
d="M715 4q0 -110 -82 -161t-271 -51q-176 0 -288 28v152q240 -10 252 -10q59 0 74.5 8t15.5 34v8q-40 -4 -61 -4q-154 0 -234.5 71t-80.5 206v46q0 149 92.5 214t294.5 65q132 0 288 -15v-591zM418 206v204q-22 2 -32 2q-29 0 -38.5 -17t-9.5 -66v-44q0 -42 10 -61t38 -19
q23 0 32 1zM651 810q-8 -52 -39.5 -87.5t-76.5 -50.5t-80 -20.5t-70 -5.5t-69.5 5.5t-79.5 20.5t-77.5 50.5t-40.5 87.5h153q12 -54 114 -54q103 0 115 54h151z" />
    <glyph glyph-name="Gdotaccent" unicode="&#x120;" horiz-adv-x="811" 
d="M756 7q-159 -28 -339 -28q-65 0 -114.5 7.5t-101 31t-85 63t-55 109t-21.5 164.5v36q0 72 12 129t31.5 95.5t50.5 66.5t62 44t73 25t77 11.5t80 2.5q165 0 324 -37v-192q-149 7 -255 7q-57 0 -82 -9t-38 -41t-13 -102v-36q0 -96 10 -126t47 -30q26 0 40 2v220h297v-413z
M558 789h-316v136h316v-136z" />
    <glyph glyph-name="gdotaccent" unicode="&#x121;" horiz-adv-x="770" 
d="M715 4q0 -110 -82 -161t-271 -51q-176 0 -288 28v152q240 -10 252 -10q59 0 74.5 8t15.5 34v8q-40 -4 -61 -4q-154 0 -234.5 71t-80.5 206v46q0 149 92.5 214t294.5 65q132 0 288 -15v-591zM418 206v204q-22 2 -32 2q-29 0 -38.5 -17t-9.5 -66v-44q0 -42 10 -61t38 -19
q23 0 32 1zM543 650h-316v136h316v-136z" />
    <glyph glyph-name="Gcommaaccent" unicode="&#x122;" horiz-adv-x="811" 
d="M756 7q-159 -28 -339 -28q-65 0 -114.5 7.5t-101 31t-85 63t-55 109t-21.5 164.5v36q0 72 12 129t31.5 95.5t50.5 66.5t62 44t73 25t77 11.5t80 2.5q165 0 324 -37v-192q-149 7 -255 7q-57 0 -82 -9t-38 -41t-13 -102v-36q0 -96 10 -126t47 -30q26 0 40 2v220h297v-413z
M581 -56l-105 -138h-257l68 138h294z" />
    <glyph glyph-name="gcommaaccent" unicode="&#x123;" horiz-adv-x="770" 
d="M715 4q0 -110 -82 -161t-271 -51q-176 0 -288 28v152q240 -10 252 -10q59 0 74.5 8t15.5 34v8q-40 -4 -61 -4q-154 0 -234.5 71t-80.5 206v46q0 149 92.5 214t294.5 65q132 0 288 -15v-591zM418 206v204q-22 2 -32 2q-29 0 -38.5 -17t-9.5 -66v-44q0 -42 10 -61t38 -19
q23 0 32 1zM255 649l105 138h257l-68 -138h-294z" />
    <glyph glyph-name="Hcircumflex" unicode="&#x124;" horiz-adv-x="912" 
d="M857 0h-331v267h-140v-267h-331v743h331v-262h140v262h331v-743zM761 789h-246l-59 54l-60 -54h-246l135 136h342z" />
    <glyph glyph-name="hcircumflex" unicode="&#x125;" 
d="M734 0h-301v373q0 24 -6 32.5t-24 8.5q-23 0 -47 -11v-403h-301v786h301v-209q70 33 159 33q45 0 79.5 -7.5t57.5 -18.5t39 -31t24.5 -37t12.5 -45t5 -47t1 -51v-373zM700 806h-246l-59 54l-60 -54h-246l135 136h342z" />
    <glyph glyph-name="Hbar" unicode="&#x126;" horiz-adv-x="912" 
d="M-3 568v89h58v86h331v-86h140v86h331v-86h52v-89h-52v-568h-331v267h-140v-267h-331v568h-58zM386 481h140v87h-140v-87z" />
    <glyph glyph-name="hbar" unicode="&#x127;" 
d="M4 652v92h51v42h301v-42h159v-92h-159v-75q70 33 159 33q45 0 79.5 -7.5t57.5 -18.5t39 -31t24.5 -37t12.5 -45t5 -47t1 -51v-373h-301v373q0 24 -6 32.5t-24 8.5q-23 0 -47 -11v-403h-301v652h-51z" />
    <glyph glyph-name="Itilde" unicode="&#x128;" horiz-adv-x="440" 
d="M385 0h-330v743h330v-743zM490 944q0 -47 -14.5 -80t-38.5 -48.5t-48 -22t-50 -6.5q-49 0 -109 18l-56 17q-40 11 -50 11q-14 0 -19.5 -7t-5.5 -24v-13h-149v13q0 47 14.5 80t39 48.5t49.5 22t54 6.5q40 0 101 -18l56 -16q46 -12 54 -12q13 0 18.5 7t5.5 24v12h148v-12z
" />
    <glyph glyph-name="itilde" unicode="&#x129;" horiz-adv-x="411" 
d="M356 0h-301v595h301v-595zM476 802q0 -47 -14.5 -80t-38.5 -48.5t-48 -22t-50 -6.5q-49 0 -109 18l-56 17q-40 11 -50 11q-14 0 -19.5 -7t-5.5 -24v-13h-149v13q0 47 14.5 80t39 48.5t49.5 22t54 6.5q40 0 101 -18l56 -16q46 -12 54 -12q13 0 18.5 7t5.5 24v12h148v-12z
" />
    <glyph glyph-name="Imacron" unicode="&#x12a;" horiz-adv-x="440" 
d="M385 0h-330v743h330v-743zM474 789h-507v136h507v-136z" />
    <glyph glyph-name="imacron" unicode="&#x12b;" horiz-adv-x="411" 
d="M356 0h-301v595h301v-595zM459 650h-507v136h507v-136z" />
    <glyph glyph-name="Ibreve" unicode="&#x12c;" horiz-adv-x="440" 
d="M385 0h-330v743h330v-743zM487 953q-8 -52 -39.5 -87.5t-76.5 -50.5t-80 -20.5t-70 -5.5t-69.5 5.5t-79.5 20.5t-77.5 50.5t-40.5 87.5h153q12 -54 114 -54q103 0 115 54h151z" />
    <glyph glyph-name="ibreve" unicode="&#x12d;" horiz-adv-x="411" 
d="M356 0h-301v595h301v-595zM472 810q-8 -52 -39.5 -87.5t-76.5 -50.5t-80 -20.5t-70 -5.5t-69.5 5.5t-79.5 20.5t-77.5 50.5t-40.5 87.5h153q12 -54 114 -54q103 0 115 54h151z" />
    <glyph glyph-name="Iogonek" unicode="&#x12e;" horiz-adv-x="440" 
d="M385 0q-105 -24 -105 -59q0 -12 10.5 -16t34.5 -4q33 0 93 5v-117q-101 -27 -210 -27q-185 0 -185 100q0 91 133 118h-101v743h330v-743z" />
    <glyph glyph-name="iogonek" unicode="&#x12f;" horiz-adv-x="411" 
d="M403 -191q-101 -27 -210 -27q-92 0 -138.5 26.5t-46.5 91.5q0 63 47 101v594h301v-595q-91 -27 -91 -54q0 -25 45 -25q33 0 93 5v-117zM363 644h-315v142h315v-142z" />
    <glyph glyph-name="Idotaccent" unicode="&#x130;" horiz-adv-x="440" 
d="M385 0h-330v743h330v-743zM378 789h-316v136h316v-136z" />
    <glyph glyph-name="dotlessi" unicode="&#x131;" horiz-adv-x="411" 
d="M356 0h-301v595h301v-595z" />
    <glyph glyph-name="IJ" unicode="&#x132;" horiz-adv-x="938" 
d="M399 0h-330v743h330v-743zM868 22q0 -124 -67 -178t-198 -54q-86 0 -137 11v164h32q25 0 32.5 8.5t7.5 33.5v736h330v-721z" />
    <glyph glyph-name="ij" unicode="&#x133;" horiz-adv-x="822" 
d="M356 0h-301v595h301v-595zM363 644h-315v142h315v-142zM767 4q0 -121 -59 -168.5t-193 -47.5q-90 0 -144 12v164q28 -1 52 -1q27 0 35 8t8 33v591h301v-591zM774 644h-315v142h315v-142z" />
    <glyph glyph-name="Jcircumflex" unicode="&#x134;" horiz-adv-x="440" 
d="M385 22q0 -124 -67 -178t-198 -54q-86 0 -137 11v164h32q25 0 32.5 8.5t7.5 33.5v736h330v-721zM526 789h-246l-59 54l-60 -54h-246l135 136h342z" />
    <glyph glyph-name="jcircumflex" unicode="&#x135;" horiz-adv-x="411" 
d="M356 4q0 -121 -59 -168.5t-193 -47.5q-90 0 -144 12v164q28 -1 52 -1q27 0 35 8t8 33v591h301v-591zM510 650h-246l-59 54l-60 -54h-246l135 136h342z" />
    <glyph glyph-name="Kcommaaccent" unicode="&#x136;" horiz-adv-x="895" 
d="M900 0h-376l-138 329v-329h-331v743h331v-337l157 337h364l-191 -370zM623 -56l-105 -138h-257l68 138h294z" />
    <glyph glyph-name="kcommaaccent" unicode="&#x137;" horiz-adv-x="777" 
d="M777 0h-315l-107 253v-253h-300v786h300v-448l116 257h293l-138 -290zM569 -56l-105 -138h-257l68 138h294z" />
    <glyph glyph-name="kgreenlandic" unicode="&#x138;" horiz-adv-x="777" 
d="M777 0h-315l-107 253v-253h-300v595h300v-257l116 257h293l-138 -290z" />
    <glyph glyph-name="Lacute" unicode="&#x139;" horiz-adv-x="634" 
d="M604 0h-549v743h331v-530h218v-213zM617 925l-191 -136h-272l133 136h330z" />
    <glyph glyph-name="lacute" unicode="&#x13a;" horiz-adv-x="411" 
d="M356 0h-301v786h301v-786zM519 945l-191 -136h-272l133 136h330z" />
    <glyph glyph-name="Lcommaaccent" unicode="&#x13b;" horiz-adv-x="634" 
d="M604 0h-549v743h331v-530h218v-213zM493 -56l-105 -138h-257l68 138h294z" />
    <glyph glyph-name="lcommaaccent" unicode="&#x13c;" horiz-adv-x="411" 
d="M356 0h-301v786h301v-786zM354 -56l-105 -138h-257l68 138h294z" />
    <glyph glyph-name="Lcaron" unicode="&#x13d;" horiz-adv-x="698" 
d="M604 0h-549v743h331v-530h218v-213zM750 743l-126 -289h-200l79 289h247z" />
    <glyph glyph-name="lcaron" unicode="&#x13e;" horiz-adv-x="696" 
d="M356 0h-301v786h301v-786zM719 786l-126 -289h-200l79 289h247z" />
    <glyph glyph-name="Ldot" unicode="&#x13f;" horiz-adv-x="692" 
d="M604 0h-549v743h331v-530h218v-213zM704 348h-276v197h276v-197z" />
    <glyph glyph-name="ldot" unicode="&#x140;" horiz-adv-x="694" 
d="M356 0h-301v786h301v-786zM670 269h-276v197h276v-197z" />
    <glyph glyph-name="Lslash" unicode="&#x141;" horiz-adv-x="634" 
d="M18 245v108l37 16v373h331v-246l84 40v-108l-84 -40v-174h218v-214h-549v261z" />
    <glyph glyph-name="lslash" unicode="&#x142;" horiz-adv-x="431" 
d="M366 0h-301v254l-66 -51v135l66 51v397h301v-168l69 55v-135l-69 -55v-483z" />
    <glyph glyph-name="Nacute" unicode="&#x143;" horiz-adv-x="882" 
d="M827 0h-290l-143 207q-18 26 -41 72h-3v-78v-201h-295v743h280l153 -208q25 -34 44 -79h2q-2 14 -2 84v203h295v-743zM752 925l-191 -136h-272l133 136h330z" />
    <glyph glyph-name="nacute" unicode="&#x144;" horiz-adv-x="784" 
d="M734 0h-301v373q0 24 -6.5 32.5t-24.5 8.5q-28 0 -46 -12v-402h-301v595h276v-50q80 65 192 65q44 0 78 -8t56 -19t37.5 -32t23 -37.5t11.5 -46t4.5 -46t0.5 -48.5v-373zM696 786l-191 -136h-272l133 136h330z" />
    <glyph glyph-name="Ncommaaccent" unicode="&#x145;" horiz-adv-x="882" 
d="M827 0h-290l-143 207q-18 26 -41 72h-3v-78v-201h-295v743h280l153 -208q25 -34 44 -79h2q-2 14 -2 84v203h295v-743zM605 -56l-105 -138h-257l68 138h294z" />
    <glyph glyph-name="ncommaaccent" unicode="&#x146;" horiz-adv-x="784" 
d="M734 0h-301v373q0 24 -6.5 32.5t-24.5 8.5q-28 0 -46 -12v-402h-301v595h276v-50q80 65 192 65q44 0 78 -8t56 -19t37.5 -32t23 -37.5t11.5 -46t4.5 -46t0.5 -48.5v-373zM556 -56l-105 -138h-257l68 138h294z" />
    <glyph glyph-name="Ncaron" unicode="&#x147;" horiz-adv-x="882" 
d="M827 0h-290l-143 207q-18 26 -41 72h-3v-78v-201h-295v743h280l153 -208q25 -34 44 -79h2q-2 14 -2 84v203h295v-743zM138 925h246l60 -53l59 53h246l-134 -136h-342z" />
    <glyph glyph-name="ncaron" unicode="&#x148;" horiz-adv-x="784" 
d="M734 0h-301v373q0 24 -6.5 32.5t-24.5 8.5q-28 0 -46 -12v-402h-301v595h276v-50q80 65 192 65q44 0 78 -8t56 -19t37.5 -32t23 -37.5t11.5 -46t4.5 -46t0.5 -48.5v-373zM89 786h246l60 -53l59 53h246l-134 -136h-342z" />
    <glyph glyph-name="napostrophe" unicode="&#x149;" horiz-adv-x="951" 
d="M913 0h-301v373q0 24 -6.5 32.5t-24.5 8.5q-28 0 -46 -12v-402h-301v595h276v-50q80 65 192 65q44 0 78 -8t56 -19t37.5 -32t23 -37.5t11.5 -46t4.5 -46t0.5 -48.5v-373zM281 786l-126 -289h-200l79 289h247z" />
    <glyph glyph-name="Eng" unicode="&#x14a;" horiz-adv-x="882" 
d="M827 22q0 -124 -67 -178t-198 -54q-86 0 -137 11v164h32q25 0 32.5 8.5t7.5 33.5v51l-103 149q-18 26 -41 72h-3v-77v-202h-295v743h280l153 -208q25 -34 44 -79h2q-2 14 -2 84v203h295v-721z" />
    <glyph glyph-name="eng" unicode="&#x14b;" horiz-adv-x="784" 
d="M55 595h275v-50q80 65 200 65q42 0 75 -8t54.5 -19t36 -32t22 -37.5t11.5 -45.5t4.5 -46.5t0.5 -48.5v-369q0 -121 -59.5 -168.5t-194.5 -47.5q-80 0 -144 12v164q28 -1 57 -1q24 0 32 8t8 33v369q0 24 -7 32.5t-25 8.5q-21 0 -45 -12v-402h-301v595z" />
    <glyph glyph-name="Omacron" unicode="&#x14c;" horiz-adv-x="837" 
d="M797 352q0 -91 -20.5 -158.5t-53.5 -108t-83.5 -65t-102.5 -33t-119 -8.5q-66 0 -118 8.5t-102.5 33t-83.5 65t-53.5 108t-20.5 158.5v39q0 77 13.5 136.5t40 100t60 68t78 42t88.5 20.5t98 6t98 -6t89 -20.5t78.5 -42t60 -68t40 -100t13.5 -136.5v-39zM476 353v37
q0 95 -10 124t-48 29q-37 0 -47 -29t-10 -124v-37q0 -95 11 -123.5t46 -28.5q36 0 47 28.5t11 123.5zM672 789h-507v136h507v-136z" />
    <glyph glyph-name="omacron" unicode="&#x14d;" horiz-adv-x="736" 
d="M701 276q0 -158 -85.5 -225t-248.5 -67q-161 0 -246.5 67t-85.5 225v42q0 158 85.5 225t246.5 67q163 0 248.5 -66.5t85.5 -225.5v-42zM402 276v42q0 57 -7.5 75.5t-27.5 18.5t-27.5 -18.5t-7.5 -75.5v-42q0 -58 7.5 -76.5t27.5 -18.5t27.5 18.5t7.5 76.5zM621 650h-507
v136h507v-136z" />
    <glyph glyph-name="Obreve" unicode="&#x14e;" horiz-adv-x="837" 
d="M797 352q0 -91 -20.5 -158.5t-53.5 -108t-83.5 -65t-102.5 -33t-119 -8.5q-66 0 -118 8.5t-102.5 33t-83.5 65t-53.5 108t-20.5 158.5v39q0 77 13.5 136.5t40 100t60 68t78 42t88.5 20.5t98 6t98 -6t89 -20.5t78.5 -42t60 -68t40 -100t13.5 -136.5v-39zM476 353v37
q0 95 -10 124t-48 29q-37 0 -47 -29t-10 -124v-37q0 -95 11 -123.5t46 -28.5q36 0 47 28.5t11 123.5zM685 943q-8 -52 -39.5 -87.5t-76.5 -50.5t-80 -20.5t-70 -5.5t-69.5 5.5t-79.5 20.5t-77.5 50.5t-40.5 87.5h153q12 -54 114 -54q103 0 115 54h151z" />
    <glyph glyph-name="obreve" unicode="&#x14f;" horiz-adv-x="736" 
d="M701 276q0 -158 -85.5 -225t-248.5 -67q-161 0 -246.5 67t-85.5 225v42q0 158 85.5 225t246.5 67q163 0 248.5 -66.5t85.5 -225.5v-42zM402 276v42q0 57 -7.5 75.5t-27.5 18.5t-27.5 -18.5t-7.5 -75.5v-42q0 -58 7.5 -76.5t27.5 -18.5t27.5 18.5t7.5 76.5zM634 810
q-8 -52 -39.5 -87.5t-76.5 -50.5t-80 -20.5t-70 -5.5t-69.5 5.5t-79.5 20.5t-77.5 50.5t-40.5 87.5h153q12 -54 114 -54q103 0 115 54h151z" />
    <glyph glyph-name="Ohungarumlaut" unicode="&#x150;" horiz-adv-x="837" 
d="M797 352q0 -91 -20.5 -158.5t-53.5 -108t-83.5 -65t-102.5 -33t-119 -8.5q-66 0 -118 8.5t-102.5 33t-83.5 65t-53.5 108t-20.5 158.5v39q0 77 13.5 136.5t40 100t60 68t78 42t88.5 20.5t98 6t98 -6t89 -20.5t78.5 -42t60 -68t40 -100t13.5 -136.5v-39zM476 353v37
q0 95 -10 124t-48 29q-37 0 -47 -29t-10 -124v-37q0 -95 11 -123.5t46 -28.5q36 0 47 28.5t11 123.5zM905 925l-191 -136h-239l133 136h297zM236 925h297l-191 -136h-239z" />
    <glyph glyph-name="ohungarumlaut" unicode="&#x151;" horiz-adv-x="736" 
d="M701 276q0 -158 -85.5 -225t-248.5 -67q-161 0 -246.5 67t-85.5 225v42q0 158 85.5 225t246.5 67q163 0 248.5 -66.5t85.5 -225.5v-42zM402 276v42q0 57 -7.5 75.5t-27.5 18.5t-27.5 -18.5t-7.5 -75.5v-42q0 -58 7.5 -76.5t27.5 -18.5t27.5 18.5t7.5 76.5zM881 786
l-191 -136h-239l133 136h297zM212 786h297l-191 -136h-239z" />
    <glyph glyph-name="OE" unicode="&#x152;" horiz-adv-x="1096" 
d="M1064 202v-202h-472q-118 -21 -202 -21q-58 0 -104.5 7.5t-95.5 31t-82 62.5t-54.5 107t-21.5 160v47q0 91 21 158.5t54 107t82 63.5t96 32t105 8q96 0 201 -20h473v-202h-276v-74h253v-186h-253v-79h276zM468 203v336q-38 4 -54 4q-39 0 -49.5 -28t-10.5 -123v-45
q0 -92 11.5 -120t48.5 -28q25 0 54 4z" />
    <glyph glyph-name="oe" unicode="&#x153;" horiz-adv-x="1097" 
d="M1065 234h-367v-6q0 -39 13.5 -50.5t69.5 -11.5q187 0 247 3v-158q-117 -26 -286 -26q-119 0 -190 40q-79 -41 -187 -41q-162 0 -247.5 67t-85.5 225v42q0 158 85.5 225t247.5 67q121 0 185 -39q66 39 189 39q326 0 326 -298v-78zM779 353v6q0 42 -9.5 57t-32.5 15
q-21 0 -30 -15.5t-9 -56.5v-6h81zM400 276v42q0 57 -7.5 75.5t-27.5 18.5q-21 0 -28.5 -18t-7.5 -76v-42q0 -58 7.5 -76.5t28.5 -18.5q20 0 27.5 18.5t7.5 76.5z" />
    <glyph glyph-name="Racute" unicode="&#x154;" horiz-adv-x="839" 
d="M839 0h-308l-117 235h-24h-23v-235h-312v743q184 19 338 19q69 0 122 -5.5t107 -22t89 -45t57 -77t22 -114.5v-6q0 -134 -86 -203zM476 486v5q0 36 -13 48.5t-56 12.5q-21 0 -41 -1v-125q14 -1 43 -1q41 0 54 14.5t13 46.5zM715 925l-191 -136h-272l133 136h330z" />
    <glyph glyph-name="racute" unicode="&#x155;" horiz-adv-x="524" 
d="M504 384h-148v-384h-301v595h273v-51q63 66 176 66v-226zM596 786l-191 -136h-272l133 136h330z" />
    <glyph glyph-name="Rcommaaccent" unicode="&#x156;" horiz-adv-x="839" 
d="M839 0h-308l-117 235h-24h-23v-235h-312v743q184 19 338 19q69 0 122 -5.5t107 -22t89 -45t57 -77t22 -114.5v-6q0 -134 -86 -203zM476 486v5q0 36 -13 48.5t-56 12.5q-21 0 -41 -1v-125q14 -1 43 -1q41 0 54 14.5t13 46.5zM591 -56l-105 -138h-257l68 138h294z" />
    <glyph glyph-name="rcommaaccent" unicode="&#x157;" horiz-adv-x="524" 
d="M504 384h-148v-384h-301v595h273v-51q63 66 176 66v-226zM395 -56l-105 -138h-257l68 138h294z" />
    <glyph glyph-name="Rcaron" unicode="&#x158;" horiz-adv-x="839" 
d="M839 0h-308l-117 235h-24h-23v-235h-312v743q184 19 338 19q69 0 122 -5.5t107 -22t89 -45t57 -77t22 -114.5v-6q0 -134 -86 -203zM476 486v5q0 36 -13 48.5t-56 12.5q-21 0 -41 -1v-125q14 -1 43 -1q41 0 54 14.5t13 46.5zM104 925h246l60 -53l59 53h246l-134 -136h-342
z" />
    <glyph glyph-name="rcaron" unicode="&#x159;" horiz-adv-x="524" 
d="M504 384h-148v-384h-301v595h273v-51q63 66 176 66v-226zM-43 786h246l60 -53l59 53h246l-134 -136h-342z" />
    <glyph glyph-name="Sacute" unicode="&#x15a;" horiz-adv-x="738" 
d="M705 232q0 -132 -87.5 -192.5t-238.5 -60.5q-191 0 -324 27v185q198 -11 268 -11q58 0 58 31q0 15 -11 22.5t-55 25.5l-79 32q-42 17 -67 29t-54.5 32.5t-45 43t-26 56.5t-10.5 77q0 127 91 181t269 54q133 0 284 -31v-178q-180 12 -264 12q-61 0 -61 -25q0 -12 11.5 -20
t48.5 -22l72 -28q83 -32 127 -59.5t69 -71.5t25 -109zM657 925l-191 -136h-272l133 136h330z" />
    <glyph glyph-name="sacute" unicode="&#x15b;" horiz-adv-x="634" 
d="M628 786l-191 -136h-272l133 136h330zM604 186q0 -58 -22.5 -98.5t-67 -62.5t-100 -31t-131.5 -9q-134 0 -240 22v151q160 -8 221 -8q27 0 37 5t10 20q0 11 -10 17.5t-41 16.5l-53 18q-91 30 -134 71t-43 120q0 60 22 99.5t64.5 59t89 26.5t112.5 7q155 0 256 -27v-147
q-138 10 -216 10q-21 0 -29 -3t-8 -15q0 -11 8 -16t35 -14l65 -22q95 -32 135 -73.5t40 -116.5z" />
    <glyph glyph-name="Scircumflex" unicode="&#x15c;" horiz-adv-x="738" 
d="M705 232q0 -132 -87.5 -192.5t-238.5 -60.5q-191 0 -324 27v185q198 -11 268 -11q58 0 58 31q0 15 -11 22.5t-55 25.5l-79 32q-42 17 -67 29t-54.5 32.5t-45 43t-26 56.5t-10.5 77q0 127 91 181t269 54q133 0 284 -31v-178q-180 12 -264 12q-61 0 -61 -25q0 -12 11.5 -20
t48.5 -22l72 -28q83 -32 127 -59.5t69 -71.5t25 -109zM677 789h-246l-59 54l-60 -54h-246l135 136h342z" />
    <glyph glyph-name="scircumflex" unicode="&#x15d;" horiz-adv-x="634" 
d="M623 650h-246l-59 54l-60 -54h-246l135 136h342zM604 186q0 -58 -22.5 -98.5t-67 -62.5t-100 -31t-131.5 -9q-134 0 -240 22v151q160 -8 221 -8q27 0 37 5t10 20q0 11 -10 17.5t-41 16.5l-53 18q-91 30 -134 71t-43 120q0 60 22 99.5t64.5 59t89 26.5t112.5 7
q155 0 256 -27v-147q-138 10 -216 10q-21 0 -29 -3t-8 -15q0 -11 8 -16t35 -14l65 -22q95 -32 135 -73.5t40 -116.5z" />
    <glyph glyph-name="Scedilla" unicode="&#x15e;" horiz-adv-x="738" 
d="M705 232q0 -132 -87.5 -192.5t-238.5 -60.5q-191 0 -324 27v185q198 -11 268 -11q58 0 58 31q0 15 -11 22.5t-55 25.5l-79 32q-42 17 -67 29t-54.5 32.5t-45 43t-26 56.5t-10.5 77q0 127 91 181t269 54q133 0 284 -31v-178q-180 12 -264 12q-61 0 -61 -25q0 -12 11.5 -20
t48.5 -22l72 -28q83 -32 127 -59.5t69 -71.5t25 -109zM551 -56l-124 -138h-261l89 138h296z" />
    <glyph glyph-name="scedilla" unicode="&#x15f;" horiz-adv-x="634" 
d="M474 -56l-124 -138h-261l89 138h296zM604 186q0 -58 -22.5 -98.5t-67 -62.5t-100 -31t-131.5 -9q-134 0 -240 22v151q160 -8 221 -8q27 0 37 5t10 20q0 11 -10 17.5t-41 16.5l-53 18q-91 30 -134 71t-43 120q0 60 22 99.5t64.5 59t89 26.5t112.5 7q155 0 256 -27v-147
q-138 10 -216 10q-21 0 -29 -3t-8 -15q0 -11 8 -16t35 -14l65 -22q95 -32 135 -73.5t40 -116.5z" />
    <glyph glyph-name="Scaron" unicode="&#x160;" horiz-adv-x="738" 
d="M705 232q0 -132 -87.5 -192.5t-238.5 -60.5q-191 0 -324 27v185q198 -11 268 -11q58 0 58 31q0 15 -11 22.5t-55 25.5l-79 32q-42 17 -67 29t-54.5 32.5t-45 43t-26 56.5t-10.5 77q0 127 91 181t269 54q133 0 284 -31v-178q-180 12 -264 12q-61 0 -61 -25q0 -12 11.5 -20
t48.5 -22l72 -28q83 -32 127 -59.5t69 -71.5t25 -109zM64 925h246l60 -53l59 53h246l-134 -136h-342z" />
    <glyph glyph-name="scaron" unicode="&#x161;" horiz-adv-x="634" 
d="M12 786h246l60 -53l59 53h246l-134 -136h-342zM604 186q0 -58 -22.5 -98.5t-67 -62.5t-100 -31t-131.5 -9q-134 0 -240 22v151q160 -8 221 -8q27 0 37 5t10 20q0 11 -10 17.5t-41 16.5l-53 18q-91 30 -134 71t-43 120q0 60 22 99.5t64.5 59t89 26.5t112.5 7
q155 0 256 -27v-147q-138 10 -216 10q-21 0 -29 -3t-8 -15q0 -11 8 -16t35 -14l65 -22q95 -32 135 -73.5t40 -116.5z" />
    <glyph glyph-name="Tcedilla" unicode="&#x162;" horiz-adv-x="761" 
d="M741 540h-195v-540h-331v540h-195v203h721v-203zM541 -56l-105 -138h-257l68 138h294z" />
    <glyph glyph-name="tcedilla" unicode="&#x163;" horiz-adv-x="525" 
d="M495 411h-98v-213q0 -13 0.5 -18t3.5 -11t10 -7.5t19 -1.5t35.5 1t26.5 1v-160q-63 -18 -165 -18q-117 0 -173.5 51t-56.5 164v212l-82 10v174h82v144h300v-144h98v-184zM460 -58l-105 -139h-256l68 139h293z" />
    <glyph glyph-name="Tcaron" unicode="&#x164;" horiz-adv-x="761" 
d="M741 540h-195v-540h-331v540h-195v203h721v-203zM75 925h246l60 -53l59 53h246l-134 -136h-342z" />
    <glyph glyph-name="tcaron" unicode="&#x165;" horiz-adv-x="608" 
d="M492 2q-63 -18 -165 -18q-117 0 -173.5 51t-56.5 164v212l-82 10v174h82v144h300v-144h98v-184h-98v-213q0 -13 0.5 -18t3.5 -11t10 -7.5t19 -1.5t35.5 1t26.5 1v-160zM650 786l-76 -158h-146l29 158h193z" />
    <glyph glyph-name="Tbar" unicode="&#x166;" horiz-adv-x="761" 
d="M741 540h-195v-83h159v-148h-159v-309h-331v309h-160v148h160v83h-195v203h721v-203z" />
    <glyph glyph-name="tbar" unicode="&#x167;" horiz-adv-x="525" 
d="M495 251h-98v-53q0 -19 1.5 -26.5t8.5 -12t23 -4.5q11 0 34.5 1t26.5 1v-155q-63 -18 -165 -18q-117 0 -173.5 51t-56.5 164v52h-82v144h82v56h-82v144h82v134h301v-134h98v-144h-98v-56h98v-144z" />
    <glyph glyph-name="Utilde" unicode="&#x168;" horiz-adv-x="860" 
d="M810 291q0 -155 -101 -233.5t-279 -78.5t-279 78.5t-101 233.5v452h324v-452q0 -59 10.5 -79t45.5 -20q36 0 46.5 20t10.5 79v452h323v-452zM700 944q0 -47 -14.5 -80t-38.5 -48.5t-48 -22t-50 -6.5q-49 0 -109 18l-56 17q-40 11 -50 11q-14 0 -19.5 -7t-5.5 -24v-13
h-149v13q0 47 14.5 80t39 48.5t49.5 22t54 6.5q40 0 101 -18l56 -16q46 -12 54 -12q13 0 18.5 7t5.5 24v12h148v-12z" />
    <glyph glyph-name="utilde" unicode="&#x169;" 
d="M734 0h-276v50q-80 -66 -212 -66q-54 0 -91.5 15t-56.5 35.5t-29.5 57t-12 62t-1.5 68.5v373h301v-373q0 -24 6.5 -32.5t25.5 -8.5q23 0 45 11v403h301v-595zM664 802q0 -47 -14.5 -80t-38.5 -48.5t-48 -22t-50 -6.5q-49 0 -109 18l-56 17q-40 11 -50 11q-14 0 -19.5 -7
t-5.5 -24v-13h-149v13q0 47 14.5 80t39 48.5t49.5 22t54 6.5q40 0 101 -18l56 -16q46 -12 54 -12q13 0 18.5 7t5.5 24v12h148v-12z" />
    <glyph glyph-name="Umacron" unicode="&#x16a;" horiz-adv-x="860" 
d="M810 291q0 -155 -101 -233.5t-279 -78.5t-279 78.5t-101 233.5v452h324v-452q0 -59 10.5 -79t45.5 -20q36 0 46.5 20t10.5 79v452h323v-452zM684 789h-507v136h507v-136z" />
    <glyph glyph-name="umacron" unicode="&#x16b;" 
d="M734 0h-276v50q-80 -66 -212 -66q-54 0 -91.5 15t-56.5 35.5t-29.5 57t-12 62t-1.5 68.5v373h301v-373q0 -24 6.5 -32.5t25.5 -8.5q23 0 45 11v403h301v-595zM648 650h-507v136h507v-136z" />
    <glyph glyph-name="Ubreve" unicode="&#x16c;" horiz-adv-x="860" 
d="M810 291q0 -155 -101 -233.5t-279 -78.5t-279 78.5t-101 233.5v452h324v-452q0 -59 10.5 -79t45.5 -20q36 0 46.5 20t10.5 79v452h323v-452zM697 943q-8 -52 -39.5 -87.5t-76.5 -50.5t-80 -20.5t-70 -5.5t-69.5 5.5t-79.5 20.5t-77.5 50.5t-40.5 87.5h153q12 -54 114 -54
q103 0 115 54h151z" />
    <glyph glyph-name="ubreve" unicode="&#x16d;" 
d="M734 0h-276v50q-80 -66 -212 -66q-54 0 -91.5 15t-56.5 35.5t-29.5 57t-12 62t-1.5 68.5v373h301v-373q0 -24 6.5 -32.5t25.5 -8.5q23 0 45 11v403h301v-595zM661 810q-8 -52 -39.5 -87.5t-76.5 -50.5t-80 -20.5t-70 -5.5t-69.5 5.5t-79.5 20.5t-77.5 50.5t-40.5 87.5
h153q12 -54 114 -54q103 0 115 54h151z" />
    <glyph glyph-name="Uring" unicode="&#x16e;" horiz-adv-x="860" 
d="M810 291q0 -155 -101 -233.5t-279 -78.5t-279 78.5t-101 233.5v452h324v-452q0 -59 10.5 -79t45.5 -20q36 0 46.5 20t10.5 79v452h323v-452zM612 916q0 -61 -50.5 -99t-130.5 -38t-131 38t-51 99q0 62 51 100t131 38t130.5 -38t50.5 -100zM486 917q0 18 -15 29t-40 11
t-40 -11t-15 -29t15 -29t40 -11t40 11t15 29z" />
    <glyph glyph-name="uring" unicode="&#x16f;" 
d="M734 0h-276v50q-80 -66 -212 -66q-54 0 -91.5 15t-56.5 35.5t-29.5 57t-12 62t-1.5 68.5v373h301v-373q0 -24 6.5 -32.5t25.5 -8.5q23 0 45 11v403h301v-595zM576 767q0 -61 -50.5 -99t-130.5 -38t-131 38t-51 99q0 62 51 100t131 38t130.5 -38t50.5 -100zM450 768
q0 18 -15 29t-40 11t-40 -11t-15 -29t15 -29t40 -11t40 11t15 29z" />
    <glyph glyph-name="Uhungarumlaut" unicode="&#x170;" horiz-adv-x="860" 
d="M810 291q0 -155 -101 -233.5t-279 -78.5t-279 78.5t-101 233.5v452h324v-452q0 -59 10.5 -79t45.5 -20q36 0 46.5 20t10.5 79v452h323v-452zM917 925l-191 -136h-239l133 136h297zM248 925h297l-191 -136h-239z" />
    <glyph glyph-name="uhungarumlaut" unicode="&#x171;" 
d="M734 0h-276v50q-80 -66 -212 -66q-54 0 -91.5 15t-56.5 35.5t-29.5 57t-12 62t-1.5 68.5v373h301v-373q0 -24 6.5 -32.5t25.5 -8.5q23 0 45 11v403h301v-595zM868 786l-191 -136h-239l133 136h297zM199 786h297l-191 -136h-239z" />
    <glyph glyph-name="Uogonek" unicode="&#x172;" horiz-adv-x="860" 
d="M810 291q0 -129 -70 -205t-197 -98q-56 -21 -56 -42q0 -25 45 -25q33 0 93 5v-117q-101 -27 -210 -27q-185 0 -185 105q0 66 84 102q-126 22 -195 98t-69 204v452h324v-452q0 -59 10.5 -79t45.5 -20q36 0 46.5 20t10.5 79v452h323v-452z" />
    <glyph glyph-name="uogonek" unicode="&#x173;" 
d="M734 -191q-101 -27 -210 -27q-185 0 -185 100q0 35 30 67.5t89 52.5v48q-80 -66 -212 -66q-54 0 -91.5 15t-56.5 35.5t-29.5 57t-12 62t-1.5 68.5v373h301v-373q0 -24 6.5 -32.5t25.5 -8.5q23 0 45 11v403h301v-595q-138 -32 -138 -59q0 -12 10.5 -16t34.5 -4q33 0 93 5
v-117z" />
    <glyph glyph-name="Wcircumflex" unicode="&#x174;" horiz-adv-x="1138" 
d="M1113 743l-110 -743h-347l-66 223q-11 36 -21 109h-2q-10 -73 -21 -109l-65 -223h-347l-109 743h318l23 -265q8 -94 8 -133h2q20 91 26 112l33 109h267l32 -109q15 -54 26 -112h2q1 41 9 133l23 265h319zM874 789h-246l-59 54l-60 -54h-246l135 136h342z" />
    <glyph glyph-name="wcircumflex" unicode="&#x175;" horiz-adv-x="1093" 
d="M1068 595l-113 -595h-342l-42 139q-16 50 -23 117h-3q-8 -62 -25 -117l-43 -139h-339l-113 595h303l20 -211q10 -91 11 -130h2q7 58 32 130l28 80h251l27 -79q22 -62 33 -131h2q1 38 11 131l20 210h303zM852 650h-246l-59 54l-60 -54h-246l135 136h342z" />
    <glyph glyph-name="Ycircumflex" unicode="&#x176;" horiz-adv-x="824" 
d="M819 743l-248 -507v-236h-318v236l-248 507h325l48 -138q6 -18 32 -109h3q20 70 33 109l49 138h324zM717 789h-246l-59 54l-60 -54h-246l135 136h342z" />
    <glyph glyph-name="ycircumflex" unicode="&#x177;" horiz-adv-x="768" 
d="M753 595l-140 -544q-38 -150 -110.5 -204.5t-206.5 -54.5q-145 0 -241 18v162q58 -1 114 -1q36 0 40 22l3 20l-197 582h318l41 -273q13 -92 19 -158h2q4 45 20 158l39 273h299zM700 650h-246l-59 54l-60 -54h-246l135 136h342z" />
    <glyph glyph-name="Ydieresis" unicode="&#x178;" horiz-adv-x="824" 
d="M819 743l-248 -507v-236h-318v236l-248 507h325l48 -138q6 -18 32 -109h3q20 70 33 109l49 138h324zM672 789h-228v138h228v-138zM379 927v-138h-228v138h228z" />
    <glyph glyph-name="Zacute" unicode="&#x179;" horiz-adv-x="708" 
d="M663 0h-618v192l225 342h-224v209h616v-197l-225 -337h226v-209zM672 925l-191 -136h-272l133 136h330z" />
    <glyph glyph-name="zacute" unicode="&#x17a;" horiz-adv-x="639" 
d="M599 0h-559v162l213 247h-210v186h555v-175l-201 -236h202v-184zM643 786l-191 -136h-272l133 136h330z" />
    <glyph glyph-name="Zdotaccent" unicode="&#x17b;" horiz-adv-x="708" 
d="M663 0h-618v192l225 342h-224v209h616v-197l-225 -337h226v-209zM512 789h-316v136h316v-136z" />
    <glyph glyph-name="zdotaccent" unicode="&#x17c;" horiz-adv-x="639" 
d="M599 0h-559v162l213 247h-210v186h555v-175l-201 -236h202v-184zM490 650h-316v136h316v-136z" />
    <glyph glyph-name="Zcaron" unicode="&#x17d;" horiz-adv-x="708" 
d="M663 0h-618v192l225 342h-224v209h616v-197l-225 -337h226v-209zM59 925h246l60 -53l59 53h246l-134 -136h-342z" />
    <glyph glyph-name="zcaron" unicode="&#x17e;" horiz-adv-x="639" 
d="M599 0h-559v162l213 247h-210v186h555v-175l-201 -236h202v-184zM31 786h246l60 -53l59 53h246l-134 -136h-342z" />
    <glyph glyph-name="florin" unicode="&#x192;" horiz-adv-x="697" 
d="M664 744l-18 -144q-43 1 -68 1q-26 0 -34 -6t-10 -26l-11 -88h109l-23 -176h-109l-37 -303q-7 -55 -28 -93t-54.5 -59t-73.5 -30t-91 -9q-87 0 -184 19l19 145q41 -1 67 -1q25 0 33 5.5t11 26.5l37 299h-97l23 176h96l11 91q23 192 248 192q84 0 184 -20z" />
    <glyph glyph-name="Aringacute" unicode="&#x1fa;" horiz-adv-x="875" 
d="M860 0h-343l-16 119h-128l-17 -119h-341l152 743h536zM479 313l-28 173q-7 44 -13 105h-2q-6 -61 -13 -105l-27 -173h83zM620 878q0 -59 -51 -91t-131 -32t-130.5 32t-50.5 91q0 60 50.5 91.5t130.5 31.5t131 -31.5t51 -91.5zM495 879q0 33 -57 33q-56 0 -56 -33t56 -33
q57 0 57 33zM399 1126h331l-180 -114h-271z" />
    <glyph glyph-name="aringacute" unicode="&#x1fb;" horiz-adv-x="706" 
d="M656 0h-269v37q-34 -22 -85.5 -37.5t-100.5 -15.5q-84 0 -127.5 45t-43.5 126v26q0 34 9 60.5t22.5 44t38.5 30t48 19.5t59.5 10.5t65.5 4.5t73 1h9v22q0 29 -12 37t-56 8q-113 0 -206 -8v153q146 47 285 47q141 0 215.5 -52t74.5 -185v-373zM371 152v84h-22
q-21 0 -30 -7.5t-9 -33.5v-18q0 -32 25 -32q19 0 36 7zM537 767q0 -61 -50.5 -99t-130.5 -38t-131 38t-51 99q0 62 51 100t131 38t130.5 -38t50.5 -100zM411 768q0 18 -15 29t-40 11t-40 -11t-15 -29t15 -29t40 -11t40 11t15 29zM681 1054l-191 -136h-272l133 136h330z" />
    <glyph glyph-name="AEacute" unicode="&#x1fc;" horiz-adv-x="1131" 
d="M382 0h-334l141 743h907v-202h-276v-74h253v-186h-253v-79h276v-202h-605v119h-92zM491 313v278h-29q0 -1 -5 -43.5t-8 -61.5l-27 -173h69zM931 925l-191 -136h-272l133 136h330z" />
    <glyph glyph-name="aeacute" unicode="&#x1fd;" horiz-adv-x="1044" 
d="M982 11q-119 -26 -286 -26q-168 0 -243 66q-58 -39 -116 -52.5t-136 -13.5q-84 0 -127.5 44.5t-43.5 125.5v26q0 34 9 60.5t22.5 44t38.5 30t48 19.5t59.5 10.5t65.5 4.5t73 1h8v22q0 18 -3 26t-17.5 13.5t-45.5 5.5q-89 0 -207 -7v152q146 47 285 47q98 0 162 -24
q68 24 164 24q83 0 145 -20.5t96 -51t54.5 -73t26 -78t5.5 -75.5v-78h-368v-6q0 -39 13.5 -50.5t69.5 -11.5q187 0 248 3v-158zM733 353v6q0 42 -9.5 57t-32.5 15q-22 0 -31 -15.5t-9 -56.5v-6h82zM369 152v84h-20q-21 0 -30 -7.5t-9 -33.5v-18q0 -32 24 -32q17 0 35 7z
M846 786l-191 -136h-272l133 136h330z" />
    <glyph glyph-name="Oslashacute" unicode="&#x1fe;" horiz-adv-x="837" 
d="M797 348q0 -88 -21 -154t-55.5 -106.5t-85 -65.5t-102.5 -34t-115 -9q-114 0 -195 32l-33 -44h-161l90 118q-79 88 -79 263v46q0 88 21.5 155t55.5 107t85 65t102.5 34t113.5 9q116 0 196 -34l36 47h160l-92 -121q79 -92 79 -262v-46zM476 348v47q0 92 -11 120t-47 28
t-46.5 -28t-10.5 -120v-47q0 -91 11 -119t46 -28q36 0 47 28t11 119zM726 925l-191 -136h-272l133 136h330z" />
    <glyph glyph-name="oslashacute" unicode="&#x1ff;" horiz-adv-x="736" 
d="M701 274q0 -290 -333 -290q-77 0 -135 16l-26 -32h-185l86 98q-73 71 -73 208v45q0 291 333 291q78 0 138 -16l29 34h185l-90 -101q71 -73 71 -208v-45zM402 274v45q0 57 -7 75t-27 18q-21 0 -28.5 -18t-7.5 -75v-45q0 -57 7.5 -75t28.5 -18q20 0 27 18t7 75zM666 786
l-191 -136h-272l133 136h330z" />
    <glyph glyph-name="Scommaaccent" unicode="&#x218;" horiz-adv-x="738" 
d="M705 232q0 -132 -87.5 -192.5t-238.5 -60.5q-191 0 -324 27v185q198 -11 268 -11q58 0 58 31q0 15 -11 22.5t-55 25.5l-79 32q-42 17 -67 29t-54.5 32.5t-45 43t-26 56.5t-10.5 77q0 127 91 181t269 54q133 0 284 -31v-178q-180 12 -264 12q-61 0 -61 -25q0 -12 11.5 -20
t48.5 -22l72 -28q83 -32 127 -59.5t69 -71.5t25 -109zM549 -56l-105 -138h-257l68 138h294z" />
    <glyph glyph-name="scommaaccent" unicode="&#x219;" horiz-adv-x="634" 
d="M467 -56l-105 -138h-257l68 138h294zM604 186q0 -58 -22.5 -98.5t-67 -62.5t-100 -31t-131.5 -9q-134 0 -240 22v151q160 -8 221 -8q27 0 37 5t10 20q0 11 -10 17.5t-41 16.5l-53 18q-91 30 -134 71t-43 120q0 60 22 99.5t64.5 59t89 26.5t112.5 7q155 0 256 -27v-147
q-138 10 -216 10q-21 0 -29 -3t-8 -15q0 -11 8 -16t35 -14l65 -22q95 -32 135 -73.5t40 -116.5z" />
    <glyph glyph-name="Tcommaaccent" unicode="&#x21a;" horiz-adv-x="761" 
d="M741 540h-195v-540h-331v540h-195v203h721v-203zM542 -56l-105 -138h-257l68 138h294z" />
    <glyph glyph-name="tcommaaccent" unicode="&#x21b;" horiz-adv-x="525" 
d="M492 2q-63 -18 -165 -18q-117 0 -173.5 51t-56.5 164v212l-82 10v174h82v144h300v-144h98v-184h-98v-213q0 -13 0.5 -18t3.5 -11t10 -7.5t19 -1.5t35.5 1t26.5 1v-160zM438 -56l-105 -138h-257l68 138h294z" />
    <glyph glyph-name="circumflex" unicode="&#x2c6;" horiz-adv-x="676" 
d="M643 650h-246l-59 54l-60 -54h-246l135 136h342z" />
    <glyph glyph-name="caron" unicode="&#x2c7;" horiz-adv-x="676" 
d="M32 786h246l60 -53l59 53h246l-134 -136h-342z" />
    <glyph glyph-name="uni02C9" unicode="&#x2c9;" horiz-adv-x="571" 
d="M539 650h-507v136h507v-136z" />
    <glyph glyph-name="breve" unicode="&#x2d8;" horiz-adv-x="598" 
d="M565 810q-8 -52 -39.5 -87.5t-76.5 -50.5t-80 -20.5t-70 -5.5t-69.5 5.5t-79.5 20.5t-77.5 50.5t-40.5 87.5h153q12 -54 114 -54q103 0 115 54h151z" />
    <glyph glyph-name="dotaccent" unicode="&#x2d9;" horiz-adv-x="380" 
d="M348 650h-316v136h316v-136z" />
    <glyph glyph-name="ring" unicode="&#x2da;" horiz-adv-x="428" 
d="M395 767q0 -61 -50.5 -99t-130.5 -38t-131 38t-51 99q0 62 51 100t131 38t130.5 -38t50.5 -100zM269 768q0 18 -15 29t-40 11t-40 -11t-15 -29t15 -29t40 -11t40 11t15 29z" />
    <glyph glyph-name="ogonek" unicode="&#x2db;" horiz-adv-x="460" 
d="M427 -191q-101 -27 -210 -27q-185 0 -185 100t210 125l185 -7q-138 -32 -138 -59q0 -12 10.5 -16t34.5 -4q33 0 93 5v-117z" />
    <glyph glyph-name="tilde" unicode="&#x2dc;" horiz-adv-x="604" 
d="M572 802q0 -47 -14.5 -80t-38.5 -48.5t-48 -22t-50 -6.5q-49 0 -109 18l-56 17q-40 11 -50 11q-14 0 -19.5 -7t-5.5 -24v-13h-149v13q0 47 14.5 80t39 48.5t49.5 22t54 6.5q40 0 101 -18l56 -16q46 -12 54 -12q13 0 18.5 7t5.5 24v12h148v-12z" />
    <glyph glyph-name="hungarumlaut" unicode="&#x2dd;" horiz-adv-x="867" 
d="M834 786l-191 -136h-239l133 136h297zM165 786h297l-191 -136h-239z" />
    <glyph glyph-name="uni037E" unicode="&#x37e;" horiz-adv-x="341" 
d="M308 269h-276v197h276v-197z" />
    <glyph glyph-name="uni03A9" unicode="&#x3a9;" horiz-adv-x="845" 
d="M813 438q0 -102 -37.5 -163t-118.5 -88v-28h134v-159h-337v276q30 7 37.5 35.5t7.5 96.5v40q0 52 -16 73.5t-60 21.5t-60 -21t-16 -74v-40q0 -69 7 -97t37 -35v-276h-337v159h134v28q-81 27 -118 87.5t-37 163.5v37q0 153 96 221t294 68q197 0 293.5 -68t96.5 -221v-37z
" />
    <glyph glyph-name="uni03BC" unicode="&#x3bc;" horiz-adv-x="810" 
d="M734 0h-276v50q-41 -35 -102 -51v-192h-301v788h301v-373q0 -24 6.5 -32.5t25.5 -8.5q23 0 45 11v403h301v-595z" />
    <glyph glyph-name="pi" unicode="&#x3c0;" horiz-adv-x="883" 
d="M850 -8q-45 -9 -118 -9q-135 0 -194 47.5t-59 167.5v169h-76v-367h-301v368h-70v227h818v-227h-69v-175q0 -23 8 -29t33 -6h28v-166z" />
    <glyph glyph-name="Wgrave" unicode="&#x1e80;" horiz-adv-x="1138" 
d="M1113 743l-110 -743h-347l-66 223q-11 36 -21 109h-2q-10 -73 -21 -109l-65 -223h-347l-109 743h318l23 -265q8 -94 8 -133h2q20 91 26 112l33 109h267l32 -109q15 -54 26 -112h2q1 41 9 133l23 265h319zM718 789h-271l-192 136h331z" />
    <glyph glyph-name="wgrave" unicode="&#x1e81;" horiz-adv-x="1093" 
d="M1068 595l-113 -595h-342l-42 139q-16 50 -23 117h-3q-8 -62 -25 -117l-43 -139h-339l-113 595h303l20 -211q10 -91 11 -130h2q7 58 32 130l28 80h251l27 -79q22 -62 33 -131h2q1 38 11 131l20 210h303zM712 650h-271l-192 136h331z" />
    <glyph glyph-name="Wacute" unicode="&#x1e82;" horiz-adv-x="1138" 
d="M1113 743l-110 -743h-347l-66 223q-11 36 -21 109h-2q-10 -73 -21 -109l-65 -223h-347l-109 743h318l23 -265q8 -94 8 -133h2q20 91 26 112l33 109h267l32 -109q15 -54 26 -112h2q1 41 9 133l23 265h319zM877 925l-191 -136h-272l133 136h330z" />
    <glyph glyph-name="wacute" unicode="&#x1e83;" horiz-adv-x="1093" 
d="M1068 595l-113 -595h-342l-42 139q-16 50 -23 117h-3q-8 -62 -25 -117l-43 -139h-339l-113 595h303l20 -211q10 -91 11 -130h2q7 58 32 130l28 80h251l27 -79q22 -62 33 -131h2q1 38 11 131l20 210h303zM870 786l-191 -136h-272l133 136h330z" />
    <glyph glyph-name="Wdieresis" unicode="&#x1e84;" horiz-adv-x="1138" 
d="M1113 743l-110 -743h-347l-66 223q-11 36 -21 109h-2q-10 -73 -21 -109l-65 -223h-347l-109 743h318l23 -265q8 -94 8 -133h2q20 91 26 112l33 109h267l32 -109q15 -54 26 -112h2q1 41 9 133l23 265h319zM829 789h-228v138h228v-138zM536 927v-138h-228v138h228z" />
    <glyph glyph-name="wdieresis" unicode="&#x1e85;" horiz-adv-x="1093" 
d="M1068 595l-113 -595h-342l-42 139q-16 50 -23 117h-3q-8 -62 -25 -117l-43 -139h-339l-113 595h303l20 -211q10 -91 11 -130h2q7 58 32 130l28 80h251l27 -79q22 -62 33 -131h2q1 38 11 131l20 210h303zM807 648h-228v138h228v-138zM514 786v-138h-228v138h228z" />
    <glyph glyph-name="Ygrave" unicode="&#x1ef2;" horiz-adv-x="824" 
d="M819 743l-248 -507v-236h-318v236l-248 507h325l48 -138q6 -18 32 -109h3q20 70 33 109l49 138h324zM592 789h-271l-192 136h331z" />
    <glyph glyph-name="ygrave" unicode="&#x1ef3;" horiz-adv-x="768" 
d="M753 595l-140 -544q-38 -150 -110.5 -204.5t-206.5 -54.5q-145 0 -241 18v162q58 -1 114 -1q36 0 40 22l3 20l-197 582h318l41 -273q13 -92 19 -158h2q4 45 20 158l39 273h299zM581 650h-271l-192 136h331z" />
    <glyph glyph-name="figuredash" unicode="&#x2012;" horiz-adv-x="734" 
d="M701 188h-669v157h669v-157z" />
    <glyph glyph-name="endash" unicode="&#x2013;" horiz-adv-x="428" 
d="M395 208h-363v178h363v-178z" />
    <glyph glyph-name="emdash" unicode="&#x2014;" horiz-adv-x="660" 
d="M627 208h-595v178h595v-178z" />
    <glyph glyph-name="quoteleft" unicode="&#x2018;" horiz-adv-x="366" 
d="M346 786l-79 -289h-247l127 289h199z" />
    <glyph glyph-name="quoteright" unicode="&#x2019;" horiz-adv-x="366" 
d="M346 786l-126 -289h-200l79 289h247z" />
    <glyph glyph-name="quotesinglbase" unicode="&#x201a;" horiz-adv-x="366" 
d="M346 185l-126 -289h-200l79 289h247z" />
    <glyph glyph-name="quotedblleft" unicode="&#x201c;" horiz-adv-x="682" 
d="M662 786l-79 -289h-247l127 289h199zM147 786h199l-79 -289h-247z" />
    <glyph glyph-name="quotedblright" unicode="&#x201d;" horiz-adv-x="682" 
d="M662 786l-127 -289h-199l79 289h247zM99 786h247l-126 -289h-200z" />
    <glyph glyph-name="quotedblbase" unicode="&#x201e;" horiz-adv-x="682" 
d="M662 185l-127 -289h-199l79 289h247zM99 185h247l-126 -289h-200z" />
    <glyph glyph-name="dagger" unicode="&#x2020;" horiz-adv-x="582" 
d="M550 416h-108v-546h-301v546h-109v198h109v169h301v-169h108v-198z" />
    <glyph glyph-name="daggerdbl" unicode="&#x2021;" horiz-adv-x="582" 
d="M550 149h-108v-279h-301v279h-109v198h109v96h-109v198h109v145h301v-145h108v-198h-108v-96h108v-198z" />
    <glyph glyph-name="bullet" unicode="&#x2022;" horiz-adv-x="482" 
d="M449 365q0 -80 -61 -136t-148 -56q-86 0 -147 56t-61 136t61 136.5t147 56.5q87 0 148 -56.5t61 -136.5z" />
    <glyph glyph-name="onedotenleader" unicode="&#x2024;" horiz-adv-x="367" 
d="M334 0h-302v196h302v-196z" />
    <glyph glyph-name="twodotenleader" unicode="&#x2025;" horiz-adv-x="760" 
d="M728 0h-302v196h302v-196zM334 196v-196h-302v196h302z" />
    <glyph glyph-name="ellipsis" unicode="&#x2026;" horiz-adv-x="1123" 
d="M334 0h-302v196h302v-196zM712 0h-302v196h302v-196zM1091 0h-303v196h303v-196z" />
    <glyph glyph-name="perthousand" unicode="&#x2030;" horiz-adv-x="1775" 
d="M1010 748l-531 -748h-231l531 748h231zM1243 219q0 -113 -52.5 -172.5t-171.5 -59.5t-171 59.5t-52 172.5v7q0 113 52 172.5t171 59.5t171.5 -59.5t52.5 -172.5v-7zM1041 218v9q0 66 -4 83t-18 17t-17.5 -17.5t-3.5 -82.5v-9q0 -65 3.5 -82.5t17.5 -17.5t18 17t4 83z
M482 525q0 -113 -52.5 -172.5t-171.5 -59.5t-171 59.5t-52 172.5v7q0 113 52 172.5t171 59.5t171.5 -59.5t52.5 -172.5v-7zM280 524v9q0 66 -4 83t-18 17t-17.5 -17.5t-3.5 -82.5v-9q0 -66 3.5 -83t17.5 -17t18 17t4 83zM1740 219q0 -113 -52.5 -172.5t-171.5 -59.5
t-171 59.5t-52 172.5v7q0 113 52 172.5t171 59.5t171.5 -59.5t52.5 -172.5v-7zM1538 218v9q0 66 -4 83t-18 17t-17.5 -17.5t-3.5 -82.5v-9q0 -65 3.5 -82.5t17.5 -17.5t18 17t4 83z" />
    <glyph glyph-name="guilsinglleft" unicode="&#x2039;" horiz-adv-x="490" 
d="M458 56h-289l-137 239l137 240h289l-131 -240z" />
    <glyph glyph-name="guilsinglright" unicode="&#x203a;" horiz-adv-x="490" 
d="M458 295l-137 -239h-289l131 239l-131 240h289z" />
    <glyph glyph-name="exclamdbl" unicode="&#x203c;" horiz-adv-x="859" 
d="M790 0h-312v200h312v-200zM804 786l-27 -528h-285l-26 528h338zM379 0h-312v200h312v-200zM393 786l-27 -528h-285l-26 528h338z" />
    <glyph glyph-name="fraction" unicode="&#x2044;" horiz-adv-x="770" 
d="M768 748l-532 -748h-234l532 748h234z" />
    <glyph glyph-name="zero.superior" unicode="&#x2070;" horiz-adv-x="511" 
d="M479 565q0 -113 -52.5 -172.5t-171.5 -59.5t-171 59.5t-52 172.5v7q0 113 52 172.5t171 59.5t171.5 -59.5t52.5 -172.5v-7zM277 564v9q0 66 -4 83t-18 17t-17.5 -17.5t-3.5 -82.5v-9q0 -66 3.5 -83t17.5 -17t18 17t4 83z" />
    <glyph glyph-name="i.superior" unicode="&#x2071;" horiz-adv-x="263" 
d="M40 672h184v-358h-184v358zM228 700h-193v86h193v-86z" />
    <glyph glyph-name="four.superior" unicode="&#x2074;" horiz-adv-x="489" 
d="M412 346h-197v82h-195v102l248 263h144v-253h47v-112h-47v-82zM228 540v81l-68 -81h68z" />
    <glyph glyph-name="five.superior" unicode="&#x2075;" horiz-adv-x="457" 
d="M414 674h-203l-3 -43h15q121 0 161.5 -32t40.5 -108v-5q0 -153 -205 -153q-107 0 -185 21v102q92 -6 130 -6q35 0 47 6.5t12 27.5v6q0 18 -11 24t-44 6h-137l24 273h358v-119z" />
    <glyph glyph-name="six.superior" unicode="&#x2076;" horiz-adv-x="487" 
d="M430 782v-101q-96 4 -158 4q-31 0 -38.5 -7t-7.5 -35v-9q13 3 41 3q97 0 142.5 -29.5t45.5 -107.5v-12q0 -78 -51.5 -116.5t-161.5 -38.5q-67 0 -111 15.5t-64.5 45.5t-27.5 60t-7 73v74q0 49 7 82t27.5 62.5t63.5 44t110 14.5q104 0 190 -22zM261 488v11q0 18 -1 25
t-5 11.5t-13 4.5q-12 0 -16 -2v-48q0 -28 2.5 -37t14.5 -9t15 9t3 35z" />
    <glyph glyph-name="seven.superior" unicode="&#x2077;" horiz-adv-x="458" 
d="M41 674v119h392v-125l-203 -322h-205l209 328h-193z" />
    <glyph glyph-name="eight.superior" unicode="&#x2078;" horiz-adv-x="506" 
d="M473 470q0 -80 -54 -108.5t-164 -28.5h-5q-109 0 -163 28.5t-54 108.5q0 70 50 103q-50 35 -50 103q0 72 53 100t164 28h5q111 0 164 -28t53 -100q0 -68 -49 -103q50 -33 50 -103zM281 475v5q0 27 -5 36.5t-21 9.5q-18 0 -24 -10t-6 -41q0 -20 6 -28.5t24 -8.5
q15 0 20.5 8.5t5.5 28.5zM280 662v4q0 32 -25 32q-18 0 -23.5 -7.5t-5.5 -24.5q0 -24 5.5 -33t23.5 -9q15 0 20 9t5 29z" />
    <glyph glyph-name="nine.superior" unicode="&#x2079;" horiz-adv-x="487" 
d="M57 353v103q97 -5 165 -5q25 0 32 7.5t7 34.5v10q-15 -3 -41 -3q-97 0 -142.5 30t-45.5 107v11q0 156 213 156q67 0 111 -15.5t64.5 -46t27.5 -61t7 -72.5v-75q0 -39 -4 -66t-16.5 -54.5t-34.5 -44t-60.5 -26.5t-92.5 -10q-118 0 -190 20zM261 599v47q0 15 -0.5 21.5
t-2 14t-5 9.5t-10.5 2q-12 0 -15 -9.5t-3 -35.5v-11q0 -17 0.5 -23.5t5 -11t13.5 -4.5q4 0 10 0.5t7 0.5z" />
    <glyph glyph-name="parenleft.superior" unicode="&#x207d;" horiz-adv-x="295" 
d="M262 263h-160q-70 107 -70 264v5q0 157 70 264h160q-60 -118 -60 -264v-5q0 -146 60 -264z" />
    <glyph glyph-name="parenright.superior" unicode="&#x207e;" horiz-adv-x="295" 
d="M192 263h-160q60 118 60 264v5q0 146 -60 264h160q70 -107 70 -264v-5q0 -157 -70 -264z" />
    <glyph glyph-name="n.superior" unicode="&#x207f;" horiz-adv-x="482" 
d="M447 314h-184v224q0 13 -4 18t-14 5q-15 0 -26 -7v-240h-184v358h168v-31q48 40 116 40q37 0 62.5 -9.5t38 -21t19 -34.5t7.5 -37t1 -41v-224z" />
    <glyph glyph-name="zero.inferior" unicode="&#x2080;" horiz-adv-x="511" 
d="M479 24q0 -113 -52.5 -172.5t-171.5 -59.5t-171 59.5t-52 172.5v7q0 113 52 172.5t171 59.5t171.5 -59.5t52.5 -172.5v-7zM277 23v9q0 66 -4 83t-18 17t-17.5 -17t-3.5 -83v-9q0 -65 3.5 -82.5t17.5 -17.5t18 17t4 83z" />
    <glyph glyph-name="one.inferior" unicode="&#x2081;" horiz-adv-x="373" 
d="M333 -195h-293v116l46 5v167l-46 -16v131l103 44h143v-326l47 -5v-116z" />
    <glyph glyph-name="two.inferior" unicode="&#x2082;" horiz-adv-x="468" 
d="M38 141v99q81 23 190 23q112 0 160 -31t48 -99q0 -48 -31 -78.5t-106 -61.5q-51 -20 -62 -30.5t-11 -33.5h198v-124h-392v54q0 88 29 131t103 84q48 23 59 32t11 21q0 11 -9 15t-38 4q-59 0 -149 -5z" />
    <glyph glyph-name="three.inferior" unicode="&#x2083;" horiz-adv-x="463" 
d="M220 -208q-120 0 -188 25v98q54 -3 160 -3q26 0 34.5 5t8.5 24v5q0 18 -10.5 23.5t-42.5 5.5h-110v106h111q30 0 41 6t11 23v4q0 19 -8.5 24.5t-34.5 5.5q-38 0 -160 -4v97q73 26 188 26q101 0 155.5 -30t54.5 -101v-5q0 -69 -50 -97q50 -24 50 -94v-6
q0 -73 -48.5 -105.5t-161.5 -32.5z" />
    <glyph glyph-name="four.inferior" unicode="&#x2084;" horiz-adv-x="489" 
d="M412 -195h-197v82h-195v102l248 263h144v-253h47v-112h-47v-82zM228 -1v81l-68 -81h68z" />
    <glyph glyph-name="five.inferior" unicode="&#x2085;" horiz-adv-x="457" 
d="M414 133h-203l-3 -43h15q121 0 161.5 -32t40.5 -108v-5q0 -153 -205 -153q-107 0 -185 21v102q92 -6 130 -6q35 0 47 6.5t12 27.5v6q0 18 -11 24t-44 6h-137l24 273h358v-119z" />
    <glyph glyph-name="six.inferior" unicode="&#x2086;" horiz-adv-x="487" 
d="M430 241v-101q-96 4 -158 4q-31 0 -38.5 -7t-7.5 -35v-9q14 3 41 3q97 0 142.5 -29.5t45.5 -107.5v-12q0 -78 -51.5 -116.5t-161.5 -38.5q-67 0 -111 15.5t-64.5 45.5t-27.5 60t-7 73v74q0 49 7 82t27.5 62.5t63.5 44t110 14.5q104 0 190 -22zM261 -53v11q0 18 -1 25
t-5 11.5t-13 4.5q-12 0 -16 -2v-48q0 -28 2.5 -37t14.5 -9t15 9t3 35z" />
    <glyph glyph-name="seven.inferior" unicode="&#x2087;" horiz-adv-x="458" 
d="M41 133v119h392v-125l-203 -322h-205l209 328h-193z" />
    <glyph glyph-name="eight.inferior" unicode="&#x2088;" horiz-adv-x="506" 
d="M473 -71q0 -80 -54 -108.5t-164 -28.5h-5q-109 0 -163 28.5t-54 108.5q0 70 50 103q-50 35 -50 103q0 72 53 100t164 28h5q111 0 164 -28t53 -100q0 -68 -49 -103q50 -33 50 -103zM281 -66v5q0 27 -5 36.5t-21 9.5q-18 0 -24 -10t-6 -41q0 -20 6 -28.5t24 -8.5
q15 0 20.5 8.5t5.5 28.5zM280 121v4q0 32 -25 32q-18 0 -23.5 -7.5t-5.5 -24.5q0 -24 5.5 -33t23.5 -9q15 0 20 9t5 29z" />
    <glyph glyph-name="nine.inferior" unicode="&#x2089;" horiz-adv-x="487" 
d="M57 -188v103q97 -5 165 -5q25 0 32 7.5t7 34.5v10q-15 -3 -41 -3q-97 0 -142.5 30t-45.5 107v11q0 156 213 156q67 0 111 -15.5t64.5 -46t27.5 -61t7 -72.5v-75q0 -39 -4 -66t-16.5 -54.5t-34.5 -44t-60.5 -26.5t-92.5 -10q-118 0 -190 20zM261 58v47q0 15 -0.5 21.5
t-2 14t-5 9.5t-10.5 2q-12 0 -15 -9.5t-3 -35.5v-11q0 -17 0.5 -23.5t5 -11t13.5 -4.5q4 0 10 0.5t7 0.5z" />
    <glyph glyph-name="parenleft.inferior" unicode="&#x208d;" horiz-adv-x="295" 
d="M262 -215h-160q-70 107 -70 264v5q0 157 70 264h160q-60 -118 -60 -264v-5q0 -146 60 -264z" />
    <glyph glyph-name="parenright.inferior" unicode="&#x208e;" horiz-adv-x="295" 
d="M192 -215h-160q60 118 60 264v5q0 146 -60 264h160q70 -107 70 -264v-5q0 -157 -70 -264z" />
    <glyph glyph-name="colonmonetary" unicode="&#x20a1;" horiz-adv-x="611" 
d="M578 584v-181q-144 6 -178 6q-46 0 -58 -15.5t-12 -75.5v-41q0 -61 12.5 -77t57.5 -16q33 0 98.5 2t79.5 2v-178q-22 -7 -87 -16v-127h-125v118q-12 -1 -35 -1q-16 0 -40 2v-119h-125v148q-134 62 -134 262v41q0 198 134 261v141h125v-112q26 2 40 2q23 0 35 -1v111h125
v-120q62 -9 87 -16z" />
    <glyph glyph-name="franc" unicode="&#x20a3;" horiz-adv-x="709" 
d="M400 0h-331v99h-37v118h37v526h607v-205h-276v-73h276v-191h-276v-57h85v-118h-85v-99z" />
    <glyph glyph-name="lira" unicode="&#x20a4;" horiz-adv-x="714" 
d="M681 743v-190q-138 5 -194 5q-46 0 -57 -11t-11 -54v-18h148v-81h-148v-53h148v-80h-148v-16q0 -23 -9 -45h271v-200h-626v156q26 21 37.5 40.5t11.5 48.5v16h-72v80h72v53h-72v81h72v18q0 148 78.5 211t238.5 63q132 0 260 -24z" />
    <glyph glyph-name="peseta" unicode="&#x20a7;" horiz-adv-x="900" 
d="M77 564v179q168 19 326 19q83 0 145 -8t120 -28t94 -61t49 -101h57v-152h-58q-10 -49 -36.5 -85.5t-60 -58t-79.5 -34.5t-90 -17.5t-97 -4.5q-28 0 -57 1v-213h-313v412h-45v152h45zM504 487v5q0 35 -15.5 47.5t-54.5 12.5q-9 0 -25 -0.5t-19 -0.5v-125q11 -1 46 -1
q36 0 52 14.5t16 47.5z" />
    <glyph glyph-name="Euro" unicode="&#x20ac;" horiz-adv-x="715" 
d="M519 542q-59 0 -76 -12t-21 -56h248l-17 -71h-232v-64h216l-18 -71h-197q4 -45 21.5 -56t75.5 -11q80 0 163 5v-202q-33 -10 -100 -17.5t-110 -7.5q-186 0 -278.5 65t-106.5 224h-55v71h55v64h-55v71h55q14 161 96 225.5t266 64.5q59 0 129 -7t104 -18v-202q-83 5 -163 5
z" />
    <glyph glyph-name="litre" unicode="&#x2113;" horiz-adv-x="630" 
d="M600 43q-111 -63 -253 -63q-122 0 -185.5 48.5t-63.5 169.5v8l-37 -25l-41 64l78 56v304q0 105 64 149.5t204 44.5q124 0 177 -33t53 -108q0 -143 -197 -286v-174q0 -41 15 -57t46 -16q38 0 82 23zM509 656q0 56 -52 56q-38 0 -48 -25.5t-10 -81.5v-139q110 92 110 190z
" />
    <glyph glyph-name="trademark" unicode="&#x2122;" horiz-adv-x="1105" 
d="M1042 319h-180v142q0 41 2 61h-1q-15 -30 -27 -44l-35 -41h-61l-35 41q-12 15 -26 44h-1q2 -40 2 -61v-142h-181v438h160l82 -108q15 -19 30 -48h1q10 22 29 48l81 108h160v-438zM446 640h-112v-321h-189v321h-113v117h414v-117z" />
    <glyph glyph-name="Omega" unicode="&#x2126;" horiz-adv-x="845" 
d="M813 438q0 -102 -37.5 -163t-118.5 -88v-28h134v-159h-337v276q30 7 37.5 35.5t7.5 96.5v40q0 52 -16 73.5t-60 21.5t-60 -21t-16 -74v-40q0 -69 7 -97t37 -35v-276h-337v159h134v28q-81 27 -118.5 88t-37.5 163l1 37q0 153 96 221t294 68q197 0 293.5 -68t96.5 -221v-37
z" />
    <glyph glyph-name="estimated" unicode="&#x212e;" horiz-adv-x="657" 
d="M625 282h-464v-193q72 -63 164 -63q83 0 133.5 33t93.5 94l33 -19q-47 -68 -106.5 -104.5t-153.5 -36.5q-129 0 -211 84.5t-82 205.5q0 123 81.5 206.5t215.5 83.5t215 -84.5t81 -206.5zM495 315v163q-31 26 -76 44t-90 18q-103 0 -168 -62v-163h334z" />
    <glyph glyph-name="onethird" unicode="&#x2153;" horiz-adv-x="1191" 
d="M927 748l-531 -748h-234l532 748h233zM325 301h-293v116l46 5v167l-46 -16v131l103 44h143v-326l47 -5v-116zM759 336v97q73 26 188 26q101 0 155.5 -30t54.5 -101v-5q0 -69 -50 -97q50 -24 50 -94v-6q0 -73 -48.5 -105.5t-161.5 -32.5q-120 0 -188 25v98q54 -3 160 -3
q26 0 34.5 5t8.5 24v5q0 18 -10.5 23.5t-42.5 5.5h-110v106h111q30 0 41 6t11 23v4q0 19 -8.5 24.5t-34.5 5.5q-38 0 -160 -4z" />
    <glyph glyph-name="twothirds" unicode="&#x2154;" horiz-adv-x="1296" 
d="M1032 748l-531 -748h-234l532 748h233zM38 638v99q81 23 190 23q112 0 160 -31t48 -99q0 -48 -31 -79t-106 -62q-51 -20 -62 -30t-11 -32v-2h198v-124h-392v54q0 88 29 131.5t103 84.5q48 23 59 32t11 21q0 11 -9 15t-38 4q-59 0 -149 -5zM864 336v97q73 26 188 26
q101 0 155.5 -30t54.5 -101v-5q0 -69 -50 -97q50 -24 50 -94v-6q0 -73 -48.5 -105.5t-161.5 -32.5q-120 0 -188 25v98q54 -3 160 -3q26 0 34.5 5t8.5 24v5q0 18 -10.5 23.5t-42.5 5.5h-110v106h111q30 0 41 6t11 23v4q0 19 -8.5 24.5t-34.5 5.5q-38 0 -160 -4z" />
    <glyph glyph-name="oneeighth" unicode="&#x215b;" horiz-adv-x="1206" 
d="M1173 124q0 -80 -54 -108.5t-164 -28.5h-5q-109 0 -163 28.5t-54 108.5v6q0 64 50 97q-50 35 -50 97v6q0 72 53 100t164 28h5q111 0 164 -28t53 -100v-6q0 -62 -49 -97q50 -33 50 -97v-6zM981 129v5q0 27 -5 36.5t-21 9.5h-5q-15 0 -20 -9.5t-5 -36.5v-5q0 -20 5.5 -28.5
t19.5 -8.5h5q15 0 20.5 8.5t5.5 28.5zM950 278h5q15 0 20 9t5 29v4q0 32 -25 32h-5q-15 0 -19.5 -7.5t-4.5 -24.5v-4q0 -21 4.5 -29.5t19.5 -8.5zM927 748l-531 -748h-234l532 748h233zM326 301h-293v116l46 5v167l-46 -16v131l103 44h143v-326l47 -5v-116z" />
    <glyph glyph-name="threeeighths" unicode="&#x215c;" horiz-adv-x="1279" 
d="M1246 125q0 -80 -54 -108.5t-164 -28.5h-5q-109 0 -163 28.5t-54 108.5v6q0 64 50 97q-50 35 -50 97v6q0 72 53 100t164 28h5q111 0 164 -28t53 -100v-6q0 -62 -49 -97q50 -33 50 -97v-6zM1054 130v5q0 27 -5 36.5t-21 9.5h-5q-15 0 -20 -9.5t-5 -36.5v-5
q0 -20 5.5 -28.5t19.5 -8.5h5q15 0 20.5 8.5t5.5 28.5zM1028 279q15 0 20 9t5 29v4q0 32 -25 32h-5q-15 0 -19.5 -7.5t-4.5 -24.5v-4q0 -21 4.5 -29.5t19.5 -8.5h5zM1000 748l-531 -748h-234l532 748h233zM32 637v97q73 26 188 26q101 0 155.5 -30t54.5 -101v-5
q0 -69 -50 -97q50 -24 50 -94v-6q0 -73 -48.5 -105.5t-161.5 -32.5q-120 0 -188 25v98q54 -3 160 -3q26 0 34.5 5t8.5 24v5q0 18 -10.5 23.5t-42.5 5.5h-110v106h111q30 0 41 6t11 23v4q0 19 -8.5 24.5t-34.5 5.5q-38 0 -160 -4z" />
    <glyph glyph-name="fiveeighths" unicode="&#x215d;" horiz-adv-x="1272" 
d="M1239 125q0 -80 -54 -108.5t-164 -28.5h-5q-109 0 -163 28.5t-54 108.5v6q0 64 50 97q-50 35 -50 97v6q0 72 53 100t164 28h5q111 0 164 -28t53 -100v-6q0 -62 -49 -97q50 -33 50 -97v-6zM1047 130v5q0 27 -5 36.5t-21 9.5h-5q-15 0 -20 -9.5t-5 -36.5v-5
q0 -20 5.5 -28.5t19.5 -8.5h5q15 0 20.5 8.5t5.5 28.5zM1016 279h5q15 0 20 9t5 29v4q0 32 -25 32h-5q-15 0 -19.5 -7.5t-4.5 -24.5v-4q0 -21 4.5 -29.5t19.5 -8.5zM993 748l-532 -748h-234l532 748h234zM414 625h-203l-3 -43h15q121 0 161.5 -31.5t40.5 -107.5v-5
q0 -153 -205 -153q-107 0 -185 21v102q92 -6 130 -6q35 0 47 6.5t12 27.5v6q0 18 -11 23.5t-44 5.5h-137l24 273h358v-119z" />
    <glyph glyph-name="seveneighths" unicode="&#x215e;" horiz-adv-x="1181" 
d="M1148 125q0 -80 -54 -108.5t-164 -28.5h-5q-109 0 -163 28.5t-54 108.5v6q0 64 50 97q-50 35 -50 97v6q0 72 53 100t164 28h5q111 0 164 -28t53 -100v-6q0 -62 -49 -97q50 -33 50 -97v-6zM956 130v5q0 27 -5 36.5t-21 9.5h-5q-15 0 -20 -9.5t-5 -36.5v-5q0 -20 5.5 -28.5
t19.5 -8.5h5q15 0 20.5 8.5t5.5 28.5zM925 279h5q15 0 20 9t5 29v4q0 32 -25 32h-5q-15 0 -19.5 -7.5t-4.5 -24.5v-4q0 -21 4.5 -29.5t19.5 -8.5zM902 748l-531 -748h-234l532 748h233zM49 626v119h392v-125l-203 -322h-205l209 328h-193z" />
    <glyph glyph-name="partialdiff" unicode="&#x2202;" horiz-adv-x="749" 
d="M716 425q0 -95 -21 -180q-33 -134 -122 -197.5t-241 -63.5q-146 0 -223 62t-77 179q0 54 9 93q13 71 45 119t80.5 73.5t102 35.5t123.5 10q28 0 49 -5q-6 15 -13 26q-42 84 -189 84q-54 0 -108 -9l18 143q81 15 153 15q197 0 305.5 -104t108.5 -281zM411 321
q0 21 -6.5 29t-21.5 8q-20 0 -31 -19t-18 -64q-5 -27 -5 -57q0 -21 6.5 -29t21.5 -8q17 0 28 17t19 59q7 34 7 64z" />
    <glyph glyph-name="Delta" unicode="&#x2206;" horiz-adv-x="908" 
d="M876 0h-844l154 743h533zM509 194l-41 292q-2 14 -14 105h-2q-2 -17 -13 -105l-42 -292h112z" />
    <glyph glyph-name="product" unicode="&#x220f;" horiz-adv-x="890" 
d="M857 515h-65v-591h-305v590h-85v-590h-305v591h-65v228h825v-228z" />
    <glyph glyph-name="summation" unicode="&#x2211;" horiz-adv-x="671" 
d="M639 -76h-607v205l188 210l-188 199v205h607v-205h-276l139 -150v-100l-139 -159h276v-205z" />
    <glyph glyph-name="minus" unicode="&#x2212;" horiz-adv-x="639" 
d="M594 279h-550v202h550v-202z" />
    <glyph glyph-name="uni2215" unicode="&#x2215;" horiz-adv-x="771" 
d="M769 748l-531 -748h-234l532 748h233z" />
    <glyph glyph-name="uni2219" unicode="&#x2219;" horiz-adv-x="377" 
d="M326 269h-276v197h276v-197z" />
    <glyph glyph-name="radical" unicode="&#x221a;" horiz-adv-x="882" 
d="M850 870l-275 -934h-304l-112 392h-127v203h297l93 -347l185 686h243z" />
    <glyph glyph-name="infinity" unicode="&#x221e;" horiz-adv-x="669" 
d="M636 370q0 -261 -185 -261h-6q-67 0 -112 45q-42 -47 -110 -47h-7q-50 0 -86 19.5t-54.5 46t-29 66t-12.5 68t-2 63.5v23q0 261 186 261h7q69 0 110 -46q40 47 112 47h5q50 0 86 -19.5t54.5 -45.5t29 -66t12.5 -67.5t2 -63.5v-23zM479 370v23q0 73 -4.5 97.5t-25.5 24.5
h-3q-13 0 -20.5 -27.5t-15.5 -101.5q-3 -23 -7.5 -54.5t-7.5 -57.5q19 -27 45 -27h3q23 0 29.5 28t6.5 95zM275 485q-16 31 -46 31h-3q-24 0 -30 -30t-6 -93v-23q0 -35 0.5 -51t3.5 -36t9.5 -27.5t18.5 -7.5h2q14 0 19.5 21t17.5 112q2 15 6.5 45.5t7.5 58.5z" />
    <glyph glyph-name="integral" unicode="&#x222b;" horiz-adv-x="561" 
d="M528 643q-17 0 -30.5 0.5t-19.5 1t-9 0.5q-24 0 -31 -5t-7 -24v-638q0 -100 -54.5 -143t-154.5 -43q-91 0 -190 19v144q40 -2 60 -2q24 0 31 5t7 24v638q0 100 54 142.5t154 42.5q103 0 190 -19v-143z" />
    <glyph glyph-name="approxequal" unicode="&#x2248;" horiz-adv-x="639" 
d="M596 597q0 -49 -15 -83.5t-40 -50.5t-49.5 -22.5t-52.5 -6.5q-52 0 -111 18l-55 17q-30 9 -49 11q-19 0 -19 -25v-19h-162v19q0 49 15 83t41 50.5t51.5 23t55.5 6.5q43 0 103 -18q49 -14 65 -20h2q26 -8 41 -8q10 0 13.5 5.5t3.5 19.5v18h162v-18zM596 336
q0 -49 -15 -83.5t-40 -50.5t-49.5 -22.5t-52.5 -6.5q-52 0 -111 18l-55 17q-27 8 -49 10q-19 0 -19 -24v-19h-162v19q0 49 15 83t41 50.5t51.5 23t55.5 6.5q43 0 103 -18q49 -14 65 -20h2q26 -8 41 -8q10 0 13.5 5.5t3.5 19.5v18h162v-18z" />
    <glyph glyph-name="notequal" unicode="&#x2260;" horiz-adv-x="639" 
d="M601 108h-222l-33 -120h-285l32 120h-55v202h116l36 131h-152v203h213l31 111h284l-31 -111h66v-203h-126l-36 -131h162v-202z" />
    <glyph glyph-name="lessequal" unicode="&#x2264;" horiz-adv-x="639" 
d="M602 0h-557v147h557v-147zM592 206h-293l-263 228l263 228h293l-258 -228z" />
    <glyph glyph-name="greaterequal" unicode="&#x2265;" horiz-adv-x="639" 
d="M593 0h-557v147h557v-147zM602 434l-264 -228h-293l258 228l-258 228h293z" />
    <glyph glyph-name="lozenge" unicode="&#x25ca;" horiz-adv-x="688" 
d="M655 371l-313 -353l-310 353l310 358zM444 371l-102 121l-99 -121l99 -120z" />
    <glyph glyph-name="percent.oldstyle" unicode="&#xfe6a;" horiz-adv-x="1126" 
d="M1101 185q0 -196 -199 -196q-105 0 -151.5 50.5t-46.5 145.5v5q0 95 46.5 146t151.5 51q199 0 199 -197v-5zM922 185v6q0 53 -3.5 67t-16.5 14t-16.5 -14t-3.5 -67v-6q0 -53 3.5 -67t16.5 -14t16.5 14t3.5 67zM903 647l-474 -647h-202l473 647h203zM422 456
q0 -196 -198 -196q-106 0 -152.5 50.5t-46.5 145.5v5q0 95 46.5 145.5t152.5 50.5q198 0 198 -196v-5zM244 456v6q0 53 -3.5 67t-16.5 14t-16.5 -14t-3.5 -67v-6q0 -53 3.5 -67t16.5 -14t16.5 14t3.5 67z" />
    <glyph glyph-name="dollar.oldstyle" horiz-adv-x="752" 
d="M80 3v172q144 -8 249 -8q34 0 45 4t11 17q0 10 -11 15.5t-59 21.5l-55 18q-52 17 -82 30.5t-61 36.5t-44.5 57t-13.5 83q0 95 53 144t156 64v89h228v-86q74 -6 170 -23v-161q-140 6 -249 6q-32 0 -43.5 -3t-11.5 -14q0 -9 11.5 -15t55.5 -20l60 -19q115 -36 160 -80.5
t45 -136.5q0 -172 -198 -207v-97h-228v92q-118 7 -188 20z" />
    <glyph glyph-name="dollar.superior" horiz-adv-x="469" 
d="M43 352v111q103 -5 162 -5q40 0 40 20q0 10 -8 15t-35 14l-45 15q-125 41 -125 147q0 107 120 132v88h169v-83q45 -4 106 -16v-108q-89 5 -167 5q-42 0 -42 -18q0 -8 8.5 -13t34.5 -12l40 -12q73 -22 104.5 -53.5t31.5 -89.5q0 -57 -31 -95t-85 -50v-88h-169v84
q-62 4 -109 12z" />
    <glyph glyph-name="zero.oldstyle" horiz-adv-x="808" 
d="M774 308q0 -165 -89 -247t-280 -82t-280 82t-89 247v25q0 166 89 247.5t280 81.5q192 0 280.5 -81.5t88.5 -247.5v-25zM442 308v26q0 69 -6.5 92t-30.5 23t-30.5 -23t-6.5 -92v-26q0 -69 6.5 -92t30.5 -23t30.5 23t6.5 92z" />
    <glyph glyph-name="one.oldstyle" horiz-adv-x="709" 
d="M676 0h-644v194l158 10v192l-158 -39v217l251 73h235v-443l158 -10v-194z" />
    <glyph glyph-name="two.oldstyle" horiz-adv-x="742" 
d="M39 458v162q128 42 321 42q189 0 267.5 -48t78.5 -151q0 -88 -44.5 -135.5t-145.5 -89.5l-76 -32h249v-206h-655v206l173 86q97 48 130 74.5t33 56.5q0 25 -16 34.5t-63 9.5q-92 0 -252 -9z" />
    <glyph glyph-name="three.oldstyle" horiz-adv-x="734" 
d="M698 108q0 -122 -81.5 -176.5t-270.5 -54.5q-87 0 -175.5 12.5t-136.5 30.5v168q122 -10 267 -10q42 0 56 8.5t14 39.5v7q0 29 -17.5 38.5t-70.5 9.5h-183v178h185q51 0 68.5 9.5t17.5 38.5v7q0 32 -13.5 40.5t-56.5 8.5q-141 0 -267 -8v164q129 43 312 43
q169 0 260.5 -50t91.5 -168v-9q0 -114 -85 -162q44 -22 64.5 -64.5t20.5 -91.5v-9z" />
    <glyph glyph-name="four.oldstyle" horiz-adv-x="796" 
d="M763 40h-77v-136h-329v136h-325v170l414 437h240v-421h77v-186zM379 226v135l-114 -135h114z" />
    <glyph glyph-name="five.oldstyle" horiz-adv-x="724" 
d="M689 139q0 -256 -342 -256q-179 0 -308 36v169q126 -9 216 -9q60 0 79.5 11t19.5 46v9q0 30 -18.5 39.5t-72.5 9.5h-228l39 453h597v-198h-339l-4 -70h24q105 0 172 -13.5t103 -44t49 -70.5t13 -103v-9z" />
    <glyph glyph-name="six.oldstyle" horiz-adv-x="774" 
d="M739 240q0 -131 -85.5 -196t-268.5 -65q-90 0 -156 19t-102.5 47.5t-58 73.5t-27.5 86.5t-6 97.5v133q0 66 6.5 110.5t27.5 89t58 70.5t101 42t154 16q170 0 315 -35v-172q-152 9 -263 9q-51 0 -63.5 -11.5t-12.5 -59.5v-14q27 5 69 5q161 0 236.5 -49t75.5 -179v-18z
M417 239v18q0 30 -1.5 41t-8 18.5t-22.5 7.5q-15 0 -27 -3v-79q0 -32 1.5 -45.5t7.5 -23t20 -9.5q20 0 25 16t5 59z" />
    <glyph glyph-name="seven.oldstyle" horiz-adv-x="722" 
d="M697 439l-331 -535h-341l341 545h-337v198h668v-208z" />
    <glyph glyph-name="eight.oldstyle" horiz-adv-x="805" 
d="M771 211q0 -57 -17 -98.5t-47 -67t-77 -40.5t-99.5 -20.5t-123.5 -5.5h-8q-71 0 -123 5.5t-99.5 20.5t-77 40.5t-46.5 67t-17 98.5v6q0 106 83 162q-82 58 -82 161v7q0 127 86.5 172t275.5 45h8q189 0 275.5 -45t86.5 -172v-7q0 -104 -81 -161q83 -56 83 -162v-6z
M450 217v6q0 45 -9 61.5t-34 16.5h-8q-25 0 -33.5 -16.5t-8.5 -61.5v-6q0 -33 9 -47.5t33 -14.5h8q25 0 34 14.5t9 47.5zM448 527v7q0 27 -8.5 40t-32.5 13h-8q-24 0 -32.5 -13t-8.5 -40v-7q0 -34 8 -49t33 -15h8q25 0 33 15t8 49z" />
    <glyph glyph-name="nine.oldstyle" horiz-adv-x="774" 
d="M739 212q0 -65 -6.5 -110t-27.5 -90.5t-58 -73t-101 -44.5t-154 -17q-172 0 -315 35v172q155 -9 273 -9q43 0 54.5 12.5t11.5 58.5v14q-27 -5 -69 -5q-160 0 -236 50t-76 178v18q0 129 85.5 195t268.5 66q90 0 155.5 -18t102.5 -45.5t58.5 -71t27.5 -83.5t6 -94v-138z
M416 320v79q0 25 -0.5 35.5t-3 22.5t-9 16t-17.5 4q-21 0 -25.5 -15.5t-4.5 -59.5v-18q0 -41 5 -54t27 -13q16 0 28 3z" />
    <glyph glyph-name="comma.superior" horiz-adv-x="264" 
d="M231 458l-73 -188h-133l47 188h159z" />
    <glyph glyph-name="period.superior" horiz-adv-x="243" 
d="M211 346h-179v112h179v-112z" />
    <glyph glyph-name="a.superior" horiz-adv-x="450" 
d="M415 314h-164v25q-52 -34 -112 -34q-52 0 -78 27t-26 76v15q0 24 6 41.5t21 28t28.5 17t40.5 9t44.5 3t51.5 0.5h4v20q0 17 -7 21.5t-33 4.5q-47 0 -125 -4v89q95 28 174 28q85 0 130 -31.5t45 -112.5v-223zM241 402v57h-12q-14 0 -18.5 -5t-4.5 -24v-10q0 -21 17 -21
q9 0 18 3z" />
    <glyph glyph-name="b.superior" horiz-adv-x="470" 
d="M35 786h183v-106q1 0 14.5 0.5t25.5 0.5q97 0 142 -42.5t45 -134.5v-21q0 -98 -52.5 -138.5t-161.5 -40.5q-82 0 -196 11v471zM262 483v21q0 37 -5 46.5t-25 9.5q-3 0 -8.5 -0.5t-7.5 -0.5v-133q2 0 8 -0.5t9 -0.5q20 0 24.5 10t4.5 48z" />
    <glyph glyph-name="cent.superior" horiz-adv-x="435" 
d="M402 353q-32 -10 -80 -13v-85h-169v95q-121 41 -121 212v23q0 171 121 210v93h169v-82q43 -4 80 -13v-135q-56 4 -99 4q-33 0 -44 -13.5t-11 -63.5v-23q0 -50 11 -63.5t45 -13.5q40 0 98 4v-136z" />
    <glyph glyph-name="d.superior" horiz-adv-x="472" 
d="M437 314h-166v23q-48 -33 -104 -33q-142 0 -142 180v21q0 91 45.5 133.5t141.5 42.5q12 0 25 -0.5t16 -0.5v106h184v-472zM256 428v130q-5 1 -17 1q-20 0 -25.5 -9.5t-5.5 -44.5v-21q0 -37 4.5 -47.5t23.5 -10.5q4 0 11 1t9 1z" />
    <glyph glyph-name="e.superior" horiz-adv-x="453" 
d="M428 454h-222v-3q0 -22 8 -28.5t42 -6.5q94 0 150 3v-98q-75 -16 -174 -16q-207 0 -207 167v39q0 170 205 170q62 0 104 -17.5t61 -47t26 -56.5t7 -58v-48zM254 524v6q0 29 -6 39t-19 10t-18 -10t-5 -39v-6h48z" />
    <glyph glyph-name="l.superior" horiz-adv-x="253" 
d="M218 314h-183v472h183v-472z" />
    <glyph glyph-name="m.superior" horiz-adv-x="688" 
d="M203 642q45 39 112 39q66 0 95 -40q52 40 116 40q68 0 97.5 -33.5t29.5 -101.5v-232h-185v227q0 12 -2.5 17t-12.5 5t-18 -4q1 -6 1 -18v-227h-184v227q0 22 -16 22q-1 0 -17 -4v-245h-184v358h168v-30z" />
    <glyph glyph-name="o.superior" horiz-adv-x="455" 
d="M430 480q0 -96 -52 -136t-151 -40q-98 0 -150 40t-52 136v25q0 96 52 136t150 40q99 0 151 -40t52 -136v-25zM247 480v25q0 34 -4 44.5t-16 10.5t-16.5 -10.5t-4.5 -44.5v-25q0 -34 4.5 -44.5t16.5 -10.5t16 10.5t4 44.5z" />
    <glyph glyph-name="r.superior" horiz-adv-x="318" 
d="M219 314h-184v358h166v-31q38 40 107 40v-138q-59 0 -89 -1v-228z" />
    <glyph glyph-name="s.superior" horiz-adv-x="420" 
d="M385 425q0 -69 -48.5 -95.5t-146.5 -26.5q-72 0 -147 14v88q103 -5 134 -5q28 0 28 18q0 8 -6 11.5t-25 8.5l-29 8q-110 30 -110 119q0 69 45.5 92.5t129.5 23.5q95 0 159 -16v-82q-60 3 -131 3q-25 0 -25 -15q0 -8 5 -12t19 -8l40 -12q57 -17 82.5 -42.5t25.5 -71.5z
" />
    <glyph glyph-name="t.superior" horiz-adv-x="332" 
d="M310 315q-44 -11 -100 -11q-72 0 -106 31.5t-34 99.5v131l-50 6v100h50v80h183v-80h59v-106h-58v-131q0 -11 0.5 -15.5t5 -7.5t13.5 -3q27 0 37 2v-96z" />
    <glyph glyph-name="hyphen.superior" horiz-adv-x="226" 
d="M193 486h-161v122h161v-122z" />
    <glyph glyph-name="cent.oldstyle" horiz-adv-x="679" 
d="M633 643v-188q-107 5 -175 5q-52 0 -72.5 -21.5t-20.5 -95.5v-41q0 -74 20.5 -95.5t72.5 -21.5q64 0 174 2v-184q-35 -11 -146 -20v-92h-228v103q-114 30 -163 102.5t-49 205.5v41q0 129 50.5 204t161.5 102v98h228v-86q108 -7 147 -18z" />
    <glyph glyph-name="hyphen.inferior" horiz-adv-x="226" 
d="M193 8h-161v122h161v-122z" />
    <glyph glyph-name="cent.inferior" horiz-adv-x="435" 
d="M402 -188q-32 -10 -80 -13v-85h-169v95q-121 41 -121 212v23q0 171 121 210v93h169v-82q43 -4 80 -13v-135q-56 4 -99 4q-33 0 -44 -13.5t-11 -63.5v-23q0 -50 11 -63.5t45 -13.5q40 0 98 4v-136z" />
    <glyph glyph-name="dollar.inferior" horiz-adv-x="469" 
d="M43 -189v111q102 -5 162 -5q40 0 40 20q0 10 -8 15t-35 14l-45 15q-125 41 -125 147t120 132v88h169v-83q45 -4 106 -16v-108q-89 5 -167 5q-42 0 -42 -18q0 -8 8.5 -13t34.5 -12l40 -12q73 -22 104.5 -53.5t31.5 -89.5q0 -57 -31 -95t-85 -50v-88h-169v84q-62 4 -109 12
z" />
    <glyph glyph-name="period.inferior" horiz-adv-x="243" 
d="M211 -132h-179v112h179v-112z" />
    <glyph glyph-name="comma.inferior" horiz-adv-x="264" 
d="M231 -20l-73 -188h-133l47 188h159z" />
    <glyph glyph-name="commaaccent" horiz-adv-x="426" 
d="M394 -56l-105 -138h-257l68 138h294z" />
    <glyph glyph-name="Dotaccent" horiz-adv-x="380" 
d="M348 782h-316v136h316v-136z" />
    <glyph glyph-name="Breve" horiz-adv-x="598" 
d="M565 942q-8 -52 -39.5 -87.5t-76.5 -50.5t-80 -20.5t-70 -5.5t-69.5 5.5t-79.5 20.5t-77.5 50.5t-40.5 87.5h153q12 -54 114 -54q103 0 115 54h151z" />
    <glyph glyph-name="Ogonek" horiz-adv-x="460" 
d="M427 -191q-101 -27 -210 -27q-185 0 -185 100q0 93 209 135h185q-137 -44 -137 -74q0 -13 10.5 -17.5t34.5 -4.5q33 0 93 5v-117z" />
    <glyph glyph-name="Cedilla" horiz-adv-x="449" 
d="M417 -56l-124 -138h-261l89 138h296z" />
    <glyph glyph-name="Ring" horiz-adv-x="428" 
d="M395 899q0 -61 -50.5 -99t-130.5 -38t-131 38t-51 99q0 62 51 100t131 38t130.5 -38t50.5 -100zM269 900q0 18 -15 29t-40 11t-40 -11t-15 -29t15 -29t40 -11t40 11t15 29z" />
    <glyph glyph-name="Tilde" horiz-adv-x="604" 
d="M572 934q0 -47 -14.5 -80t-38.5 -48.5t-48 -22t-50 -6.5q-49 0 -109 18l-56 17q-40 11 -50 11q-14 0 -19.5 -7t-5.5 -24v-13h-149v13q0 47 14.5 80t39 48.5t49.5 22t54 6.5q40 0 101 -18l56 -16q46 -12 54 -12q13 0 18.5 7t5.5 24v12h148v-12z" />
    <glyph glyph-name="Circumflex" horiz-adv-x="676" 
d="M643 782h-246l-59 54l-60 -54h-246l135 136h342z" />
    <glyph glyph-name="Acute" horiz-adv-x="528" 
d="M495 918l-191 -136h-272l133 136h330z" />
    <glyph glyph-name="Caron" horiz-adv-x="676" 
d="M32 918h246l60 -54l59 54h246l-134 -136h-342z" />
    <glyph glyph-name="Dieresis" horiz-adv-x="624" 
d="M592 780h-228v138h228v-138zM260 918v-138h-228v138h228z" />
    <glyph glyph-name="Grave" horiz-adv-x="528" 
d="M495 782h-271l-192 136h331z" />
    <glyph glyph-name="Hungarumlaut" horiz-adv-x="867" 
d="M950 918l-191 -136h-239l133 136h297zM262 918h297l-191 -136h-239z" />
    <glyph glyph-name="Macron" horiz-adv-x="571" 
d="M539 782h-507v136h507v-136z" />
    <glyph glyph-name="commaaccent.cap" horiz-adv-x="426" 
d="M394 -56l-105 -138h-257l68 138h294z" />
    <glyph glyph-name="h.superior" horiz-adv-x="483" 
d="M35 786h184v-125q42 20 96 20q38 0 64 -9t39 -20.5t20.5 -33.5t8.5 -38t1 -43v-223h-185v224q0 13 -3.5 18t-13.5 5q-15 0 -27 -7v-240h-184v472z" />
    <glyph glyph-name="zero.slash" horiz-adv-x="812" 
d="M775 358q0 -189 -86 -284t-283 -95q-122 0 -204 35l-27 -35h-162l89 112q-65 90 -65 267v27q0 189 86 284t283 95q127 0 209 -41l30 41h162l-94 -121q62 -90 62 -258v-27zM443 358v27q0 109 -6 137t-31 28t-31 -28t-6 -137v-27q0 -109 6 -137t31 -28t31 28t6 137z" />
    <glyph glyph-name="perthousand.oldstyle" horiz-adv-x="1564" 
d="M1101 185q0 -196 -199 -196q-105 0 -151.5 50.5t-46.5 145.5v5q0 95 46.5 146t151.5 51q199 0 199 -197v-5zM922 185v6q0 53 -3.5 67t-16.5 14t-16.5 -14t-3.5 -67v-6q0 -53 3.5 -67t16.5 -14t16.5 14t3.5 67zM903 647l-474 -647h-202l473 647h203zM422 456
q0 -196 -198 -196q-106 0 -152.5 50.5t-46.5 145.5v5q0 95 46.5 145.5t152.5 50.5q198 0 198 -196v-5zM244 456v6q0 53 -3.5 67t-16.5 14t-16.5 -14t-3.5 -67v-6q0 -53 3.5 -67t16.5 -14t16.5 14t3.5 67zM1539 185q0 -196 -199 -196q-105 0 -151.5 50.5t-46.5 145.5v5
q0 95 46.5 146t151.5 51q199 0 199 -197v-5zM1360 185v6q0 53 -3.5 67t-16.5 14t-16.5 -14t-3.5 -67v-6q0 -53 3.5 -67t16.5 -14t16.5 14t3.5 67z" />
    <glyph glyph-name="zero.taboldstyle" horiz-adv-x="813" 
d="M775 308q0 -165 -89 -247t-280 -82t-280 82t-89 247v25q0 166 89 247.5t280 81.5q192 0 280.5 -81.5t88.5 -247.5v-25zM443 308v26q0 69 -6.5 92t-30.5 23t-30.5 -23t-6.5 -92v-26q0 -69 6.5 -92t30.5 -23t30.5 23t6.5 92z" />
    <glyph glyph-name="one.taboldstyle" horiz-adv-x="813" 
d="M747 0h-681v198l176 9v194l-176 -38v211l269 73h236v-440l176 -9v-198z" />
    <glyph glyph-name="two.taboldstyle" horiz-adv-x="813" 
d="M75 458v162q128 42 321 42q189 0 267.5 -48t78.5 -151q0 -88 -44.5 -135.5t-145.5 -89.5l-76 -32h249v-206h-655v206l173 86q97 48 130 74.5t33 56.5q0 25 -16 34.5t-63 9.5q-92 0 -252 -9z" />
    <glyph glyph-name="three.taboldstyle" horiz-adv-x="813" 
d="M739 108q0 -122 -81.5 -176.5t-270.5 -54.5q-87 0 -175.5 12.5t-136.5 30.5v168q122 -10 267 -10q42 0 56 8.5t14 39.5v7q0 29 -17.5 38.5t-70.5 9.5h-183v178h185q51 0 68.5 9.5t17.5 38.5v7q0 32 -13.5 40.5t-56.5 8.5q-141 0 -267 -8v164q129 43 312 43
q169 0 260.5 -50t91.5 -168v-9q0 -114 -85 -162q44 -22 64.5 -64.5t20.5 -91.5v-9z" />
    <glyph glyph-name="four.taboldstyle" horiz-adv-x="813" 
d="M772 40h-77v-136h-329v136h-325v170l414 437h240v-421h77v-186zM388 226v135l-114 -135h114z" />
    <glyph glyph-name="five.taboldstyle" horiz-adv-x="813" 
d="M734 139q0 -256 -342 -256q-179 0 -308 36v169q126 -9 216 -9q60 0 79.5 11t19.5 46v9q0 30 -18.5 39.5t-72.5 9.5h-228l39 453h597v-198h-339l-4 -70h24q105 0 172 -13.5t103 -44t49 -70.5t13 -103v-9z" />
    <glyph glyph-name="six.taboldstyle" horiz-adv-x="813" 
d="M758 240q0 -131 -85.5 -196t-268.5 -65q-90 0 -156 19t-102.5 47.5t-58 73.5t-27.5 86.5t-6 97.5v133q0 66 6.5 110.5t27.5 89t58 70.5t101 42t154 16q170 0 315 -35v-172q-152 9 -263 9q-51 0 -63.5 -11.5t-12.5 -59.5v-14q27 5 69 5q161 0 236.5 -49t75.5 -179v-18z
M436 239v18q0 30 -1.5 41t-8 18.5t-22.5 7.5q-15 0 -27 -3v-79q0 -32 1.5 -45.5t7.5 -23t20 -9.5q20 0 25 16t5 59z" />
    <glyph glyph-name="seven.taboldstyle" horiz-adv-x="813" 
d="M752 440l-331 -535h-341l341 545h-337v198h668v-208z" />
    <glyph glyph-name="eight.taboldstyle" horiz-adv-x="813" 
d="M774 211q0 -57 -17 -98.5t-47 -67t-77 -40.5t-99.5 -20.5t-123.5 -5.5h-8q-71 0 -123 5.5t-99.5 20.5t-77 40.5t-46.5 67t-17 98.5v6q0 106 83 162q-82 58 -82 161v7q0 127 86.5 172t275.5 45h8q189 0 275.5 -45t86.5 -172v-7q0 -104 -81 -161q83 -56 83 -162v-6z
M453 217v6q0 45 -9 61.5t-34 16.5h-8q-25 0 -33.5 -16.5t-8.5 -61.5v-6q0 -33 9 -47.5t33 -14.5h8q25 0 34 14.5t9 47.5zM451 527v7q0 27 -8.5 40t-32.5 13h-8q-24 0 -32.5 -13t-8.5 -40v-7q0 -34 8 -49t33 -15h8q25 0 33 15t8 49z" />
    <glyph glyph-name="nine.taboldstyle" horiz-adv-x="813" 
d="M758 212q0 -65 -6.5 -110t-27.5 -90.5t-58 -73t-101 -44.5t-154 -17q-172 0 -315 35v172q155 -9 273 -9q43 0 54.5 12.5t11.5 58.5v14q-27 -5 -69 -5q-160 0 -236 50t-76 178v18q0 129 85.5 195t268.5 66q90 0 155.5 -18t102.5 -45.5t58.5 -71t27.5 -83.5t6 -94v-138z
M435 320v79q0 25 -0.5 35.5t-3 22.5t-9 16t-17.5 4q-21 0 -25.5 -15.5t-4.5 -59.5v-18q0 -41 5 -54t27 -13q16 0 28 3z" />
    <glyph glyph-name="colonmonetary.taboldstyle" horiz-adv-x="651" 
d="M619 643v-187q-120 4 -175 4q-52 0 -72.5 -21.5t-20.5 -95.5v-41q0 -74 20.5 -95.5t72.5 -21.5q73 0 175 2v-184q-26 -8 -101 -16v-96h-105v89h-17q-29 0 -65 2v-91h-105v113q-102 29 -148 101.5t-46 196.5v41q0 123 46 195.5t148 102.5v106h105v-84q30 3 65 3h17v81h105
v-89q51 -4 101 -15z" />
    <glyph glyph-name="Euro.taboldstyle" horiz-adv-x="701" 
d="M510 472q-54 0 -75 -12t-28 -47h215l-10 -67h-213v-48h206l-10 -67h-188q5 -33 22.5 -45t62.5 -12q54 0 172 3v-174q-35 -10 -107 -16.5t-114 -6.5q-174 0 -260.5 59t-99.5 192h-51v67h47v48h-47v67h50q13 134 99.5 193.5t264.5 59.5q110 0 218 -21v-179q-83 6 -154 6z
" />
    <glyph glyph-name="florin.taboldstyle" horiz-adv-x="643" 
d="M610 648l-15 -131h-63q-21 0 -28.5 -5.5t-9.5 -20.5l-9 -72h95l-22 -162h-95l-33 -261q-21 -170 -222 -170q-85 0 -176 17l19 131h59q21 0 28.5 5.5t9.5 20.5l32 257h-82l21 162h83l10 76q13 94 71 132t152 38q84 0 175 -17z" />
    <glyph glyph-name="numbersign.taboldstyle" horiz-adv-x="753" 
d="M721 131h-105l-15 -131h-225l16 131h-80l-16 -131h-224l16 131h-56v134h73l12 102h-85v134h102l19 146h225l-19 -146h79l19 146h224l-18 -146h58v-134h-75l-12 -102h87v-134zM421 367h-79l-13 -102h80z" />
    <glyph glyph-name="sterling.taboldstyle" horiz-adv-x="651" 
d="M619 645v-169q-88 5 -156 5q-49 0 -61.5 -9.5t-12.5 -43.5v-23h131v-157h-131v-26q0 -24 -7 -41h237v-181h-565v142q24 19 33.5 36t9.5 44v26h-65v157h65v22q0 129 71 184t214 55q129 0 237 -21z" />
    <glyph glyph-name="yen.taboldstyle" horiz-adv-x="847" 
d="M571 0h-296v121h-226v121h205l-42 80h-163v120h96l-114 205h316l46 -127q9 -22 30 -80h1q7 24 29 80l45 127h325l-119 -205h99v-120h-168l-43 -80h211v-121h-232v-121z" />
    <glyph glyph-name="dollar.taboldstyle" horiz-adv-x="699" 
d="M53 3v172q144 -8 249 -8q34 0 45 4t11 17q0 10 -11 15.5t-59 21.5l-55 18q-52 17 -82 30.5t-61 36.5t-44.5 57t-13.5 83q0 95 53 144t156 64v89h228v-86q74 -6 170 -23v-161q-140 6 -249 6q-32 0 -43.5 -3t-11.5 -14q0 -9 11.5 -15t55.5 -20l60 -19q115 -36 160 -80.5
t45 -136.5q0 -172 -198 -207v-97h-228v92q-118 7 -188 20z" />
    <glyph glyph-name="cent.taboldstyle" horiz-adv-x="652" 
d="M619 643v-187q-104 4 -175 4q-52 0 -72.5 -21.5t-20.5 -95.5v-41q0 -74 20.5 -95.5t72.5 -21.5q63 0 175 2v-184q-35 -11 -146 -20v-92h-229v103q-113 30 -162.5 102.5t-49.5 205.5v41q0 129 50.5 204t161.5 102v98h229v-86q107 -7 146 -18z" />
    <glyph glyph-name="zero.denominator" horiz-adv-x="511" 
d="M479 219q0 -113 -52.5 -172.5t-171.5 -59.5t-171 59.5t-52 172.5v7q0 113 52 172.5t171 59.5t171.5 -59.5t52.5 -172.5v-7zM277 218v9q0 66 -4 83t-18 17t-17.5 -17.5t-3.5 -82.5v-9q0 -65 3.5 -82.5t17.5 -17.5t18 17t4 83z" />
    <glyph glyph-name="one.denominator" horiz-adv-x="373" 
d="M333 0h-293v116l46 5v167l-46 -16v131l103 44h143v-326l47 -5v-116z" />
    <glyph glyph-name="two.denominator" horiz-adv-x="468" 
d="M38 336v99q81 23 190 23q112 0 160 -31t48 -99q0 -48 -31 -78.5t-106 -61.5q-51 -20 -62 -30.5t-11 -33.5h198v-124h-392v54q0 88 29 131t103 84q48 23 59 32t11 21q0 11 -9 15t-38 4q-59 0 -149 -5z" />
    <glyph glyph-name="three.denominator" horiz-adv-x="463" 
d="M220 -13q-120 0 -188 25v98q54 -3 160 -3q26 0 34.5 5t8.5 24v5q0 18 -10.5 23.5t-42.5 5.5h-110v106h111q30 0 41 6t11 23v4q0 19 -8.5 24.5t-34.5 5.5q-38 0 -160 -4v97q73 26 188 26q101 0 155.5 -30t54.5 -101v-5q0 -69 -50 -97q50 -24 50 -94v-6q0 -73 -48.5 -105.5
t-161.5 -32.5z" />
    <glyph glyph-name="four.denominator" horiz-adv-x="489" 
d="M412 0h-197v82h-195v102l248 263h144v-253h47v-112h-47v-82zM228 194v81l-68 -81h68z" />
    <glyph glyph-name="five.denominator" horiz-adv-x="457" 
d="M414 328h-203l-3 -43h15q121 0 161.5 -32t40.5 -108v-5q0 -153 -205 -153q-107 0 -185 21v102q92 -6 130 -6q35 0 47 6.5t12 27.5v6q0 18 -11 24t-44 6h-137l24 273h358v-119z" />
    <glyph glyph-name="six.denominator" horiz-adv-x="487" 
d="M430 436v-101q-96 4 -158 4q-31 0 -38.5 -7t-7.5 -35v-9q14 3 41 3q97 0 142.5 -29.5t45.5 -107.5v-12q0 -78 -51.5 -116.5t-161.5 -38.5q-67 0 -111 15.5t-64.5 45.5t-27.5 60t-7 73v74q0 49 7 82t27.5 62.5t63.5 44t110 14.5q104 0 190 -22zM261 142v11q0 18 -1 25
t-5 11.5t-13 4.5q-12 0 -16 -2v-48q0 -28 2.5 -37t14.5 -9t15 9t3 35z" />
    <glyph glyph-name="seven.denominator" horiz-adv-x="458" 
d="M41 328v119h392v-125l-203 -322h-205l209 328h-193z" />
    <glyph glyph-name="eight.denominator" horiz-adv-x="506" 
d="M473 124q0 -80 -54 -108.5t-164 -28.5h-5q-109 0 -163 28.5t-54 108.5q0 70 50 103q-50 35 -50 103q0 72 53 100t164 28h5q111 0 164 -28t53 -100q0 -68 -49 -103q50 -33 50 -103zM281 129v5q0 27 -5 36.5t-21 9.5q-18 0 -24 -10t-6 -41q0 -20 6 -28.5t24 -8.5
q15 0 20.5 8.5t5.5 28.5zM280 316v4q0 32 -25 32q-18 0 -23.5 -7.5t-5.5 -24.5q0 -24 5.5 -33t23.5 -9q15 0 20 9t5 29z" />
    <glyph glyph-name="nine.denominator" horiz-adv-x="487" 
d="M57 7v103q97 -5 165 -5q25 0 32 7.5t7 34.5v10q-15 -3 -41 -3q-97 0 -142.5 30t-45.5 107v11q0 156 213 156q67 0 111 -15.5t64.5 -46t27.5 -61t7 -72.5v-75q0 -39 -4 -66t-16.5 -54.5t-34.5 -44t-60.5 -26.5t-92.5 -10q-118 0 -190 20zM261 253v47q0 15 -0.5 21.5t-2 14
t-5 9.5t-10.5 2q-12 0 -15 -9.5t-3 -35.5v-11q0 -17 0.5 -23.5t5 -11t13.5 -4.5q4 0 10 0.5t7 0.5z" />
    <glyph glyph-name="comma.denominator" horiz-adv-x="264" 
d="M231 119l-73 -188h-133l47 188h159z" />
    <glyph glyph-name="period.denominator" horiz-adv-x="243" 
d="M211 7h-179v112h179v-112z" />
    <glyph glyph-name="cent.denominator" horiz-adv-x="435" 
d="M402 7q-32 -10 -80 -13v-85h-169v95q-121 41 -121 212v23q0 171 121 210v93h169v-82q43 -4 80 -13v-135q-56 4 -99 4q-33 0 -44 -13.5t-11 -63.5v-23q0 -50 11 -63.5t45 -13.5q40 0 98 4v-136z" />
    <glyph glyph-name="dollar.denominator" horiz-adv-x="469" 
d="M43 6v111q102 -5 162 -5q40 0 40 20q0 10 -8 15t-35 14l-45 15q-125 41 -125 147q0 107 120 132v88h169v-83q45 -4 106 -16v-108q-89 5 -167 5q-42 0 -42 -18q0 -8 8.5 -13t34.5 -12l40 -12q73 -22 104.5 -53.5t31.5 -89.5q0 -57 -31 -95t-85 -50v-88h-169v84
q-62 4 -109 12z" />
    <glyph glyph-name="hyphen.denominator" horiz-adv-x="226" 
d="M193 147h-161v122h161v-122z" />
    <glyph glyph-name="parenleft.denominator" horiz-adv-x="295" 
d="M262 -76h-160q-70 107 -70 264v5q0 157 70 264h160q-60 -118 -60 -264v-5q0 -146 60 -264z" />
    <glyph glyph-name="parenright.denominator" horiz-adv-x="295" 
d="M192 -76h-160q60 118 60 264v5q0 146 -60 264h160q70 -107 70 -264v-5q0 -157 -70 -264z" />
    <glyph glyph-name="zero.numerator" horiz-adv-x="511" 
d="M479 525q0 -113 -52.5 -172.5t-171.5 -59.5t-171 59.5t-52 172.5v7q0 113 52 172.5t171 59.5t171.5 -59.5t52.5 -172.5v-7zM277 524v9q0 66 -4 83t-18 17t-17.5 -17.5t-3.5 -82.5v-9q0 -66 3.5 -83t17.5 -17t18 17t4 83z" />
    <glyph glyph-name="one.numerator" horiz-adv-x="373" 
d="M333 306h-293v116l46 5v167l-46 -16v131l103 44h143v-326l47 -5v-116z" />
    <glyph glyph-name="two.numerator" horiz-adv-x="468" 
d="M38 642v99q81 23 190 23q112 0 160 -31t48 -99q0 -48 -31 -78.5t-106 -61.5q-51 -20 -62 -30.5t-11 -33.5h198v-124h-392v54q0 88 29 131t103 84q48 23 59 32t11 21q0 11 -9 15t-38 4q-59 0 -149 -5z" />
    <glyph glyph-name="three.numerator" horiz-adv-x="463" 
d="M220 293q-120 0 -188 25v98q54 -3 160 -3q26 0 34.5 5t8.5 24v5q0 18 -10.5 23.5t-42.5 5.5h-110v106h111q30 0 41 6t11 23v4q0 19 -8.5 24.5t-34.5 5.5q-38 0 -160 -4v97q73 26 188 26q101 0 155.5 -30t54.5 -101v-5q0 -69 -50 -97q50 -24 50 -94v-6q0 -73 -48.5 -105.5
t-161.5 -32.5z" />
    <glyph glyph-name="four.numerator" horiz-adv-x="489" 
d="M412 306h-197v82h-195v102l248 263h144v-253h47v-112h-47v-82zM228 500v81l-68 -81h68z" />
    <glyph glyph-name="five.numerator" horiz-adv-x="457" 
d="M414 634h-203l-3 -43h15q121 0 161.5 -32t40.5 -108v-5q0 -153 -205 -153q-107 0 -185 21v102q92 -6 130 -6q35 0 47 6.5t12 27.5v6q0 18 -11 24t-44 6h-137l24 273h358v-119z" />
    <glyph glyph-name="six.numerator" horiz-adv-x="487" 
d="M430 742v-101q-96 4 -158 4q-31 0 -38.5 -7t-7.5 -35v-9q13 3 41 3q97 0 142.5 -29.5t45.5 -107.5v-12q0 -78 -51.5 -116.5t-161.5 -38.5q-67 0 -111 15.5t-64.5 45.5t-27.5 60t-7 73v74q0 49 7 82t27.5 62.5t63.5 44t110 14.5q104 0 190 -22zM261 448v11q0 18 -1 25
t-5 11.5t-13 4.5q-12 0 -16 -2v-48q0 -28 2.5 -37t14.5 -9t15 9t3 35z" />
    <glyph glyph-name="seven.numerator" horiz-adv-x="458" 
d="M41 634v119h392v-125l-203 -322h-205l209 328h-193z" />
    <glyph glyph-name="eight.numerator" horiz-adv-x="506" 
d="M473 430q0 -80 -54 -108.5t-164 -28.5h-5q-109 0 -163 28.5t-54 108.5q0 70 50 103q-50 35 -50 103q0 72 53 100t164 28h5q111 0 164 -28t53 -100q0 -68 -49 -103q50 -33 50 -103zM281 435v5q0 27 -5 36.5t-21 9.5q-18 0 -24 -10t-6 -41q0 -20 6 -28.5t24 -8.5
q15 0 20.5 8.5t5.5 28.5zM280 622v4q0 32 -25 32q-18 0 -23.5 -7.5t-5.5 -24.5q0 -24 5.5 -33t23.5 -9q15 0 20 9t5 29z" />
    <glyph glyph-name="nine.numerator" horiz-adv-x="487" 
d="M57 313v103q97 -5 165 -5q25 0 32 7.5t7 34.5v10q-15 -3 -41 -3q-97 0 -142.5 30t-45.5 107v11q0 156 213 156q67 0 111 -15.5t64.5 -46t27.5 -61t7 -72.5v-75q0 -39 -4 -66t-16.5 -54.5t-34.5 -44t-60.5 -26.5t-92.5 -10q-118 0 -190 20zM261 559v47q0 15 -0.5 21.5
t-2 14t-5 9.5t-10.5 2q-12 0 -15 -9.5t-3 -35.5v-11q0 -17 0.5 -23.5t5 -11t13.5 -4.5q4 0 10 0.5t7 0.5z" />
    <glyph glyph-name="comma.numerator" horiz-adv-x="264" 
d="M231 425l-73 -188h-133l47 188h159z" />
    <glyph glyph-name="period.numerator" horiz-adv-x="243" 
d="M211 313h-179v112h179v-112z" />
    <glyph glyph-name="cent.numerator" horiz-adv-x="435" 
d="M402 313q-32 -10 -80 -13v-85h-169v95q-121 41 -121 212v23q0 171 121 210v93h169v-82q43 -4 80 -13v-135q-56 4 -99 4q-33 0 -44 -13.5t-11 -63.5v-23q0 -50 11 -63.5t45 -13.5q40 0 98 4v-136z" />
    <glyph glyph-name="dollar.numerator" horiz-adv-x="469" 
d="M43 312v111q103 -5 162 -5q40 0 40 20q0 10 -8 15t-35 14l-45 15q-125 41 -125 147q0 107 120 132v88h169v-83q45 -4 106 -16v-108q-89 5 -167 5q-42 0 -42 -18q0 -8 8.5 -13t34.5 -12l40 -12q73 -22 104.5 -53.5t31.5 -89.5q0 -57 -31 -95t-85 -50v-88h-169v84
q-62 4 -109 12z" />
    <glyph glyph-name="hyphen.numerator" horiz-adv-x="226" 
d="M193 453h-161v122h161v-122z" />
    <glyph glyph-name="parenleft.numerator" horiz-adv-x="295" 
d="M262 230h-160q-70 107 -70 264v5q0 157 70 264h160q-60 -118 -60 -264v-5q0 -146 60 -264z" />
    <glyph glyph-name="parenright.numerator" horiz-adv-x="295" 
d="M192 230h-160q60 118 60 264v5q0 146 -60 264h160q70 -107 70 -264v-5q0 -157 -70 -264z" />
    <glyph glyph-name="parenleft.cap" horiz-adv-x="399" 
d="M367 0h-223q-107 158 -107 368v6q0 208 107 369h223q-82 -167 -82 -369v-6q0 -206 82 -368z" />
    <glyph glyph-name="parenright.cap" horiz-adv-x="399" 
d="M367 368q0 -210 -107 -368h-223q82 162 82 368v6q0 202 -82 369h223q107 -161 107 -369v-6z" />
    <glyph glyph-name="bracketleft.cap" horiz-adv-x="421" 
d="M389 0h-357v743h357v-164h-103v-416h103v-163z" />
    <glyph glyph-name="bracketright.cap" horiz-adv-x="421" 
d="M389 0h-357v163h102v416h-102v164h357v-743z" />
    <glyph glyph-name="braceleft.cap" horiz-adv-x="463" 
d="M430 0h-53q-92 0 -145 7t-91.5 29t-52.5 62t-14 107v48q0 31 -10.5 45t-31.5 23v101q21 10 31.5 24t10.5 45v46q0 67 14 107t52.5 62.5t91.5 29.5t145 7h53v-164h-49q-35 0 -44 -6t-9 -36v-46q0 -50 -14 -75t-49 -45q35 -19 49 -43.5t14 -74.5v-48q0 -30 9 -36t44 -6h49
v-163z" />
    <glyph glyph-name="braceright.cap" horiz-adv-x="463" 
d="M430 321q-20 -9 -30.5 -23t-10.5 -45v-48q0 -54 -10.5 -90t-30 -59t-58 -35t-85 -16.5t-120.5 -4.5h-53v163h50q34 0 43 6t9 36v48q0 50 14 74.5t49 43.5q-35 20 -49 45t-14 75v46q0 30 -9 36t-43 6h-50v164h53q92 0 145 -7t92 -29.5t53 -62.5t14 -107v-46q0 -31 10 -45
t31 -24v-101z" />
    <glyph glyph-name="exclamdown.cap" horiz-adv-x="448" 
d="M393 -43h-338l26 528h285zM379 743v-200h-312v200h312z" />
    <glyph glyph-name="questiondown.cap" horiz-adv-x="645" 
d="M315 -54q-142 0 -210.5 42t-68.5 129v7q0 53 23 94t80 91q71 67 94.5 101t23.5 65v7h246v-7q0 -73 -6.5 -109t-35.5 -79q-55 -79 -55 -101v-3q0 -16 11.5 -22t44.5 -6q67 0 149 4v-172q-100 -41 -296 -41zM531 547h-302v196h302v-196z" />
    <glyph glyph-name="guillemotleft.cap" horiz-adv-x="919" 
d="M887 131h-290l-141 239l141 240h290l-136 -240zM327 370l136 -239h-289l-142 239l142 240h289z" />
    <glyph glyph-name="guillemotright.cap" horiz-adv-x="919" 
d="M887 370l-142 -239h-289l135 239l-135 240h289zM321 610l142 -240l-142 -239h-289l136 239l-136 240h289z" />
    <glyph glyph-name="guilsinglleft.cap" horiz-adv-x="490" 
d="M458 131h-289l-137 239l137 240h289l-131 -240z" />
    <glyph glyph-name="guilsinglright.cap" horiz-adv-x="490" 
d="M458 370l-137 -239h-289l131 239l-131 240h289z" />
    <glyph glyph-name="hyphen.cap" horiz-adv-x="299" 
d="M267 303h-235v150h235v-150z" />
    <glyph glyph-name="endash.cap" horiz-adv-x="363" 
d="M331 303h-299v149h299v-149z" />
    <glyph glyph-name="emdash.cap" horiz-adv-x="512" 
d="M479 303h-447v149h447v-149z" />
    <glyph glyph-name="periodcentered.cap" horiz-adv-x="377" 
d="M316 269h-256v197h256v-197z" />
    <glyph glyph-name="at.cap" horiz-adv-x="958" 
d="M925 455q0 -337 -420 -337q-144 0 -210.5 38.5t-66.5 133.5q0 48 6 88q16 103 80.5 155.5t190.5 52.5q99 0 211 -25l-33 -301q108 38 108 195q0 106 -74 161t-199 55q-134 0 -221 -75.5t-117 -200.5q-14 -61 -14 -124q0 -68 20 -113.5t60.5 -69.5t90.5 -33.5t121 -9.5
q115 0 205 9v-72q-103 -18 -205 -18q-210 0 -318 71t-108 236q0 81 19 150q42 156 167.5 248t316.5 92q108 0 194 -32t141 -102.5t55 -171.5zM502 459h-14q-29 0 -41 -19.5t-19 -78.5q-4 -40 -4 -73q0 -28 7.5 -39.5t26.5 -11.5h21z" />
    <glyph glyph-name="T_h" horiz-adv-x="1394" 
d="M1339 0h-301v373q0 24 -6 32.5t-24 8.5q-23 0 -47 -11v-403h-301v540h-114v-540h-330v540h-196v203h941v-166q70 33 159 33q45 0 79.5 -7.5t57.5 -18.5t39 -31t24.5 -37t12.5 -45t5 -47t1 -51v-373z" />
    <glyph glyph-name="A.alt" horiz-adv-x="875" 
d="M15 0l111 547l-42 6v190h619l157 -743h-343l-16 119h-128l-17 -119h-341zM479 313l-28 173q-7 44 -13 105h-2q-6 -61 -13 -105l-27 -173h83z" />
    <glyph glyph-name="B.alt" horiz-adv-x="819" 
d="M55 0v548l-37 5v190q182 21 346 21q216 0 316 -51t100 -180v-9q0 -102 -67 -145q71 -40 71 -140v-10q0 -60 -19 -103.5t-53 -71.5t-88 -44.5t-115.5 -23t-143.5 -6.5q-144 0 -310 20zM472 232v11q0 32 -14 42t-54 10h-37v-114q12 -2 37 -2q42 0 55 10.5t13 42.5zM472 509
v7q0 28 -15.5 39t-55.5 11q-21 0 -34 -2v-110h34q45 0 58 11t13 44z" />
    <glyph glyph-name="C.alt" horiz-adv-x="705" 
d="M670 204v-200q-32 -10 -115 -17.5t-131 -7.5q-208 0 -296 83.5t-88 289.5v40q0 206 88 289t296 83q48 0 131 -7.5t115 -17.5v-234h-180l-7 37h-12q-28 0 -43.5 -4.5t-29 -19t-19 -45t-5.5 -81.5v-40q0 -51 5.5 -82t19.5 -46t29.5 -19t43.5 -4q48 0 198 3z" />
    <glyph glyph-name="D.alt" horiz-adv-x="835" 
d="M55 0v551l-43 6v186q155 21 371 21q217 0 314.5 -83t97.5 -295v-23q0 -111 -24.5 -185.5t-77.5 -118t-127.5 -62t-182.5 -18.5q-171 0 -328 21zM473 363v23q0 113 -10 138.5t-62 25.5h-28v-357h28q52 0 62 27.5t10 142.5z" />
    <glyph glyph-name="E.alt" horiz-adv-x="701" 
d="M661 541h-276v-74h254v-186h-254v-79h276v-202h-606v548l-34 5v190h640v-202z" />
    <glyph glyph-name="F.alt" horiz-adv-x="692" 
d="M55 0v548l-37 5v190h644v-205h-277v-73h254v-186h-254v-279h-330z" />
    <glyph glyph-name="G.alt" horiz-adv-x="811" 
d="M756 7q-159 -28 -339 -28q-65 0 -114.5 7.5t-101 31t-85 63t-55 109t-21.5 164.5v36q0 72 12 129t31.5 95.5t50.5 66.5t62 44t73 25t77 11.5t80 2.5q165 0 324 -37v-221h-175l-9 35q-11 0 -36.5 0.5t-34.5 0.5q-57 0 -82 -9t-38 -41t-13 -102v-36q0 -96 10 -126t47 -30
q26 0 40 2v64l-38 7v149h335v-413z" />
    <glyph glyph-name="H.alt" horiz-adv-x="912" 
d="M857 0h-331v267h-140v-267h-331v549l-37 4v190h368v-262h140v262h331v-743z" />
    <glyph glyph-name="I.alt" horiz-adv-x="470" 
d="M437 0h-404v190l37 4v355l-37 4v190h404v-190l-37 -4v-355l37 -4v-190z" />
    <glyph glyph-name="J.alt" horiz-adv-x="470" 
d="M437 553l-37 -4v-527q0 -124 -67 -178t-198 -54q-86 0 -137 11v164h32q25 0 32.5 8.5t7.5 33.5v542l-37 4v190h404v-190z" />
    <glyph glyph-name="K.alt" horiz-adv-x="895" 
d="M900 0h-376l-138 329v-329h-331v549l-34 4v190h365v-337l157 337h364l-191 -370z" />
    <glyph glyph-name="M.alt" horiz-adv-x="1021" 
d="M966 0h-315v230q0 56 4 101h-2q-22 -48 -42 -72l-50 -61h-101l-51 61q-17 21 -41 72h-2q3 -51 3 -101v-230h-314v549l-37 4v190h314l129 -178q25 -34 48 -79h2q30 54 48 79l130 178h277v-743z" />
    <glyph glyph-name="N.alt" horiz-adv-x="882" 
d="M827 0h-290l-143 207q-18 26 -41 72h-3v-78v-201h-295v549l-37 4v190h317l153 -208q25 -34 44 -79h2q-2 14 -2 84v203h295v-743z" />
    <glyph glyph-name="P.alt" horiz-adv-x="821" 
d="M368 0h-313v549l-37 4v190q155 19 362 19q75 0 131.5 -5.5t112.5 -23t92 -46.5t58 -78.5t22 -116.5v-5q0 -68 -21.5 -118.5t-56 -80t-85 -47t-99.5 -23.5t-109 -6q-28 0 -57 1v-213zM368 426q11 -1 45 -1q36 0 52.5 14.5t16.5 47.5v5q0 35 -16 47.5t-54 12.5
q-26 0 -44 -2v-124z" />
    <glyph glyph-name="Q.alt" horiz-adv-x="837" 
d="M797 348q0 -296 -236 -354v-191h-297v194q-224 63 -224 351v46q0 88 21.5 155t55.5 107t85 65t102.5 34t113.5 9q63 0 114.5 -9t102 -34t85 -65t56 -107t21.5 -155v-46zM476 348v47q0 92 -11 120t-47 28t-46.5 -28t-10.5 -120v-47q0 -91 11 -119t46 -28q36 0 47 28
t11 119z" />
    <glyph glyph-name="R.alt" horiz-adv-x="839" 
d="M834 0h-307l-103 235h-29h-28v-235h-312v549l-37 4v190q184 19 375 19q69 0 122 -5.5t107 -22t89 -45t57 -77t22 -114.5v-6q0 -134 -86 -203zM476 486v5q0 36 -13 48.5t-56 12.5q-21 0 -41 -1v-125q14 -1 43 -1q41 0 54 14.5t13 46.5z" />
    <glyph glyph-name="S.alt" horiz-adv-x="738" 
d="M55 6v181q185 -7 268 -7q58 0 58 31q0 15 -11 22.5t-55 25.5l-79 32q-42 17 -67 29t-54.5 32.5t-45 43t-26 56.5t-10.5 77q0 127 91 181t269 54q143 0 294 -31v-199h-177l-10 33h-87q-61 0 -61 -25q0 -12 11.5 -20t48.5 -22l72 -28q83 -32 127 -59.5t69 -71.5t25 -109
q0 -132 -87.5 -192.5t-238.5 -60.5q-191 0 -324 27z" />
    <glyph glyph-name="U.alt" horiz-adv-x="860" 
d="M810 291q0 -155 -101 -233.5t-279 -78.5t-279 78.5t-101 233.5v258l-37 4v190h361v-452q0 -59 10.5 -79t45.5 -20q36 0 46.5 20t10.5 79v452h323v-452z" />
    <glyph glyph-name="Z.alt" horiz-adv-x="708" 
d="M663 209v-209h-618v192l225 342h-50l-9 -32h-165v241h616v-197l-225 -337h226z" />
    <glyph glyph-name="a.alt" horiz-adv-x="706" 
d="M656 0h-269v37q-34 -22 -85.5 -37.5t-100.5 -15.5q-84 0 -127.5 45t-43.5 126v26q0 34 9 60.5t22.5 44t38.5 30t48 19.5t59.5 10.5t65.5 4.5t73 1h9v22q0 29 -12 37t-56 8h-20l-10 -29h-176v174q146 47 285 47q141 0 215.5 -52t74.5 -185v-373zM371 152v84h-22
q-21 0 -30 -7.5t-9 -33.5v-18q0 -32 25 -32q19 0 36 7z" />
    <glyph glyph-name="b.alt" horiz-adv-x="766" 
d="M731 279q0 -161 -86.5 -228t-265.5 -67q-148 0 -324 18v595l-33 5v184h334v-178q1 0 24.5 1t44.5 1q158 0 232 -70t74 -221v-40zM432 279v40q0 60 -8.5 76.5t-41.5 16.5q-16 0 -30 -2v-227q16 -2 30 -2q33 0 41.5 17t8.5 81z" />
    <glyph glyph-name="c.alt" horiz-adv-x="616" 
d="M581 10q-117 -26 -240 -26q-159 0 -232.5 71t-73.5 222v41q0 154 73 223t233 69q139 0 240 -26v-204h-165l-8 29h-14q-37 0 -49 -16t-12 -75v-41q0 -60 13 -76.5t56 -16.5q32 0 179 5v-179z" />
    <glyph glyph-name="d.alt" horiz-adv-x="772" 
d="M717 0h-272v31q-74 -47 -173 -47q-112 0 -172 73.5t-60 221.5v40q0 151 74.5 221t232.5 70q41 0 69 -2v31l-33 5v142h334v-786zM420 186v224q-16 2 -30 2q-33 0 -42 -17t-9 -76v-40q0 -62 8 -79t39 -17q20 0 34 3z" />
    <glyph glyph-name="g.alt" horiz-adv-x="724" 
d="M703 -16q0 -48 -18.5 -83t-49 -56t-77 -33.5t-94.5 -16.5t-110 -4q-76 0 -132 7.5t-104 26.5t-73 56t-25 91q0 65 53 108q-44 31 -44 79q0 30 18 56.5t50 42.5q-58 44 -58 143q0 50 13 85.5t46.5 65t99 44t163.5 14.5h348v-119l-39 -17q16 -26 16 -73q0 -53 -19 -92.5
t-49 -61.5t-74.5 -35.5t-87 -17.5t-95.5 -4q-50 0 -95 6q-11 -6 -11 -18q0 -17 39 -17h64q196 0 270.5 -36t74.5 -141zM420 -27q0 23 -10.5 31t-52.5 8h-57q-8 -11 -8 -38q0 -25 15.5 -33t49.5 -8q33 0 48 8.5t15 31.5zM400 401q0 29 -8 41t-31 12q-21 0 -28.5 -12t-7.5 -41
q0 -30 8 -42.5t28 -12.5q23 0 31 12t8 43z" />
    <glyph glyph-name="h.alt" 
d="M734 0h-301v373q0 24 -6 32.5t-24 8.5q-23 0 -47 -11v-403h-301v597l-33 5v184h334v-209q70 33 159 33q45 0 79.5 -7.5t57.5 -18.5t39 -31t24.5 -37t12.5 -45t5 -47t1 -51v-373z" />
    <glyph glyph-name="i.alt" horiz-adv-x="411" 
d="M356 0h-301v405l-33 6v184h334v-595zM363 644h-315v142h315v-142z" />
    <glyph glyph-name="j.alt" horiz-adv-x="411" 
d="M356 4q0 -121 -59 -168.5t-193 -47.5q-90 0 -144 12v164q28 -1 52 -1q27 0 35 8t8 33v403l-33 4v184h334v-591zM363 644h-315v142h315v-142z" />
    <glyph glyph-name="k.alt" horiz-adv-x="777" 
d="M777 0h-315l-107 253v-253h-300v597l-33 5v184h333v-448l116 257h293l-138 -290z" />
    <glyph glyph-name="l.alt" horiz-adv-x="411" 
d="M356 0h-301v597l-33 5v184h334v-786z" />
    <glyph glyph-name="m.alt" horiz-adv-x="1122" 
d="M1072 0h-301v379q0 21 -5 29.5t-22 8.5t-31 -6q1 -10 1 -32v-379h-301v379q0 21 -5 29.5t-21 8.5q-10 0 -31 -7v-410h-301v407l-33 4v184h309v-49q74 64 184 64q109 0 157 -65q87 65 193 65q112 0 159.5 -55.5t47.5 -167.5v-387z" />
    <glyph glyph-name="n.alt" horiz-adv-x="784" 
d="M734 0h-301v373q0 24 -6.5 32.5t-24.5 8.5q-28 0 -46 -12v-402h-301v405l-33 6v184h309v-50q80 65 192 65q44 0 78 -8t56 -19t37.5 -32t23 -37.5t11.5 -46t4.5 -46t0.5 -48.5v-373z" />
    <glyph glyph-name="p.alt" horiz-adv-x="769" 
d="M356 -194h-301v600l-33 5v184h306v-35q78 50 183 50t164 -66.5t59 -221.5v-47q0 -150 -77 -220t-235 -70q-16 0 -40 1t-26 1v-181zM433 275v47q0 58 -8 74t-38 16q-23 0 -35 -4v-224q8 -1 29 -1q34 0 43 16.5t9 75.5z" />
    <glyph glyph-name="r.alt" horiz-adv-x="524" 
d="M356 0h-301v406l-33 5v184h306v-51q63 66 176 66v-226h-148v-384z" />
    <glyph glyph-name="s.alt" horiz-adv-x="634" 
d="M43 7v151q147 -8 221 -8q26 0 36.5 5t10.5 20q0 11 -10 17.5t-41 16.5l-53 18q-90 30 -133.5 71.5t-43.5 119.5q0 60 22 99.5t64.5 59t89 26.5t112.5 7q167 0 268 -27v-161h-178l-9 24h-46q-32 0 -32 -18q0 -11 8 -16t35 -14l65 -22q95 -32 135 -73.5t40 -116.5
q0 -58 -23.5 -98.5t-68.5 -62.5t-100.5 -31t-128.5 -9q-134 0 -240 22z" />
    <glyph glyph-name="u.alt" 
d="M433 595h301v-595h-276v50q-80 -66 -212 -66q-54 0 -91.5 15t-56.5 35.5t-29.5 57t-12 62t-1.5 68.5v184l-33 6v183h334v-373q0 -24 6.5 -32.5t25.5 -8.5q23 0 45 11v403z" />
    <glyph glyph-name="y.alt" horiz-adv-x="785" 
d="M730 4q0 -110 -82 -161t-271 -51q-176 0 -288 28v152q240 -10 252 -10q59 0 74.5 8t15.5 34v8q-40 -4 -61 -4q-154 0 -234.5 71t-80.5 206v310h298v-310q0 -42 10 -61t38 -19q23 0 32 1v389h297v-591z" />
    <glyph glyph-name="z.alt" horiz-adv-x="639" 
d="M599 184v-184h-559v162l213 247h-60l-8 -29h-142v215h555v-175l-201 -236h202z" />
    <glyph glyph-name="a.alt2" horiz-adv-x="768" 
d="M713 0h-273v31q-71 -46 -172 -46q-113 0 -173 73t-60 221v40q0 110 32 171t114 90.5t233 29.5q137 0 299 -15v-595zM416 186v225q-8 1 -31 1q-33 0 -41.5 -17t-8.5 -76v-40q0 -62 7.5 -79t38.5 -17q14 0 35 3z" />
    <glyph glyph-name="u.alt2" 
d="M734 281q0 -161 -88.5 -229t-251.5 -68t-251 68t-88 229v314h301v-314q0 -60 8.5 -80t29.5 -20t30 20t9 80v314h301v-314z" />
    <glyph glyph-name="Aacute.alt" horiz-adv-x="875" 
d="M711 925l-191 -136h-272l133 136h330zM15 0l111 547l-42 6v190h619l157 -743h-343l-16 119h-128l-17 -119h-341zM479 313l-28 173q-7 44 -13 105h-2q-6 -61 -13 -105l-27 -173h83z" />
    <glyph glyph-name="Acircumflex.alt" horiz-adv-x="875" 
d="M743 789h-246l-59 54l-60 -54h-246l135 136h342zM15 0l111 547l-42 6v190h619l157 -743h-343l-16 119h-128l-17 -119h-341zM479 313l-28 173q-7 44 -13 105h-2q-6 -61 -13 -105l-27 -173h83z" />
    <glyph glyph-name="Adieresis.alt" horiz-adv-x="875" 
d="M698 789h-228v138h228v-138zM405 927v-138h-228v138h228zM15 0l111 547l-42 6v190h619l157 -743h-343l-16 119h-128l-17 -119h-341zM479 313l-28 173q-7 44 -13 105h-2q-6 -61 -13 -105l-27 -173h83z" />
    <glyph glyph-name="Agrave.alt" horiz-adv-x="875" 
d="M588 789h-271l-192 136h331zM15 0l111 547l-42 6v190h619l157 -743h-343l-16 119h-128l-17 -119h-341zM479 313l-28 173q-7 44 -13 105h-2q-6 -61 -13 -105l-27 -173h83z" />
    <glyph glyph-name="Aring.alt" horiz-adv-x="875" 
d="M619 916q0 -61 -50.5 -99t-130.5 -38t-131 38t-51 99q0 62 51 100t131 38t130.5 -38t50.5 -100zM493 917q0 18 -15 29t-40 11t-40 -11t-15 -29t15 -29t40 -11t40 11t15 29zM15 0l111 547l-42 6v190h619l157 -743h-343l-16 119h-128l-17 -119h-341zM479 313l-28 173
q-7 44 -13 105h-2q-6 -61 -13 -105l-27 -173h83z" />
    <glyph glyph-name="Atilde.alt" horiz-adv-x="875" 
d="M707 944q0 -47 -14.5 -80t-38.5 -48.5t-48 -22t-50 -6.5q-49 0 -109 18l-56 17q-40 11 -50 11q-14 0 -19.5 -7t-5.5 -24v-13h-149v13q0 47 14.5 80t39 48.5t49.5 22t54 6.5q40 0 101 -18l56 -16q46 -12 54 -12q13 0 18.5 7t5.5 24v12h148v-12zM15 0l111 547l-42 6v190
h619l157 -743h-343l-16 119h-128l-17 -119h-341zM479 313l-28 173q-7 44 -13 105h-2q-6 -61 -13 -105l-27 -173h83z" />
    <glyph glyph-name="Ccedilla.alt" horiz-adv-x="705" 
d="M550 -56l-124 -138h-261l89 138h296zM670 204v-200q-32 -10 -115 -17.5t-131 -7.5q-208 0 -296 83.5t-88 289.5v40q0 206 88 289t296 83q48 0 131 -7.5t115 -17.5v-234h-180l-7 37h-12q-28 0 -43.5 -4.5t-29 -19t-19 -45t-5.5 -81.5v-40q0 -51 5.5 -82t19.5 -46t29.5 -19
t43.5 -4q48 0 198 3z" />
    <glyph glyph-name="Eacute.alt" horiz-adv-x="701" 
d="M664 925l-191 -136h-272l133 136h330zM661 541h-276v-74h254v-186h-254v-79h276v-202h-606v548l-34 5v190h640v-202z" />
    <glyph glyph-name="Ecircumflex.alt" horiz-adv-x="701" 
d="M663 789h-246l-59 54l-60 -54h-246l135 136h342zM661 541h-276v-74h254v-186h-254v-79h276v-202h-606v548l-34 5v190h640v-202z" />
    <glyph glyph-name="Edieresis.alt" horiz-adv-x="701" 
d="M615 789h-228v138h228v-138zM322 927v-138h-228v138h228zM661 541h-276v-74h254v-186h-254v-79h276v-202h-606v548l-34 5v190h640v-202z" />
    <glyph glyph-name="Egrave.alt" horiz-adv-x="701" 
d="M522 789h-271l-192 136h331zM661 541h-276v-74h254v-186h-254v-79h276v-202h-606v548l-34 5v190h640v-202z" />
    <glyph glyph-name="Eth.alt" horiz-adv-x="835" 
d="M795 363q0 -111 -24.5 -185.5t-77.5 -118t-127.5 -62t-182.5 -18.5q-171 0 -328 21v284h-46v183h46v84l-43 6v186q155 21 371 21q217 0 314.5 -83t97.5 -295v-23zM373 284v-91h28q52 0 62 27.5t10 142.5v23q0 113 -10 138.5t-62 25.5h-28v-83h50v-183h-50z" />
    <glyph glyph-name="Iacute.alt" horiz-adv-x="470" 
d="M544 925l-191 -136h-272l133 136h330zM437 0h-404v190l37 4v355l-37 4v190h404v-190l-37 -4v-355l37 -4v-190z" />
    <glyph glyph-name="Icircumflex.alt" horiz-adv-x="470" 
d="M547 789h-246l-59 54l-60 -54h-246l135 136h342zM437 0h-404v190l37 4v355l-37 4v190h404v-190l-37 -4v-355l37 -4v-190z" />
    <glyph glyph-name="Idieresis.alt" horiz-adv-x="470" 
d="M494 789h-228v138h228v-138zM201 927v-138h-228v138h228zM437 0h-404v190l37 4v355l-37 4v190h404v-190l-37 -4v-355l37 -4v-190z" />
    <glyph glyph-name="Igrave.alt" horiz-adv-x="470" 
d="M400 789h-271l-192 136h331zM437 0h-404v190l37 4v355l-37 4v190h404v-190l-37 -4v-355l37 -4v-190z" />
    <glyph glyph-name="Ntilde.alt" horiz-adv-x="882" 
d="M705 944q0 -47 -14.5 -80t-38.5 -48.5t-48 -22t-50 -6.5q-49 0 -109 18l-56 17q-40 11 -50 11q-14 0 -19.5 -7t-5.5 -24v-13h-149v13q0 47 14.5 80t39 48.5t49.5 22t54 6.5q40 0 101 -18l56 -16q46 -12 54 -12q13 0 18.5 7t5.5 24v12h148v-12zM827 0h-290l-143 207
q-18 26 -41 72h-3v-78v-201h-295v549l-37 4v190h317l153 -208q25 -34 44 -79h2q-2 14 -2 84v203h295v-743z" />
    <glyph glyph-name="Scaron.alt" horiz-adv-x="738" 
d="M74 925h246l60 -53l59 53h246l-134 -136h-342zM379 -21q-191 0 -324 27v181q185 -7 268 -7q58 0 58 31q0 15 -11 22.5t-55 25.5l-79 32q-42 17 -67 29t-54.5 32.5t-45 43t-26 56.5t-10.5 77q0 127 91 181t269 54q143 0 294 -31v-199h-177l-10 33h-87q-61 0 -61 -25
q0 -12 11.5 -20t48.5 -22l72 -28q83 -32 127 -59.5t69 -71.5t25 -109q0 -132 -87.5 -192.5t-238.5 -60.5z" />
    <glyph glyph-name="Uacute.alt" horiz-adv-x="860" 
d="M740 925l-191 -136h-272l133 136h330zM810 291q0 -155 -101 -233.5t-279 -78.5t-279 78.5t-101 233.5v258l-37 4v190h361v-452q0 -59 10.5 -79t45.5 -20q36 0 46.5 20t10.5 79v452h323v-452z" />
    <glyph glyph-name="Ucircumflex.alt" horiz-adv-x="860" 
d="M736 789h-246l-59 54l-60 -54h-246l135 136h342zM810 291q0 -155 -101 -233.5t-279 -78.5t-279 78.5t-101 233.5v258l-37 4v190h361v-452q0 -59 10.5 -79t45.5 -20q36 0 46.5 20t10.5 79v452h323v-452z" />
    <glyph glyph-name="Udieresis.alt" horiz-adv-x="860" 
d="M692 789h-228v138h228v-138zM399 927v-138h-228v138h228zM810 291q0 -155 -101 -233.5t-279 -78.5t-279 78.5t-101 233.5v258l-37 4v190h361v-452q0 -59 10.5 -79t45.5 -20q36 0 46.5 20t10.5 79v452h323v-452z" />
    <glyph glyph-name="Ugrave.alt" horiz-adv-x="860" 
d="M588 789h-271l-192 136h331zM810 291q0 -155 -101 -233.5t-279 -78.5t-279 78.5t-101 233.5v258l-37 4v190h361v-452q0 -59 10.5 -79t45.5 -20q36 0 46.5 20t10.5 79v452h323v-452z" />
    <glyph glyph-name="Zcaron.alt" horiz-adv-x="708" 
d="M58 925h246l60 -53l59 53h246l-134 -136h-342zM663 209v-209h-618v192l225 342h-50l-9 -32h-165v241h616v-197l-225 -337h226z" />
    <glyph glyph-name="aacute.alt" horiz-adv-x="706" 
d="M672 786l-191 -136h-272l133 136h330zM656 0h-269v37q-34 -22 -85.5 -37.5t-100.5 -15.5q-84 0 -127.5 45t-43.5 126v26q0 34 9 60.5t22.5 44t38.5 30t48 19.5t59.5 10.5t65.5 4.5t73 1h9v22q0 29 -12 37t-56 8h-20l-10 -29h-176v174q146 47 285 47q141 0 215.5 -52
t74.5 -185v-373zM371 152v84h-22q-21 0 -30 -7.5t-9 -33.5v-18q0 -32 25 -32q19 0 36 7z" />
    <glyph glyph-name="acircumflex.alt" horiz-adv-x="706" 
d="M684 650h-246l-59 54l-60 -54h-246l135 136h342zM656 0h-269v37q-34 -22 -85.5 -37.5t-100.5 -15.5q-84 0 -127.5 45t-43.5 126v26q0 34 9 60.5t22.5 44t38.5 30t48 19.5t59.5 10.5t65.5 4.5t73 1h9v22q0 29 -12 37t-56 8h-20l-10 -29h-176v174q146 47 285 47
q141 0 215.5 -52t74.5 -185v-373zM371 152v84h-22q-21 0 -30 -7.5t-9 -33.5v-18q0 -32 25 -32q19 0 36 7z" />
    <glyph glyph-name="adieresis.alt" horiz-adv-x="706" 
d="M633 650h-228v138h228v-138zM340 788v-138h-228v138h228zM656 0h-269v37q-34 -22 -85.5 -37.5t-100.5 -15.5q-84 0 -127.5 45t-43.5 126v26q0 34 9 60.5t22.5 44t38.5 30t48 19.5t59.5 10.5t65.5 4.5t73 1h9v22q0 29 -12 37t-56 8h-20l-10 -29h-176v174q146 47 285 47
q141 0 215.5 -52t74.5 -185v-373zM371 152v84h-22q-21 0 -30 -7.5t-9 -33.5v-18q0 -32 25 -32q19 0 36 7z" />
    <glyph glyph-name="agrave.alt" horiz-adv-x="706" 
d="M560 650h-271l-192 136h331zM656 0h-269v37q-34 -22 -85.5 -37.5t-100.5 -15.5q-84 0 -127.5 45t-43.5 126v26q0 34 9 60.5t22.5 44t38.5 30t48 19.5t59.5 10.5t65.5 4.5t73 1h9v22q0 29 -12 37t-56 8h-20l-10 -29h-176v174q146 47 285 47q141 0 215.5 -52t74.5 -185
v-373zM371 152v84h-22q-21 0 -30 -7.5t-9 -33.5v-18q0 -32 25 -32q19 0 36 7z" />
    <glyph glyph-name="ampersand.alt" horiz-adv-x="934" 
d="M886 0h-259l-23 20q-78 -39 -229 -39q-78 0 -137 10t-107.5 33.5t-73.5 67t-25 106.5v4q0 128 150 196l-11 10q-90 84 -90 157v4q0 101 81 148t259 47q179 0 260.5 -47.5t81.5 -147.5v-4q0 -142 -201 -212l81 -76q6 28 6 76v6h214v-6q0 -131 -64 -208l87 -82v-63z
M464 143l-106 104q-17 -16 -17 -48v-3q0 -57 76 -57q31 0 47 4zM459 541v2q0 29 -37 29t-37 -29v-2q0 -27 26 -51l17 -16q31 30 31 67z" />
    <glyph glyph-name="aring.alt" horiz-adv-x="706" 
d="M556 767q0 -61 -50.5 -99t-130.5 -38t-131 38t-51 99q0 62 51 100t131 38t130.5 -38t50.5 -100zM430 768q0 18 -15 29t-40 11t-40 -11t-15 -29t15 -29t40 -11t40 11t15 29zM656 0h-269v37q-34 -22 -85.5 -37.5t-100.5 -15.5q-84 0 -127.5 45t-43.5 126v26q0 34 9 60.5
t22.5 44t38.5 30t48 19.5t59.5 10.5t65.5 4.5t73 1h9v22q0 29 -12 37t-56 8h-20l-10 -29h-176v174q146 47 285 47q141 0 215.5 -52t74.5 -185v-373zM371 152v84h-22q-21 0 -30 -7.5t-9 -33.5v-18q0 -32 25 -32q19 0 36 7z" />
    <glyph glyph-name="atilde.alt" horiz-adv-x="706" 
d="M643 805q0 -47 -14.5 -80t-38.5 -48.5t-48 -22t-50 -6.5q-49 0 -109 18l-56 17q-40 11 -50 11q-14 0 -19.5 -7t-5.5 -24v-13h-149v13q0 47 14.5 80t39 48.5t49.5 22t54 6.5q40 0 101 -18l56 -16q46 -12 54 -12q13 0 18.5 7t5.5 24v12h148v-12zM656 0h-269v37
q-34 -22 -85.5 -37.5t-100.5 -15.5q-84 0 -127.5 45t-43.5 126v26q0 34 9 60.5t22.5 44t38.5 30t48 19.5t59.5 10.5t65.5 4.5t73 1h9v22q0 29 -12 37t-56 8h-20l-10 -29h-176v174q146 47 285 47q141 0 215.5 -52t74.5 -185v-373zM371 152v84h-22q-21 0 -30 -7.5t-9 -33.5
v-18q0 -32 25 -32q19 0 36 7z" />
    <glyph glyph-name="ccedilla.alt" horiz-adv-x="616" 
d="M468 -56l-124 -138h-261l89 138h296zM581 10q-117 -26 -240 -26q-159 0 -232.5 71t-73.5 222v41q0 154 73 223t233 69q139 0 240 -26v-204h-165l-8 29h-14q-37 0 -49 -16t-12 -75v-41q0 -60 13 -76.5t56 -16.5q32 0 179 5v-179z" />
    <glyph glyph-name="dotlessi.alt" horiz-adv-x="411" 
d="M356 0h-301v405l-33 6v184h334v-595z" />
    <glyph glyph-name="iacute.alt" horiz-adv-x="411" 
d="M356 0h-301v405l-33 6v184h334v-595zM514 786l-191 -136h-272l133 136h330z" />
    <glyph glyph-name="icircumflex.alt" horiz-adv-x="411" 
d="M356 0h-301v405l-33 6v184h334v-595zM511 650h-246l-59 54l-60 -54h-246l135 136h342z" />
    <glyph glyph-name="idieresis.alt" horiz-adv-x="411" 
d="M356 0h-301v405l-33 6v184h334v-595zM465 648h-228v138h228v-138zM172 786v-138h-228v138h228z" />
    <glyph glyph-name="igrave.alt" horiz-adv-x="411" 
d="M356 0h-301v405l-33 6v184h334v-595zM373 650h-271l-192 136h331z" />
    <glyph glyph-name="lslash.alt" horiz-adv-x="421" 
d="M366 0h-301v254l-66 -51v135l66 51v208l-33 5v184h334v-168l69 55v-135l-69 -55v-483z" />
    <glyph glyph-name="ntilde.alt" horiz-adv-x="784" 
d="M666 805q0 -47 -14.5 -80t-38.5 -48.5t-48 -22t-50 -6.5q-49 0 -109 18l-56 17q-40 11 -50 11q-14 0 -19.5 -7t-5.5 -24v-13h-149v13q0 47 14.5 80t39 48.5t49.5 22t54 6.5q40 0 101 -18l56 -16q46 -12 54 -12q13 0 18.5 7t5.5 24v12h148v-12zM734 0h-301v373
q0 24 -6.5 32.5t-24.5 8.5q-28 0 -46 -12v-402h-301v405l-33 6v184h309v-50q80 65 192 65q44 0 78 -8t56 -19t37.5 -32t23 -37.5t11.5 -46t4.5 -46t0.5 -48.5v-373z" />
    <glyph glyph-name="scaron.alt" horiz-adv-x="634" 
d="M26 786h246l60 -53l59 53h246l-134 -136h-342zM43 7v151q147 -8 221 -8q26 0 36.5 5t10.5 20q0 11 -10 17.5t-41 16.5l-53 18q-90 30 -133.5 71.5t-43.5 119.5q0 60 22 99.5t64.5 59t89 26.5t112.5 7q167 0 268 -27v-161h-178l-9 24h-46q-32 0 -32 -18q0 -11 8 -16
t35 -14l65 -22q95 -32 135 -73.5t40 -116.5q0 -58 -23.5 -98.5t-68.5 -62.5t-100.5 -31t-128.5 -9q-134 0 -240 22z" />
    <glyph glyph-name="uacute.alt" 
d="M699 786l-191 -136h-272l133 136h330zM433 595h301v-595h-276v50q-80 -66 -212 -66q-54 0 -91.5 15t-56.5 35.5t-29.5 57t-12 62t-1.5 68.5v184l-33 6v183h334v-373q0 -24 6.5 -32.5t25.5 -8.5q23 0 45 11v403z" />
    <glyph glyph-name="ucircumflex.alt" 
d="M700 650h-246l-59 54l-60 -54h-246l135 136h342zM433 595h301v-595h-276v50q-80 -66 -212 -66q-54 0 -91.5 15t-56.5 35.5t-29.5 57t-12 62t-1.5 68.5v184l-33 6v183h334v-373q0 -24 6.5 -32.5t25.5 -8.5q23 0 45 11v403z" />
    <glyph glyph-name="udieresis.alt" 
d="M655 648h-228v138h228v-138zM362 786v-138h-228v138h228zM433 595h301v-595h-276v50q-80 -66 -212 -66q-54 0 -91.5 15t-56.5 35.5t-29.5 57t-12 62t-1.5 68.5v184l-33 6v183h334v-373q0 -24 6.5 -32.5t25.5 -8.5q23 0 45 11v403z" />
    <glyph glyph-name="ugrave.alt" 
d="M562 650h-271l-192 136h331zM433 595h301v-595h-276v50q-80 -66 -212 -66q-54 0 -91.5 15t-56.5 35.5t-29.5 57t-12 62t-1.5 68.5v184l-33 6v183h334v-373q0 -24 6.5 -32.5t25.5 -8.5q23 0 45 11v403z" />
    <glyph glyph-name="yacute.alt" horiz-adv-x="785" 
d="M730 4q0 -110 -82 -161t-271 -51q-176 0 -288 28v152q240 -10 252 -10q59 0 74.5 8t15.5 34v8q-40 -4 -61 -4q-154 0 -234.5 71t-80.5 206v310h298v-310q0 -42 10 -61t38 -19q23 0 32 1v389h297v-591zM699 786l-191 -136h-272l133 136h330z" />
    <glyph glyph-name="ydieresis.alt" horiz-adv-x="785" 
d="M730 4q0 -110 -82 -161t-271 -51q-176 0 -288 28v152q240 -10 252 -10q59 0 74.5 8t15.5 34v8q-40 -4 -61 -4q-154 0 -234.5 71t-80.5 206v310h298v-310q0 -42 10 -61t38 -19q23 0 32 1v389h297v-591zM652 648h-228v138h228v-138zM359 786v-138h-228v138h228z" />
    <glyph glyph-name="zcaron.alt" horiz-adv-x="639" 
d="M20 786h246l60 -53l59 53h246l-134 -136h-342zM599 184v-184h-559v162l213 247h-60l-8 -29h-142v215h555v-175l-201 -236h202z" />
    <glyph glyph-name="two.alt" horiz-adv-x="742" 
d="M687 206v-206h-652v90q0 104 20.5 167t65.5 105.5t133 87.5q79 40 98 55t19 34q0 17 -15 23t-64 6q-35 0 -65 -2l-6 -41h-177v199q140 40 317 40q185 0 265.5 -49t80.5 -154q0 -81 -51.5 -135.5t-176.5 -112.5q-86 -40 -104 -55.5t-18 -47.5v-4h330z" />
    <glyph glyph-name="three.alt" horiz-adv-x="734" 
d="M699 210q0 -122 -81.5 -176.5t-270.5 -54.5q-87 0 -175.5 12.5t-136.5 30.5v169q169 -11 267 -11q42 0 56 8.5t14 39.5v7q0 29 -17.5 38.5t-70.5 9.5h-183v178h185q51 0 68.5 9.5t17.5 38.5v7q0 32 -13.5 40.5t-56.5 8.5q-56 0 -85 -1l-6 -39h-176v196q129 43 312 43
q169 0 260.5 -50t91.5 -168v-9q0 -114 -85 -162q44 -22 64.5 -64.5t20.5 -91.5v-9z" />
    <glyph glyph-name="five.alt" horiz-adv-x="724" 
d="M689 235q0 -256 -342 -256q-179 0 -308 36v175q148 -15 216 -15q61 0 83 11t22 46v9q0 30 -21 39.5t-76 9.5h-228l39 453h597v-224h-173l-5 26h-161l-4 -70h24q105 0 172 -13.5t103 -44t49 -70.5t13 -103v-9z" />
    <glyph glyph-name="six.alt" horiz-adv-x="774" 
d="M739 240q0 -131 -85.5 -196t-268.5 -65q-90 0 -156 19t-102.5 47.5t-58 73.5t-27.5 86.5t-6 97.5v133q0 66 6.5 110.5t27.5 89t58 70.5t101 42t154 16q170 0 315 -35v-201h-173l-8 36q-54 2 -82 2q-51 0 -63.5 -11.5t-12.5 -59.5v-14q27 5 69 5q161 0 236.5 -49
t75.5 -179v-18zM417 239v18q0 30 -1.5 41t-8 18.5t-22.5 7.5q-15 0 -27 -3v-79q0 -32 1.5 -45.5t7.5 -23t20 -9.5q20 0 25 16t5 59z" />
    <glyph glyph-name="seven.alt" horiz-adv-x="760" 
d="M727 535l-331 -535h-341l341 545h-158l-6 -35h-173v233h668v-208z" />
    <glyph glyph-name="dotlessj" horiz-adv-x="411" 
d="M356 4q0 -121 -59 -168.5t-193 -47.5q-90 0 -144 12v164q28 -1 52 -1q27 0 35 8t8 33v591h301v-591z" />
    <glyph glyph-name="zero.tab" horiz-adv-x="813" 
d="M777 358q0 -186 -86.5 -282.5t-282.5 -96.5t-282.5 96.5t-86.5 282.5v27q0 186 86.5 282.5t282.5 96.5t282.5 -96.5t86.5 -282.5v-27zM445 358v27q0 109 -6 137t-31 28t-31 -28t-6 -137v-27q0 -109 6 -137t31 -28t31 28t6 137z" />
    <glyph glyph-name="one.tab" horiz-adv-x="813" 
d="M742 0h-672v189l172 9v303l-172 -27v196l265 73h235v-545l172 -9v-189z" />
    <glyph glyph-name="two.tab" horiz-adv-x="813" 
d="M721 0h-652v90q0 104 20.5 167t65.5 105.5t133 87.5q79 40 98 55t19 34q0 17 -15 23t-64 6q-128 0 -248 -8v164q140 40 317 40q185 0 265.5 -49t80.5 -154q0 -81 -51.5 -135.5t-176.5 -112.5q-86 -40 -104 -55.5t-18 -47.5v-4h330v-206z" />
    <glyph glyph-name="three.tab" horiz-adv-x="813" 
d="M739 210q0 -122 -81.5 -176.5t-270.5 -54.5q-87 0 -175.5 12.5t-136.5 30.5v168q122 -10 267 -10q42 0 56 8.5t14 39.5v7q0 29 -17.5 38.5t-70.5 9.5h-183v178h185q51 0 68.5 9.5t17.5 38.5v7q0 32 -13.5 40.5t-56.5 8.5q-141 0 -267 -8v164q129 43 312 43
q169 0 260.5 -50t91.5 -168v-9q0 -114 -85 -162q44 -22 64.5 -64.5t20.5 -91.5v-9z" />
    <glyph glyph-name="four.tab" horiz-adv-x="813" 
d="M771 136h-77v-136h-329v136h-325v170l414 437h240v-421h77v-186zM387 322v135l-114 -135h114z" />
    <glyph glyph-name="five.tab" horiz-adv-x="813" 
d="M734 235q0 -256 -342 -256q-179 0 -308 36v169q126 -9 216 -9q60 0 79.5 11t19.5 46v9q0 30 -18.5 39.5t-72.5 9.5h-228l39 453h597v-198h-339l-4 -70h24q105 0 172 -13.5t103 -44t49 -70.5t13 -103v-9z" />
    <glyph glyph-name="seven.tab" horiz-adv-x="813" 
d="M751 535l-331 -535h-341l341 545h-337v198h668v-208z" />
    <glyph glyph-name="six.tab" horiz-adv-x="813" 
d="M758 240q0 -131 -85.5 -196t-268.5 -65q-90 0 -156 19t-102.5 47.5t-58 73.5t-27.5 86.5t-6 97.5v133q0 66 6.5 110.5t27.5 89t58 70.5t101 42t154 16q170 0 315 -35v-172q-152 9 -263 9q-51 0 -63.5 -11.5t-12.5 -59.5v-14q27 5 69 5q161 0 236.5 -49t75.5 -179v-18z
M436 239v18q0 30 -1.5 41t-8 18.5t-22.5 7.5q-15 0 -27 -3v-79q0 -32 1.5 -45.5t7.5 -23t20 -9.5q20 0 25 16t5 59z" />
    <glyph glyph-name="eight.tab" horiz-adv-x="813" 
d="M773 211q0 -57 -17 -98.5t-47 -67t-77 -40.5t-99.5 -20.5t-123.5 -5.5h-8q-71 0 -123 5.5t-99.5 20.5t-77 40.5t-46.5 67t-17 98.5v6q0 106 83 162q-82 58 -82 161v7q0 127 86.5 172t275.5 45h8q189 0 275.5 -45t86.5 -172v-7q0 -104 -81 -161q83 -56 83 -162v-6z
M452 217v6q0 45 -9 61.5t-34 16.5h-8q-25 0 -33.5 -16.5t-8.5 -61.5v-6q0 -33 9 -47.5t33 -14.5h8q25 0 34 14.5t9 47.5zM450 527v7q0 27 -8.5 40t-32.5 13h-8q-24 0 -32.5 -13t-8.5 -40v-7q0 -34 8 -49t33 -15h8q25 0 33 15t8 49z" />
    <glyph glyph-name="nine.tab" horiz-adv-x="813" 
d="M757 314q0 -65 -6.5 -110t-27.5 -90.5t-58 -73t-101 -44.5t-154 -17q-172 0 -315 35v172q155 -9 273 -9q43 0 54.5 12.5t11.5 58.5v14q-27 -5 -69 -5q-160 0 -236 50t-76 178v18q0 129 85.5 195t268.5 66q90 0 155.5 -18t102.5 -45.5t58.5 -71t27.5 -83.5t6 -94v-138z
M434 422v79q0 25 -0.5 35.5t-3 22.5t-9 16t-17.5 4q-21 0 -25.5 -15.5t-4.5 -59.5v-18q0 -41 5 -54t27 -13q16 0 28 3z" />
    <glyph glyph-name="dieresisacute" horiz-adv-x="878" 
d="M235 648h-203v138h203v-138zM245 648l85 138h305l-143 -138h-247zM846 648h-203v138h203v-138z" />
    <glyph glyph-name="middot" horiz-adv-x="341" 
d="M308 269h-276v197h276v-197z" />
    <glyph glyph-name="dieresisgrave" horiz-adv-x="878" 
d="M846 648h-203v138h203v-138zM548 786l85 -138h-247l-143 138h305zM235 648h-203v138h203v-138z" />
    <glyph glyph-name="threequartersemdash" horiz-adv-x="499" 
d="M466 188h-434v157h434v-157z" />
    <glyph glyph-name="overscore" horiz-adv-x="757" 
d="M724 814h-692v127h692v-127z" />
    <glyph glyph-name="franc.taboldstyle" horiz-adv-x="720" 
d="M419 0h-327v86h-60v105h60v474h595v-193h-268v-52h268v-176h-268v-53h128v-105h-128v-86z" />
    <glyph glyph-name="lira.taboldstyle" horiz-adv-x="652" 
d="M619 646v-169q-86 3 -141 3q-58 0 -73 -9.5t-15 -42.5v-15h130v-70h-130v-48h130v-71h-130v-5q0 -21 -7 -38h236v-181h-565v142q24 19 33.5 35t9.5 43v4h-65v71h65v48h-65v70h65v13q0 129 71.5 184t214.5 55q133 0 236 -19z" />
    <glyph glyph-name="currency.taboldstyle" horiz-adv-x="684" 
d="M651 127l-98 -89l-85 79q-58 -29 -122 -29q-65 0 -125 30l-91 -84l-97 89l91 84q-31 52 -31 115q0 61 31 113l-92 85l98 88l90 -84q58 31 126 31q69 0 123 -30l86 80l97 -90l-87 -79q35 -57 35 -115q0 -61 -35 -116zM451 322q0 50 -29.5 75t-76.5 25q-48 0 -77.5 -24.5
t-29.5 -75.5q0 -50 30.5 -75t76.5 -25q45 0 75.5 25t30.5 75z" />
    <glyph glyph-name="peseta.taboldstyle" horiz-adv-x="860" 
d="M376 0h-295v345h-49v147h49v156q153 16 307 16q78 0 136 -7t112.5 -24.5t89 -53t46.5 -87.5h56v-147h-57q-14 -51 -47.5 -85.5t-82.5 -51.5t-98.5 -24t-111.5 -7q-27 0 -55 1v-178zM483 418v10q0 24 -13.5 33t-49.5 9q-26 0 -44 -2v-92q22 -2 44 -2q34 0 48.5 10t14.5 34
z" />
    <glyph glyph-name="commaaccent.alt" horiz-adv-x="426" 
d="M394 806l-68 -139h-294l105 139h257z" />
    <glyph glyph-name="undercommaaccent" horiz-adv-x="434" 
d="M402 -56l-110 -138h-260l74 138h296z" />
    <glyph glyph-name="DieresisAcute" horiz-adv-x="878" 
d="M235 780h-203v138h203v-138zM245 780l85 138h305l-143 -138h-247zM846 780h-203v138h203v-138z" />
    <glyph glyph-name="DieresisGrave" horiz-adv-x="878" 
d="M846 780h-203v138h203v-138zM633 780h-247l-143 138h305zM235 780h-203v138h203v-138z" />
    <glyph glyph-name="cyrBreve" horiz-adv-x="598" 
d="M565 810q-8 -52 -39.5 -87.5t-76.5 -50.5t-80 -20.5t-70 -5.5t-69.5 5.5t-79.5 20.5t-77.5 50.5t-40.5 87.5h153q12 -54 114 -54q103 0 115 54h151z" />
    <glyph glyph-name="cyrFlex" horiz-adv-x="598" 
d="M565 648h-151q-12 54 -115 54q-102 0 -114 -54h-153q8 52 40.5 87.5t77.5 50.5t79.5 20.5t69.5 5.5t70 -5.5t79.5 -20.5t76.5 -50.5t40 -87.5z" />
    <glyph glyph-name="dblGrave" horiz-adv-x="867" 
d="M834 650h-238l-192 136h298zM329 786l133 -136h-238l-192 136h297z" />
    <glyph glyph-name="cyrbreve" horiz-adv-x="598" 
d="M565 810q-8 -52 -40 -87.5t-76.5 -50.5t-79.5 -20.5t-70 -5.5t-69.5 5.5t-79.5 20.5t-77.5 50.5t-40.5 87.5h153q12 -54 114 -54q103 0 115 54h151z" />
    <glyph glyph-name="cyrflex" horiz-adv-x="598" 
d="M565 648h-151q-12 54 -115 54q-102 0 -114 -54h-153q8 52 40.5 87.5t77.5 50.5t79.5 20.5t69.5 5.5t70 -5.5t79.5 -20.5t76.5 -50.5t40 -87.5z" />
    <glyph glyph-name="dblgrave" horiz-adv-x="867" 
d="M834 650h-238l-192 136h298zM329 786l133 -136h-238l-192 136h297z" />
    <glyph glyph-name="T_h.caron" horiz-adv-x="1394" 
d="M561 789h-342l-135 136h246l60 -53l59 53h246zM1339 0h-301v373q0 24 -6 32.5t-24 8.5q-23 0 -47 -11v-403h-301v540h-114v-540h-330v540h-196v203h941v-166q70 33 159 33q45 0 79.5 -7.5t57.5 -18.5t39 -31t24.5 -37t12.5 -45t5 -47t1 -51v-373z" />
    <glyph glyph-name="T_h.commaaccent" horiz-adv-x="1394" 
d="M532 -56l-105 -138h-257l68 138h294zM1339 0h-301v373q0 24 -6 32.5t-24 8.5q-23 0 -47 -11v-403h-301v540h-114v-540h-330v540h-196v203h941v-166q70 33 159 33q45 0 79.5 -7.5t57.5 -18.5t39 -31t24.5 -37t12.5 -45t5 -47t1 -51v-373z" />
    <glyph glyph-name="i.dot" horiz-adv-x="411" 
d="M356 0h-301v595h301v-595zM363 644h-315v142h315v-142z" />
    <glyph glyph-name="Amacron.alt" horiz-adv-x="875" 
d="M691 789h-507v136h507v-136zM15 0l111 547l-42 6v190h619l157 -743h-343l-16 119h-128l-17 -119h-341zM479 313l-28 173q-7 44 -13 105h-2q-6 -61 -13 -105l-27 -173h83z" />
    <glyph glyph-name="Abreve.alt" horiz-adv-x="875" 
d="M704 943q-8 -52 -39.5 -87.5t-76.5 -50.5t-80 -20.5t-70 -5.5t-69.5 5.5t-79.5 20.5t-77.5 50.5t-40.5 87.5h153q12 -54 114 -54q103 0 115 54h151zM15 0l111 547l-42 6v190h619l157 -743h-343l-16 119h-128l-17 -119h-341zM479 313l-28 173q-7 44 -13 105h-2
q-6 -61 -13 -105l-27 -173h83z" />
    <glyph glyph-name="Aringacute.alt" horiz-adv-x="875" 
d="M860 0h-343l-16 119h-128l-17 -119h-341l111 547l-42 6v190h619zM479 313l-28 173q-7 44 -13 105h-2q-6 -61 -13 -105l-27 -173h83zM619 902q0 -61 -50.5 -99t-130.5 -38t-131 38t-51 99q0 62 51 100t131 38t130.5 -38t50.5 -100zM493 903q0 18 -15 29t-40 11t-40 -11
t-15 -29t15 -29t40 -11t40 11t15 29zM744 1194l-191 -136h-272l133 136h330z" />
    <glyph glyph-name="Aogonek.alt" horiz-adv-x="875" 
d="M860 -191q-101 -27 -224 -27q-171 0 -171 106q0 72 51 114l-15 117h-128l-17 -119h-341l111 547l-42 6v190h619l157 -743q-138 -32 -138 -59q0 -12 10.5 -16t34.5 -4q33 0 93 5v-117zM479 313l-28 173q-7 44 -13 105h-2q-6 -61 -13 -105l-27 -173h83z" />
    <glyph glyph-name="AE.alt" horiz-adv-x="1135" 
d="M1096 0h-605v119h-92l-17 -119h-334l103 541l-40 5v197h985v-202h-276v-74h253v-186h-253v-79h276v-202zM491 313v278h-29q0 -1 -5 -43.5t-8 -61.5l-27 -173h69z" />
    <glyph glyph-name="AEacute.alt" horiz-adv-x="1135" 
d="M1096 0h-605v119h-92l-17 -119h-334l103 541l-40 5v197h985v-202h-276v-74h253v-186h-253v-79h276v-202zM491 313v278h-29q0 -1 -5 -43.5t-8 -61.5l-27 -173h69zM921 925l-191 -136h-272l133 136h330z" />
    <glyph glyph-name="Cacute.alt" horiz-adv-x="705" 
d="M697 925l-191 -136h-272l133 136h330zM670 204v-200q-32 -10 -115 -17.5t-131 -7.5q-208 0 -296 83.5t-88 289.5v40q0 206 88 289t296 83q48 0 131 -7.5t115 -17.5v-234h-180l-7 37h-12q-28 0 -43.5 -4.5t-29 -19t-19 -45t-5.5 -81.5v-40q0 -51 5.5 -82t19.5 -46
t29.5 -19t43.5 -4q48 0 198 3z" />
    <glyph glyph-name="Ccircumflex.alt" horiz-adv-x="705" 
d="M683 789h-246l-59 54l-60 -54h-246l135 136h342zM670 204v-200q-32 -10 -115 -17.5t-131 -7.5q-208 0 -296 83.5t-88 289.5v40q0 206 88 289t296 83q48 0 131 -7.5t115 -17.5v-234h-180l-7 37h-12q-28 0 -43.5 -4.5t-29 -19t-19 -45t-5.5 -81.5v-40q0 -51 5.5 -82
t19.5 -46t29.5 -19t43.5 -4q48 0 198 3z" />
    <glyph glyph-name="Ccaron.alt" horiz-adv-x="705" 
d="M82 925h246l60 -53l59 53h246l-134 -136h-342zM670 204v-200q-32 -10 -115 -17.5t-131 -7.5q-208 0 -296 83.5t-88 289.5v40q0 206 88 289t296 83q48 0 131 -7.5t115 -17.5v-234h-180l-7 37h-12q-28 0 -43.5 -4.5t-29 -19t-19 -45t-5.5 -81.5v-40q0 -51 5.5 -82t19.5 -46
t29.5 -19t43.5 -4q48 0 198 3z" />
    <glyph glyph-name="Cdotaccent.alt" horiz-adv-x="705" 
d="M536 789h-316v136h316v-136zM670 204v-200q-32 -10 -115 -17.5t-131 -7.5q-208 0 -296 83.5t-88 289.5v40q0 206 88 289t296 83q48 0 131 -7.5t115 -17.5v-234h-180l-7 37h-12q-28 0 -43.5 -4.5t-29 -19t-19 -45t-5.5 -81.5v-40q0 -51 5.5 -82t19.5 -46t29.5 -19t43.5 -4
q48 0 198 3z" />
    <glyph glyph-name="Dcaron.alt" horiz-adv-x="835" 
d="M103 925h246l60 -53l59 53h246l-134 -136h-342zM55 0v551l-43 6v186q155 21 371 21q217 0 314.5 -83t97.5 -295v-23q0 -111 -24.5 -185.5t-77.5 -118t-127.5 -62t-182.5 -18.5q-171 0 -328 21zM473 363v23q0 113 -10 138.5t-62 25.5h-28v-357h28q52 0 62 27.5t10 142.5z
" />
    <glyph glyph-name="Dcroat.alt" horiz-adv-x="835" 
d="M795 363q0 -111 -24.5 -185.5t-77.5 -118t-127.5 -62t-182.5 -18.5q-171 0 -328 21v284h-46v183h46v84l-43 6v186q155 21 371 21q217 0 314.5 -83t97.5 -295v-23zM473 363v23q0 113 -10 138.5t-62 25.5h-28v-83h50v-183h-50v-91h28q52 0 62 27.5t10 142.5z" />
    <glyph glyph-name="Ecaron.alt" horiz-adv-x="701" 
d="M61 925h246l60 -53l59 53h246l-134 -136h-342zM661 541h-276v-74h254v-186h-254v-79h276v-202h-606v548l-34 5v190h640v-202z" />
    <glyph glyph-name="Emacron.alt" horiz-adv-x="701" 
d="M604 789h-507v136h507v-136zM661 541h-276v-74h254v-186h-254v-79h276v-202h-606v548l-34 5v190h640v-202z" />
    <glyph glyph-name="Ebreve.alt" horiz-adv-x="701" 
d="M626 943q-8 -52 -39.5 -87.5t-76.5 -50.5t-80 -20.5t-70 -5.5t-69.5 5.5t-79.5 20.5t-77.5 50.5t-40.5 87.5h153q12 -54 114 -54q103 0 115 54h151zM661 541h-276v-74h254v-186h-254v-79h276v-202h-606v548l-34 5v190h640v-202z" />
    <glyph glyph-name="Edotaccent.alt" horiz-adv-x="701" 
d="M524 789h-316v136h316v-136zM661 541h-276v-74h254v-186h-254v-79h276v-202h-606v548l-34 5v190h640v-202z" />
    <glyph glyph-name="Eogonek.alt" horiz-adv-x="701" 
d="M661 -191q-101 -27 -210 -27q-185 0 -185 100q0 89 162 118h-373v548l-34 5v190h640v-202h-276v-74h254v-186h-254v-79h276v-202q-138 -32 -138 -59q0 -12 10.5 -16t34.5 -4q33 0 93 5v-117z" />
    <glyph glyph-name="Gcircumflex.alt" horiz-adv-x="811" 
d="M721 789h-246l-59 54l-60 -54h-246l135 136h342zM756 7q-159 -28 -339 -28q-65 0 -114.5 7.5t-101 31t-85 63t-55 109t-21.5 164.5v36q0 72 12 129t31.5 95.5t50.5 66.5t62 44t73 25t77 11.5t80 2.5q165 0 324 -37v-221h-175l-9 35q-11 0 -36.5 0.5t-34.5 0.5
q-57 0 -82 -9t-38 -41t-13 -102v-36q0 -96 10 -126t47 -30q26 0 40 2v64l-38 7v149h335v-413z" />
    <glyph glyph-name="Gbreve.alt" horiz-adv-x="811" 
d="M683 953q-8 -52 -39.5 -87.5t-76.5 -50.5t-80 -20.5t-70 -5.5t-69.5 5.5t-79.5 20.5t-77.5 50.5t-40.5 87.5h153q12 -54 114 -54q103 0 115 54h151zM756 7q-159 -28 -339 -28q-65 0 -114.5 7.5t-101 31t-85 63t-55 109t-21.5 164.5v36q0 72 12 129t31.5 95.5t50.5 66.5
t62 44t73 25t77 11.5t80 2.5q165 0 324 -37v-221h-175l-9 35q-11 0 -36.5 0.5t-34.5 0.5q-57 0 -82 -9t-38 -41t-13 -102v-36q0 -96 10 -126t47 -30q26 0 40 2v64l-38 7v149h335v-413z" />
    <glyph glyph-name="Gdotaccent.alt" horiz-adv-x="811" 
d="M577 789h-316v136h316v-136zM756 7q-159 -28 -339 -28q-65 0 -114.5 7.5t-101 31t-85 63t-55 109t-21.5 164.5v36q0 72 12 129t31.5 95.5t50.5 66.5t62 44t73 25t77 11.5t80 2.5q165 0 324 -37v-221h-175l-9 35q-11 0 -36.5 0.5t-34.5 0.5q-57 0 -82 -9t-38 -41t-13 -102
v-36q0 -96 10 -126t47 -30q26 0 40 2v64l-38 7v149h335v-413z" />
    <glyph glyph-name="Gcommaaccent.alt" horiz-adv-x="811" 
d="M589 -56l-105 -138h-257l68 138h294zM756 7q-159 -28 -339 -28q-65 0 -114.5 7.5t-101 31t-85 63t-55 109t-21.5 164.5v36q0 72 12 129t31.5 95.5t50.5 66.5t62 44t73 25t77 11.5t80 2.5q165 0 324 -37v-221h-175l-9 35q-11 0 -36.5 0.5t-34.5 0.5q-57 0 -82 -9t-38 -41
t-13 -102v-36q0 -96 10 -126t47 -30q26 0 40 2v64l-38 7v149h335v-413z" />
    <glyph glyph-name="Hbar.alt" horiz-adv-x="912" 
d="M17 499v36h38v14l-37 4v190h368v-208h140v208h331v-208h38v-36h-38v-499h-331v267h-140v-267h-331v499h-38zM386 481h140v18h-140v-18z" />
    <glyph glyph-name="Hcircumflex.alt" horiz-adv-x="912" 
d="M761 789h-246l-59 54l-60 -54h-246l135 136h342zM857 0h-331v267h-140v-267h-331v549l-37 4v190h368v-262h140v262h331v-743z" />
    <glyph glyph-name="Itilde.alt" horiz-adv-x="470" 
d="M505 944q0 -47 -14.5 -80t-38.5 -48.5t-48 -22t-50 -6.5q-49 0 -109 18l-56 17q-40 11 -50 11q-14 0 -19.5 -7t-5.5 -24v-13h-149v13q0 47 14.5 80t39 48.5t49.5 22t54 6.5q40 0 101 -18l56 -16q46 -12 54 -12q13 0 18.5 7t5.5 24v12h148v-12zM437 0h-404v190l37 4v355
l-37 4v190h404v-190l-37 -4v-355l37 -4v-190z" />
    <glyph glyph-name="Imacron.alt" horiz-adv-x="470" 
d="M487 789h-507v136h507v-136zM437 0h-404v190l37 4v355l-37 4v190h404v-190l-37 -4v-355l37 -4v-190z" />
    <glyph glyph-name="Ibreve.alt" horiz-adv-x="470" 
d="M501 943q-8 -52 -39.5 -87.5t-76.5 -50.5t-80 -20.5t-70 -5.5t-69.5 5.5t-79.5 20.5t-77.5 50.5t-40.5 87.5h153q12 -54 114 -54q103 0 115 54h151zM437 0h-404v190l37 4v355l-37 4v190h404v-190l-37 -4v-355l37 -4v-190z" />
    <glyph glyph-name="Idotaccent.alt" horiz-adv-x="470" 
d="M394 789h-316v136h316v-136zM437 0h-404v190l37 4v355l-37 4v190h404v-190l-37 -4v-355l37 -4v-190z" />
    <glyph glyph-name="Iogonek.alt" horiz-adv-x="470" 
d="M437 0q-147 -32 -147 -59q0 -12 10.5 -16t34.5 -4q33 0 93 5v-117q-101 -27 -210 -27q-185 0 -185 100q0 89 162 118h-162v190l37 4v355l-37 4v190h404v-190l-37 -4v-355l37 -4v-190z" />
    <glyph glyph-name="IJ.alt" horiz-adv-x="930" 
d="M437 0h-404v190l37 4v355l-37 4v190h404v-190l-37 -4v-355l37 -4v-190zM897 553l-37 -4v-527q0 -124 -67 -178t-198 -54q-86 0 -137 11v164h32q25 0 32.5 8.5t7.5 33.5v542l-37 4v190h404v-190z" />
    <glyph glyph-name="Jcircumflex.alt" horiz-adv-x="470" 
d="M540 789h-246l-59 54l-60 -54h-246l135 136h342zM437 553l-37 -4v-527q0 -124 -67 -178t-198 -54q-86 0 -137 11v164h32q25 0 32.5 8.5t7.5 33.5v542l-37 4v190h404v-190z" />
    <glyph glyph-name="Kcommaaccent.alt" horiz-adv-x="895" 
d="M615 -56l-105 -138h-257l68 138h294zM900 0h-376l-138 329v-329h-331v549l-34 4v190h365v-337l157 337h364l-191 -370z" />
    <glyph glyph-name="Nacute.alt" horiz-adv-x="882" 
d="M750 925l-191 -136h-272l133 136h330zM827 0h-290l-143 207q-18 26 -41 72h-3v-78v-201h-295v549l-37 4v190h317l153 -208q25 -34 44 -79h2q-2 14 -2 84v203h295v-743z" />
    <glyph glyph-name="Ncaron.alt" horiz-adv-x="882" 
d="M133 925h246l60 -53l59 53h246l-134 -136h-342zM827 0h-290l-143 207q-18 26 -41 72h-3v-78v-201h-295v549l-37 4v190h317l153 -208q25 -34 44 -79h2q-2 14 -2 84v203h295v-743z" />
    <glyph glyph-name="Ncommaaccent.alt" horiz-adv-x="882" 
d="M608 -56l-105 -138h-257l68 138h294zM827 0h-290l-143 207q-18 26 -41 72h-3v-78v-201h-295v549l-37 4v190h317l153 -208q25 -34 44 -79h2q-2 14 -2 84v203h295v-743z" />
    <glyph glyph-name="Racute.alt" horiz-adv-x="839" 
d="M695 925l-191 -136h-272l133 136h330zM834 0h-307l-103 235h-29h-28v-235h-312v549l-37 4v190q184 19 375 19q69 0 122 -5.5t107 -22t89 -45t57 -77t22 -114.5v-6q0 -134 -86 -203zM366 426q14 -1 43 -1q41 0 54 14.5t13 46.5v5q0 36 -13 48.5t-56 12.5q-21 0 -41 -1
v-125z" />
    <glyph glyph-name="Rcaron.alt" horiz-adv-x="839" 
d="M114 925h246l60 -53l59 53h246l-134 -136h-342zM834 0h-307l-103 235h-29h-28v-235h-312v549l-37 4v190q184 19 375 19q69 0 122 -5.5t107 -22t89 -45t57 -77t22 -114.5v-6q0 -134 -86 -203zM366 426q14 -1 43 -1q41 0 54 14.5t13 46.5v5q0 36 -13 48.5t-56 12.5
q-21 0 -41 -1v-125z" />
    <glyph glyph-name="Rcommaaccent.alt" horiz-adv-x="839" 
d="M596 -56l-105 -138h-257l68 138h294zM834 0h-307l-103 235h-29h-28v-235h-312v549l-37 4v190q184 19 375 19q69 0 122 -5.5t107 -22t89 -45t57 -77t22 -114.5v-6q0 -134 -86 -203zM366 426q14 -1 43 -1q41 0 54 14.5t13 46.5v5q0 36 -13 48.5t-56 12.5q-21 0 -41 -1v-125
z" />
    <glyph glyph-name="Sacute.alt" horiz-adv-x="738" 
d="M675 925l-191 -136h-272l133 136h330zM379 -21q-191 0 -324 27v181q185 -7 268 -7q58 0 58 31q0 15 -11 22.5t-55 25.5l-79 32q-42 17 -67 29t-54.5 32.5t-45 43t-26 56.5t-10.5 77q0 127 91 181t269 54q143 0 294 -31v-199h-177l-10 33h-87q-61 0 -61 -25
q0 -12 11.5 -20t48.5 -22l72 -28q83 -32 127 -59.5t69 -71.5t25 -109q0 -132 -87.5 -192.5t-238.5 -60.5z" />
    <glyph glyph-name="Scircumflex.alt" horiz-adv-x="738" 
d="M688 789h-246l-59 54l-60 -54h-246l135 136h342zM379 -21q-191 0 -324 27v181q185 -7 268 -7q58 0 58 31q0 15 -11 22.5t-55 25.5l-79 32q-42 17 -67 29t-54.5 32.5t-45 43t-26 56.5t-10.5 77q0 127 91 181t269 54q143 0 294 -31v-199h-177l-10 33h-87q-61 0 -61 -25
q0 -12 11.5 -20t48.5 -22l72 -28q83 -32 127 -59.5t69 -71.5t25 -109q0 -132 -87.5 -192.5t-238.5 -60.5z" />
    <glyph glyph-name="Scedilla.alt" horiz-adv-x="738" 
d="M522 -56l-124 -138h-261l89 138h296zM379 -21q-191 0 -324 27v181q185 -7 268 -7q58 0 58 31q0 15 -11 22.5t-55 25.5l-79 32q-42 17 -67 29t-54.5 32.5t-45 43t-26 56.5t-10.5 77q0 127 91 181t269 54q143 0 294 -31v-199h-177l-10 33h-87q-61 0 -61 -25q0 -12 11.5 -20
t48.5 -22l72 -28q83 -32 127 -59.5t69 -71.5t25 -109q0 -132 -87.5 -192.5t-238.5 -60.5z" />
    <glyph glyph-name="Scommaaccent.alt" horiz-adv-x="738" 
d="M55 6v181q185 -7 268 -7q58 0 58 31q0 15 -11 22.5t-55 25.5l-79 32q-42 17 -67 29t-54.5 32.5t-45 43t-26 56.5t-10.5 77q0 127 91 181t269 54q143 0 294 -31v-199h-177l-10 33h-87q-61 0 -61 -25q0 -12 11.5 -20t48.5 -22l72 -28q83 -32 127 -59.5t69 -71.5t25 -109
q0 -132 -87.5 -192.5t-238.5 -60.5q-191 0 -324 27zM563 -56l-105 -138h-257l68 138h294z" />
    <glyph glyph-name="Utilde.alt" horiz-adv-x="860" 
d="M700 944q0 -47 -14.5 -80t-38.5 -48.5t-48 -22t-50 -6.5q-49 0 -109 18l-56 17q-40 11 -50 11q-14 0 -19.5 -7t-5.5 -24v-13h-149v13q0 47 14.5 80t39 48.5t49.5 22t54 6.5q40 0 101 -18l56 -16q46 -12 54 -12q13 0 18.5 7t5.5 24v12h148v-12zM810 291
q0 -155 -101 -233.5t-279 -78.5t-279 78.5t-101 233.5v258l-37 4v190h361v-452q0 -59 10.5 -79t45.5 -20q36 0 46.5 20t10.5 79v452h323v-452z" />
    <glyph glyph-name="Umacron.alt" horiz-adv-x="860" 
d="M683 789h-507v136h507v-136zM810 291q0 -155 -101 -233.5t-279 -78.5t-279 78.5t-101 233.5v258l-37 4v190h361v-452q0 -59 10.5 -79t45.5 -20q36 0 46.5 20t10.5 79v452h323v-452z" />
    <glyph glyph-name="Ubreve.alt" horiz-adv-x="860" 
d="M696 943q-8 -52 -39.5 -87.5t-76.5 -50.5t-80 -20.5t-70 -5.5t-69.5 5.5t-79.5 20.5t-77.5 50.5t-40.5 87.5h153q12 -54 114 -54q103 0 115 54h151zM810 291q0 -155 -101 -233.5t-279 -78.5t-279 78.5t-101 233.5v258l-37 4v190h361v-452q0 -59 10.5 -79t45.5 -20
q36 0 46.5 20t10.5 79v452h323v-452z" />
    <glyph glyph-name="Uring.alt" horiz-adv-x="860" 
d="M612 916q0 -61 -50.5 -99t-130.5 -38t-131 38t-51 99q0 62 51 100t131 38t130.5 -38t50.5 -100zM486 917q0 18 -15 29t-40 11t-40 -11t-15 -29t15 -29t40 -11t40 11t15 29zM810 291q0 -155 -101 -233.5t-279 -78.5t-279 78.5t-101 233.5v258l-37 4v190h361v-452
q0 -59 10.5 -79t45.5 -20q36 0 46.5 20t10.5 79v452h323v-452z" />
    <glyph glyph-name="Uhungarumlaut.alt" horiz-adv-x="860" 
d="M928 925l-191 -136h-239l133 136h297zM259 925h297l-191 -136h-239zM810 291q0 -155 -101 -233.5t-279 -78.5t-279 78.5t-101 233.5v258l-37 4v190h361v-452q0 -59 10.5 -79t45.5 -20q36 0 46.5 20t10.5 79v452h323v-452z" />
    <glyph glyph-name="Uogonek.alt" horiz-adv-x="860" 
d="M631 -191q-101 -27 -210 -27q-92 0 -138.5 24t-46.5 82q0 67 75 101q-124 23 -192.5 99t-68.5 203v258l-37 4v190h361v-452q0 -59 10.5 -79t45.5 -20q36 0 46.5 20t10.5 79v452h323v-452q0 -129 -69.5 -205t-196.5 -98q-51 -21 -51 -47q0 -20 45 -20q33 0 93 5v-117z" />
    <glyph glyph-name="Zacute.alt" horiz-adv-x="708" 
d="M667 925l-191 -136h-272l133 136h330zM663 209v-209h-618v192l225 342h-50l-9 -32h-165v241h616v-197l-225 -337h226z" />
    <glyph glyph-name="Zdotaccent.alt" horiz-adv-x="708" 
d="M513 789h-316v136h316v-136zM663 209v-209h-618v192l225 342h-50l-9 -32h-165v241h616v-197l-225 -337h226z" />
    <glyph glyph-name="Eng.alt" horiz-adv-x="882" 
d="M827 22q0 -124 -67 -178t-198 -54q-86 0 -137 11v164h32q25 0 32.5 8.5t7.5 33.5v51l-103 149q-18 26 -41 72h-3v-73v-206h-295v549l-37 4v190h317l153 -208q25 -34 44 -79h2q-2 14 -2 84v203h295v-721z" />
    <glyph glyph-name="amacron.alt" horiz-adv-x="706" 
d="M621 650h-507v136h507v-136zM656 0h-269v37q-34 -22 -85.5 -37.5t-100.5 -15.5q-84 0 -127.5 45t-43.5 126v26q0 34 9 60.5t22.5 44t38.5 30t48 19.5t59.5 10.5t65.5 4.5t73 1h9v22q0 29 -12 37t-56 8h-20l-10 -29h-176v174q146 47 285 47q141 0 215.5 -52t74.5 -185
v-373zM371 152v84h-22q-21 0 -30 -7.5t-9 -33.5v-18q0 -32 25 -32q19 0 36 7z" />
    <glyph glyph-name="abreve.alt" horiz-adv-x="706" 
d="M646 810q-8 -52 -39.5 -87.5t-76.5 -50.5t-80 -20.5t-70 -5.5t-69.5 5.5t-79.5 20.5t-77.5 50.5t-40.5 87.5h153q12 -54 114 -54q103 0 115 54h151zM656 0h-269v37q-34 -22 -85.5 -37.5t-100.5 -15.5q-84 0 -127.5 45t-43.5 126v26q0 34 9 60.5t22.5 44t38.5 30t48 19.5
t59.5 10.5t65.5 4.5t73 1h9v22q0 29 -12 37t-56 8h-20l-10 -29h-176v174q146 47 285 47q141 0 215.5 -52t74.5 -185v-373zM371 152v84h-22q-21 0 -30 -7.5t-9 -33.5v-18q0 -32 25 -32q19 0 36 7z" />
    <glyph glyph-name="aringacute.alt" horiz-adv-x="706" 
d="M656 0h-269v37q-34 -22 -85.5 -37.5t-100.5 -15.5q-84 0 -127.5 45t-43.5 126v26q0 34 9 60.5t22.5 44t38.5 30t48 19.5t59.5 10.5t65.5 4.5t73 1h9v22q0 29 -12 37t-56 8h-20l-10 -29h-176v174q146 47 285 47q141 0 215.5 -52t74.5 -185v-373zM371 152v84h-22
q-21 0 -30 -7.5t-9 -33.5v-18q0 -32 25 -32q19 0 36 7zM545 767q0 -61 -50.5 -99t-130.5 -38t-131 38t-51 99q0 62 51 100t131 38t130.5 -38t50.5 -100zM419 768q0 18 -15 29t-40 11t-40 -11t-15 -29t15 -29t40 -11t40 11t15 29zM677 1054l-191 -136h-272l133 136h330z" />
    <glyph glyph-name="aogonek.alt" horiz-adv-x="706" 
d="M656 -191q-101 -27 -218 -27q-94 0 -135.5 23t-41.5 77q0 81 126 119v36q-34 -22 -85.5 -37.5t-100.5 -15.5q-84 0 -127.5 45t-43.5 126v26q0 34 9 60.5t22.5 44t38.5 30t48 19.5t59.5 10.5t65.5 4.5t73 1h9v22q0 29 -12 37t-56 8h-20l-10 -29h-176v174q146 47 285 47
q141 0 215.5 -52t74.5 -185v-373q-138 -32 -138 -59q0 -12 10.5 -16t34.5 -4q33 0 93 5v-117zM371 152v84h-22q-21 0 -30 -7.5t-9 -33.5v-18q0 -32 25 -32q19 0 36 7z" />
    <glyph glyph-name="ae.alt" horiz-adv-x="1044" 
d="M1019 234h-368v-6q0 -39 13.5 -50.5t69.5 -11.5q187 0 248 3v-158q-119 -26 -286 -26q-168 0 -243 66q-58 -39 -116 -52.5t-136 -13.5q-84 0 -127.5 44.5t-43.5 125.5v26q0 34 9 60.5t22.5 44t38.5 30t48 19.5t59.5 10.5t65.5 4.5t73 1h8v22q0 15 -2 23t-13.5 15t-33.5 7
h-38l-10 -29h-176v174q146 47 285 47q98 0 162 -24q68 24 164 24q83 0 145 -20.5t96 -51t54.5 -73t26 -78t5.5 -75.5v-78zM733 353v6q0 42 -9.5 57t-32.5 15q-22 0 -31 -15.5t-9 -56.5v-6h82zM369 152v84h-20q-21 0 -30 -7.5t-9 -33.5v-18q0 -32 24 -32q17 0 35 7z" />
    <glyph glyph-name="aeacute.alt" horiz-adv-x="1044" 
d="M1019 234h-368v-6q0 -39 13.5 -50.5t69.5 -11.5q187 0 248 3v-158q-119 -26 -286 -26q-168 0 -243 66q-58 -39 -116 -52.5t-136 -13.5q-84 0 -127.5 44.5t-43.5 125.5v26q0 34 9 60.5t22.5 44t38.5 30t48 19.5t59.5 10.5t65.5 4.5t73 1h8v22q0 15 -2 23t-13.5 15t-33.5 7
h-38l-10 -29h-176v174q146 47 285 47q98 0 162 -24q68 24 164 24q83 0 145 -20.5t96 -51t54.5 -73t26 -78t5.5 -75.5v-78zM733 353v6q0 42 -9.5 57t-32.5 15q-22 0 -31 -15.5t-9 -56.5v-6h82zM369 152v84h-20q-21 0 -30 -7.5t-9 -33.5v-18q0 -32 24 -32q17 0 35 7zM854 786
l-191 -136h-272l133 136h330z" />
    <glyph glyph-name="cacute.alt" horiz-adv-x="616" 
d="M650 786l-191 -136h-272l133 136h330zM581 10q-117 -26 -240 -26q-159 0 -232.5 71t-73.5 222v41q0 154 73 223t233 69q139 0 240 -26v-204h-165l-8 29h-14q-37 0 -49 -16t-12 -75v-41q0 -60 13 -76.5t56 -16.5q32 0 179 5v-179z" />
    <glyph glyph-name="ccircumflex.alt" horiz-adv-x="616" 
d="M653 650h-246l-59 54l-60 -54h-246l135 136h342zM581 10q-117 -26 -240 -26q-159 0 -232.5 71t-73.5 222v41q0 154 73 223t233 69q139 0 240 -26v-204h-165l-8 29h-14q-37 0 -49 -16t-12 -75v-41q0 -60 13 -76.5t56 -16.5q32 0 179 5v-179z" />
    <glyph glyph-name="ccaron.alt" horiz-adv-x="616" 
d="M42 786h246l60 -53l59 53h246l-134 -136h-342zM581 10q-117 -26 -240 -26q-159 0 -232.5 71t-73.5 222v41q0 154 73 223t233 69q139 0 240 -26v-204h-165l-8 29h-14q-37 0 -49 -16t-12 -75v-41q0 -60 13 -76.5t56 -16.5q32 0 179 5v-179z" />
    <glyph glyph-name="cdotaccent.alt" horiz-adv-x="616" 
d="M490 650h-316v136h316v-136zM581 10q-117 -26 -240 -26q-159 0 -232.5 71t-73.5 222v41q0 154 73 223t233 69q139 0 240 -26v-204h-165l-8 29h-14q-37 0 -49 -16t-12 -75v-41q0 -60 13 -76.5t56 -16.5q32 0 179 5v-179z" />
    <glyph glyph-name="dcaron.alt" horiz-adv-x="1032" 
d="M1066 786l-126 -289h-200l79 289h247zM717 0h-272v31q-74 -47 -173 -47q-112 0 -172 73.5t-60 221.5v40q0 151 74.5 221t232.5 70q41 0 69 -2v31l-33 5v142h334v-786zM420 186v224q-16 2 -30 2q-33 0 -42 -17t-9 -76v-40q0 -62 8 -79t39 -17q20 0 34 3z" />
    <glyph glyph-name="dcroat.alt" horiz-adv-x="772" 
d="M194 619v28h222v12l-33 5v122h334v-139h43v-28h-43v-619h-272v31q-74 -47 -173 -47q-112 0 -172 73.5t-60 221.5v40q0 151 74.5 221t232.5 70q41 0 69 -2v11h-222zM420 186v224q-16 2 -30 2q-33 0 -42 -17t-9 -76v-40q0 -62 8 -79t39 -17q20 0 34 3z" />
    <glyph glyph-name="gcircumflex.alt" horiz-adv-x="724" 
d="M703 -16q0 -48 -18.5 -83t-49 -56t-77 -33.5t-94.5 -16.5t-110 -4q-76 0 -132 7.5t-104 26.5t-73 56t-25 91q0 65 53 108q-44 31 -44 79q0 30 18 56.5t50 42.5q-58 44 -58 143q0 50 13 85.5t46.5 65t99 44t163.5 14.5h348v-119l-39 -17q16 -26 16 -73q0 -53 -19 -92.5
t-49 -61.5t-74.5 -35.5t-87 -17.5t-95.5 -4q-50 0 -95 6q-11 -6 -11 -18q0 -17 39 -17h64q196 0 270.5 -36t74.5 -141zM420 -27q0 23 -10.5 31t-52.5 8h-57q-8 -11 -8 -38q0 -25 15.5 -33t49.5 -8q33 0 48 8.5t15 31.5zM400 401q0 29 -8 41t-31 12q-21 0 -28.5 -12t-7.5 -41
q0 -30 8 -42.5t28 -12.5q23 0 31 12t8 43zM675 650h-246l-59 54l-60 -54h-246l135 136h342z" />
    <glyph glyph-name="gbreve.alt" horiz-adv-x="724" 
d="M630 810q-8 -52 -39.5 -87.5t-76.5 -50.5t-80 -20.5t-70 -5.5t-69.5 5.5t-79.5 20.5t-77.5 50.5t-40.5 87.5h153q12 -54 114 -54q103 0 115 54h151zM703 -16q0 -48 -18.5 -83t-49 -56t-77 -33.5t-94.5 -16.5t-110 -4q-76 0 -132 7.5t-104 26.5t-73 56t-25 91q0 65 53 108
q-44 31 -44 79q0 30 18 56.5t50 42.5q-58 44 -58 143q0 50 13 85.5t46.5 65t99 44t163.5 14.5h348v-119l-39 -17q16 -26 16 -73q0 -53 -19 -92.5t-49 -61.5t-74.5 -35.5t-87 -17.5t-95.5 -4q-50 0 -95 6q-11 -6 -11 -18q0 -17 39 -17h64q196 0 270.5 -36t74.5 -141zM420 -27
q0 23 -10.5 31t-52.5 8h-57q-8 -11 -8 -38q0 -25 15.5 -33t49.5 -8q33 0 48 8.5t15 31.5zM400 401q0 29 -8 41t-31 12q-21 0 -28.5 -12t-7.5 -41q0 -30 8 -42.5t28 -12.5q23 0 31 12t8 43z" />
    <glyph glyph-name="gdotaccent.alt" horiz-adv-x="724" 
d="M519 650h-316v136h316v-136zM703 -16q0 -48 -18.5 -83t-49 -56t-77 -33.5t-94.5 -16.5t-110 -4q-76 0 -132 7.5t-104 26.5t-73 56t-25 91q0 65 53 108q-44 31 -44 79q0 30 18 56.5t50 42.5q-58 44 -58 143q0 50 13 85.5t46.5 65t99 44t163.5 14.5h348v-119l-39 -17
q16 -26 16 -73q0 -53 -19 -92.5t-49 -61.5t-74.5 -35.5t-87 -17.5t-95.5 -4q-50 0 -95 6q-11 -6 -11 -18q0 -17 39 -17h64q196 0 270.5 -36t74.5 -141zM420 -27q0 23 -10.5 31t-52.5 8h-57q-8 -11 -8 -38q0 -25 15.5 -33t49.5 -8q33 0 48 8.5t15 31.5zM400 401q0 29 -8 41
t-31 12q-21 0 -28.5 -12t-7.5 -41q0 -30 8 -42.5t28 -12.5q23 0 31 12t8 43z" />
    <glyph glyph-name="gcommaaccent.alt" horiz-adv-x="724" 
d="M703 -16q0 -48 -18.5 -83t-49 -56t-77 -33.5t-94.5 -16.5t-110 -4q-76 0 -132 7.5t-104 26.5t-73 56t-25 91q0 65 53 108q-44 31 -44 79q0 30 18 56.5t50 42.5q-58 44 -58 143q0 50 13 85.5t46.5 65t99 44t163.5 14.5h348v-119l-39 -17q16 -26 16 -73q0 -53 -19 -92.5
t-49 -61.5t-74.5 -35.5t-87 -17.5t-95.5 -4q-50 0 -95 6q-11 -6 -11 -18q0 -17 39 -17h64q196 0 270.5 -36t74.5 -141zM420 -27q0 23 -10.5 31t-52.5 8h-57q-8 -11 -8 -38q0 -25 15.5 -33t49.5 -8q33 0 48 8.5t15 31.5zM400 401q0 29 -8 41t-31 12q-21 0 -28.5 -12t-7.5 -41
q0 -30 8 -42.5t28 -12.5q23 0 31 12t8 43zM217 650l105 139h257l-68 -139h-294z" />
    <glyph glyph-name="hbar.alt" 
d="M22 647h33v10l-33 5v124h334v-139h214v-28h-214v-42q70 33 159 33q45 0 79.5 -7.5t57.5 -18.5t39 -31t24.5 -37t12.5 -45t5 -47t1 -51v-373h-301v373q0 24 -6 32.5t-24 8.5q-23 0 -47 -11v-403h-301v619h-33v28z" />
    <glyph glyph-name="hcircumflex.alt" 
d="M709 809h-246l-59 54l-60 -54h-246l135 136h342zM734 0h-301v373q0 24 -6 32.5t-24 8.5q-23 0 -47 -11v-403h-301v597l-33 5v184h334v-209q70 33 159 33q45 0 79.5 -7.5t57.5 -18.5t39 -31t24.5 -37t12.5 -45t5 -47t1 -51v-373z" />
    <glyph glyph-name="itilde.alt" horiz-adv-x="411" 
d="M356 0h-301v405l-33 6v184h334v-595zM471 802q0 -47 -14.5 -80t-38.5 -48.5t-48 -22t-50 -6.5q-49 0 -109 18l-56 17q-40 11 -50 11q-14 0 -19.5 -7t-5.5 -24v-13h-149v13q0 47 14.5 80t39 48.5t49.5 22t54 6.5q40 0 101 -18l56 -16q46 -12 54 -12q13 0 18.5 7t5.5 24v12
h148v-12z" />
    <glyph glyph-name="imacron.alt" horiz-adv-x="411" 
d="M356 0h-301v405l-33 6v184h334v-595zM460 650h-507v136h507v-136z" />
    <glyph glyph-name="ibreve.alt" horiz-adv-x="411" 
d="M356 0h-301v405l-33 6v184h334v-595zM468 810q-8 -52 -39.5 -87.5t-76.5 -50.5t-80 -20.5t-70 -5.5t-69.5 5.5t-79.5 20.5t-77.5 50.5t-40.5 87.5h153q12 -54 114 -54q103 0 115 54h151z" />
    <glyph glyph-name="iogonek.alt" horiz-adv-x="411" 
d="M405 -191q-101 -27 -210 -27q-96 0 -140.5 25.5t-44.5 86.5q0 62 45 106v405l-33 6v184h334v-595q-40 -9 -61 -21t-24.5 -19.5t-3.5 -18.5q0 -12 10.5 -16t34.5 -4q33 0 93 5v-117zM363 644h-315v142h315v-142z" />
    <glyph glyph-name="ij.alt" horiz-adv-x="832" 
d="M356 0h-301v405l-33 6v184h334v-595zM363 644h-315v142h315v-142zM777 4q0 -121 -59 -168.5t-193 -47.5q-90 0 -144 12v164q28 -1 52 -1q27 0 35 8t8 33v403l-33 4v184h334v-591zM784 644h-315v142h315v-142z" />
    <glyph glyph-name="ij.alt2" horiz-adv-x="832" 
d="M356 0h-301v405l-33 6v184h334v-595zM363 644h-315v142h315v-142zM777 4q0 -121 -59 -168.5t-193 -47.5q-90 0 -144 12v164q28 -1 52 -1q27 0 35 8t8 33v591h301v-591zM784 644h-315v142h315v-142z" />
    </font>
</defs>
</svg>
